<?xml version="1.0" standalone="no"?>
<!DOCTYPE svg PUBLIC "-//W3C//DTD SVG 20010904//EN"
 "http://www.w3.org/TR/2001/REC-SVG-20010904/DTD/svg10.dtd">
<svg version="1.0" xmlns="http://www.w3.org/2000/svg"
 width="784.000000pt" height="784.000000pt" viewBox="0 0 784.000000 784.000000"
 preserveAspectRatio="xMidYMid meet">
<metadata>
Created by potrace 1.11, written by Peter Selinger 2001-2013
</metadata>
<g transform="translate(0.000000,784.000000) scale(0.100000,-0.100000)"
fill="#000000" stroke="none">
<path d="M3817 7464 c-1 -1 -49 -4 -107 -8 -98 -6 -127 -9 -205 -21 -16 -3
-48 -7 -70 -10 -22 -4 -78 -15 -125 -26 -47 -11 -93 -22 -102 -24 -43 -9 -150
-42 -223 -67 -44 -16 -84 -30 -90 -32 -115 -37 -386 -174 -538 -273 -241 -157
-489 -379 -653 -584 -32 -41 -61 -76 -65 -79 -13 -12 -122 -176 -178 -268
-140 -233 -271 -564 -320 -812 -6 -30 -14 -66 -17 -80 -27 -128 -41 -312 -38
-525 1 -126 4 -239 7 -250 3 -11 8 -45 12 -75 74 -590 361 -1162 800 -1594
120 -118 378 -326 404 -326 6 0 11 -4 11 -10 0 -5 5 -10 10 -10 6 0 16 -5 23
-10 35 -30 151 -97 274 -159 157 -80 348 -152 544 -206 118 -32 136 -39 235
-88 174 -85 316 -220 417 -397 14 -25 49 -112 77 -195 85 -248 169 -385 334
-550 210 -208 452 -334 751 -389 143 -27 488 -27 630 0 286 53 533 179 733
373 166 161 275 335 346 552 51 156 63 258 65 534 l2 241 -134 1 c-221 2 -346
24 -512 93 -151 63 -275 147 -390 265 -139 142 -233 301 -287 485 -42 146 -46
215 -46 1050 0 438 -3 821 -7 851 -56 462 -337 865 -755 1082 -106 55 -288
120 -370 132 -24 4 -47 8 -50 10 -26 16 -305 24 -415 12 -421 -47 -804 -281
-1042 -637 -160 -239 -235 -503 -227 -795 2 -66 5 -129 7 -140 3 -11 8 -40 12
-65 57 -357 297 -715 619 -925 155 -100 382 -189 538 -210 15 -2 35 -6 45 -9
10 -3 72 -8 138 -11 66 -3 136 -10 155 -15 84 -23 174 -106 199 -183 52 -164
-48 -340 -214 -375 -68 -15 -252 -7 -395 17 -146 24 -204 39 -346 86 -564 188
-1046 660 -1243 1218 -38 109 -78 274 -96 395 -26 182 -14 474 26 657 12 55
47 181 56 205 3 8 7 20 8 25 9 35 74 183 112 255 198 372 496 669 865 863 126
66 358 156 443 171 14 3 58 12 98 20 292 62 613 53 927 -25 652 -163 1212
-683 1407 -1304 50 -159 60 -200 80 -330 2 -16 7 -41 10 -55 3 -14 7 -389 9
-835 2 -445 4 -835 5 -865 6 -176 133 -371 301 -460 105 -56 174 -71 346 -73
l117 -1 0 1099 c0 961 -3 1166 -19 1285 -7 50 -17 105 -21 120 -2 8 -6 33 -10
54 -24 168 -148 519 -251 711 -73 138 -214 359 -261 410 -10 11 -25 29 -33 41
-62 89 -268 299 -405 412 -167 138 -333 246 -535 348 -312 157 -595 242 -960
289 -102 13 -433 28 -443 19z m297 -2464 c115 -54 193 -169 200 -294 2 -43 -1
-71 -17 -131 -2 -5 -13 -29 -25 -51 -45 -88 -134 -154 -237 -176 -160 -36
-296 21 -387 162 -36 56 -51 109 -50 182 1 255 279 421 516 308z"/>
</g>
</svg>
