<svg xmlns="http://www.w3.org/2000/svg" viewBox="0 0 1158 518"><defs><style>.cls-1{fill:#3f3e3e;}.cls-2{fill:none;}</style></defs><title>arial</title><g id="Layer_2" data-name="Layer 2"><g id="Layer_1-2" data-name="Layer 1"><path class="cls-1" d="M431,373.92H379.63l-20.4-53.07H265.82l-19.28,53.07h-50l91-233.67h49.89Zm-86.87-92.45-32.2-86.71-31.56,86.71Z"/><path class="cls-1" d="M489.14,256.29,448.49,249q6.86-24.54,23.59-36.34t49.73-11.8q30,0,44.63,7.09t20.64,18q6,10.9,6,40.08l-.48,52.28q0,22.32,2.16,32.92a95.34,95.34,0,0,0,8,22.71H558.47q-1.76-4.46-4.3-13.23c-.74-2.65-1.27-4.41-1.59-5.26A80.79,80.79,0,0,1,528,372.17a70.3,70.3,0,0,1-27.89,5.58q-26.14,0-41.21-14.19T443.87,327.7a48.13,48.13,0,0,1,6.85-25.58,44.76,44.76,0,0,1,19.21-17.22q12.35-6,35.62-10.44,31.41-5.9,43.52-11V259q0-12.92-6.38-18.41t-24.07-5.5q-12,0-18.64,4.7T489.14,256.29Zm59.93,36.34q-8.61,2.87-27.26,6.86t-24.38,7.81q-8.78,6.21-8.77,15.78a21.92,21.92,0,0,0,7,16.25q7,6.85,17.85,6.86,12.12,0,23.12-8a28.12,28.12,0,0,0,10.68-14.82q1.74-5.75,1.75-21.84Z"/><path class="cls-1" d="M688.57,305.92H677.68l-4.33-11.26H653.53l-4.09,11.26H638.82l19.31-49.57h10.59Zm-18.43-19.61-6.84-18.4-6.69,18.4Z"/><path class="cls-1" d="M702.9,305.92h-9.5V270h8.83v5.1a15.32,15.32,0,0,1,4.07-4.76,7.49,7.49,0,0,1,4.11-1.15,12,12,0,0,1,6.26,1.79l-2.94,8.28a8.39,8.39,0,0,0-4.47-1.55,5.3,5.3,0,0,0-3.38,1.1,7.55,7.55,0,0,0-2.18,4q-.8,2.88-.8,12Z"/><path class="cls-1" d="M720.76,265.14v-8.79h9.5v8.79Zm0,40.78V270h9.5v35.91Z"/><path class="cls-1" d="M747.11,281l-8.63-1.56a13.44,13.44,0,0,1,5-7.71q3.54-2.51,10.55-2.5c4.24,0,7.39.5,9.47,1.5a9.49,9.49,0,0,1,4.38,3.82c.84,1.55,1.26,4.38,1.26,8.51l-.1,11.09a38.78,38.78,0,0,0,.46,7,19.9,19.9,0,0,0,1.71,4.82h-9.4c-.25-.63-.56-1.56-.92-2.8a11.64,11.64,0,0,0-.34-1.12,17,17,0,0,1-5.2,3.55,14.9,14.9,0,0,1-5.92,1.18q-5.55,0-8.74-3a10,10,0,0,1-3.2-7.61,10.22,10.22,0,0,1,1.46-5.43A9.38,9.38,0,0,1,743,287a31.63,31.63,0,0,1,7.56-2.22,51.52,51.52,0,0,0,9.23-2.33v-.95a4.93,4.93,0,0,0-1.35-3.91c-.9-.77-2.61-1.16-5.11-1.16a6.73,6.73,0,0,0-4,1A6.84,6.84,0,0,0,747.11,281Zm12.71,7.71c-1.22.4-3.14.89-5.78,1.45a17.44,17.44,0,0,0-5.18,1.66,4,4,0,0,0-1.86,3.35,4.67,4.67,0,0,0,1.49,3.45,5.24,5.24,0,0,0,3.79,1.45,8.2,8.2,0,0,0,4.9-1.69,6,6,0,0,0,2.27-3.15,18.64,18.64,0,0,0,.37-4.63Z"/><path class="cls-1" d="M778.52,305.92V256.35H788v49.57Z"/><path class="cls-1" d="M817.11,256.35h19.82a56.82,56.82,0,0,1,8.77.49,13,13,0,0,1,5.18,2,12.75,12.75,0,0,1,3.8,4.14,11.19,11.19,0,0,1,1.52,5.8,11.56,11.56,0,0,1-1.87,6.4,11.68,11.68,0,0,1-5.09,4.36,13,13,0,0,1,7,4.5,11.9,11.9,0,0,1,2.44,7.47,14.84,14.84,0,0,1-1.57,6.58,13.19,13.19,0,0,1-4.3,5.1,14.17,14.17,0,0,1-6.71,2.36q-2.5.27-12.08.33H817.11Zm10,8.25v11.46h6.56c3.9,0,6.32-.05,7.27-.17a6.6,6.6,0,0,0,4-1.77,5.23,5.23,0,0,0,1.47-3.87,5.42,5.42,0,0,0-1.27-3.74,5.7,5.7,0,0,0-3.77-1.74c-1-.12-3.84-.17-8.55-.17Zm0,19.71v13.26h9.27a45.92,45.92,0,0,0,6.86-.3,6.21,6.21,0,0,0,3.64-2,6.11,6.11,0,0,0,1.4-4.21,6.49,6.49,0,0,0-1.08-3.79,6.16,6.16,0,0,0-3.13-2.27q-2-.7-8.88-.71Z"/><path class="cls-1" d="M864.83,287.46a19.4,19.4,0,0,1,2.33-9.17,16.09,16.09,0,0,1,6.61-6.76,19.57,19.57,0,0,1,9.55-2.33,17.91,17.91,0,0,1,13.36,5.29,19.87,19.87,0,0,1,0,26.88,17.74,17.74,0,0,1-13.24,5.36A20.85,20.85,0,0,1,874,304.5a15.33,15.33,0,0,1-6.81-6.54A21.78,21.78,0,0,1,864.83,287.46Zm9.74.51q0,5.34,2.53,8.18a8.3,8.3,0,0,0,12.5,0q2.52-2.83,2.52-8.25c0-3.52-.84-6.22-2.52-8.12a8.3,8.3,0,0,0-12.5,0C875.41,281.68,874.57,284.4,874.57,288Z"/><path class="cls-1" d="M909.33,305.92V256.35h9.5v49.57Z"/><path class="cls-1" d="M961.51,305.92h-8.82v-5.27a14.26,14.26,0,0,1-5.2,4.58,13.31,13.31,0,0,1-6,1.5,13.68,13.68,0,0,1-10.6-5q-4.43-5-4.42-13.92,0-9.13,4.3-13.88a14,14,0,0,1,10.85-4.75,13.46,13.46,0,0,1,10.42,5V256.35h9.5Zm-25.36-18.73q0,5.74,1.59,8.32a7.17,7.17,0,0,0,6.42,3.72,7,7,0,0,0,5.58-2.79c1.54-1.86,2.3-4.64,2.3-8.34q0-6.18-2.23-8.91a7.34,7.34,0,0,0-11.38,0Q936.15,281.84,936.15,287.19Z"/><path class="cls-1" d="M638.72,373.92l19-49.57h7.07l20.29,49.57h-7.48l-5.78-15H651.13l-5.44,15ZM653,353.56h16.81l-5.17-13.73q-2.37-6.25-3.52-10.28a62.87,62.87,0,0,1-2.67,9.47Z"/><path class="cls-1" d="M689.51,373.92V338H695v5.44a15.11,15.11,0,0,1,3.87-5,6.79,6.79,0,0,1,3.91-1.21,11.87,11.87,0,0,1,6.26,2l-2.1,5.65a8.72,8.72,0,0,0-4.46-1.32,5.79,5.79,0,0,0-3.59,1.2,6.56,6.56,0,0,0-2.27,3.33,23.89,23.89,0,0,0-1,7.1v18.8Z"/><path class="cls-1" d="M712.68,331.35v-7h6.09v7Zm0,42.57V338h6.09v35.91Z"/><path class="cls-1" d="M751.47,369.49a22.76,22.76,0,0,1-6.51,4.06,18.85,18.85,0,0,1-6.72,1.18q-5.91,0-9.09-2.89a9.53,9.53,0,0,1-3.18-7.39,10,10,0,0,1,4.34-8.31,14.84,14.84,0,0,1,4.38-2,42.46,42.46,0,0,1,5.41-.91,56,56,0,0,0,10.86-2.1q0-1.25,0-1.59,0-3.72-1.72-5.24c-1.56-1.38-3.87-2.06-6.93-2.06q-4.3,0-6.34,1.5t-3,5.33l-6-.81a14.77,14.77,0,0,1,2.67-6.18,11.78,11.78,0,0,1,5.38-3.62,24.1,24.1,0,0,1,8.15-1.26,21.63,21.63,0,0,1,7.47,1.08,9.84,9.84,0,0,1,4.23,2.72,9.65,9.65,0,0,1,1.89,4.14,34.5,34.5,0,0,1,.31,5.62v8.11a86.77,86.77,0,0,0,.38,10.74,13.66,13.66,0,0,0,1.54,4.31h-6.35A12.7,12.7,0,0,1,751.47,369.49ZM751,355.9a44.65,44.65,0,0,1-9.94,2.3,22.53,22.53,0,0,0-5.31,1.22,5.28,5.28,0,0,0-2.4,2,5.36,5.36,0,0,0,1,6.95A7.86,7.86,0,0,0,739.7,370a12.65,12.65,0,0,0,6.26-1.54,9.54,9.54,0,0,0,4-4.21,14.81,14.81,0,0,0,1-6.09Z"/><path class="cls-1" d="M766.42,373.92V324.35h6.08v49.57Z"/><rect class="cls-2" width="1158" height="518"/></g></g></svg>