<svg xmlns="http://www.w3.org/2000/svg" viewBox="0 0 1366 768.17"><defs><style>.cls-1{fill:#c2292f;}.cls-2{fill:#a22527;}</style></defs><title>Asset 2</title><g id="Layer_2" data-name="Layer 2"><g id="Layer_1-2" data-name="Layer 1"><rect class="cls-1" y="0.17" width="1366" height="768"/><path class="cls-2" d="M898.56,55c60.65,56.57,94.06,132.82,94.06,214.71V484.05c0,47.37,39.46,85.9,88,85.9h27.29V268.66a409.06,409.06,0,0,0-3.83-55.77C1093,132.3,1058.18,59,1006.79,0H816.12A304.42,304.42,0,0,1,898.56,55Z"/><path class="cls-2" d="M1107.87,657.17h-27.29c-97.74,0-177.26-77.66-177.26-173.12V269.7c0-57.83-23.59-111.68-66.43-151.64s-99-60.52-158.44-57.78C569,65.2,479.25,152.81,474.21,259.74c-2.73,58,18.28,112.92,59.16,154.73s96.06,64.88,155.28,64.88c24.66,0,44.65,19.52,44.65,43.6s-20,43.61-44.65,43.61c-83.85,0-161.93-32.62-219.86-91.86s-87.65-137-83.78-219C390.31,143,462.09,45.41,562.4,0H359.85C296.75,72.18,258.38,165.49,258,267c-.79,193.43,133.91,356.23,316.72,403.12,48.2,12.36,87.84,46.61,103,93,.57,1.72,1.1,3.43,1.61,5.13h420.41a198.52,198.52,0,0,0,8.14-56.37ZM688.27,322c-29.86,0-54.06-23.64-54.06-52.8s24.2-52.8,54.06-52.8,54.06,23.64,54.06,52.8S718.13,322,688.27,322Z"/></g></g></svg>