<?xml version="1.0" encoding="utf-8"?>
<!-- Generator: Adobe Illustrator 22.1.0, SVG Export Plug-In . SVG Version: 6.00 Build 0)  -->
<svg version="1.1" id="Layer_1" xmlns="http://www.w3.org/2000/svg" xmlns:xlink="http://www.w3.org/1999/xlink" x="0px" y="0px"
	 viewBox="0 0 600 600" style="enable-background:new 0 0 600 600;" xml:space="preserve">
<style type="text/css">
	.st0{fill:none;}
	.st1{fill:#3F3E3E;}
</style>
<title>downloadblock</title>
<rect y="0" class="st0" width="600" height="600"/>
<g>
	<g>
		<path class="st1" d="M466.8,247.8c12,0,21.7-9.7,21.7-21.7c0-12-9.8-21.7-21.7-21.7c-12,0-21.7,9.7-21.7,21.7
			C445.1,238.1,454.9,247.8,466.8,247.8z"/>
		<path class="st1" d="M300,434.5c65.4,0,118.6-53.2,118.6-118.6c0-65.4-53.2-118.6-118.6-118.6c-65.4,0-118.7,53.2-118.7,118.6
			C181.4,381.3,234.6,434.5,300,434.5z M300,406.2c-49.8,0-90.3-40.5-90.3-90.3c0-49.8,40.5-90.3,90.3-90.3
			c49.8,0,90.3,40.5,90.3,90.3C390.3,365.7,349.8,406.2,300,406.2z"/>
		<path class="st1" d="M478.4,153.4h-69.2l-4.7-16.7l-0.2-0.7c-3.4-14.2-16.5-24.5-31.1-24.5H226.8c-14.8,0-27.8,10.2-31,24.3
			l-5.2,17.6h-68.9c-32.4,0-58.8,26.4-58.8,58.8v217.5c0,32.4,26.4,58.8,58.8,58.8h356.7c32.4,0,58.8-26.4,58.8-58.8V212.2
			C537.2,179.8,510.8,153.4,478.4,153.4z M91.1,212.2c0-16.8,13.7-30.5,30.5-30.5h90l11.5-38.8l0-0.2c0.4-1.7,1.8-2.9,3.6-2.9h146.4
			c1.7,0,3.2,1.3,3.6,2.9l0,0.1l10.9,38.8h90.6c16.8,0,30.5,13.7,30.5,30.5v217.5c0,16.8-13.7,30.5-30.5,30.5H121.6
			c-16.8,0-30.5-13.7-30.5-30.5V212.2z"/>
	</g>
	<path class="st1" d="M300,370.7c-30.2,0-54.8-24.6-54.8-54.8c0-30.2,24.6-54.8,54.8-54.8c30.2,0,54.8,24.6,54.8,54.8
		C354.8,346.1,330.2,370.7,300,370.7z"/>
</g>
</svg>
