<svg id="Layer_1" data-name="Layer 1" xmlns="http://www.w3.org/2000/svg" viewBox="0 0 600 600"><defs><style>.cls-1{fill:#3f3e3e;}.cls-2{fill:none;}</style></defs><title>colourblock</title><path class="cls-1" d="M141.88,69.56c23.26.39,41.65,7.74,56.84,22.74,11.17,11,22.33,22.08,33.31,33.31,3.55,3.63,6.33,3.87,9.93.1,6.65-7,13.68-13.56,20.36-20.49,3.29-3.41,6-3.74,9.48-.21,9.36,9.58,18.87,19,28.4,28.44,3.43,3.39,3.19,6.35-.18,9.64-7.19,7-14.25,14.17-21.32,21.32-5.42,5.48-5.43,6.21,0,11.62q74.82,74.86,149.66,149.7c20.28,20.28,40.49,40.64,60.9,60.8,3.88,3.83,5.77,7.93,5.42,13.36-1.15,18.17-1.92,36.36-3.33,54.5-.47,5.94.72,10.44,5.07,14.62,10.12,9.72,19.92,19.76,29.8,29.71,5.5,5.54,5.48,6.56-.11,12.23s-11.35,11.16-16.83,16.92c-3.37,3.52-6.09,3.37-9.46-.08-10.1-10.34-20.5-20.37-30.57-30.73-3.79-3.9-8-5.76-13.39-5.39-18.15,1.24-36.33,2.16-54.46,3.56-5.9.45-10.17-1-14.44-5.38-14.36-14.9-29.25-29.28-43.88-43.92-14.79-14.79-29.46-29.7-44.26-44.47-15.39-15.36-30.91-30.59-46.31-45.95q-37.56-37.45-75.05-75c-7.26-7.25-7.6-7.23-14.94.09-6.68,6.65-13.41,13.24-20,20-3.14,3.24-5.82,3.35-9,.1q-14.08-14.32-28.41-28.44c-3.69-3.63-3.29-6.66.28-10.09,6.33-6.1,12.48-12.39,18.66-18.65,5.74-5.82,5.75-6.73-.15-12.69-10.9-11-22-21.86-32.8-32.93-29.42-30.06-28.41-79.79,2.52-108.3A75.17,75.17,0,0,1,141.88,69.56ZM468.35,418.09c-.41-8,2.08-14.33-3.93-20.3Q362.21,296.21,260.49,194.14c-5.42-5.42-6.07-5.43-11.59.07q-27.1,27-54.16,54.17c-6.13,6.15-6.12,7,0,13.11q45.7,45.75,91.44,91.48,55.27,55.27,110.55,110.55c3,3,6,5.8,10.74,5.53,17.12-1,34.25-1.85,51.37-2.81,4.46-.25,6.69-2.56,6.94-7.19C466.56,444.85,467.55,430.66,468.35,418.09Z"/><path class="cls-1" d="M416.36,456.81c-9.11,3.6-15.94-2.88-23.21-10.3-25.9-26.45-52.26-52.45-78.43-78.64-6.09-6.1-6.08-6.19.1-12.39,13.74-13.76,27.61-27.41,41.2-41.32,4-4.05,6.88-4.13,10.91-.08q42.66,43,85.6,85.68c3,3,4.69,6.3,4.42,10.58q-1.26,19.4-2.45,38.8c-.25,4.12-2.49,5.89-6.47,6.07C438.22,455.65,428.41,456.19,416.36,456.81Z"/><rect class="cls-2" width="600" height="600"/></svg>