<svg xmlns="http://www.w3.org/2000/svg" viewBox="0 0 3729 1700"><defs><style>.cls-1{fill:#c1282e;}.cls-2{fill:#a22527;}</style></defs><title>typoheader</title><g id="Layer_2" data-name="Layer 2"><g id="Layer_1-2" data-name="Layer 1"><rect class="cls-1" width="3729" height="1700"/><path class="cls-1" d="M77.51,982.81c73.23-30.34,108.13-114.59,77.8-187.82C129.39,732.43,64.13,697.86,0,708v58.55L63.23,919.23,114,796.78,133.88,805,69.07,961.49,0,932.88v59A142.85,142.85,0,0,0,77.51,982.81Z"/><path class="cls-1" d="M2726.31,1515c-30.34-73.23-114.59-108.13-187.82-77.8s-108.13,114.59-77.8,187.82a143.2,143.2,0,0,0,71.62,75h122.53C2723.72,1667.54,2755.75,1586.08,2726.31,1515Zm-243.64,101.3,8.26-19.92,123.38,51.11-76.68-185.12,19.92-8.25,76.68,185.12L2685,1516.78l19.92,8.25-64.81,156.46Z"/><polygon class="cls-1" points="0 822.91 0 909.54 43.31 927.48 0 822.91"/><path class="cls-1" d="M605.49,1077.19c-73.23,30.34-108.13,114.59-77.8,187.82s114.59,108.13,187.82,77.8,108.13-114.59,77.8-187.82S678.72,1046.86,605.49,1077.19Zm101.58,244.3-157.4-65.2,8.26-19.92,123.38,51.11-76.68-185.12,19.92-8.25,76.68,185.12L752,1156.78l19.92,8.25Z"/><path class="cls-1" d="M2294.31,1515c-30.34-73.23-114.59-108.13-187.82-77.8s-108.13,114.59-77.8,187.82a143.2,143.2,0,0,0,71.62,75h122.53C2291.72,1667.54,2323.75,1586.08,2294.31,1515Zm-243.64,101.3,8.26-19.92,123.38,51.11-76.68-185.12,19.92-8.25,76.68,185.12L2253,1516.78l19.92,8.25-64.81,156.46Z"/><path class="cls-1" d="M2765.49,1077.19c-73.23,30.34-108.13,114.59-77.8,187.82s114.59,108.13,187.82,77.8,108.13-114.59,77.8-187.82S2838.72,1046.86,2765.49,1077.19Zm101.58,244.3-157.4-65.2,8.26-19.92,123.38,51.11-76.68-185.12,19.92-8.25,76.68,185.12L2912,1156.78l19.92,8.25Z"/><path class="cls-1" d="M587.31,795C557,721.76,472.72,686.86,399.49,717.19S291.36,831.78,321.69,905s114.59,108.13,187.82,77.8S617.64,868.22,587.31,795Zm-86.24,166.5-157.4-65.2,8.26-19.92,123.38,51.11L398.63,742.36l19.92-8.25,76.68,185.12L546,796.78,565.88,805Z"/><path class="cls-1" d="M3304.77,1633.26a165.25,165.25,0,1,1,255,66.74H3729v-90.28a163.52,163.52,0,0,1,0-79.44v-161a165.32,165.32,0,1,1,0-318.46V653.69a165.35,165.35,0,1,1,0-327.38V0H3602.73a165.52,165.52,0,0,1,50.5,193.26A165.31,165.31,0,0,1,3347.77,66.74,164.46,164.46,0,0,1,3398.27,0H3170.73a165.52,165.52,0,0,1,50.5,193.26A165.31,165.31,0,0,1,2915.77,66.74,164.46,164.46,0,0,1,2966.27,0H2738.73a165.52,165.52,0,0,1,50.5,193.26A165.31,165.31,0,0,1,2483.77,66.74,164.46,164.46,0,0,1,2534.27,0H2306.73a165.52,165.52,0,0,1,50.5,193.26A165.31,165.31,0,0,1,2051.77,66.74,164.46,164.46,0,0,1,2102.27,0H1874.73a165.52,165.52,0,0,1,50.5,193.26A165.31,165.31,0,0,1,1619.77,66.74,164.46,164.46,0,0,1,1670.27,0H1442.73a165.52,165.52,0,0,1,50.5,193.26A165.31,165.31,0,0,1,1187.77,66.74,164.46,164.46,0,0,1,1238.27,0H1010.73a165.52,165.52,0,0,1,50.5,193.26A165.31,165.31,0,0,1,755.77,66.74,164.46,164.46,0,0,1,806.27,0H578.73a165.52,165.52,0,0,1,50.5,193.26A165.31,165.31,0,0,1,323.77,66.74,164.46,164.46,0,0,1,374.27,0H146.73a164.46,164.46,0,0,1,50.5,66.74,165.31,165.31,0,0,1-89.47,216A164.1,164.1,0,0,1,0,289.23V686.17a164.33,164.33,0,0,1,85.76,11.1,164.23,164.23,0,0,1,89.47,89.47,164.29,164.29,0,0,1,0,126.52,164.23,164.23,0,0,1-89.47,89.47A164.33,164.33,0,0,1,0,1013.83v390.79a165.1,165.1,0,0,1,64.76,12.65,164.23,164.23,0,0,1,89.47,89.47,164.29,164.29,0,0,1,0,126.52,164.46,164.46,0,0,1-50.5,66.74H331.27a165.25,165.25,0,1,1,204.46,0H763.27a165.25,165.25,0,1,1,204.46,0h227.54a165.25,165.25,0,1,1,204.46,0h227.54a165.25,165.25,0,1,1,204.46,0h227.54a165.25,165.25,0,1,1,204.46,0h227.54a165.25,165.25,0,1,1,204.46,0h227.54a165.25,165.25,0,1,1,204.46,0h227.54A164.46,164.46,0,0,1,3304.77,1633.26Zm237-936a165.31,165.31,0,1,1-126.52,0A164.23,164.23,0,0,1,3541.76,697.27Zm-421-270.53a165.31,165.31,0,1,1,0,126.52A164.23,164.23,0,0,1,3120.77,426.74Zm-432,0a165.31,165.31,0,1,1,0,126.52A164.23,164.23,0,0,1,2688.77,426.74Zm-432,0a165.31,165.31,0,1,1,0,126.52A164.23,164.23,0,0,1,2256.77,426.74Zm-432,0a165.31,165.31,0,1,1,0,126.52A164.23,164.23,0,0,1,1824.77,426.74Zm-432,0a165.31,165.31,0,1,1,0,126.52A164.23,164.23,0,0,1,1392.77,426.74Zm-432,0a165.31,165.31,0,1,1,0,126.52A164.23,164.23,0,0,1,960.77,426.74Zm-432,0a165.31,165.31,0,1,1,0,126.52A164.23,164.23,0,0,1,528.77,426.74Zm-342.53,216a165.31,165.31,0,1,1,126.52,0A164.23,164.23,0,0,1,186.24,642.73Zm195,630.53a165.31,165.31,0,1,1,0-126.52A164.23,164.23,0,0,1,381.23,1273.26Zm10-270.53a165.31,165.31,0,1,1,126.52,0A164.23,164.23,0,0,1,391.24,1002.73Zm422,270.53a165.31,165.31,0,1,1,0-126.52A164.23,164.23,0,0,1,813.23,1273.26Zm10-270.53a165.31,165.31,0,1,1,126.52,0A164.23,164.23,0,0,1,823.24,1002.73Zm422,270.53a165.31,165.31,0,1,1,0-126.52A164.23,164.23,0,0,1,1245.23,1273.26Zm10-270.53a165.31,165.31,0,1,1,126.52,0A164.23,164.23,0,0,1,1255.24,1002.73Zm422,270.53a165.31,165.31,0,1,1,0-126.52A164.23,164.23,0,0,1,1677.23,1273.26Zm10-270.53a165.31,165.31,0,1,1,126.52,0A164.23,164.23,0,0,1,1687.24,1002.73Zm422,270.53a165.31,165.31,0,1,1,0-126.52A164.23,164.23,0,0,1,2109.23,1273.26Zm10-270.53a165.31,165.31,0,1,1,126.52,0A164.23,164.23,0,0,1,2119.24,1002.73Zm422,270.53a165.31,165.31,0,1,1,0-126.52A164.23,164.23,0,0,1,2541.23,1273.26Zm10-270.53a165.31,165.31,0,1,1,126.52,0A164.23,164.23,0,0,1,2551.24,1002.73Zm422,270.53a165.31,165.31,0,1,1,0-126.52A164.23,164.23,0,0,1,2973.23,1273.26Zm10-270.53a165.31,165.31,0,1,1,126.52,0A164.23,164.23,0,0,1,2983.24,1002.73Zm206,360a165.31,165.31,0,1,1,126.52,0A164.23,164.23,0,0,1,3189.24,1362.73Z"/><path class="cls-1" d="M3629.49,1077.19c-73.23,30.34-108.13,114.59-77.8,187.82,28.9,69.75,106.7,104.72,177.31,81.68v-26.06l-155.33-64.34,8.26-19.92,123.38,51.11-76.68-185.12,19.92-8.25,76.68,185.12,3.77-9.09V1073.39A143.1,143.1,0,0,0,3629.49,1077.19Z"/><polygon class="cls-1" points="0 1593.61 0 1638.24 22.31 1647.48 0 1593.61"/><path class="cls-1" d="M3590.31,1515c-30.34-73.23-114.59-108.13-187.82-77.8s-108.13,114.59-77.8,187.82a143.2,143.2,0,0,0,71.62,75h122.53C3587.72,1667.54,3619.75,1586.08,3590.31,1515Zm-243.64,101.3,8.26-19.92,123.38,51.11-76.68-185.12,19.92-8.25,76.68,185.12L3549,1516.78l19.92,8.25-64.81,156.46Z"/><path class="cls-1" d="M3385.31,1155c-30.34-73.23-114.59-108.13-187.82-77.8s-108.13,114.59-77.8,187.82,114.59,108.13,187.82,77.8S3415.64,1228.22,3385.31,1155Zm-86.24,166.5-157.4-65.2,8.26-19.92,123.38,51.11-76.68-185.12,19.92-8.25,76.68,185.12L3344,1156.78l19.92,8.25Z"/><path class="cls-1" d="M3158.31,1515c-30.34-73.23-114.59-108.13-187.82-77.8s-108.13,114.59-77.8,187.82a143.2,143.2,0,0,0,71.62,75h122.53C3155.72,1667.54,3187.75,1586.08,3158.31,1515Zm-243.64,101.3,8.26-19.92,123.38,51.11-76.68-185.12,19.92-8.25,76.68,185.12L3117,1516.78l19.92,8.25-64.81,156.46Z"/><path class="cls-1" d="M3179.31,795c-30.34-73.23-114.59-108.13-187.82-77.8S2883.36,831.78,2913.69,905s114.59,108.13,187.82,77.8S3209.64,868.22,3179.31,795Zm-86.24,166.5-157.4-65.2,8.26-19.92,123.38,51.11-76.68-185.12,19.92-8.25,76.68,185.12L3138,796.78l19.92,8.25Z"/><path class="cls-1" d="M1469.49,1077.19c-73.23,30.34-108.13,114.59-77.8,187.82s114.59,108.13,187.82,77.8,108.13-114.59,77.8-187.82S1542.72,1046.86,1469.49,1077.19Zm101.58,244.3-157.4-65.2,8.26-19.92,123.38,51.11-76.68-185.12,19.92-8.25,76.68,185.12L1616,1156.78l19.92,8.25Z"/><path class="cls-1" d="M1430.31,1515c-30.34-73.23-114.59-108.13-187.82-77.8s-108.13,114.59-77.8,187.82a143.2,143.2,0,0,0,71.62,75h122.53C1427.72,1667.54,1459.75,1586.08,1430.31,1515Zm-243.64,101.3,8.26-19.92,123.38,51.11-76.68-185.12,19.92-8.25,76.68,185.12L1389,1516.78l19.92,8.25-64.81,156.46Z"/><path class="cls-1" d="M1451.31,795c-30.34-73.23-114.59-108.13-187.82-77.8S1155.36,831.78,1185.69,905s114.59,108.13,187.82,77.8S1481.64,868.22,1451.31,795Zm-86.24,166.5-157.4-65.2,8.26-19.92,123.38,51.11-76.68-185.12,19.92-8.25,76.68,185.12L1410,796.78l19.92,8.25Z"/><path class="cls-1" d="M566.31,1515c-30.34-73.23-114.59-108.13-187.82-77.8S270.36,1551.78,300.69,1625a143.2,143.2,0,0,0,71.62,75H494.84C563.72,1667.54,595.75,1586.08,566.31,1515Zm-243.64,101.3,8.26-19.92,123.38,51.11-76.68-185.12,19.92-8.25,76.68,185.12L525,1516.78l19.92,8.25-64.81,156.46Z"/><path class="cls-1" d="M2747.31,795c-30.34-73.23-114.59-108.13-187.82-77.8S2451.36,831.78,2481.69,905s114.59,108.13,187.82,77.8S2777.64,868.22,2747.31,795Zm-86.24,166.5-157.4-65.2,8.26-19.92,123.38,51.11-76.68-185.12,19.92-8.25,76.68,185.12L2706,796.78l19.92,8.25Z"/><path class="cls-1" d="M3345.69,905c30.34,73.23,114.59,108.13,187.82,77.8s108.13-114.59,77.8-187.82-114.59-108.13-187.82-77.8S3315.36,831.78,3345.69,905Zm96.86-170.9,76.68,185.12L3570,796.78l19.92,8.25-64.81,156.46-157.4-65.2,8.26-19.92,123.38,51.11-76.68-185.12Z"/><path class="cls-1" d="M998.31,1515c-30.34-73.23-114.59-108.13-187.82-77.8S702.36,1551.78,732.69,1625a143.2,143.2,0,0,0,71.62,75H926.84C995.72,1667.54,1027.75,1586.08,998.31,1515Zm-243.64,101.3,8.26-19.92,123.38,51.11-76.68-185.12,19.92-8.25,76.68,185.12L957,1516.78l19.92,8.25-64.81,156.46Z"/><path class="cls-1" d="M1901.49,1077.19c-73.23,30.34-108.13,114.59-77.8,187.82s114.59,108.13,187.82,77.8,108.13-114.59,77.8-187.82S1974.72,1046.86,1901.49,1077.19Zm101.58,244.3-157.4-65.2,8.26-19.92,123.38,51.11-76.68-185.12,19.92-8.25,76.68,185.12L2048,1156.78l19.92,8.25Z"/><path class="cls-1" d="M134.31,1515A144,144,0,0,0,0,1426.27v111l42.23,102L93,1516.78l19.92,8.25L48.07,1681.49,0,1661.58V1700H62.84C131.72,1667.54,163.75,1586.08,134.31,1515Z"/><path class="cls-1" d="M2333.49,1077.19c-73.23,30.34-108.13,114.59-77.8,187.82s114.59,108.13,187.82,77.8,108.13-114.59,77.8-187.82S2406.72,1046.86,2333.49,1077.19Zm101.58,244.3-157.4-65.2,8.26-19.92,123.38,51.11-76.68-185.12,19.92-8.25,76.68,185.12L2480,1156.78l19.92,8.25Z"/><path class="cls-1" d="M1019.31,795C989,721.76,904.72,686.86,831.49,717.19S723.36,831.78,753.69,905s114.59,108.13,187.82,77.8S1049.64,868.22,1019.31,795Zm-86.24,166.5-157.4-65.2,8.26-19.92,123.38,51.11L830.63,742.36l19.92-8.25,76.68,185.12L978,796.78,997.88,805Z"/><path class="cls-1" d="M1862.31,1515c-30.34-73.23-114.59-108.13-187.82-77.8s-108.13,114.59-77.8,187.82a143.2,143.2,0,0,0,71.62,75h122.53C1859.72,1667.54,1891.75,1586.08,1862.31,1515Zm-243.64,101.3,8.26-19.92,123.38,51.11-76.68-185.12,19.92-8.25,76.68,185.12L1821,1516.78l19.92,8.25-64.81,156.46Z"/><path class="cls-1" d="M2315.31,795c-30.34-73.23-114.59-108.13-187.82-77.8S2019.36,831.78,2049.69,905s114.59,108.13,187.82,77.8S2345.64,868.22,2315.31,795Zm-86.24,166.5-157.4-65.2,8.26-19.92,123.38,51.11-76.68-185.12,19.92-8.25,76.68,185.12L2274,796.78l19.92,8.25Z"/><path class="cls-1" d="M1037.49,1077.19c-73.23,30.34-108.13,114.59-77.8,187.82s114.59,108.13,187.82,77.8,108.13-114.59,77.8-187.82S1110.72,1046.86,1037.49,1077.19Zm101.58,244.3-157.4-65.2,8.26-19.92,123.38,51.11-76.68-185.12,19.92-8.25,76.68,185.12L1184,1156.78l19.92,8.25Z"/><path class="cls-1" d="M2935.69,185c30.34,73.23,114.59,108.13,187.82,77.8S3231.64,148.22,3201.31,75a143.2,143.2,0,0,0-71.62-75H3007.16C2938.28,32.46,2906.25,113.92,2935.69,185Zm96.86-170.9,76.68,185.12L3160,76.78,3179.88,85l-64.81,156.46-157.4-65.2,8.26-19.92,123.38,51.11L3012.63,22.36Z"/><path class="cls-1" d="M173.49,1077.19c-73.23,30.34-108.13,114.59-77.8,187.82s114.59,108.13,187.82,77.8,108.13-114.59,77.8-187.82S246.72,1046.86,173.49,1077.19Zm101.58,244.3-157.4-65.2,8.26-19.92,123.38,51.11-76.68-185.12,19.92-8.25,76.68,185.12L320,1156.78l19.92,8.25Z"/><path class="cls-1" d="M2032.51,622.81c73.23-30.34,108.13-114.59,77.8-187.82s-114.59-108.13-187.82-77.8S1814.36,471.78,1844.69,545,1959.28,653.14,2032.51,622.81ZM1874.93,516.37l123.38,51.11-76.68-185.12,19.92-8.25,76.68,185.12L2069,436.78l19.92,8.25-64.81,156.46-157.4-65.2Z"/><path class="cls-1" d="M1207.69,185c30.34,73.23,114.59,108.13,187.82,77.8S1503.64,148.22,1473.31,75a143.2,143.2,0,0,0-71.62-75H1279.16C1210.28,32.46,1178.25,113.92,1207.69,185Zm96.86-170.9,76.68,185.12L1432,76.78,1451.88,85l-64.81,156.46-157.4-65.2,8.26-19.92,123.38,51.11L1284.63,22.36Z"/><path class="cls-1" d="M99.51,262.81C172.74,232.47,207.64,148.22,177.31,75A143.2,143.2,0,0,0,105.69,0H0V17.65l8.55-3.54L85.23,199.23,136,76.78,155.88,85,91.07,241.49,0,203.77v62.84A143.1,143.1,0,0,0,99.51,262.81Z"/><path class="cls-1" d="M2464.51,622.81c73.23-30.34,108.13-114.59,77.8-187.82s-114.59-108.13-187.82-77.8S2246.36,471.78,2276.69,545,2391.28,653.14,2464.51,622.81ZM2306.93,516.37l123.38,51.11-76.68-185.12,19.92-8.25,76.68,185.12L2501,436.78l19.92,8.25-64.81,156.46-157.4-65.2Z"/><path class="cls-1" d="M382.31,435C352,361.76,267.72,326.86,194.49,357.19S86.36,471.78,116.69,545s114.59,108.13,187.82,77.8S412.64,508.22,382.31,435ZM138.67,536.29l8.26-19.92,123.38,51.11L193.63,382.36l19.92-8.25,76.68,185.12L341,436.78,360.88,445,296.07,601.49Z"/><path class="cls-1" d="M1639.69,185c30.34,73.23,114.59,108.13,187.82,77.8S1935.64,148.22,1905.31,75a143.2,143.2,0,0,0-71.62-75H1711.16C1642.28,32.46,1610.25,113.92,1639.69,185Zm96.86-170.9,76.68,185.12L1864,76.78,1883.88,85l-64.81,156.46-157.4-65.2,8.26-19.92,123.38,51.11L1716.63,22.36Z"/><path class="cls-1" d="M343.69,185c30.34,73.23,114.59,108.13,187.82,77.8S639.64,148.22,609.31,75A143.2,143.2,0,0,0,537.69,0H415.16C346.28,32.46,314.25,113.92,343.69,185Zm96.86-170.9,76.68,185.12L568,76.78,587.88,85,523.07,241.49l-157.4-65.2,8.26-19.92,123.38,51.11L420.63,22.36Z"/><path class="cls-1" d="M736.51,622.81c73.23-30.34,108.13-114.59,77.8-187.82s-114.59-108.13-187.82-77.8S518.36,471.78,548.69,545,663.28,653.14,736.51,622.81ZM578.93,516.37l123.38,51.11L625.63,382.36l19.92-8.25,76.68,185.12L773,436.78,792.88,445,728.07,601.49l-157.4-65.2Z"/><path class="cls-1" d="M1600.51,622.81c73.23-30.34,108.13-114.59,77.8-187.82s-114.59-108.13-187.82-77.8S1382.36,471.78,1412.69,545,1527.28,653.14,1600.51,622.81ZM1442.93,516.37l123.38,51.11-76.68-185.12,19.92-8.25,76.68,185.12L1637,436.78l19.92,8.25-64.81,156.46-157.4-65.2Z"/><polygon class="cls-1" points="0 49.8 0 180.43 65.31 207.48 0 49.8"/><path class="cls-1" d="M775.69,185c30.34,73.23,114.59,108.13,187.82,77.8S1071.64,148.22,1041.31,75A143.2,143.2,0,0,0,969.69,0H847.16C778.28,32.46,746.25,113.92,775.69,185Zm96.86-170.9,76.68,185.12L1000,76.78,1019.88,85,955.07,241.49l-157.4-65.2,8.26-19.92,123.38,51.11L852.63,22.36Z"/><path class="cls-1" d="M1168.51,622.81c73.23-30.34,108.13-114.59,77.8-187.82s-114.59-108.13-187.82-77.8S950.36,471.78,980.69,545,1095.28,653.14,1168.51,622.81ZM1010.93,516.37l123.38,51.11-76.68-185.12,19.92-8.25,76.68,185.12L1205,436.78l19.92,8.25-64.81,156.46-157.4-65.2Z"/><path class="cls-1" d="M2896.51,622.81c73.23-30.34,108.13-114.59,77.8-187.82s-114.59-108.13-187.82-77.8S2678.36,471.78,2708.69,545,2823.28,653.14,2896.51,622.81ZM2738.93,516.37l123.38,51.11-76.68-185.12,19.92-8.25,76.68,185.12L2933,436.78l19.92,8.25-64.81,156.46-157.4-65.2Z"/><path class="cls-1" d="M3328.51,622.81c73.23-30.34,108.13-114.59,77.8-187.82s-114.59-108.13-187.82-77.8S3110.36,471.78,3140.69,545,3255.28,653.14,3328.51,622.81ZM3170.93,516.37l123.38,51.11-76.68-185.12,19.92-8.25,76.68,185.12L3365,436.78l19.92,8.25-64.81,156.46-157.4-65.2Z"/><path class="cls-1" d="M1883.31,795c-30.34-73.23-114.59-108.13-187.82-77.8S1587.36,831.78,1617.69,905s114.59,108.13,187.82,77.8S1913.64,868.22,1883.31,795Zm-86.24,166.5-157.4-65.2,8.26-19.92,123.38,51.11-76.68-185.12,19.92-8.25,76.68,185.12L1842,796.78l19.92,8.25Z"/><path class="cls-1" d="M3367.69,185c30.34,73.23,114.59,108.13,187.82,77.8S3663.64,148.22,3633.31,75a143.2,143.2,0,0,0-71.62-75H3439.16C3370.28,32.46,3338.25,113.92,3367.69,185Zm96.86-170.9,76.68,185.12L3592,76.78,3611.88,85l-64.81,156.46-157.4-65.2,8.26-19.92,123.38,51.11L3444.63,22.36Z"/><path class="cls-1" d="M3650.49,357.19c-73.23,30.34-108.13,114.59-77.8,187.82,26,62.88,91.86,97.5,156.31,86.82v-39.9l-134.33-55.64,8.26-19.92,123.38,51.11-76.68-185.12,19.92-8.25L3729,517.62V348.23A143,143,0,0,0,3650.49,357.19Z"/><path class="cls-1" d="M2503.69,185c30.34,73.23,114.59,108.13,187.82,77.8S2799.64,148.22,2769.31,75a143.2,143.2,0,0,0-71.62-75H2575.16C2506.28,32.46,2474.25,113.92,2503.69,185Zm96.86-170.9,76.68,185.12L2728,76.78,2747.88,85l-64.81,156.46-157.4-65.2,8.26-19.92,123.38,51.11L2580.63,22.36Z"/><path class="cls-1" d="M2071.69,185c30.34,73.23,114.59,108.13,187.82,77.8S2367.64,148.22,2337.31,75a143.2,143.2,0,0,0-71.62-75H2143.16C2074.28,32.46,2042.25,113.92,2071.69,185Zm96.86-170.9,76.68,185.12L2296,76.78,2315.88,85l-64.81,156.46-157.4-65.2,8.26-19.92,123.38,51.11L2148.63,22.36Z"/><path class="cls-2" d="M107.76,282.73a165.31,165.31,0,0,0,89.47-216A164.46,164.46,0,0,0,146.73,0h-41a143.2,143.2,0,0,1,71.62,75c30.33,73.23-4.57,157.48-77.8,187.82A143.1,143.1,0,0,1,0,266.61v22.62A164.1,164.1,0,0,0,107.76,282.73Z"/><polygon class="cls-2" points="155.88 85.03 135.96 76.78 85.23 199.23 8.55 14.11 0 17.65 0 49.8 65.31 207.48 0 180.43 0 203.77 91.07 241.49 155.88 85.03"/><path class="cls-2" d="M323.77,66.74A165.25,165.25,0,1,0,578.73,0h-41a143.2,143.2,0,0,1,71.62,75c30.33,73.23-4.57,157.48-77.8,187.82S374,258.24,343.69,185c-29.44-71.09,2.59-152.55,71.47-185H374.27A164.46,164.46,0,0,0,323.77,66.74Z"/><polygon class="cls-2" points="373.93 156.37 365.67 176.29 523.07 241.49 587.88 85.03 567.96 76.78 517.24 199.23 440.56 14.11 420.63 22.36 497.31 207.48 373.93 156.37"/><path class="cls-2" d="M755.77,66.74A165.25,165.25,0,1,0,1010.73,0h-41a143.2,143.2,0,0,1,71.62,75c30.33,73.23-4.57,157.48-77.8,187.82S806,258.24,775.69,185c-29.44-71.09,2.59-152.55,71.47-185H806.27A164.46,164.46,0,0,0,755.77,66.74Z"/><polygon class="cls-2" points="805.93 156.37 797.67 176.29 955.07 241.49 1019.88 85.03 999.96 76.78 949.24 199.23 872.55 14.11 852.63 22.36 929.31 207.48 805.93 156.37"/><path class="cls-2" d="M1187.77,66.74A165.25,165.25,0,1,0,1442.73,0h-41a143.2,143.2,0,0,1,71.62,75c30.33,73.23-4.57,157.48-77.8,187.82S1238,258.24,1207.69,185c-29.44-71.09,2.59-152.55,71.47-185h-40.89A164.46,164.46,0,0,0,1187.77,66.74Z"/><polygon class="cls-2" points="1237.93 156.37 1229.67 176.29 1387.07 241.49 1451.88 85.03 1431.95 76.78 1381.23 199.23 1304.56 14.11 1284.63 22.36 1361.31 207.48 1237.93 156.37"/><path class="cls-2" d="M1619.77,66.74A165.25,165.25,0,1,0,1874.73,0h-41a143.2,143.2,0,0,1,71.62,75c30.33,73.23-4.57,157.48-77.8,187.82S1670,258.24,1639.69,185c-29.44-71.09,2.59-152.55,71.47-185h-40.89A164.46,164.46,0,0,0,1619.77,66.74Z"/><polygon class="cls-2" points="1669.93 156.37 1661.67 176.29 1819.07 241.49 1883.88 85.03 1863.95 76.78 1813.23 199.23 1736.56 14.11 1716.63 22.36 1793.31 207.48 1669.93 156.37"/><path class="cls-2" d="M2051.77,66.74A165.25,165.25,0,1,0,2306.73,0h-41a143.2,143.2,0,0,1,71.62,75c30.33,73.23-4.57,157.48-77.8,187.82S2102,258.24,2071.69,185c-29.44-71.09,2.59-152.55,71.47-185h-40.89A164.46,164.46,0,0,0,2051.77,66.74Z"/><polygon class="cls-2" points="2101.93 156.37 2093.67 176.29 2251.07 241.49 2315.88 85.03 2295.95 76.78 2245.24 199.23 2168.55 14.11 2148.63 22.36 2225.31 207.48 2101.93 156.37"/><path class="cls-2" d="M2483.77,66.74A165.25,165.25,0,1,0,2738.73,0h-41a143.2,143.2,0,0,1,71.62,75c30.33,73.23-4.57,157.48-77.8,187.82S2534,258.24,2503.69,185c-29.44-71.09,2.59-152.55,71.47-185h-40.89A164.46,164.46,0,0,0,2483.77,66.74Z"/><polygon class="cls-2" points="2533.93 156.37 2525.67 176.29 2683.07 241.49 2747.88 85.03 2727.95 76.78 2677.24 199.23 2600.55 14.11 2580.63 22.36 2657.31 207.48 2533.93 156.37"/><path class="cls-2" d="M2915.77,66.74A165.25,165.25,0,1,0,3170.73,0h-41a143.2,143.2,0,0,1,71.62,75c30.33,73.23-4.57,157.48-77.8,187.82S2966,258.24,2935.69,185c-29.44-71.09,2.59-152.55,71.47-185h-40.89A164.46,164.46,0,0,0,2915.77,66.74Z"/><polygon class="cls-2" points="2965.93 156.37 2957.67 176.29 3115.07 241.49 3179.88 85.03 3159.95 76.78 3109.24 199.23 3032.55 14.11 3012.63 22.36 3089.31 207.48 2965.93 156.37"/><path class="cls-2" d="M3347.77,66.74A165.25,165.25,0,1,0,3602.73,0h-41a143.2,143.2,0,0,1,71.62,75c30.33,73.23-4.57,157.48-77.8,187.82S3398,258.24,3367.69,185c-29.44-71.09,2.59-152.55,71.47-185h-40.89A164.46,164.46,0,0,0,3347.77,66.74Z"/><polygon class="cls-2" points="3397.93 156.37 3389.67 176.29 3547.07 241.49 3611.88 85.03 3591.95 76.78 3541.24 199.23 3464.55 14.11 3444.63 22.36 3521.31 207.48 3397.93 156.37"/><path class="cls-2" d="M312.76,642.73a165.31,165.31,0,1,0-126.52,0A164.23,164.23,0,0,0,312.76,642.73ZM116.69,545c-30.33-73.23,4.57-157.48,77.8-187.82S352,361.76,382.31,435s-4.57,157.48-77.8,187.82S147,618.24,116.69,545Z"/><polygon class="cls-2" points="340.95 436.78 290.24 559.23 213.56 374.11 193.63 382.36 270.31 567.48 146.93 516.37 138.67 536.29 296.07 601.49 360.88 445.03 340.95 436.78"/><path class="cls-2" d="M618.24,642.73a165.31,165.31,0,1,0-89.47-89.47A164.29,164.29,0,0,0,618.24,642.73Zm8.25-285.54C699.72,326.86,784,361.76,814.31,435s-4.57,157.48-77.8,187.82S579,618.24,548.69,545,553.26,387.53,626.49,357.19Z"/><polygon class="cls-2" points="792.88 445.03 772.96 436.78 722.24 559.23 645.55 374.11 625.63 382.36 702.31 567.48 578.93 516.37 570.67 536.29 728.07 601.49 792.88 445.03"/><path class="cls-2" d="M1050.24,642.73a165.31,165.31,0,1,0-89.47-89.47A164.29,164.29,0,0,0,1050.24,642.73Zm8.25-285.54c73.23-30.33,157.48,4.57,187.82,77.8s-4.57,157.48-77.8,187.82S1011,618.24,980.69,545,985.26,387.53,1058.49,357.19Z"/><polygon class="cls-2" points="1224.88 445.03 1204.95 436.78 1154.23 559.23 1077.56 374.11 1057.63 382.36 1134.31 567.48 1010.93 516.37 1002.67 536.29 1160.07 601.49 1224.88 445.03"/><path class="cls-2" d="M1482.24,642.73a165.31,165.31,0,1,0-89.47-89.47A164.29,164.29,0,0,0,1482.24,642.73Zm8.25-285.54c73.23-30.33,157.48,4.57,187.82,77.8s-4.57,157.48-77.8,187.82S1443,618.24,1412.69,545,1417.26,387.53,1490.49,357.19Z"/><polygon class="cls-2" points="1656.88 445.03 1636.95 436.78 1586.23 559.23 1509.56 374.11 1489.63 382.36 1566.31 567.48 1442.93 516.37 1434.67 536.29 1592.07 601.49 1656.88 445.03"/><path class="cls-2" d="M1914.24,642.73a165.31,165.31,0,1,0-89.47-89.47A164.29,164.29,0,0,0,1914.24,642.73Zm8.25-285.54c73.23-30.33,157.48,4.57,187.82,77.8s-4.57,157.48-77.8,187.82S1875,618.24,1844.69,545,1849.26,387.53,1922.49,357.19Z"/><polygon class="cls-2" points="2088.88 445.03 2068.95 436.78 2018.23 559.23 1941.56 374.11 1921.63 382.36 1998.31 567.48 1874.93 516.37 1866.67 536.29 2024.07 601.49 2088.88 445.03"/><path class="cls-2" d="M2346.24,642.73a165.31,165.31,0,1,0-89.47-89.47A164.29,164.29,0,0,0,2346.24,642.73Zm8.25-285.54c73.23-30.33,157.48,4.57,187.82,77.8s-4.57,157.48-77.8,187.82S2307,618.24,2276.69,545,2281.26,387.53,2354.49,357.19Z"/><polygon class="cls-2" points="2520.88 445.03 2500.95 436.78 2450.24 559.23 2373.55 374.11 2353.63 382.36 2430.31 567.48 2306.93 516.37 2298.67 536.29 2456.07 601.49 2520.88 445.03"/><path class="cls-2" d="M2778.24,642.73a165.31,165.31,0,1,0-89.47-89.47A164.29,164.29,0,0,0,2778.24,642.73Zm8.25-285.54c73.23-30.33,157.48,4.57,187.82,77.8s-4.57,157.48-77.8,187.82S2739,618.24,2708.69,545,2713.26,387.53,2786.49,357.19Z"/><polygon class="cls-2" points="2952.88 445.03 2932.95 436.78 2882.24 559.23 2805.55 374.11 2785.63 382.36 2862.31 567.48 2738.93 516.37 2730.67 536.29 2888.07 601.49 2952.88 445.03"/><path class="cls-2" d="M3210.24,642.73a165.31,165.31,0,1,0-89.47-89.47A164.29,164.29,0,0,0,3210.24,642.73Zm8.25-285.54c73.23-30.33,157.48,4.57,187.82,77.8s-4.57,157.48-77.8,187.82S3171,618.24,3140.69,545,3145.26,387.53,3218.49,357.19Z"/><polygon class="cls-2" points="3384.88 445.03 3364.95 436.78 3314.24 559.23 3237.55 374.11 3217.63 382.36 3294.31 567.48 3170.93 516.37 3162.67 536.29 3320.07 601.49 3384.88 445.03"/><path class="cls-2" d="M3642.24,337.27A165.35,165.35,0,0,0,3729,653.69V631.83c-64.45,10.68-130.26-23.94-156.31-86.82-30.33-73.23,4.57-157.48,77.8-187.82a143,143,0,0,1,78.51-9V326.31A164.31,164.31,0,0,0,3642.24,337.27Z"/><polygon class="cls-2" points="3649.63 382.36 3726.31 567.48 3602.93 516.37 3594.67 536.29 3729 591.93 3729 517.62 3669.55 374.11 3649.63 382.36"/><path class="cls-2" d="M85.76,1002.73a164.23,164.23,0,0,0,89.47-89.47,164.29,164.29,0,0,0,0-126.52,164.23,164.23,0,0,0-89.47-89.47A164.33,164.33,0,0,0,0,686.17V708c64.13-10.16,129.39,24.41,155.31,87,30.33,73.23-4.57,157.48-77.8,187.82A142.85,142.85,0,0,1,0,991.93v21.9A164.33,164.33,0,0,0,85.76,1002.73Z"/><polygon class="cls-2" points="133.88 805.03 113.95 796.78 63.23 919.23 0 766.57 0 822.91 43.31 927.48 0 909.54 0 932.88 69.07 961.49 133.88 805.03"/><path class="cls-2" d="M607.23,913.26a165.31,165.31,0,1,0-89.47,89.47A164.29,164.29,0,0,0,607.23,913.26ZM321.69,905c-30.33-73.23,4.57-157.48,77.8-187.82S557,721.76,587.31,795s-4.57,157.48-77.8,187.82S352,978.24,321.69,905Z"/><polygon class="cls-2" points="545.96 796.78 495.24 919.23 418.56 734.11 398.63 742.36 475.31 927.48 351.93 876.37 343.67 896.29 501.07 961.49 565.88 805.03 545.96 796.78"/><path class="cls-2" d="M1039.23,913.26a165.31,165.31,0,1,0-89.47,89.47A164.29,164.29,0,0,0,1039.23,913.26ZM753.69,905c-30.33-73.23,4.57-157.48,77.8-187.82S989,721.76,1019.31,795s-4.57,157.48-77.8,187.82S784,978.24,753.69,905Z"/><polygon class="cls-2" points="977.96 796.78 927.24 919.23 850.55 734.11 830.63 742.36 907.31 927.48 783.93 876.37 775.67 896.29 933.07 961.49 997.88 805.03 977.96 796.78"/><path class="cls-2" d="M1471.23,913.26a165.31,165.31,0,1,0-89.47,89.47A164.29,164.29,0,0,0,1471.23,913.26ZM1185.69,905c-30.33-73.23,4.57-157.48,77.8-187.82S1421,721.76,1451.31,795s-4.57,157.48-77.8,187.82S1216,978.24,1185.69,905Z"/><polygon class="cls-2" points="1409.95 796.78 1359.23 919.23 1282.56 734.11 1262.63 742.36 1339.31 927.48 1215.93 876.37 1207.67 896.29 1365.07 961.49 1429.88 805.03 1409.95 796.78"/><path class="cls-2" d="M1903.23,913.26a165.31,165.31,0,1,0-89.47,89.47A164.29,164.29,0,0,0,1903.23,913.26ZM1617.69,905c-30.33-73.23,4.57-157.48,77.8-187.82S1853,721.76,1883.31,795s-4.57,157.48-77.8,187.82S1648,978.24,1617.69,905Z"/><polygon class="cls-2" points="1841.95 796.78 1791.23 919.23 1714.56 734.11 1694.63 742.36 1771.31 927.48 1647.93 876.37 1639.67 896.29 1797.07 961.49 1861.88 805.03 1841.95 796.78"/><path class="cls-2" d="M2335.23,913.26a165.31,165.31,0,1,0-89.47,89.47A164.29,164.29,0,0,0,2335.23,913.26ZM2049.69,905c-30.33-73.23,4.57-157.48,77.8-187.82S2285,721.76,2315.31,795s-4.57,157.48-77.8,187.82S2080,978.24,2049.69,905Z"/><polygon class="cls-2" points="2273.95 796.78 2223.24 919.23 2146.55 734.11 2126.63 742.36 2203.31 927.48 2079.93 876.37 2071.67 896.29 2229.07 961.49 2293.88 805.03 2273.95 796.78"/><path class="cls-2" d="M2767.23,913.26a165.31,165.31,0,1,0-89.47,89.47A164.29,164.29,0,0,0,2767.23,913.26ZM2481.69,905c-30.33-73.23,4.57-157.48,77.8-187.82S2717,721.76,2747.31,795s-4.57,157.48-77.8,187.82S2512,978.24,2481.69,905Z"/><polygon class="cls-2" points="2705.95 796.78 2655.24 919.23 2578.55 734.11 2558.63 742.36 2635.31 927.48 2511.93 876.37 2503.67 896.29 2661.07 961.49 2725.88 805.03 2705.95 796.78"/><path class="cls-2" d="M3199.23,913.26a165.31,165.31,0,1,0-89.47,89.47A164.29,164.29,0,0,0,3199.23,913.26ZM2913.69,905c-30.33-73.23,4.57-157.48,77.8-187.82S3149,721.76,3179.31,795s-4.57,157.48-77.8,187.82S2944,978.24,2913.69,905Z"/><polygon class="cls-2" points="3137.95 796.78 3087.24 919.23 3010.55 734.11 2990.63 742.36 3067.31 927.48 2943.93 876.37 2935.67 896.29 3093.07 961.49 3157.88 805.03 3137.95 796.78"/><path class="cls-2" d="M3325.77,786.74a165.31,165.31,0,1,0,89.47-89.47A164.29,164.29,0,0,0,3325.77,786.74ZM3611.31,795c30.33,73.23-4.57,157.48-77.8,187.82S3376,978.24,3345.69,905s4.57-157.48,77.8-187.82S3581,721.76,3611.31,795Z"/><polygon class="cls-2" points="3375.93 876.37 3367.67 896.29 3525.07 961.49 3589.88 805.03 3569.95 796.78 3519.24 919.23 3442.55 734.11 3422.63 742.36 3499.31 927.48 3375.93 876.37"/><path class="cls-2" d="M291.76,1057.27a165.31,165.31,0,1,0,89.47,89.47A164.29,164.29,0,0,0,291.76,1057.27Zm-8.25,285.54c-73.23,30.33-157.48-4.57-187.82-77.8s4.57-157.48,77.8-187.82S331,1081.76,361.31,1155,356.74,1312.47,283.51,1342.81Z"/><polygon class="cls-2" points="269.24 1279.23 192.56 1094.11 172.63 1102.36 249.31 1287.48 125.93 1236.37 117.67 1256.29 275.07 1321.49 339.88 1165.03 319.95 1156.78 269.24 1279.23"/><path class="cls-2" d="M723.76,1057.27a165.31,165.31,0,1,0,89.47,89.47A164.29,164.29,0,0,0,723.76,1057.27Zm-8.25,285.54c-73.23,30.33-157.48-4.57-187.82-77.8s4.57-157.48,77.8-187.82S763,1081.76,793.31,1155,788.74,1312.47,715.51,1342.81Z"/><polygon class="cls-2" points="701.24 1279.23 624.55 1094.11 604.63 1102.36 681.31 1287.48 557.93 1236.37 549.67 1256.29 707.07 1321.49 771.88 1165.03 751.96 1156.78 701.24 1279.23"/><path class="cls-2" d="M1155.76,1057.27a165.31,165.31,0,1,0,89.47,89.47A164.29,164.29,0,0,0,1155.76,1057.27Zm-8.25,285.54c-73.23,30.33-157.48-4.57-187.82-77.8s4.57-157.48,77.8-187.82,157.48,4.57,187.82,77.8S1220.74,1312.47,1147.51,1342.81Z"/><polygon class="cls-2" points="1133.23 1279.23 1056.56 1094.11 1036.63 1102.36 1113.31 1287.48 989.93 1236.37 981.67 1256.29 1139.07 1321.49 1203.88 1165.03 1183.95 1156.78 1133.23 1279.23"/><path class="cls-2" d="M1587.76,1057.27a165.31,165.31,0,1,0,89.47,89.47A164.29,164.29,0,0,0,1587.76,1057.27Zm-8.25,285.54c-73.23,30.33-157.48-4.57-187.82-77.8s4.57-157.48,77.8-187.82,157.48,4.57,187.82,77.8S1652.74,1312.47,1579.51,1342.81Z"/><polygon class="cls-2" points="1565.23 1279.23 1488.56 1094.11 1468.63 1102.36 1545.31 1287.48 1421.93 1236.37 1413.67 1256.29 1571.07 1321.49 1635.88 1165.03 1615.95 1156.78 1565.23 1279.23"/><path class="cls-2" d="M2019.76,1057.27a165.31,165.31,0,1,0,89.47,89.47A164.29,164.29,0,0,0,2019.76,1057.27Zm-8.25,285.54c-73.23,30.33-157.48-4.57-187.82-77.8s4.57-157.48,77.8-187.82,157.48,4.57,187.82,77.8S2084.74,1312.47,2011.51,1342.81Z"/><polygon class="cls-2" points="1997.23 1279.23 1920.56 1094.11 1900.63 1102.36 1977.31 1287.48 1853.93 1236.37 1845.67 1256.29 2003.07 1321.49 2067.88 1165.03 2047.95 1156.78 1997.23 1279.23"/><path class="cls-2" d="M2451.76,1057.27a165.31,165.31,0,1,0,89.47,89.47A164.29,164.29,0,0,0,2451.76,1057.27Zm-8.25,285.54c-73.23,30.33-157.48-4.57-187.82-77.8s4.57-157.48,77.8-187.82,157.48,4.57,187.82,77.8S2516.74,1312.47,2443.51,1342.81Z"/><polygon class="cls-2" points="2429.24 1279.23 2352.55 1094.11 2332.63 1102.36 2409.31 1287.48 2285.93 1236.37 2277.67 1256.29 2435.07 1321.49 2499.88 1165.03 2479.95 1156.78 2429.24 1279.23"/><path class="cls-2" d="M2883.76,1057.27a165.31,165.31,0,1,0,89.47,89.47A164.29,164.29,0,0,0,2883.76,1057.27Zm-8.25,285.54c-73.23,30.33-157.48-4.57-187.82-77.8s4.57-157.48,77.8-187.82,157.48,4.57,187.82,77.8S2948.74,1312.47,2875.51,1342.81Z"/><polygon class="cls-2" points="2861.24 1279.23 2784.55 1094.11 2764.63 1102.36 2841.31 1287.48 2717.93 1236.37 2709.67 1256.29 2867.07 1321.49 2931.88 1165.03 2911.95 1156.78 2861.24 1279.23"/><path class="cls-2" d="M3405.23,1273.26a165.31,165.31,0,1,0-89.47,89.47A164.29,164.29,0,0,0,3405.23,1273.26ZM3119.69,1265c-30.33-73.23,4.57-157.48,77.8-187.82s157.48,4.57,187.82,77.8-4.57,157.48-77.8,187.82S3150,1338.24,3119.69,1265Z"/><polygon class="cls-2" points="3343.95 1156.78 3293.24 1279.23 3216.55 1094.11 3196.63 1102.36 3273.31 1287.48 3149.93 1236.37 3141.67 1256.29 3299.07 1321.49 3363.88 1165.03 3343.95 1156.78"/><path class="cls-2" d="M3621.24,1057.27a165.32,165.32,0,0,0,107.76,312v-22.54c-70.61,23-148.41-11.93-177.31-81.68-30.33-73.23,4.57-157.48,77.8-187.82a143.1,143.1,0,0,1,99.51-3.8v-22.62A164.1,164.1,0,0,0,3621.24,1057.27Z"/><polygon class="cls-2" points="3648.55 1094.11 3628.63 1102.36 3705.31 1287.48 3581.93 1236.37 3573.67 1256.29 3729 1320.63 3729 1270.14 3725.24 1279.23 3648.55 1094.11"/><path class="cls-2" d="M154.23,1633.26a164.29,164.29,0,0,0,0-126.52,164.23,164.23,0,0,0-89.47-89.47A165.1,165.1,0,0,0,0,1404.62v21.65A144,144,0,0,1,134.31,1515c29.44,71.09-2.59,152.55-71.47,185h40.89A164.46,164.46,0,0,0,154.23,1633.26Z"/><polygon class="cls-2" points="112.88 1525.03 92.95 1516.78 42.23 1639.23 0 1537.27 0 1593.61 22.31 1647.48 0 1638.24 0 1661.58 48.07 1681.49 112.88 1525.03"/><path class="cls-2" d="M586.23,1633.26a165.25,165.25,0,1,0-255,66.74h41a143.2,143.2,0,0,1-71.62-75c-30.33-73.23,4.57-157.48,77.8-187.82S536,1441.76,566.31,1515c29.44,71.09-2.59,152.55-71.47,185h40.89A164.46,164.46,0,0,0,586.23,1633.26Z"/><polygon class="cls-2" points="524.96 1516.78 474.24 1639.23 397.56 1454.11 377.63 1462.36 454.31 1647.48 330.93 1596.37 322.67 1616.29 480.07 1681.49 544.88 1525.03 524.96 1516.78"/><path class="cls-2" d="M1018.23,1633.26a165.25,165.25,0,1,0-255,66.74h41a143.2,143.2,0,0,1-71.62-75c-30.33-73.23,4.57-157.48,77.8-187.82S968,1441.76,998.31,1515c29.44,71.09-2.59,152.55-71.47,185h40.89A164.46,164.46,0,0,0,1018.23,1633.26Z"/><polygon class="cls-2" points="956.96 1516.78 906.24 1639.23 829.55 1454.11 809.63 1462.36 886.31 1647.48 762.93 1596.37 754.67 1616.29 912.07 1681.49 976.88 1525.03 956.96 1516.78"/><path class="cls-2" d="M1450.23,1633.26a165.25,165.25,0,1,0-255,66.74h41a143.2,143.2,0,0,1-71.62-75c-30.33-73.23,4.57-157.48,77.8-187.82s157.48,4.57,187.82,77.8c29.44,71.09-2.59,152.55-71.47,185h40.89A164.46,164.46,0,0,0,1450.23,1633.26Z"/><polygon class="cls-2" points="1388.95 1516.78 1338.23 1639.23 1261.56 1454.11 1241.63 1462.36 1318.31 1647.48 1194.93 1596.37 1186.67 1616.29 1344.07 1681.49 1408.88 1525.03 1388.95 1516.78"/><path class="cls-2" d="M1882.23,1633.26a165.25,165.25,0,1,0-255,66.74h41a143.2,143.2,0,0,1-71.62-75c-30.33-73.23,4.57-157.48,77.8-187.82s157.48,4.57,187.82,77.8c29.44,71.09-2.59,152.55-71.47,185h40.89A164.46,164.46,0,0,0,1882.23,1633.26Z"/><polygon class="cls-2" points="1820.95 1516.78 1770.23 1639.23 1693.56 1454.11 1673.63 1462.36 1750.31 1647.48 1626.93 1596.37 1618.67 1616.29 1776.07 1681.49 1840.88 1525.03 1820.95 1516.78"/><path class="cls-2" d="M2314.23,1633.26a165.25,165.25,0,1,0-255,66.74h41a143.2,143.2,0,0,1-71.62-75c-30.33-73.23,4.57-157.48,77.8-187.82s157.48,4.57,187.82,77.8c29.44,71.09-2.59,152.55-71.47,185h40.89A164.46,164.46,0,0,0,2314.23,1633.26Z"/><polygon class="cls-2" points="2252.95 1516.78 2202.24 1639.23 2125.55 1454.11 2105.63 1462.36 2182.31 1647.48 2058.93 1596.37 2050.67 1616.29 2208.07 1681.49 2272.88 1525.03 2252.95 1516.78"/><path class="cls-2" d="M2746.23,1633.26a165.25,165.25,0,1,0-255,66.74h41a143.2,143.2,0,0,1-71.62-75c-30.33-73.23,4.57-157.48,77.8-187.82s157.48,4.57,187.82,77.8c29.44,71.09-2.59,152.55-71.47,185h40.89A164.46,164.46,0,0,0,2746.23,1633.26Z"/><polygon class="cls-2" points="2684.95 1516.78 2634.24 1639.23 2557.55 1454.11 2537.63 1462.36 2614.31 1647.48 2490.93 1596.37 2482.67 1616.29 2640.07 1681.49 2704.88 1525.03 2684.95 1516.78"/><path class="cls-2" d="M3178.23,1633.26a165.25,165.25,0,1,0-255,66.74h41a143.2,143.2,0,0,1-71.62-75c-30.33-73.23,4.57-157.48,77.8-187.82s157.48,4.57,187.82,77.8c29.44,71.09-2.59,152.55-71.47,185h40.89A164.46,164.46,0,0,0,3178.23,1633.26Z"/><polygon class="cls-2" points="3116.95 1516.78 3066.24 1639.23 2989.55 1454.11 2969.63 1462.36 3046.31 1647.48 2922.93 1596.37 2914.67 1616.29 3072.07 1681.49 3136.88 1525.03 3116.95 1516.78"/><path class="cls-2" d="M3610.23,1633.26a165.25,165.25,0,1,0-255,66.74h41a143.2,143.2,0,0,1-71.62-75c-30.33-73.23,4.57-157.48,77.8-187.82s157.48,4.57,187.82,77.8c29.44,71.09-2.59,152.55-71.47,185h40.89A164.46,164.46,0,0,0,3610.23,1633.26Z"/><polygon class="cls-2" points="3548.95 1516.78 3498.24 1639.23 3421.55 1454.11 3401.63 1462.36 3478.31 1647.48 3354.93 1596.37 3346.67 1616.29 3504.07 1681.49 3568.88 1525.03 3548.95 1516.78"/><path class="cls-2" d="M3729,1609.72v-79.44A163.52,163.52,0,0,0,3729,1609.72Z"/></g></g></svg>