<svg id="Layer_1" data-name="Layer 1" xmlns="http://www.w3.org/2000/svg" viewBox="0 0 600 600"><defs><style>.cls-1{fill:#3f3e3e;}.cls-2{fill:none;}</style></defs><title>downloadblock</title><path class="cls-1" d="M300,516A230,230,0,0,1,137.37,123.37,230,230,0,1,1,462.63,448.63,228.44,228.44,0,0,1,300,516Zm0-430c-110.28,0-200,89.72-200,200s89.72,200,200,200,200-89.72,200-200S410.28,86,300,86Z"/><polygon class="cls-1" points="445.89 266.29 315.5 396.68 315.5 117.89 285.5 117.89 285.5 396.68 154.11 265.29 132.89 286.5 300.5 454.11 467.11 287.5 445.89 266.29"/><rect class="cls-2" width="600" height="600"/></svg>