<svg xmlns="http://www.w3.org/2000/svg" xmlns:xlink="http://www.w3.org/1999/xlink" viewBox="0 0 384 169"><defs><style>.cls-1{fill:none;}.cls-2{fill:url(#linear-gradient);}.cls-3{fill:#3f3e3e;}</style><linearGradient id="linear-gradient" x1="117.76" y1="77.22" x2="76.93" y2="42.96" gradientUnits="userSpaceOnUse"><stop offset="0" stop-color="#c2292f"/><stop offset="1" stop-color="#dfa856"/></linearGradient></defs><title>fout2</title><g id="Layer_2" data-name="Layer 2"><g id="Layer_1-2" data-name="Layer 1"><rect class="cls-1" width="384" height="169"/><path class="cls-2" d="M142.07,101.71h1.56V73.81c0-1.75-.07-3.47-.22-5.16-1.6-18.88-11.9-33.41-24.32-33.26C105.82,35.55,95,52.73,94.92,73.66c0,17.9,7.68,33,18.15,37.32,2.77,1.14,5,4.31,5.91,8.61,0,.22.09.44.13.66,1.44,8,6.14,13.36,11.39,13.36h1.23c6.58,0,11.9-8.4,11.9-18.77v-5.06h-1.56c-5.6,0-10.16-7.19-10.16-16V73.91a25.61,25.61,0,0,0-3.81-14c-2.45-3.7-5.67-5.6-9.08-5.35-6.27.46-11.42,8.57-11.7,18.47a26.39,26.39,0,0,0,3.39,14.32c2.34,3.88,5.5,6,8.9,6,1.41,0,2.55,1.81,2.55,4s-1.14,4-2.55,4c-4.81,0-9.28-3-12.6-8.5s-5-12.68-4.81-20.27c.41-14,7.7-25.52,16.59-26.17,4.81-.34,9.37,2.34,12.85,7.58S137,66.33,137,73.91V93.76C137,98.14,139.29,101.71,142.07,101.71Zm-22.49-23c-1.71,0-3.09-2.19-3.09-4.88S117.87,69,119.58,69s3.1,2.19,3.1,4.89S121.3,78.75,119.58,78.75Z"/><path class="cls-3" d="M274.43,94.32l-1.92-9.54h.9l1.42,7.48,1.41-7.48h.91l-1.93,9.54Z"/><path class="cls-3" d="M281.34,84.78v1.16l-2.57,7.11h2.66v1.27h-3.68V93.17l2.6-7.11h-2.52V84.78Z"/><path class="cls-3" d="M284.18,92.26l1.21-7.48H286l1.21,7.48,1.05-7.48h.86l-1.44,9.54h-.85l-1.09-6.66-1.13,6.66h-.85l-1.44-9.54h.86Z"/><path class="cls-3" d="M203.28,55c-1.05,0-1.9,1.38-1.9,3.08V72.86h-9.49V58.11c0-1.7-.85-3.08-1.9-3.08s-1.91,1.38-1.91,3.08V91.25c0,1.7.86,3.07,1.91,3.07s1.9-1.37,1.9-3.07V79h9.49V91.25c0,1.7.85,3.07,1.9,3.07s1.9-1.37,1.9-3.07V58.11C205.18,56.41,204.33,55,203.28,55Z"/><path class="cls-3" d="M216.72,55c-4.72,0-8.55,6.2-8.55,13.81V80.51c0,7.62,3.83,13.81,8.55,13.81s8.55-6.19,8.55-13.81V68.84C225.27,61.23,221.43,55,216.72,55Zm4.74,25.48c0,4.23-2.13,7.66-4.74,7.66S212,84.74,212,80.51V68.84c0-4.22,2.12-7.66,4.74-7.66s4.74,3.44,4.74,7.66Z"/><path class="cls-3" d="M234.9,61.18h8.55c1.05,0,1.9-1.37,1.9-3.07S244.5,55,243.45,55H234.9c-3.66,0-6.64,4.82-6.64,10.73v2.52c0,5.92,3,10.73,6.64,10.73h3.81c1.56,0,2.84,2,2.84,4.58s-1.28,4.58-2.84,4.58h-8.55c-1,0-1.9,1.38-1.9,3.08s.85,3.07,1.9,3.07h8.55c3.66,0,6.64-4.81,6.64-10.73s-3-10.73-6.64-10.73H234.9c-1.57,0-2.84-2.06-2.84-4.58V65.76C232.06,63.24,233.33,61.18,234.9,61.18Z"/><path class="cls-3" d="M256.89,55c-4.71,0-8.55,6.2-8.55,13.81V91.25c0,1.7.85,3.07,1.91,3.07s1.9-1.37,1.9-3.07V79h9.48V91.25c0,1.7.86,3.07,1.91,3.07s1.9-1.37,1.9-3.07V68.84C265.44,61.23,261.6,55,256.89,55Zm-4.74,17.83v-4c0-4.22,2.13-7.66,4.74-7.66s4.74,3.44,4.74,7.66v4Z"/><path class="cls-3" d="M176.55,55c-4.72,0-8.55,6.2-8.55,13.81V91.25c0,1.7.85,3.07,1.9,3.07s1.9-1.37,1.9-3.07V79h9.49V91.25c0,1.7.85,3.07,1.9,3.07s1.91-1.37,1.91-3.07V68.84C185.1,61.23,181.26,55,176.55,55ZM171.8,72.86v-4c0-4.22,2.13-7.66,4.75-7.66s4.74,3.44,4.74,7.66v4Z"/><path class="cls-3" d="M171.06,111.72h-2l-.44,2H168l1.8-7.61h.54l1.8,7.61h-.63Zm-1.79-.82h1.6l-.8-3.56Z"/><path class="cls-3" d="M173.25,108.06l0,.71a1.2,1.2,0,0,1,1-.81c.74,0,1.11.67,1.12,2v3.74h-.6V110a1.76,1.76,0,0,0-.18-.9.55.55,0,0,0-.52-.29.67.67,0,0,0-.52.25,1.78,1.78,0,0,0-.34.66v4h-.6v-5.66Z"/><path class="cls-3" d="M176.19,110.84a4.91,4.91,0,0,1,.38-2.09c.26-.53.59-.79,1-.79a1.08,1.08,0,0,1,1,.68v-3h.6v8h-.55l0-.61a1.1,1.1,0,0,1-1,.71c-.41,0-.74-.27-1-.8a4.88,4.88,0,0,1-.39-2.11Zm.6.11a3.68,3.68,0,0,0,.25,1.51.75.75,0,0,0,.68.54c.38,0,.65-.28.83-.83v-2.59c-.18-.54-.46-.8-.83-.8s-.52.18-.68.55A4,4,0,0,0,176.79,111Z"/><path class="cls-3" d="M181.53,113.82a1.32,1.32,0,0,1-1.16-.75,4,4,0,0,1-.45-2v-.18a5.41,5.41,0,0,1,.2-1.51,2.58,2.58,0,0,1,.56-1,1.06,1.06,0,0,1,.77-.37,1.16,1.16,0,0,1,1.06.72,4.51,4.51,0,0,1,.38,2.08v.41h-2.37a2.93,2.93,0,0,0,.3,1.35.86.86,0,0,0,.74.51.76.76,0,0,0,.54-.21,2,2,0,0,0,.38-.55l.37.46C182.55,113.46,182.11,113.82,181.53,113.82Zm-.08-5.07a.69.69,0,0,0-.6.43,2.74,2.74,0,0,0-.31,1.19h1.75v-.07a2.48,2.48,0,0,0-.24-1.14A.68.68,0,0,0,181.45,108.75Z"/><path class="cls-3" d="M185.28,108.93a1,1,0,0,0-.3,0c-.39,0-.66.27-.8.81v4h-.59v-5.66h.58v.65c.19-.5.47-.75.83-.75a.41.41,0,0,1,.27.07Z"/><path class="cls-3" d="M187.87,112.22a.86.86,0,0,0-.19-.61,1.42,1.42,0,0,0-.63-.38,2.36,2.36,0,0,1-.73-.37,1.36,1.36,0,0,1-.39-.53,1.75,1.75,0,0,1-.13-.72,1.84,1.84,0,0,1,.37-1.17,1.11,1.11,0,0,1,.93-.48,1.15,1.15,0,0,1,1,.49,2.06,2.06,0,0,1,.37,1.27h-.6a1.12,1.12,0,0,0-.21-.68.63.63,0,0,0-.52-.29.65.65,0,0,0-.52.23.93.93,0,0,0-.18.6.75.75,0,0,0,.17.53,1.72,1.72,0,0,0,.62.34,2.62,2.62,0,0,1,.73.39,1.44,1.44,0,0,1,.41.54,1.94,1.94,0,0,1,.13.77,1.84,1.84,0,0,1-.37,1.21,1.19,1.19,0,0,1-1,.46,1.24,1.24,0,0,1-.75-.24,1.68,1.68,0,0,1-.51-.67,2.41,2.41,0,0,1-.18-.93h.6a1.28,1.28,0,0,0,.24.77.72.72,0,0,0,.6.28.7.7,0,0,0,.54-.22A.84.84,0,0,0,187.87,112.22Z"/><path class="cls-3" d="M194.6,113.72H194V110.2H191.6v3.52H191v-7.61h.62v3.27H194v-3.27h.63Z"/><path class="cls-3" d="M199.33,110.16a7.13,7.13,0,0,1-.24,2,2.82,2.82,0,0,1-.66,1.27,1.34,1.34,0,0,1-1,.44,1.35,1.35,0,0,1-1-.44,3,3,0,0,1-.67-1.26,6.8,6.8,0,0,1-.24-1.9v-.54a7.48,7.48,0,0,1,.23-1.94,3,3,0,0,1,.67-1.29,1.34,1.34,0,0,1,1-.45,1.37,1.37,0,0,1,1,.44,2.86,2.86,0,0,1,.66,1.28,7.15,7.15,0,0,1,.24,2Zm-.62-.49a5,5,0,0,0-.34-2.08,1,1,0,0,0-1.87,0,5.07,5.07,0,0,0-.35,2v.56a5,5,0,0,0,.35,2.06,1,1,0,0,0,.94.75,1,1,0,0,0,.93-.71,5.1,5.1,0,0,0,.34-2Z"/><path class="cls-3" d="M201.86,108.93a1,1,0,0,0-.3,0c-.39,0-.66.27-.8.81v4h-.6v-5.66h.59v.65c.19-.5.47-.75.83-.75a.43.43,0,0,1,.27.07Z"/><path class="cls-3" d="M203.8,113.82a1.32,1.32,0,0,1-1.16-.75,4,4,0,0,1-.45-2v-.18a5.41,5.41,0,0,1,.2-1.51,2.47,2.47,0,0,1,.56-1,1,1,0,0,1,.77-.37,1.16,1.16,0,0,1,1.06.72,4.51,4.51,0,0,1,.38,2.08v.41h-2.37a2.93,2.93,0,0,0,.3,1.35.86.86,0,0,0,.74.51.76.76,0,0,0,.54-.21,2,2,0,0,0,.38-.55l.37.46C204.82,113.46,204.38,113.82,203.8,113.82Zm-.08-5.07a.71.71,0,0,0-.61.43,2.9,2.9,0,0,0-.3,1.19h1.75v-.07a2.62,2.62,0,0,0-.24-1.14A.68.68,0,0,0,203.72,108.75Z"/><path class="cls-3" d="M206.42,108.06l0,.71a1.2,1.2,0,0,1,1.05-.81c.74,0,1.11.67,1.12,2v3.74H208V110a1.89,1.89,0,0,0-.17-.9.57.57,0,0,0-.53-.29.63.63,0,0,0-.51.25,1.66,1.66,0,0,0-.35.66v4h-.6v-5.66Z"/><path class="cls-3" d="M212.63,110.32a2.69,2.69,0,0,1-1.16-.91,2.34,2.34,0,0,1-.36-1.33,2.38,2.38,0,0,1,.44-1.49,1.4,1.4,0,0,1,1.16-.59,1.34,1.34,0,0,1,.86.3,2,2,0,0,1,.59.84,3.2,3.2,0,0,1,.21,1.17h-.62a1.89,1.89,0,0,0-.28-1.09.94.94,0,0,0-1.48-.07,1.45,1.45,0,0,0-.26.91,1.24,1.24,0,0,0,.25.79,2.19,2.19,0,0,0,.83.59,3.17,3.17,0,0,1,.92.58,2.17,2.17,0,0,1,.49.75,2.86,2.86,0,0,1,.16,1,2.27,2.27,0,0,1-.45,1.48,1.44,1.44,0,0,1-1.19.56,1.55,1.55,0,0,1-.91-.3,2,2,0,0,1-.65-.82,3,3,0,0,1-.22-1.19h.62a1.72,1.72,0,0,0,.32,1.09,1,1,0,0,0,.84.4.91.91,0,0,0,.75-.32,1.66,1.66,0,0,0,0-1.75A2.34,2.34,0,0,0,212.63,110.32Z"/><path class="cls-3" d="M217.24,113.72a3.62,3.62,0,0,1-.08-.6,1.18,1.18,0,0,1-1,.7,1,1,0,0,1-.85-.47,2.07,2.07,0,0,1-.33-1.2,2,2,0,0,1,.42-1.37,1.42,1.42,0,0,1,1.17-.49h.58v-.45a1.46,1.46,0,0,0-.19-.8.61.61,0,0,0-.55-.3.66.66,0,0,0-.54.26,1,1,0,0,0-.22.63h-.6a1.83,1.83,0,0,1,.19-.82,1.55,1.55,0,0,1,.5-.62,1.15,1.15,0,0,1,.7-.23,1.1,1.1,0,0,1,.95.48,2.4,2.4,0,0,1,.36,1.35v2.6a5.07,5.07,0,0,0,.12,1.24v.09Zm-1-.74a.76.76,0,0,0,.53-.24,1.34,1.34,0,0,0,.37-.61V111h-.47c-.73,0-1.1.35-1.1,1a1.13,1.13,0,0,0,.19.71A.56.56,0,0,0,216.25,113Z"/><path class="cls-3" d="M219.25,108.06v.63a1.17,1.17,0,0,1,1-.73c.49,0,.83.3,1,.91a1.73,1.73,0,0,1,.46-.66.92.92,0,0,1,.66-.25c.77,0,1.16.65,1.17,2v3.79H223V110a1.91,1.91,0,0,0-.17-.9.61.61,0,0,0-.58-.3.64.64,0,0,0-.55.32,1.62,1.62,0,0,0-.25.86v3.76h-.61V110c0-.82-.25-1.23-.74-1.23s-.66.27-.81.81v4.13h-.6v-5.66Z"/><path class="cls-3" d="M226,113.82a1.31,1.31,0,0,1-1.16-.75,4,4,0,0,1-.45-2v-.18a5.41,5.41,0,0,1,.2-1.51,2.47,2.47,0,0,1,.56-1,1,1,0,0,1,.77-.37,1.16,1.16,0,0,1,1.06.72,4.65,4.65,0,0,1,.38,2.08v.41h-2.37a2.93,2.93,0,0,0,.3,1.35.85.85,0,0,0,.74.51.76.76,0,0,0,.54-.21,2,2,0,0,0,.38-.55l.37.46C227,113.46,226.53,113.82,226,113.82Zm-.08-5.07a.71.71,0,0,0-.61.43,2.9,2.9,0,0,0-.3,1.19h1.75v-.07a2.62,2.62,0,0,0-.24-1.14A.68.68,0,0,0,225.87,108.75Z"/><path class="cls-3" d="M228.57,108.06l0,.71a1.2,1.2,0,0,1,1-.81c.74,0,1.11.67,1.12,2v3.74h-.6V110a1.76,1.76,0,0,0-.18-.9.55.55,0,0,0-.52-.29.67.67,0,0,0-.52.25,1.78,1.78,0,0,0-.34.66v4H228v-5.66Z"/><path class="cls-3" d="M236,111.72h-2l-.44,2h-.64l1.8-7.61h.54l1.8,7.61h-.64Zm-1.78-.82h1.6l-.8-3.56Z"/><path class="cls-3" d="M239.78,113.72a3.62,3.62,0,0,1-.08-.6,1.18,1.18,0,0,1-1,.7,1,1,0,0,1-.85-.47,2.07,2.07,0,0,1-.33-1.2,2,2,0,0,1,.42-1.37,1.42,1.42,0,0,1,1.17-.49h.58v-.45a1.46,1.46,0,0,0-.19-.8.61.61,0,0,0-.55-.3.66.66,0,0,0-.54.26,1,1,0,0,0-.22.63h-.6a1.83,1.83,0,0,1,.19-.82,1.55,1.55,0,0,1,.5-.62,1.15,1.15,0,0,1,.7-.23,1.1,1.1,0,0,1,1,.48,2.4,2.4,0,0,1,.36,1.35v2.6a5.07,5.07,0,0,0,.12,1.24v.09Zm-1-.74a.74.74,0,0,0,.53-.24,1.34,1.34,0,0,0,.37-.61V111h-.47c-.73,0-1.1.35-1.1,1a1.13,1.13,0,0,0,.19.71A.56.56,0,0,0,238.79,113Z"/><path class="cls-3" d="M241.79,108.06l0,.71a1.2,1.2,0,0,1,1.05-.81c.74,0,1.11.67,1.12,2v3.74h-.6V110a1.89,1.89,0,0,0-.17-.9.57.57,0,0,0-.53-.29.63.63,0,0,0-.51.25,1.79,1.79,0,0,0-.35.66v4h-.59v-5.66Z"/><path class="cls-3" d="M247.84,111a4.87,4.87,0,0,1-.37,2.08c-.24.53-.57.79-1,.79a1.12,1.12,0,0,1-1-.65v2.72h-.6v-7.83h.55l0,.63a1.05,1.05,0,0,1,2,0,5,5,0,0,1,.37,2.14Zm-.6-.11a3.68,3.68,0,0,0-.25-1.51c-.17-.37-.4-.55-.69-.55s-.64.26-.82.78v2.7c.18.51.45.77.82.77s.52-.18.69-.55A4.08,4.08,0,0,0,247.24,110.84Z"/><path class="cls-3" d="M250.76,113.72a3.62,3.62,0,0,1-.08-.6,1.18,1.18,0,0,1-1,.7,1,1,0,0,1-.85-.47,2.42,2.42,0,0,1,.08-2.57,1.45,1.45,0,0,1,1.17-.49h.59v-.45a1.55,1.55,0,0,0-.19-.8.62.62,0,0,0-.55-.3.65.65,0,0,0-.54.26.91.91,0,0,0-.22.63h-.6a1.83,1.83,0,0,1,.19-.82,1.55,1.55,0,0,1,.5-.62,1.13,1.13,0,0,1,.7-.23,1.11,1.11,0,0,1,.95.48,2.4,2.4,0,0,1,.36,1.35v2.6a5.07,5.07,0,0,0,.12,1.24v.09Zm-1-.74a.78.78,0,0,0,.53-.24,1.34,1.34,0,0,0,.37-.61V111h-.47c-.74,0-1.1.35-1.1,1a1.2,1.2,0,0,0,.18.71A.59.59,0,0,0,249.77,113Z"/><path class="cls-3" d="M253.18,111.1l-.37.63v2h-.6v-8h.6v4.85l.32-.62,1.09-1.86h.72l-1.36,2.36,1.52,3.3h-.7Z"/><path class="cls-3" d="M256.54,111.1l-.38.63v2h-.6v-8h.6v4.85l.32-.62,1.09-1.86h.73l-1.36,2.36,1.52,3.3h-.7Z"/><path class="cls-3" d="M260.31,113.82a1.32,1.32,0,0,1-1.16-.75,4,4,0,0,1-.45-2v-.18a5.41,5.41,0,0,1,.2-1.51,2.47,2.47,0,0,1,.56-1,1,1,0,0,1,.77-.37,1.16,1.16,0,0,1,1.06.72,4.51,4.51,0,0,1,.38,2.08v.41H259.3a2.93,2.93,0,0,0,.3,1.35.86.86,0,0,0,.74.51.76.76,0,0,0,.54-.21,2,2,0,0,0,.38-.55l.37.46C261.33,113.46,260.89,113.82,260.31,113.82Zm-.08-5.07a.71.71,0,0,0-.61.43,2.9,2.9,0,0,0-.3,1.19h1.75v-.07a2.48,2.48,0,0,0-.24-1.14A.68.68,0,0,0,260.23,108.75Z"/><path class="cls-3" d="M262.93,108.06l0,.71A1.2,1.2,0,0,1,264,108c.74,0,1.11.67,1.12,2v3.74h-.6V110a1.89,1.89,0,0,0-.17-.9.57.57,0,0,0-.53-.29.63.63,0,0,0-.51.25,1.79,1.79,0,0,0-.35.66v4h-.6v-5.66Z"/></g></g></svg>