<svg xmlns="http://www.w3.org/2000/svg" xmlns:xlink="http://www.w3.org/1999/xlink" viewBox="0 0 384 169"><defs><style>.cls-1{fill:none;}.cls-2{fill:url(#linear-gradient);}.cls-3{fill:#3f3e3e;}</style><linearGradient id="linear-gradient" x1="79.94" y1="72.3" x2="23.35" y2="24.83" gradientUnits="userSpaceOnUse"><stop offset="0" stop-color="#bf282f"/><stop offset="1" stop-color="#dfa856"/></linearGradient></defs><title>fout1</title><g id="Layer_2" data-name="Layer 2"><g id="Layer_1-2" data-name="Layer 1"><rect class="cls-1" width="384" height="169"/><path class="cls-2" d="M121.89,104.09h2.88V72.33a44,44,0,0,0-.4-5.88c-3-21.49-21.89-38-44.75-37.87-24.4.18-44.35,19.74-44.45,43.57-.08,20.39,14.12,37.56,33.39,42.5a15.21,15.21,0,0,1,10.86,9.8l.24.75c2.64,9.07,11.29,15.22,21,15.22h2.28a21.63,21.63,0,0,0,21.88-21.37v-5.76h-2.88A18.49,18.49,0,0,1,103.21,95V72.44a21.64,21.64,0,0,0-7-16,22.76,22.76,0,0,0-16.7-6.1c-11.54.52-21,9.76-21.53,21A21.63,21.63,0,0,0,64.21,87.7a22.68,22.68,0,0,0,16.36,6.84,4.6,4.6,0,1,1,0,9.2A32.09,32.09,0,0,1,57.4,94.05,30.65,30.65,0,0,1,48.56,71c.76-16,14.15-29.06,30.51-29.79a32.26,32.26,0,0,1,23.63,8.63,30.65,30.65,0,0,1,9.92,22.63V95A9.17,9.17,0,0,0,121.89,104.09ZM80.53,78a5.57,5.57,0,1,1,5.7-5.57A5.64,5.64,0,0,1,80.53,78Z"/><path class="cls-3" d="M321.63,126.36l-3.54-10.86h1.65l2.61,8.51L325,115.5h1.66l-3.54,10.86Z"/><path class="cls-3" d="M334.34,115.5v1.31l-4.73,8.1h4.88v1.45h-6.75V125l4.77-8.09h-4.64V115.5Z"/><path class="cls-3" d="M339.57,124l2.22-8.51h1l2.22,8.51L347,115.5h1.59l-2.65,10.86h-1.56l-2-7.59-2.09,7.59h-1.56l-2.65-10.86h1.59Z"/><path class="cls-3" d="M234.49,65a3.5,3.5,0,0,0-3.5,3.5v16.8H213.54V68.51a3.5,3.5,0,0,0-7,0v37.73a3.5,3.5,0,0,0,7,0V92.31H231v13.93a3.5,3.5,0,1,0,7,0V68.51A3.5,3.5,0,0,0,234.49,65Z"/><path class="cls-3" d="M259.21,65a15.74,15.74,0,0,0-15.73,15.72V94a15.73,15.73,0,0,0,31.46,0V80.73A15.74,15.74,0,0,0,259.21,65Zm8.72,29a8.72,8.72,0,0,1-17.44,0V80.73a8.72,8.72,0,0,1,17.44,0Z"/><path class="cls-3" d="M292.65,72h15.73a3.5,3.5,0,0,0,0-7H292.65a12.23,12.23,0,0,0-12.22,12.22v2.86a12.23,12.23,0,0,0,12.22,12.22h7a5.22,5.22,0,1,1,0,10.43H283.93a3.5,3.5,0,0,0,0,7h15.73a12.22,12.22,0,1,0,0-24.43h-7a5.22,5.22,0,0,1-5.22-5.22V77.23A5.22,5.22,0,0,1,292.65,72Z"/><path class="cls-3" d="M333.1,65a15.74,15.74,0,0,0-15.72,15.72v25.51a3.5,3.5,0,1,0,7,0V92.31h17.45v13.93a3.5,3.5,0,1,0,7,0V80.73A15.74,15.74,0,0,0,333.1,65Zm-8.72,20.3V80.73a8.73,8.73,0,0,1,17.45,0v4.58Z"/><path class="cls-3" d="M185.32,65a15.74,15.74,0,0,0-15.73,15.72v25.51a3.5,3.5,0,0,0,7,0V92.31H194v13.93a3.5,3.5,0,0,0,7,0V80.73A15.74,15.74,0,0,0,185.32,65Zm-8.73,20.3V80.73a8.73,8.73,0,0,1,17.45,0v4.58Z"/><path class="cls-3" d="M175.21,49.51h-3.63l-.81,2.27h-1.18l3.31-8.66h1l3.31,8.66H176Zm-3.28-.93h2.94l-1.47-4Z"/><path class="cls-3" d="M179.25,45.34l0,.81a2.36,2.36,0,0,1,1.93-.93c1.36,0,2,.77,2.06,2.31v4.25h-1.1V47.52a1.46,1.46,0,0,0-.32-1,1.28,1.28,0,0,0-1-.33,1.58,1.58,0,0,0-.94.28,1.92,1.92,0,0,0-.63.75v4.59h-1.1V45.34Z"/><path class="cls-3" d="M184.66,48.51a3.75,3.75,0,0,1,.71-2.38,2.19,2.19,0,0,1,1.84-.91A2.23,2.23,0,0,1,189,46V42.64h1.1v9.14h-1l-.06-.69a2.24,2.24,0,0,1-1.84.81,2.18,2.18,0,0,1-1.82-.92,3.8,3.8,0,0,1-.71-2.39Zm1.11.12a2.88,2.88,0,0,0,.45,1.72,1.47,1.47,0,0,0,1.25.62A1.61,1.61,0,0,0,189,50v-3a1.62,1.62,0,0,0-1.52-.91,1.48,1.48,0,0,0-1.26.62A3.18,3.18,0,0,0,185.77,48.63Z"/><path class="cls-3" d="M194.48,51.9a2.83,2.83,0,0,1-2.13-.86,3.18,3.18,0,0,1-.82-2.3v-.2a3.9,3.9,0,0,1,.36-1.71,2.89,2.89,0,0,1,1-1.18,2.57,2.57,0,0,1,1.42-.43,2.4,2.4,0,0,1,1.95.83,3.55,3.55,0,0,1,.7,2.37v.46h-4.36a2.29,2.29,0,0,0,.55,1.54,1.76,1.76,0,0,0,1.36.58,1.91,1.91,0,0,0,1-.24,2.2,2.2,0,0,0,.7-.63l.68.53A2.7,2.7,0,0,1,194.48,51.9Zm-.14-5.77a1.48,1.48,0,0,0-1.12.48,2.39,2.39,0,0,0-.56,1.36h3.23v-.08a2.09,2.09,0,0,0-.45-1.3A1.38,1.38,0,0,0,194.34,46.13Z"/><path class="cls-3" d="M201.37,46.33a3,3,0,0,0-.54,0,1.46,1.46,0,0,0-1.47.92v4.57h-1.1V45.34h1.07l0,.75a1.71,1.71,0,0,1,1.54-.87,1,1,0,0,1,.48.09Z"/><path class="cls-3" d="M206.14,50.07a.82.82,0,0,0-.34-.69,3.34,3.34,0,0,0-1.17-.43,5.5,5.5,0,0,1-1.33-.42,2,2,0,0,1-.73-.6,1.46,1.46,0,0,1-.23-.82,1.67,1.67,0,0,1,.67-1.34,2.66,2.66,0,0,1,1.71-.55,2.7,2.7,0,0,1,1.78.57,1.81,1.81,0,0,1,.68,1.44h-1.11a1,1,0,0,0-.38-.77,1.44,1.44,0,0,0-1-.33,1.54,1.54,0,0,0-.94.26.8.8,0,0,0-.34.68.69.69,0,0,0,.32.61,4,4,0,0,0,1.14.38,6.25,6.25,0,0,1,1.33.44,1.93,1.93,0,0,1,.76.62,1.55,1.55,0,0,1,.25.88,1.65,1.65,0,0,1-.69,1.38,2.88,2.88,0,0,1-1.79.52,3.25,3.25,0,0,1-1.37-.27,2.22,2.22,0,0,1-.93-.77,1.81,1.81,0,0,1-.34-1.06h1.1a1.16,1.16,0,0,0,.44.88,2.09,2.09,0,0,0,2.1.07A.78.78,0,0,0,206.14,50.07Z"/><path class="cls-3" d="M218.52,51.78h-1.15v-4H213v4h-1.14V43.12H213v3.72h4.37V43.12h1.15Z"/><path class="cls-3" d="M227.22,47.73a5.43,5.43,0,0,1-.43,2.22,3.24,3.24,0,0,1-1.22,1.45,3.34,3.34,0,0,1-1.83.5,3.19,3.19,0,0,1-3-1.94,4.89,4.89,0,0,1-.45-2.15v-.63a5.31,5.31,0,0,1,.43-2.21,3.23,3.23,0,0,1,3-2,3.39,3.39,0,0,1,1.83.5A3.29,3.29,0,0,1,226.79,45a5.49,5.49,0,0,1,.43,2.22Zm-1.14-.56a3.91,3.91,0,0,0-.62-2.37,2.21,2.21,0,0,0-3.44,0,3.92,3.92,0,0,0-.64,2.29v.64a3.9,3.9,0,0,0,.63,2.35,2,2,0,0,0,1.73.85,2,2,0,0,0,1.71-.81,3.78,3.78,0,0,0,.63-2.31Z"/><path class="cls-3" d="M231.87,46.33a3.12,3.12,0,0,0-.54,0,1.46,1.46,0,0,0-1.47.92v4.57h-1.1V45.34h1.07l0,.75a1.7,1.7,0,0,1,1.53-.87,1.07,1.07,0,0,1,.49.09Z"/><path class="cls-3" d="M235.44,51.9a2.83,2.83,0,0,1-2.13-.86,3.18,3.18,0,0,1-.82-2.3v-.2a3.9,3.9,0,0,1,.36-1.71,2.89,2.89,0,0,1,1-1.18,2.6,2.6,0,0,1,1.42-.43,2.4,2.4,0,0,1,1.95.83,3.55,3.55,0,0,1,.7,2.37v.46h-4.36a2.25,2.25,0,0,0,.56,1.54,1.73,1.73,0,0,0,1.35.58,1.91,1.91,0,0,0,1-.24,2.34,2.34,0,0,0,.71-.63l.67.53A2.7,2.7,0,0,1,235.44,51.9Zm-.14-5.77a1.5,1.5,0,0,0-1.12.48,2.46,2.46,0,0,0-.56,1.36h3.23v-.08a2.09,2.09,0,0,0-.45-1.3A1.38,1.38,0,0,0,235.3,46.13Z"/><path class="cls-3" d="M240.27,45.34l0,.81a2.35,2.35,0,0,1,1.93-.93c1.36,0,2.05.77,2.06,2.31v4.25h-1.1V47.52a1.51,1.51,0,0,0-.32-1,1.28,1.28,0,0,0-1-.33,1.58,1.58,0,0,0-.94.28,1.92,1.92,0,0,0-.63.75v4.59h-1.11V45.34Z"/><path class="cls-3" d="M251.69,47.92a5.39,5.39,0,0,1-2.14-1,2,2,0,0,1-.67-1.52,2.1,2.1,0,0,1,.82-1.69,3.25,3.25,0,0,1,2.13-.67,3.54,3.54,0,0,1,1.59.34,2.53,2.53,0,0,1,1.08,1,2.37,2.37,0,0,1,.39,1.32h-1.15a1.6,1.6,0,0,0-.5-1.24,2,2,0,0,0-1.41-.45,2.16,2.16,0,0,0-1.32.37,1.27,1.27,0,0,0-.47,1,1.14,1.14,0,0,0,.45.9,4.65,4.65,0,0,0,1.53.67,6.8,6.8,0,0,1,1.69.67,2.55,2.55,0,0,1,.9.85,2.17,2.17,0,0,1,.3,1.15,2.06,2.06,0,0,1-.82,1.69,3.53,3.53,0,0,1-2.2.63,4.06,4.06,0,0,1-1.67-.34,2.83,2.83,0,0,1-1.19-.94,2.3,2.3,0,0,1-.42-1.35h1.15a1.48,1.48,0,0,0,.58,1.24,2.46,2.46,0,0,0,1.55.46,2.32,2.32,0,0,0,1.39-.37,1.21,1.21,0,0,0,.48-1,1.17,1.17,0,0,0-.45-1A5.1,5.1,0,0,0,251.69,47.92Z"/><path class="cls-3" d="M260.17,51.78a2.49,2.49,0,0,1-.15-.68,2.46,2.46,0,0,1-1.83.8,2.29,2.29,0,0,1-1.57-.54A1.76,1.76,0,0,1,256,50a1.85,1.85,0,0,1,.77-1.57,3.6,3.6,0,0,1,2.15-.55H260v-.51a1.29,1.29,0,0,0-.34-.92,1.4,1.4,0,0,0-1-.34,1.6,1.6,0,0,0-1,.3.87.87,0,0,0-.4.72h-1.11a1.52,1.52,0,0,1,.35-.93,2.21,2.21,0,0,1,.92-.71,3.07,3.07,0,0,1,1.29-.27,2.57,2.57,0,0,1,1.75.56,2,2,0,0,1,.65,1.53v3a3.63,3.63,0,0,0,.23,1.41v.09Zm-1.82-.84a1.93,1.93,0,0,0,1-.27A1.59,1.59,0,0,0,260,50V48.66h-.86c-1.35,0-2,.39-2,1.18a1,1,0,0,0,.35.81A1.29,1.29,0,0,0,258.35,50.94Z"/><path class="cls-3" d="M263.86,45.34l0,.72a2.37,2.37,0,0,1,1.91-.84,1.84,1.84,0,0,1,1.84,1,2.43,2.43,0,0,1,.84-.75,2.46,2.46,0,0,1,1.21-.29q2.13,0,2.16,2.25v4.31h-1.1V47.53a1.48,1.48,0,0,0-.32-1,1.38,1.38,0,0,0-1.06-.34,1.45,1.45,0,0,0-1,.36,1.5,1.5,0,0,0-.47,1v4.27h-1.11V47.56a1.23,1.23,0,0,0-1.38-1.4,1.48,1.48,0,0,0-1.48.92v4.7h-1.1V45.34Z"/><path class="cls-3" d="M276.18,51.9a2.83,2.83,0,0,1-2.13-.86,3.18,3.18,0,0,1-.82-2.3v-.2a3.77,3.77,0,0,1,.37-1.71,2.8,2.8,0,0,1,1-1.18,2.6,2.6,0,0,1,1.42-.43,2.44,2.44,0,0,1,2,.83,3.6,3.6,0,0,1,.69,2.37v.46h-4.36a2.3,2.3,0,0,0,.56,1.54,1.73,1.73,0,0,0,1.35.58,1.91,1.91,0,0,0,1-.24,2.23,2.23,0,0,0,.71-.63l.67.53A2.7,2.7,0,0,1,276.18,51.9ZM276,46.13a1.46,1.46,0,0,0-1.11.48,2.32,2.32,0,0,0-.56,1.36h3.22v-.08a2.09,2.09,0,0,0-.45-1.3A1.38,1.38,0,0,0,276,46.13Z"/><path class="cls-3" d="M281,45.34l0,.81a2.36,2.36,0,0,1,1.93-.93c1.36,0,2,.77,2.06,2.31v4.25h-1.1V47.52a1.46,1.46,0,0,0-.32-1,1.28,1.28,0,0,0-1-.33,1.58,1.58,0,0,0-.94.28,1.92,1.92,0,0,0-.63.75v4.59H280V45.34Z"/><path class="cls-3" d="M294.67,49.51H291l-.82,2.27H289l3.31-8.66h1l3.32,8.66h-1.18Zm-3.29-.93h2.95l-1.48-4Z"/><path class="cls-3" d="M301.63,51.78a2.49,2.49,0,0,1-.15-.68,2.46,2.46,0,0,1-1.83.8,2.29,2.29,0,0,1-1.57-.54,1.76,1.76,0,0,1-.61-1.36,1.85,1.85,0,0,1,.77-1.57,3.62,3.62,0,0,1,2.15-.55h1.07v-.51a1.25,1.25,0,0,0-.34-.92,1.38,1.38,0,0,0-1-.34,1.62,1.62,0,0,0-1,.3.9.9,0,0,0-.4.72h-1.1a1.51,1.51,0,0,1,.34-.93,2.31,2.31,0,0,1,.93-.71,3,3,0,0,1,1.28-.27,2.55,2.55,0,0,1,1.75.56,2,2,0,0,1,.65,1.53v3a3.63,3.63,0,0,0,.23,1.41v.09Zm-1.82-.84a1.93,1.93,0,0,0,1-.27,1.59,1.59,0,0,0,.67-.69V48.66h-.86c-1.35,0-2,.39-2,1.18a1,1,0,0,0,.34.81A1.31,1.31,0,0,0,299.81,50.94Z"/><path class="cls-3" d="M305.33,45.34l0,.81a2.33,2.33,0,0,1,1.92-.93c1.37,0,2,.77,2.06,2.31v4.25h-1.1V47.52a1.46,1.46,0,0,0-.32-1,1.26,1.26,0,0,0-1-.33,1.58,1.58,0,0,0-.94.28,1.92,1.92,0,0,0-.63.75v4.59h-1.1V45.34Z"/><path class="cls-3" d="M316.45,48.63a3.85,3.85,0,0,1-.67,2.37,2.15,2.15,0,0,1-1.82.9,2.4,2.4,0,0,1-1.85-.74v3.1H311V45.34h1l.05.72a2.26,2.26,0,0,1,1.87-.84,2.21,2.21,0,0,1,1.84.88,3.88,3.88,0,0,1,.67,2.43Zm-1.1-.12a2.83,2.83,0,0,0-.46-1.72,1.51,1.51,0,0,0-1.28-.63,1.63,1.63,0,0,0-1.5.88v3.08a1.63,1.63,0,0,0,1.52.88,1.48,1.48,0,0,0,1.25-.63A3,3,0,0,0,315.35,48.51Z"/><path class="cls-3" d="M321.83,51.78a2.1,2.1,0,0,1-.16-.68,2.46,2.46,0,0,1-1.83.8,2.24,2.24,0,0,1-1.56-.54,1.72,1.72,0,0,1-.61-1.36,1.84,1.84,0,0,1,.76-1.57,3.62,3.62,0,0,1,2.15-.55h1.07v-.51a1.25,1.25,0,0,0-.34-.92,1.38,1.38,0,0,0-1-.34,1.62,1.62,0,0,0-1,.3.9.9,0,0,0-.4.72h-1.1a1.51,1.51,0,0,1,.34-.93,2.31,2.31,0,0,1,.93-.71,3,3,0,0,1,1.29-.27,2.54,2.54,0,0,1,1.74.56,2,2,0,0,1,.66,1.53v3a3.65,3.65,0,0,0,.22,1.41v.09ZM320,50.94a1.9,1.9,0,0,0,1-.27,1.54,1.54,0,0,0,.67-.69V48.66h-.86c-1.35,0-2,.39-2,1.18a1,1,0,0,0,.34.81A1.31,1.31,0,0,0,320,50.94Z"/><path class="cls-3" d="M326.28,48.8l-.69.72v2.26h-1.1V42.64h1.1v5.53l.59-.71,2-2.12h1.34L327,48l2.79,3.75h-1.29Z"/><path class="cls-3" d="M332.46,48.8l-.69.72v2.26h-1.11V42.64h1.11v5.53l.58-.71,2-2.12h1.34L333.19,48l2.8,3.75H334.7Z"/><path class="cls-3" d="M339.39,51.9a2.83,2.83,0,0,1-2.13-.86,3.18,3.18,0,0,1-.82-2.3v-.2a3.9,3.9,0,0,1,.36-1.71,2.89,2.89,0,0,1,1-1.18,2.57,2.57,0,0,1,1.42-.43,2.4,2.4,0,0,1,1.95.83,3.55,3.55,0,0,1,.7,2.37v.46h-4.36a2.29,2.29,0,0,0,.55,1.54,1.76,1.76,0,0,0,1.36.58,1.91,1.91,0,0,0,1-.24,2.2,2.2,0,0,0,.7-.63l.68.53A2.7,2.7,0,0,1,339.39,51.9Zm-.14-5.77a1.48,1.48,0,0,0-1.12.48,2.46,2.46,0,0,0-.56,1.36h3.23v-.08a2.09,2.09,0,0,0-.45-1.3A1.38,1.38,0,0,0,339.25,46.13Z"/><path class="cls-3" d="M344.21,45.34l0,.81a2.35,2.35,0,0,1,1.93-.93c1.36,0,2.05.77,2.06,2.31v4.25h-1.1V47.52a1.51,1.51,0,0,0-.32-1,1.28,1.28,0,0,0-1-.33,1.56,1.56,0,0,0-.94.28,2,2,0,0,0-.64.75v4.59h-1.1V45.34Z"/></g></g></svg>