<svg xmlns="http://www.w3.org/2000/svg" xmlns:xlink="http://www.w3.org/1999/xlink" viewBox="0 0 384 169"><defs><style>.cls-1{fill:none;}.cls-2{fill:url(#Ahosa_Gradient);}.cls-3{fill:url(#Ahosa_Gradient-2);}.cls-4{fill:url(#Ahosa_Gradient-3);}.cls-5{fill:url(#Ahosa_Gradient-4);}.cls-6{fill:url(#Ahosa_Gradient-5);}.cls-7{fill:url(#Ahosa_Gradient-6);}.cls-8{fill:url(#Ahosa_Gradient-7);}.cls-9{fill:url(#Ahosa_Gradient-8);}.cls-10{fill:url(#Ahosa_Gradient-9);}.cls-11{fill:url(#Ahosa_Gradient-10);}.cls-12{fill:url(#Ahosa_Gradient-11);}.cls-13{fill:url(#Ahosa_Gradient-12);}.cls-14{fill:url(#Ahosa_Gradient-13);}.cls-15{fill:url(#Ahosa_Gradient-14);}.cls-16{fill:url(#Ahosa_Gradient-15);}.cls-17{fill:url(#Ahosa_Gradient-16);}.cls-18{fill:url(#Ahosa_Gradient-17);}.cls-19{fill:url(#Ahosa_Gradient-18);}.cls-20{fill:url(#Ahosa_Gradient-19);}.cls-21{fill:url(#Ahosa_Gradient-20);}.cls-22{fill:url(#Ahosa_Gradient-21);}.cls-23{fill:url(#Ahosa_Gradient-22);}.cls-24{fill:url(#Ahosa_Gradient-23);}.cls-25{fill:url(#Ahosa_Gradient-24);}.cls-26{fill:url(#Ahosa_Gradient-25);}.cls-27{fill:url(#Ahosa_Gradient-26);}.cls-28{fill:url(#Ahosa_Gradient-27);}.cls-29{fill:url(#Ahosa_Gradient-28);}.cls-30{fill:url(#Ahosa_Gradient-29);}.cls-31{fill:url(#Ahosa_Gradient-30);}.cls-32{fill:url(#Ahosa_Gradient-31);}.cls-33{fill:url(#Ahosa_Gradient-32);}.cls-34{fill:url(#Ahosa_Gradient-33);}.cls-35{fill:url(#Ahosa_Gradient-34);}</style><linearGradient id="Ahosa_Gradient" x1="35.17" y1="84.5" x2="113.86" y2="84.5" gradientUnits="userSpaceOnUse"><stop offset="0" stop-color="#bf282f"/><stop offset="1" stop-color="#dfa856"/></linearGradient><linearGradient id="Ahosa_Gradient-2" x1="322.06" y1="89.55" x2="329.55" y2="89.55" xlink:href="#Ahosa_Gradient"/><linearGradient id="Ahosa_Gradient-3" x1="330.54" y1="89.55" x2="336.47" y2="89.55" xlink:href="#Ahosa_Gradient"/><linearGradient id="Ahosa_Gradient-4" x1="337.85" y1="89.55" x2="348.83" y2="89.55" xlink:href="#Ahosa_Gradient"/><linearGradient id="Ahosa_Gradient-5" x1="185.67" y1="74.68" x2="213.3" y2="74.68" xlink:href="#Ahosa_Gradient"/><linearGradient id="Ahosa_Gradient-6" x1="218.12" y1="74.68" x2="245.74" y2="74.68" xlink:href="#Ahosa_Gradient"/><linearGradient id="Ahosa_Gradient-7" x1="250.57" y1="74.68" x2="278.19" y2="74.68" xlink:href="#Ahosa_Gradient"/><linearGradient id="Ahosa_Gradient-8" x1="283.02" y1="74.68" x2="310.64" y2="74.68" xlink:href="#Ahosa_Gradient"/><linearGradient id="Ahosa_Gradient-9" x1="153.22" y1="74.68" x2="180.85" y2="74.68" xlink:href="#Ahosa_Gradient"/><linearGradient id="Ahosa_Gradient-10" x1="153.22" y1="109.91" x2="159.92" y2="109.91" xlink:href="#Ahosa_Gradient"/><linearGradient id="Ahosa_Gradient-11" x1="160.79" y1="110.84" x2="165.24" y2="110.84" xlink:href="#Ahosa_Gradient"/><linearGradient id="Ahosa_Gradient-12" x1="166.46" y1="109.75" x2="171.24" y2="109.75" xlink:href="#Ahosa_Gradient"/><linearGradient id="Ahosa_Gradient-13" x1="172.49" y1="110.89" x2="177.29" y2="110.89" xlink:href="#Ahosa_Gradient"/><linearGradient id="Ahosa_Gradient-14" x1="178.41" y1="110.84" x2="181.14" y2="110.84" xlink:href="#Ahosa_Gradient"/><linearGradient id="Ahosa_Gradient-15" x1="181.79" y1="110.89" x2="186.29" y2="110.89" xlink:href="#Ahosa_Gradient"/><linearGradient id="Ahosa_Gradient-16" x1="190.35" y1="109.91" x2="196.2" y2="109.91" xlink:href="#Ahosa_Gradient"/><linearGradient id="Ahosa_Gradient-17" x1="197.71" y1="109.91" x2="203.83" y2="109.91" xlink:href="#Ahosa_Gradient"/><linearGradient id="Ahosa_Gradient-18" x1="205.19" y1="110.84" x2="207.92" y2="110.84" xlink:href="#Ahosa_Gradient"/><linearGradient id="Ahosa_Gradient-19" x1="208.47" y1="110.89" x2="213.26" y2="110.89" xlink:href="#Ahosa_Gradient"/><linearGradient id="Ahosa_Gradient-20" x1="214.38" y1="110.84" x2="218.83" y2="110.84" xlink:href="#Ahosa_Gradient"/><linearGradient id="Ahosa_Gradient-21" x1="222.62" y1="109.91" x2="228.15" y2="109.91" xlink:href="#Ahosa_Gradient"/><linearGradient id="Ahosa_Gradient-22" x1="229.13" y1="110.89" x2="233.79" y2="110.89" xlink:href="#Ahosa_Gradient"/><linearGradient id="Ahosa_Gradient-23" x1="235.1" y1="110.84" x2="243.03" y2="110.84" xlink:href="#Ahosa_Gradient"/><linearGradient id="Ahosa_Gradient-24" x1="244.25" y1="110.89" x2="249.04" y2="110.89" xlink:href="#Ahosa_Gradient"/><linearGradient id="Ahosa_Gradient-25" x1="250.16" y1="110.84" x2="254.61" y2="110.84" xlink:href="#Ahosa_Gradient"/><linearGradient id="Ahosa_Gradient-26" x1="258.13" y1="109.91" x2="264.83" y2="109.91" xlink:href="#Ahosa_Gradient"/><linearGradient id="Ahosa_Gradient-27" x1="265.54" y1="110.89" x2="270.21" y2="110.89" xlink:href="#Ahosa_Gradient"/><linearGradient id="Ahosa_Gradient-28" x1="271.52" y1="110.84" x2="275.97" y2="110.84" xlink:href="#Ahosa_Gradient"/><linearGradient id="Ahosa_Gradient-29" x1="277.43" y1="111.92" x2="282.21" y2="111.92" xlink:href="#Ahosa_Gradient"/><linearGradient id="Ahosa_Gradient-30" x1="283.27" y1="110.89" x2="287.94" y2="110.89" xlink:href="#Ahosa_Gradient"/><linearGradient id="Ahosa_Gradient-31" x1="289.26" y1="109.7" x2="293.94" y2="109.7" xlink:href="#Ahosa_Gradient"/><linearGradient id="Ahosa_Gradient-32" x1="294.69" y1="109.7" x2="299.37" y2="109.7" xlink:href="#Ahosa_Gradient"/><linearGradient id="Ahosa_Gradient-33" x1="299.76" y1="110.89" x2="304.56" y2="110.89" xlink:href="#Ahosa_Gradient"/><linearGradient id="Ahosa_Gradient-34" x1="305.67" y1="110.84" x2="310.12" y2="110.84" xlink:href="#Ahosa_Gradient"/></defs><title>fout5</title><g id="Layer_2" data-name="Layer 2"><g id="Layer_1-2" data-name="Layer 1"><rect class="cls-1" width="384" height="169"/><path class="cls-2" d="M111.33,101.71h2.53V73.81a38.22,38.22,0,0,0-.35-5.16c-2.6-18.88-19.23-33.41-39.3-33.26-21.43.16-38.95,17.34-39,38.27-.07,17.9,12.4,33,29.32,37.32A13.33,13.33,0,0,1,74,119.59q.12.33.21.66a19,19,0,0,0,18.4,13.36h2a19,19,0,0,0,19.22-18.77v-5.06h-2.53a16.24,16.24,0,0,1-16.41-16V73.91a19,19,0,0,0-6.15-14A20,20,0,0,0,55.19,73a19,19,0,0,0,5.48,14.32,19.91,19.91,0,0,0,14.38,6,4,4,0,1,1,0,8.07,28.23,28.23,0,0,1-20.36-8.5,26.94,26.94,0,0,1-7.76-20.27c.66-14,12.43-25.52,26.79-26.17A28.32,28.32,0,0,1,94.48,54a26.94,26.94,0,0,1,8.71,19.88V93.76A8.06,8.06,0,0,0,111.33,101.71ZM75,78.75a4.89,4.89,0,1,1,5-4.88A4.95,4.95,0,0,1,75,78.75Z"/><path class="cls-3" d="M325.17,94.32l-3.11-9.54h1.46l2.29,7.48,2.29-7.48h1.45l-3.11,9.54Z"/><path class="cls-4" d="M336.34,84.78v1.16l-4.16,7.11h4.29v1.27h-5.93V93.17l4.18-7.11h-4.07V84.78Z"/><path class="cls-5" d="M340.92,92.26l2-7.48h.92l1.95,7.48,1.69-7.48h1.39l-2.33,9.54h-1.36l-1.76-6.66-1.84,6.66h-1.36l-2.33-9.54h1.39Z"/><path class="cls-6" d="M210.22,55a3.07,3.07,0,0,0-3.07,3.08V72.86H191.82V58.11a3.08,3.08,0,1,0-6.15,0V91.25a3.08,3.08,0,0,0,6.15,0V79h15.33V91.25a3.08,3.08,0,0,0,6.15,0V58.11A3.08,3.08,0,0,0,210.22,55Z"/><path class="cls-7" d="M231.93,55a13.83,13.83,0,0,0-13.81,13.81V80.51a13.81,13.81,0,0,0,27.62,0V68.84A13.83,13.83,0,0,0,231.93,55Zm7.66,25.48a7.66,7.66,0,1,1-15.32,0V68.84a7.66,7.66,0,0,1,15.32,0Z"/><path class="cls-8" d="M261.3,61.18h13.82a3.08,3.08,0,0,0,0-6.15H261.3a10.75,10.75,0,0,0-10.73,10.73v2.52A10.74,10.74,0,0,0,261.3,79h6.16a4.58,4.58,0,1,1,0,9.16H253.65a3.08,3.08,0,1,0,0,6.15h13.81a10.73,10.73,0,1,0,0-21.46H261.3a4.59,4.59,0,0,1-4.58-4.58V65.76A4.59,4.59,0,0,1,261.3,61.18Z"/><path class="cls-9" d="M296.83,55A13.83,13.83,0,0,0,283,68.84V91.25a3.08,3.08,0,0,0,6.15,0V79h15.32V91.25a3.08,3.08,0,0,0,6.15,0V68.84A13.83,13.83,0,0,0,296.83,55Zm-7.66,17.83v-4a7.66,7.66,0,0,1,15.32,0v4Z"/><path class="cls-10" d="M167,55a13.83,13.83,0,0,0-13.82,13.81V91.25a3.08,3.08,0,0,0,6.15,0V79H174.7V91.25a3.08,3.08,0,0,0,6.15,0V68.84A13.83,13.83,0,0,0,167,55Zm-7.67,17.83v-4a7.67,7.67,0,0,1,15.33,0v4Z"/><path class="cls-11" d="M158.16,111.72H155l-.72,2h-1l2.91-7.61H157l2.91,7.61h-1Zm-2.88-.82h2.59l-1.3-3.56Z"/><path class="cls-12" d="M161.71,108.06l0,.71a2.07,2.07,0,0,1,1.69-.81c1.2,0,1.8.67,1.81,2v3.74h-1V110a1.25,1.25,0,0,0-.28-.9,1.08,1.08,0,0,0-.85-.29,1.4,1.4,0,0,0-.83.25,1.7,1.7,0,0,0-.55.66v4h-1v-5.66Z"/><path class="cls-13" d="M166.46,110.84a3.31,3.31,0,0,1,.62-2.09,2.1,2.1,0,0,1,3.19-.11v-3h1v8h-.89l0-.61a2.1,2.1,0,0,1-3.22-.09,3.39,3.39,0,0,1-.62-2.11Zm1,.11a2.51,2.51,0,0,0,.4,1.51,1.28,1.28,0,0,0,1.1.54,1.41,1.41,0,0,0,1.34-.83v-2.59a1.41,1.41,0,0,0-1.33-.8,1.27,1.27,0,0,0-1.11.55A2.69,2.69,0,0,0,167.43,111Z"/><path class="cls-14" d="M175.08,113.82a2.49,2.49,0,0,1-1.87-.75,2.82,2.82,0,0,1-.72-2v-.18a3.52,3.52,0,0,1,.32-1.51,2.59,2.59,0,0,1,.9-1A2.25,2.25,0,0,1,175,108a2.14,2.14,0,0,1,1.72.72,3.2,3.2,0,0,1,.61,2.08v.41h-3.83a2,2,0,0,0,.49,1.35,1.52,1.52,0,0,0,1.18.51,1.65,1.65,0,0,0,.87-.21,2,2,0,0,0,.62-.55l.6.46A2.39,2.39,0,0,1,175.08,113.82Zm-.12-5.07a1.26,1.26,0,0,0-1,.43,2,2,0,0,0-.49,1.19h2.83v-.07a1.83,1.83,0,0,0-.4-1.14A1.2,1.2,0,0,0,175,108.75Z"/><path class="cls-15" d="M181.14,108.93a2.45,2.45,0,0,0-.48,0,1.28,1.28,0,0,0-1.29.81v4h-1v-5.66h.94v.65a1.52,1.52,0,0,1,1.35-.75,1,1,0,0,1,.43.07Z"/><path class="cls-16" d="M185.32,112.22a.71.71,0,0,0-.29-.61,2.85,2.85,0,0,0-1-.38,5.06,5.06,0,0,1-1.17-.37,1.64,1.64,0,0,1-.64-.53,1.29,1.29,0,0,1-.2-.72,1.44,1.44,0,0,1,.59-1.17,2.29,2.29,0,0,1,1.5-.48,2.37,2.37,0,0,1,1.56.49,1.58,1.58,0,0,1,.6,1.27h-1a.88.88,0,0,0-.33-.68,1.29,1.29,0,0,0-.85-.29,1.36,1.36,0,0,0-.83.23.71.71,0,0,0-.3.6.6.6,0,0,0,.28.53,3.5,3.5,0,0,0,1,.34,5.42,5.42,0,0,1,1.18.39,1.73,1.73,0,0,1,.66.54,1.27,1.27,0,0,1,.22.77,1.43,1.43,0,0,1-.61,1.21,2.5,2.5,0,0,1-1.57.46,2.86,2.86,0,0,1-1.2-.24,2,2,0,0,1-.82-.67,1.61,1.61,0,0,1-.3-.93h1a1,1,0,0,0,.39.77,1.5,1.5,0,0,0,1,.28,1.55,1.55,0,0,0,.88-.22A.69.69,0,0,0,185.32,112.22Z"/><path class="cls-17" d="M196.2,113.72h-1V110.2h-3.84v3.52h-1v-7.61h1v3.27h3.84v-3.27h1Z"/><path class="cls-18" d="M203.83,110.16a4.74,4.74,0,0,1-.37,2,2.86,2.86,0,0,1-1.07,1.27,3.13,3.13,0,0,1-3.2,0,2.9,2.9,0,0,1-1.08-1.26,4.54,4.54,0,0,1-.4-1.9v-.54a4.54,4.54,0,0,1,.39-1.94,2.8,2.8,0,0,1,2.67-1.74,3,3,0,0,1,1.61.44,2.85,2.85,0,0,1,1.08,1.28,4.76,4.76,0,0,1,.37,2Zm-1-.49a3.41,3.41,0,0,0-.55-2.08,1.93,1.93,0,0,0-3,0,3.36,3.36,0,0,0-.56,2v.56a3.47,3.47,0,0,0,.55,2.06,1.94,1.94,0,0,0,3,0,3.43,3.43,0,0,0,.55-2Z"/><path class="cls-19" d="M207.92,108.93a2.35,2.35,0,0,0-.47,0,1.28,1.28,0,0,0-1.3.81v4h-1v-5.66h.94v.65a1.52,1.52,0,0,1,1.35-.75,1,1,0,0,1,.43.07Z"/><path class="cls-20" d="M211.06,113.82a2.47,2.47,0,0,1-1.87-.75,2.82,2.82,0,0,1-.72-2v-.18a3.38,3.38,0,0,1,.32-1.51,2.44,2.44,0,0,1,.9-1,2.23,2.23,0,0,1,1.25-.37,2.13,2.13,0,0,1,1.71.72,3.15,3.15,0,0,1,.61,2.08v.41h-3.83a2.08,2.08,0,0,0,.49,1.35,1.54,1.54,0,0,0,1.19.51,1.7,1.7,0,0,0,.87-.21,2.3,2.3,0,0,0,.62-.55l.59.46A2.36,2.36,0,0,1,211.06,113.82Zm-.12-5.07a1.3,1.3,0,0,0-1,.43,2.13,2.13,0,0,0-.49,1.19h2.84v-.07a1.83,1.83,0,0,0-.4-1.14A1.22,1.22,0,0,0,210.94,108.75Z"/><path class="cls-21" d="M215.3,108.06l0,.71A2.05,2.05,0,0,1,217,108c1.2,0,1.8.67,1.81,2v3.74h-1V110a1.25,1.25,0,0,0-.28-.9,1.1,1.1,0,0,0-.85-.29,1.38,1.38,0,0,0-.83.25,1.7,1.7,0,0,0-.55.66v4h-1v-5.66Z"/><path class="cls-22" d="M225.33,110.32a4.63,4.63,0,0,1-1.88-.91,1.74,1.74,0,0,1-.59-1.33,1.84,1.84,0,0,1,.72-1.49,2.87,2.87,0,0,1,1.87-.59,3.16,3.16,0,0,1,1.4.3,2.36,2.36,0,0,1,1,.84,2.13,2.13,0,0,1,.34,1.17h-1a1.39,1.39,0,0,0-.44-1.09,1.76,1.76,0,0,0-1.24-.4,1.84,1.84,0,0,0-1.16.33,1.11,1.11,0,0,0-.41.91,1,1,0,0,0,.39.79,4,4,0,0,0,1.35.59,6.15,6.15,0,0,1,1.48.58,2.42,2.42,0,0,1,.8.75,2,2,0,0,1,.25,1,1.77,1.77,0,0,1-.72,1.48,3.08,3.08,0,0,1-1.93.56,3.57,3.57,0,0,1-1.46-.3,2.49,2.49,0,0,1-1-.82,2.07,2.07,0,0,1-.37-1.19h1a1.32,1.32,0,0,0,.51,1.09,2.14,2.14,0,0,0,1.36.4,2,2,0,0,0,1.22-.32,1.07,1.07,0,0,0,.43-.89,1,1,0,0,0-.4-.86A4.33,4.33,0,0,0,225.33,110.32Z"/><path class="cls-23" d="M232.78,113.72a2.11,2.11,0,0,1-.14-.6,2.14,2.14,0,0,1-1.61.7,2,2,0,0,1-1.37-.47,1.53,1.53,0,0,1-.53-1.2,1.58,1.58,0,0,1,.67-1.37,3.11,3.11,0,0,1,1.89-.49h.94v-.45a1.05,1.05,0,0,0-.31-.8,1.21,1.21,0,0,0-.89-.3,1.4,1.4,0,0,0-.87.26.77.77,0,0,0-.35.63h-1a1.34,1.34,0,0,1,.3-.82,2,2,0,0,1,.82-.62,2.63,2.63,0,0,1,1.13-.23,2.26,2.26,0,0,1,1.53.48,1.76,1.76,0,0,1,.57,1.35v2.6a3.21,3.21,0,0,0,.2,1.24v.09Zm-1.61-.74a1.68,1.68,0,0,0,.87-.24,1.39,1.39,0,0,0,.59-.61V111h-.76c-1.18,0-1.78.35-1.78,1a.85.85,0,0,0,.31.71A1.16,1.16,0,0,0,231.17,113Z"/><path class="cls-24" d="M236,108.06l0,.63a2.06,2.06,0,0,1,1.67-.73,1.62,1.62,0,0,1,1.62.91,2,2,0,0,1,.73-.66,2.14,2.14,0,0,1,1.07-.25c1.24,0,1.87.65,1.89,2v3.79h-1V110a1.31,1.31,0,0,0-.28-.9,1.21,1.21,0,0,0-.93-.3,1.23,1.23,0,0,0-.89.32,1.29,1.29,0,0,0-.42.86v3.76h-1V110a1.08,1.08,0,0,0-1.21-1.23,1.3,1.3,0,0,0-1.3.81v4.13h-1v-5.66Z"/><path class="cls-25" d="M246.84,113.82a2.47,2.47,0,0,1-1.87-.75,2.82,2.82,0,0,1-.72-2v-.18a3.38,3.38,0,0,1,.32-1.51,2.44,2.44,0,0,1,.9-1,2.23,2.23,0,0,1,1.25-.37,2.11,2.11,0,0,1,1.71.72,3.15,3.15,0,0,1,.61,2.08v.41h-3.83a2.08,2.08,0,0,0,.49,1.35,1.54,1.54,0,0,0,1.19.51,1.7,1.7,0,0,0,.87-.21,2.16,2.16,0,0,0,.62-.55l.59.46A2.36,2.36,0,0,1,246.84,113.82Zm-.12-5.07a1.26,1.26,0,0,0-1,.43,2,2,0,0,0-.49,1.19h2.83v-.07a1.83,1.83,0,0,0-.4-1.14A1.22,1.22,0,0,0,246.72,108.75Z"/><path class="cls-26" d="M251.08,108.06l0,.71a2.07,2.07,0,0,1,1.69-.81c1.2,0,1.8.67,1.81,2v3.74h-1V110a1.25,1.25,0,0,0-.28-.9,1.08,1.08,0,0,0-.85-.29,1.4,1.4,0,0,0-.83.25,1.7,1.7,0,0,0-.55.66v4h-1v-5.66Z"/><path class="cls-27" d="M263.07,111.72h-3.19l-.71,2h-1l2.91-7.61h.88l2.91,7.61h-1Zm-2.88-.82h2.58l-1.29-3.56Z"/><path class="cls-28" d="M269.19,113.72a2.18,2.18,0,0,1-.13-.6,2.15,2.15,0,0,1-1.61.7,2,2,0,0,1-1.37-.47,1.54,1.54,0,0,1-.54-1.2,1.58,1.58,0,0,1,.67-1.37,3.15,3.15,0,0,1,1.89-.49H269v-.45a1.09,1.09,0,0,0-.3-.8,1.22,1.22,0,0,0-.9-.3,1.35,1.35,0,0,0-.86.26.74.74,0,0,0-.35.63h-1a1.29,1.29,0,0,1,.31-.82,2,2,0,0,1,.81-.62,2.63,2.63,0,0,1,1.13-.23,2.26,2.26,0,0,1,1.53.48,1.8,1.8,0,0,1,.58,1.35v2.6a3,3,0,0,0,.2,1.24v.09Zm-1.6-.74a1.67,1.67,0,0,0,.86-.24,1.39,1.39,0,0,0,.59-.61V111h-.76c-1.18,0-1.77.35-1.77,1a.87.87,0,0,0,.3.71A1.17,1.17,0,0,0,267.59,113Z"/><path class="cls-29" d="M272.44,108.06l0,.71a2.07,2.07,0,0,1,1.69-.81c1.2,0,1.8.67,1.81,2v3.74h-1V110a1.34,1.34,0,0,0-.28-.9,1.12,1.12,0,0,0-.86-.29,1.35,1.35,0,0,0-.82.25,1.64,1.64,0,0,0-.56.66v4h-1v-5.66Z"/><path class="cls-30" d="M282.21,111a3.4,3.4,0,0,1-.59,2.08,1.9,1.9,0,0,1-1.6.79,2.08,2.08,0,0,1-1.62-.65v2.72h-1v-7.83h.88l.05.63A2,2,0,0,1,280,108a1.92,1.92,0,0,1,1.61.76,3.42,3.42,0,0,1,.6,2.14Zm-1-.11a2.51,2.51,0,0,0-.41-1.51,1.3,1.3,0,0,0-1.12-.55,1.41,1.41,0,0,0-1.31.78v2.7a1.43,1.43,0,0,0,1.32.77,1.3,1.3,0,0,0,1.11-.55A2.75,2.75,0,0,0,281.24,110.84Z"/><path class="cls-31" d="M286.93,113.72a2.11,2.11,0,0,1-.14-.6,2.14,2.14,0,0,1-1.61.7,2,2,0,0,1-1.37-.47,1.54,1.54,0,0,1-.54-1.2,1.59,1.59,0,0,1,.68-1.37,3.09,3.09,0,0,1,1.88-.49h.95v-.45a1.09,1.09,0,0,0-.31-.8,1.21,1.21,0,0,0-.89-.3,1.36,1.36,0,0,0-.87.26.77.77,0,0,0-.35.63h-1a1.34,1.34,0,0,1,.3-.82,2,2,0,0,1,.81-.62,2.7,2.7,0,0,1,1.14-.23,2.26,2.26,0,0,1,1.53.48,1.76,1.76,0,0,1,.57,1.35v2.6a3.21,3.21,0,0,0,.2,1.24v.09Zm-1.61-.74a1.64,1.64,0,0,0,.86-.24,1.41,1.41,0,0,0,.6-.61V111H286c-1.19,0-1.78.35-1.78,1a.87.87,0,0,0,.3.71A1.2,1.2,0,0,0,285.32,113Z"/><path class="cls-32" d="M290.84,111.1l-.61.63v2h-1v-8h1v4.85l.52-.62,1.76-1.86h1.18l-2.2,2.36,2.45,3.3h-1.13Z"/><path class="cls-33" d="M296.26,111.1l-.6.63v2h-1v-8h1v4.85l.51-.62,1.76-1.86h1.18l-2.2,2.36,2.46,3.3h-1.14Z"/><path class="cls-34" d="M302.35,113.82a2.47,2.47,0,0,1-1.87-.75,2.82,2.82,0,0,1-.72-2v-.18a3.52,3.52,0,0,1,.32-1.51,2.44,2.44,0,0,1,.9-1,2.23,2.23,0,0,1,1.25-.37,2.1,2.1,0,0,1,1.71.72,3.15,3.15,0,0,1,.62,2.08v.41h-3.83a2,2,0,0,0,.48,1.35,1.56,1.56,0,0,0,1.19.51,1.7,1.7,0,0,0,.87-.21,2,2,0,0,0,.62-.55l.59.46A2.36,2.36,0,0,1,302.35,113.82Zm-.12-5.07a1.26,1.26,0,0,0-1,.43,2,2,0,0,0-.49,1.19h2.83v-.07a1.83,1.83,0,0,0-.4-1.14A1.21,1.21,0,0,0,302.23,108.75Z"/><path class="cls-35" d="M306.59,108.06l0,.71a2.07,2.07,0,0,1,1.69-.81c1.2,0,1.8.67,1.81,2v3.74h-1V110a1.34,1.34,0,0,0-.28-.9,1.12,1.12,0,0,0-.86-.29,1.35,1.35,0,0,0-.82.25,1.64,1.64,0,0,0-.56.66v4h-1v-5.66Z"/></g></g></svg>