<svg xmlns="http://www.w3.org/2000/svg" xmlns:xlink="http://www.w3.org/1999/xlink" viewBox="0 0 708.8 318.96"><defs><style>.cls-1{fill:none;}.cls-2{fill:url(#linear-gradient);}.cls-3{fill:#3f3e3e;}</style><linearGradient id="linear-gradient" x1="141.98" y1="140.2" x2="52.35" y2="64.99" gradientUnits="userSpaceOnUse"><stop offset="0" stop-color="#c2292f"/><stop offset="1" stop-color="#dfa856"/></linearGradient></defs><title>fulllogo</title><g id="Layer_2" data-name="Layer 2"><g id="Layer_1-2" data-name="Layer 1"><path class="cls-1" d="M708.8,0H0V71H.07V319H708.74V283.53h0V248.1h0V212.67h0V177.23h0V141.8h0V106.37h0V71h.06Z"/><path class="cls-2" d="M208.44,190.55H213V140.24a68,68,0,0,0-.64-9.31c-4.68-34.05-34.67-60.26-70.88-60-38.65.28-70.26,31.27-70.41,69-.13,32.3,22.36,59.49,52.89,67.32a24.09,24.09,0,0,1,17.2,15.52c.14.4.26.8.38,1.2,4.19,14.36,17.89,24.1,33.19,24.1h3.6c19.15,0,34.67-15.16,34.67-33.86v-9.12h-4.56c-16.32,0-29.6-13-29.6-28.91v-35.8a34.34,34.34,0,0,0-11.09-25.32,36,36,0,0,0-26.46-9.65c-18.29.82-33.27,15.45-34.11,33.31a34.27,34.27,0,0,0,9.88,25.84A35.93,35.93,0,0,0,143,175.42,7.29,7.29,0,1,1,143,190a50.9,50.9,0,0,1-36.71-15.34,48.57,48.57,0,0,1-14-36.57c1.19-25.3,22.42-46,48.32-47.19a51.09,51.09,0,0,1,37.45,13.67,48.57,48.57,0,0,1,15.7,35.85v35.8A14.53,14.53,0,0,0,208.44,190.55Zm-65.51-41.4a8.82,8.82,0,1,1,9-8.82A8.93,8.93,0,0,1,142.93,149.15Z"/><path class="cls-3" d="M594.14,177.23,588.53,160h2.62l4.13,13.49L599.41,160H602l-5.61,17.2Z"/><path class="cls-3" d="M614.28,160v2.08l-7.49,12.83h7.72v2.29H603.82v-2.08l7.55-12.83H604V160Z"/><path class="cls-3" d="M622.55,173.52,626.08,160h1.65l3.53,13.49,3-13.49h2.51l-4.2,17.2h-2.46l-3.17-12-3.32,12H621.2L617,160h2.51Z"/><path class="cls-3" d="M386.8,106.37a5.54,5.54,0,0,0-5.54,5.54v26.61H353.62V111.91a5.55,5.55,0,0,0-11.09,0v59.78a5.55,5.55,0,0,0,11.09,0V149.61h27.64v22.08a5.55,5.55,0,0,0,11.09,0V111.91A5.54,5.54,0,0,0,386.8,106.37Z"/><path class="cls-3" d="M426,106.37a24.93,24.93,0,0,0-24.91,24.91v21a24.91,24.91,0,1,0,49.82,0v-21A24.94,24.94,0,0,0,426,106.37Zm13.81,45.95a13.82,13.82,0,1,1-27.63,0v-21a13.82,13.82,0,1,1,27.63,0Z"/><path class="cls-3" d="M478.94,117.46h24.92a5.55,5.55,0,1,0,0-11.09H478.94a19.38,19.38,0,0,0-19.36,19.35v4.54a19.38,19.38,0,0,0,19.36,19.35h11.11a8.27,8.27,0,0,1,0,16.53H465.13a5.55,5.55,0,1,0,0,11.09h24.92a19.36,19.36,0,1,0,0-38.71H478.94a8.27,8.27,0,0,1-8.26-8.26v-4.54A8.27,8.27,0,0,1,478.94,117.46Z"/><path class="cls-3" d="M543,106.37a24.94,24.94,0,0,0-24.91,24.91v40.41a5.55,5.55,0,0,0,11.09,0V149.61h27.64v22.08a5.55,5.55,0,0,0,11.09,0V131.28A24.93,24.93,0,0,0,543,106.37ZM529.2,138.52v-7.24a13.82,13.82,0,0,1,27.64,0v7.24Z"/><path class="cls-3" d="M308.91,106.37A24.94,24.94,0,0,0,284,131.28v40.41a5.55,5.55,0,0,0,11.09,0V149.61h27.64v22.08a5.55,5.55,0,0,0,11.09,0V131.28A24.93,24.93,0,0,0,308.91,106.37Zm-13.82,32.15v-7.24a13.82,13.82,0,1,1,27.64,0v7.24Z"/><path class="cls-3" d="M292.91,208.62h-5.75l-1.29,3.59H284l5.24-13.72h1.59l5.25,13.72h-1.86Zm-5.2-1.48h4.66L290,200.72Z"/><path class="cls-3" d="M299.3,202l.06,1.28a3.71,3.71,0,0,1,3.05-1.47c2.16,0,3.24,1.22,3.26,3.65v6.74h-1.74v-6.75a2.42,2.42,0,0,0-.5-1.63,2,2,0,0,0-1.55-.53,2.48,2.48,0,0,0-1.49.46,3,3,0,0,0-1,1.18v7.27h-1.75V202Z"/><path class="cls-3" d="M307.88,207a6,6,0,0,1,1.11-3.78,3.78,3.78,0,0,1,5.75-.2v-5.32h1.75v14.48h-1.61l-.08-1.09a3.57,3.57,0,0,1-2.91,1.28A3.47,3.47,0,0,1,309,211a6,6,0,0,1-1.12-3.79Zm1.74.2a4.5,4.5,0,0,0,.72,2.71,2.33,2.33,0,0,0,2,1,2.54,2.54,0,0,0,2.42-1.49v-4.68a2.55,2.55,0,0,0-2.4-1.45,2.33,2.33,0,0,0-2,1A5,5,0,0,0,309.62,207.23Z"/><path class="cls-3" d="M323.43,212.4a4.45,4.45,0,0,1-3.38-1.36,5,5,0,0,1-1.3-3.64v-.33a6.09,6.09,0,0,1,.58-2.71A4.59,4.59,0,0,1,321,202.5a4.08,4.08,0,0,1,2.26-.68,3.83,3.83,0,0,1,3.09,1.31,5.68,5.68,0,0,1,1.1,3.76v.72h-6.91a3.62,3.62,0,0,0,.89,2.44,2.75,2.75,0,0,0,2.14.93,3,3,0,0,0,1.56-.38,3.83,3.83,0,0,0,1.13-1l1.06.83A4.27,4.27,0,0,1,323.43,212.4Zm-.22-9.14a2.28,2.28,0,0,0-1.77.77,3.69,3.69,0,0,0-.89,2.15h5.11v-.13a3.28,3.28,0,0,0-.72-2.06A2.16,2.16,0,0,0,323.21,203.26Z"/><path class="cls-3" d="M334.35,203.58a4.61,4.61,0,0,0-.86-.07,2.31,2.31,0,0,0-2.33,1.46v7.24h-1.74V202h1.7l0,1.18a2.71,2.71,0,0,1,2.43-1.37,1.73,1.73,0,0,1,.77.14Z"/><path class="cls-3" d="M341.89,209.51a1.27,1.27,0,0,0-.53-1.1,5.08,5.08,0,0,0-1.86-.68,8.66,8.66,0,0,1-2.1-.67,3,3,0,0,1-1.15-.95,2.21,2.21,0,0,1-.37-1.3,2.65,2.65,0,0,1,1.06-2.12,4.14,4.14,0,0,1,2.71-.87,4.23,4.23,0,0,1,2.81.9,2.85,2.85,0,0,1,1.08,2.29h-1.75a1.54,1.54,0,0,0-.61-1.23,2.24,2.24,0,0,0-1.53-.52,2.36,2.36,0,0,0-1.49.41,1.31,1.31,0,0,0-.54,1.09,1.07,1.07,0,0,0,.5,1,6.25,6.25,0,0,0,1.81.61,9.61,9.61,0,0,1,2.11.7,3.11,3.11,0,0,1,1.21,1,2.42,2.42,0,0,1,.39,1.39,2.62,2.62,0,0,1-1.1,2.2,4.57,4.57,0,0,1-2.83.82,5.13,5.13,0,0,1-2.17-.43,3.63,3.63,0,0,1-1.48-1.21,3,3,0,0,1-.53-1.69h1.74a1.82,1.82,0,0,0,.71,1.39,2.66,2.66,0,0,0,1.73.52,2.82,2.82,0,0,0,1.58-.4A1.24,1.24,0,0,0,341.89,209.51Z"/><path class="cls-3" d="M361.51,212.21h-1.82v-6.34h-6.92v6.34H351V198.49h1.81v5.9h6.92v-5.9h1.82Z"/><path class="cls-3" d="M375.29,205.79a8.5,8.5,0,0,1-.68,3.52,5.18,5.18,0,0,1-1.93,2.3,5.3,5.3,0,0,1-7.72-2.28,8,8,0,0,1-.71-3.41v-1a8.52,8.52,0,0,1,.68-3.49,5.27,5.27,0,0,1,9.68,0,8.6,8.6,0,0,1,.68,3.52Zm-1.81-.88a6.11,6.11,0,0,0-1-3.75,3.48,3.48,0,0,0-5.44,0,5.94,5.94,0,0,0-1,3.62v1a6.18,6.18,0,0,0,1,3.72,3.49,3.49,0,0,0,5.45.08,6.1,6.1,0,0,0,1-3.67Z"/><path class="cls-3" d="M382.66,203.58a4.68,4.68,0,0,0-.86-.07,2.3,2.3,0,0,0-2.33,1.46v7.24h-1.74V202h1.69l0,1.18a2.71,2.71,0,0,1,2.43-1.37,1.78,1.78,0,0,1,.78.14Z"/><path class="cls-3" d="M388.31,212.4a4.45,4.45,0,0,1-3.37-1.36,5,5,0,0,1-1.3-3.64v-.33a6.09,6.09,0,0,1,.58-2.71,4.45,4.45,0,0,1,1.62-1.86,4.08,4.08,0,0,1,2.26-.68,3.84,3.84,0,0,1,3.09,1.31,5.73,5.73,0,0,1,1.1,3.76v.72h-6.91a3.66,3.66,0,0,0,.88,2.44,2.77,2.77,0,0,0,2.15.93,3.05,3.05,0,0,0,1.56-.38,3.79,3.79,0,0,0,1.12-1l1.07.83A4.3,4.3,0,0,1,388.31,212.4Zm-.21-9.14a2.31,2.31,0,0,0-1.78.77,3.75,3.75,0,0,0-.88,2.15h5.11v-.13a3.28,3.28,0,0,0-.72-2.06A2.19,2.19,0,0,0,388.1,203.26Z"/><path class="cls-3" d="M396,202l.06,1.28a3.69,3.69,0,0,1,3.05-1.47c2.16,0,3.24,1.22,3.26,3.65v6.74h-1.74v-6.75a2.37,2.37,0,0,0-.51-1.63,2,2,0,0,0-1.54-.53,2.48,2.48,0,0,0-1.49.46,3,3,0,0,0-1,1.18v7.27h-1.74V202Z"/><path class="cls-3" d="M414.06,206.09a8.48,8.48,0,0,1-3.39-1.64,3.13,3.13,0,0,1-1.06-2.41,3.31,3.31,0,0,1,1.3-2.68,5.11,5.11,0,0,1,3.37-1.06,5.69,5.69,0,0,1,2.52.54,4.14,4.14,0,0,1,1.71,1.51,3.84,3.84,0,0,1,.61,2.11H417.3a2.51,2.51,0,0,0-.79-2,3.92,3.92,0,0,0-4.32-.12,2,2,0,0,0-.75,1.64,1.78,1.78,0,0,0,.71,1.42,6.86,6.86,0,0,0,2.42,1.06,11.44,11.44,0,0,1,2.68,1.06,4.15,4.15,0,0,1,1.43,1.35,3.5,3.5,0,0,1,.47,1.82,3.2,3.2,0,0,1-1.3,2.68,5.55,5.55,0,0,1-3.48,1,6.49,6.49,0,0,1-2.64-.54,4.39,4.39,0,0,1-1.89-1.49,3.62,3.62,0,0,1-.66-2.14H411a2.37,2.37,0,0,0,.91,2,3.91,3.91,0,0,0,2.46.72,3.56,3.56,0,0,0,2.2-.58,1.9,1.9,0,0,0,.76-1.6,1.88,1.88,0,0,0-.71-1.56A8.06,8.06,0,0,0,414.06,206.09Z"/><path class="cls-3" d="M427.49,212.21a3.62,3.62,0,0,1-.24-1.07,3.9,3.9,0,0,1-2.91,1.26,3.58,3.58,0,0,1-2.47-.85,2.75,2.75,0,0,1-1-2.17,2.9,2.9,0,0,1,1.21-2.47,5.72,5.72,0,0,1,3.41-.88h1.7v-.8a2,2,0,0,0-.55-1.46,2.19,2.19,0,0,0-1.61-.54,2.56,2.56,0,0,0-1.56.47,1.36,1.36,0,0,0-.64,1.14h-1.75a2.39,2.39,0,0,1,.54-1.47,3.58,3.58,0,0,1,1.47-1.13,4.9,4.9,0,0,1,2-.42,4.09,4.09,0,0,1,2.77.88,3.19,3.19,0,0,1,1,2.43v4.7a5.7,5.7,0,0,0,.36,2.23v.15Zm-2.89-1.33a3.06,3.06,0,0,0,1.55-.42,2.57,2.57,0,0,0,1.07-1.1v-2.1h-1.37c-2.13,0-3.2.63-3.2,1.88a1.59,1.59,0,0,0,.54,1.28A2.12,2.12,0,0,0,424.6,210.88Z"/><path class="cls-3" d="M433.34,202l0,1.13a3.78,3.78,0,0,1,3-1.32,2.91,2.91,0,0,1,2.91,1.64,3.86,3.86,0,0,1,3.26-1.64q3.35,0,3.41,3.56v6.83h-1.75v-6.73a2.29,2.29,0,0,0-.5-1.63,2.15,2.15,0,0,0-1.67-.55,2.36,2.36,0,0,0-1.62.58,2.4,2.4,0,0,0-.74,1.56v6.77H438v-6.68a2,2,0,0,0-2.18-2.23,2.33,2.33,0,0,0-2.35,1.47v7.44h-1.74V202Z"/><path class="cls-3" d="M452.85,212.4a4.43,4.43,0,0,1-3.37-1.36,5,5,0,0,1-1.3-3.64v-.33a6.09,6.09,0,0,1,.58-2.71,4.45,4.45,0,0,1,1.62-1.86,4.05,4.05,0,0,1,2.26-.68,3.84,3.84,0,0,1,3.09,1.31,5.73,5.73,0,0,1,1.1,3.76v.72h-6.91a3.61,3.61,0,0,0,.88,2.44A2.77,2.77,0,0,0,453,211a3.05,3.05,0,0,0,1.56-.38,3.79,3.79,0,0,0,1.12-1l1.07.83A4.3,4.3,0,0,1,452.85,212.4Zm-.21-9.14a2.31,2.31,0,0,0-1.78.77,3.75,3.75,0,0,0-.88,2.15h5.11v-.13a3.28,3.28,0,0,0-.72-2.06A2.19,2.19,0,0,0,452.64,203.26Z"/><path class="cls-3" d="M460.5,202l.05,1.28a3.73,3.73,0,0,1,3.06-1.47q3.22,0,3.26,3.65v6.74h-1.74v-6.75a2.37,2.37,0,0,0-.51-1.63,2,2,0,0,0-1.54-.53,2.46,2.46,0,0,0-1.49.46,3,3,0,0,0-1,1.18v7.27h-1.74V202Z"/><path class="cls-3" d="M482.13,208.62h-5.75l-1.29,3.59h-1.87l5.25-13.72h1.58l5.25,13.72h-1.86Zm-5.2-1.48h4.67l-2.34-6.42Z"/><path class="cls-3" d="M493.17,212.21a3.62,3.62,0,0,1-.24-1.07A3.9,3.9,0,0,1,490,212.4a3.58,3.58,0,0,1-2.47-.85,2.75,2.75,0,0,1-1-2.17,2.9,2.9,0,0,1,1.21-2.47,5.72,5.72,0,0,1,3.41-.88h1.7v-.8a2,2,0,0,0-.55-1.46,2.19,2.19,0,0,0-1.61-.54,2.61,2.61,0,0,0-1.57.47,1.38,1.38,0,0,0-.63,1.14h-1.75a2.39,2.39,0,0,1,.54-1.47,3.58,3.58,0,0,1,1.47-1.13,4.9,4.9,0,0,1,2-.42,4,4,0,0,1,2.76.88,3.16,3.16,0,0,1,1,2.43v4.7a5.7,5.7,0,0,0,.36,2.23v.15Zm-2.89-1.33a3.09,3.09,0,0,0,1.55-.42,2.57,2.57,0,0,0,1.07-1.1v-2.1h-1.37c-2.14,0-3.2.63-3.2,1.88a1.59,1.59,0,0,0,.54,1.28A2.12,2.12,0,0,0,490.28,210.88Z"/><path class="cls-3" d="M499,202l.05,1.28a3.73,3.73,0,0,1,3.06-1.47q3.23,0,3.26,3.65v6.74h-1.74v-6.75a2.37,2.37,0,0,0-.51-1.63,2,2,0,0,0-1.54-.53,2.46,2.46,0,0,0-1.49.46,3,3,0,0,0-1,1.18v7.27h-1.74V202Z"/><path class="cls-3" d="M516.65,207.23a6.11,6.11,0,0,1-1.07,3.75,3.4,3.4,0,0,1-2.88,1.42,3.74,3.74,0,0,1-2.93-1.18v4.91H508V202h1.59l.09,1.13a3.58,3.58,0,0,1,3-1.32,3.51,3.51,0,0,1,2.91,1.39,6.19,6.19,0,0,1,1.07,3.86Zm-1.75-.2a4.53,4.53,0,0,0-.73-2.73,2.39,2.39,0,0,0-2-1,2.57,2.57,0,0,0-2.38,1.41v4.87a2.58,2.58,0,0,0,2.4,1.4,2.34,2.34,0,0,0,2-1A4.86,4.86,0,0,0,514.9,207Z"/><path class="cls-3" d="M525.16,212.21a3.89,3.89,0,0,1-.25-1.07,3.89,3.89,0,0,1-2.9,1.26,3.57,3.57,0,0,1-2.47-.85,2.75,2.75,0,0,1-1-2.17,2.87,2.87,0,0,1,1.21-2.47,5.69,5.69,0,0,1,3.41-.88h1.7v-.8a2,2,0,0,0-.55-1.46,2.21,2.21,0,0,0-1.61-.54,2.57,2.57,0,0,0-1.57.47,1.38,1.38,0,0,0-.63,1.14h-1.75a2.39,2.39,0,0,1,.54-1.47,3.58,3.58,0,0,1,1.47-1.13,4.9,4.9,0,0,1,2-.42,4,4,0,0,1,2.76.88,3.2,3.2,0,0,1,1,2.43v4.7a5.7,5.7,0,0,0,.36,2.23v.15Zm-2.9-1.33a3.1,3.1,0,0,0,1.56-.42,2.57,2.57,0,0,0,1.07-1.1v-2.1h-1.37c-2.14,0-3.21.63-3.21,1.88a1.57,1.57,0,0,0,.55,1.28A2.07,2.07,0,0,0,522.26,210.88Z"/><path class="cls-3" d="M532.21,207.49l-1.09,1.14v3.58h-1.75V197.73h1.75v8.76l.93-1.12,3.18-3.36h2.12l-4,4.26,4.43,5.94h-2Z"/><path class="cls-3" d="M542,207.49l-1.1,1.14v3.58h-1.74V197.73h1.74v8.76l.93-1.12L545,202h2.12l-4,4.26,4.43,5.94h-2Z"/><path class="cls-3" d="M553,212.4A4.47,4.47,0,0,1,549.6,211a5.08,5.08,0,0,1-1.3-3.64v-.33a6.23,6.23,0,0,1,.58-2.71,4.59,4.59,0,0,1,1.62-1.86,4.1,4.1,0,0,1,2.26-.68,3.81,3.81,0,0,1,3.09,1.31,5.68,5.68,0,0,1,1.11,3.76v.72h-6.91a3.61,3.61,0,0,0,.88,2.44,2.77,2.77,0,0,0,2.14.93,3.07,3.07,0,0,0,1.57-.38,3.79,3.79,0,0,0,1.12-1l1.06.83A4.27,4.27,0,0,1,553,212.4Zm-.22-9.14A2.31,2.31,0,0,0,551,204a3.76,3.76,0,0,0-.89,2.15h5.11v-.13a3.34,3.34,0,0,0-.71-2.06A2.19,2.19,0,0,0,552.76,203.26Z"/><path class="cls-3" d="M560.62,202l.06,1.28a3.72,3.72,0,0,1,3.05-1.47q3.24,0,3.27,3.65v6.74h-1.75v-6.75a2.32,2.32,0,0,0-.5-1.63,2,2,0,0,0-1.54-.53,2.44,2.44,0,0,0-1.49.46,3,3,0,0,0-1,1.18v7.27H559V202Z"/></g></g></svg>