<svg xmlns="http://www.w3.org/2000/svg" xmlns:xlink="http://www.w3.org/1999/xlink" viewBox="0 0 714.75 318.96"><defs><style>.cls-1{fill:#fff;}.cls-2{fill:url(#Ahosa_Gradient);}.cls-3{fill:#3f3e3e;}</style><linearGradient id="Ahosa_Gradient" x1="133.62" y1="142.5" x2="54.83" y2="76.39" gradientUnits="userSpaceOnUse"><stop offset="0" stop-color="#bf282f"/><stop offset="1" stop-color="#dfa856"/></linearGradient></defs><title>kleur1</title><g id="Layer_2" data-name="Layer 2"><g id="Layer_1-2" data-name="Layer 1"><polygon class="cls-1" points="0 0 0.07 318.96 714.75 318.96 714.75 0.07 714.75 0 0 0"/><path class="cls-2" d="M192,186.77h4V142.54a59.82,59.82,0,0,0-.56-8.19c-4.12-29.92-30.48-53-62.3-52.73-34,.25-61.76,27.49-61.9,60.67-.11,28.39,19.66,52.29,46.49,59.17a21.21,21.21,0,0,1,15.13,13.65c.11.35.22.7.32,1,3.69,12.63,15.73,21.19,29.18,21.19h3.17C182.4,237.35,196,224,196,207.59v-8h-4c-14.34,0-26-11.4-26-25.41V142.69a30.17,30.17,0,0,0-9.75-22.26A31.65,31.65,0,0,0,133,112c-16.08.72-29.24,13.58-30,29.28a30.1,30.1,0,0,0,8.68,22.71,31.62,31.62,0,0,0,22.79,9.53,6.4,6.4,0,1,1,0,12.8,44.72,44.72,0,0,1-32.27-13.49,42.64,42.64,0,0,1-12.3-32.14c1-22.24,19.7-40.46,42.47-41.48a45,45,0,0,1,32.92,12,42.74,42.74,0,0,1,13.8,31.52v31.47A12.78,12.78,0,0,0,192,186.77Zm-57.58-36.4a7.75,7.75,0,1,1,7.93-7.75A7.84,7.84,0,0,1,134.45,150.37Z"/><path class="cls-3" d="M393.32,113a7.29,7.29,0,0,0-7.3,7.28v34.91H349.64V120.27a7.31,7.31,0,0,0-14.61,0v78.42a7.31,7.31,0,0,0,14.61,0v-29H386v29a7.3,7.3,0,0,0,14.6,0V120.27A7.29,7.29,0,0,0,393.32,113Z"/><path class="cls-3" d="M444.88,113a32.79,32.79,0,0,0-32.8,32.69v27.61a32.8,32.8,0,0,0,65.6,0V145.68A32.79,32.79,0,0,0,444.88,113Zm18.19,60.3a18.19,18.19,0,0,1-36.38,0V145.68a18.19,18.19,0,0,1,36.38,0Z"/><path class="cls-3" d="M514.62,127.55h32.81a7.28,7.28,0,1,0,0-14.56H514.62a25.47,25.47,0,0,0-25.48,25.4v6a25.46,25.46,0,0,0,25.48,25.39h14.63a10.84,10.84,0,1,1,0,21.68H496.44a7.28,7.28,0,1,0,0,14.56h32.81a25.4,25.4,0,1,0,0-50.79H514.62a10.88,10.88,0,0,1-10.88-10.84v-6A10.87,10.87,0,0,1,514.62,127.55Z"/><path class="cls-3" d="M599,113a32.78,32.78,0,0,0-32.8,32.69v53a7.3,7.3,0,0,0,14.6,0v-29h36.39v29a7.3,7.3,0,0,0,14.6,0v-53A32.78,32.78,0,0,0,599,113Zm-18.2,42.19v-9.5a18.2,18.2,0,0,1,36.39,0v9.5Z"/><path class="cls-3" d="M290.77,113A32.78,32.78,0,0,0,258,145.68v53a7.3,7.3,0,0,0,14.6,0v-29H309v29a7.3,7.3,0,0,0,14.6,0v-53A32.78,32.78,0,0,0,290.77,113Zm-18.19,42.19v-9.5a18.2,18.2,0,0,1,36.39,0v9.5Z"/></g></g></svg>