<svg id="Layer_1" data-name="Layer 1" xmlns="http://www.w3.org/2000/svg" viewBox="0 0 600 600"><defs><style>.cls-1{fill:#3f3e3e;}.cls-2{fill:none;}</style></defs><title>logoblock</title><path class="cls-1" d="M472.59,381.19h11.85V250.3a177.77,177.77,0,0,0-1.66-24.23C470.6,137.5,392.59,69.31,298.39,70c-100.55.74-182.77,81.35-183.18,179.55-.34,84,58.18,154.76,137.6,175.13,20.94,5.37,38.16,20.25,44.76,40.38.34,1.05.66,2.08,1,3.12,10.92,37.37,46.56,62.7,86.35,62.7h9.38c49.81,0,90.18-39.44,90.18-88.08V419.08H472.59c-42.46,0-77-33.74-77-75.21V250.75a89.31,89.31,0,0,0-28.86-65.88,93.69,93.69,0,0,0-68.83-25.1c-47.57,2.14-86.54,40.2-88.73,86.65a89.21,89.21,0,0,0,25.7,67.22,93.53,93.53,0,0,0,67.46,28.19,19,19,0,1,1,0,37.89,132.43,132.43,0,0,1-95.51-39.91,126.28,126.28,0,0,1-36.4-95.13c3.1-65.81,58.31-119.73,125.7-122.76,36.48-1.61,71.07,11,97.41,35.55s40.86,57.7,40.86,93.28v93.12C434.38,364.45,451.52,381.19,472.59,381.19ZM302.16,273.48c-13,0-23.49-10.27-23.49-22.94s10.52-22.93,23.49-22.93,23.48,10.26,23.48,22.93S315.13,273.48,302.16,273.48Z"/><rect class="cls-2" width="600" height="600"/></svg>