<svg xmlns="http://www.w3.org/2000/svg" xmlns:xlink="http://www.w3.org/1999/xlink" viewBox="0 0 714.75 318.96"><defs><style>.cls-1{fill:none;}.cls-2{fill:url(#Ahosa_Gradient);}.cls-3{fill:#3f3e3e;}</style><linearGradient id="Ahosa_Gradient" x1="133.21" y1="142.56" x2="54.7" y2="76.68" gradientUnits="userSpaceOnUse"><stop offset="0" stop-color="#bf282f"/><stop offset="1" stop-color="#dfa856"/></linearGradient></defs><title>logovzw</title><g id="Layer_2" data-name="Layer 2"><g id="Layer_1-2" data-name="Layer 1"><polygon class="cls-1" points="0 0 0.07 318.96 714.75 318.96 714.75 0.07 714.75 0 0 0"/><path class="cls-2" d="M191.43,186.67h4V142.6a59.38,59.38,0,0,0-.56-8.16c-4.1-29.82-30.37-52.79-62.09-52.55-33.85.25-61.54,27.39-61.68,60.46-.11,28.29,19.59,52.11,46.33,59a21.14,21.14,0,0,1,15.08,13.6c.11.35.22.7.32,1.05,3.68,12.58,15.68,21.11,29.08,21.11h3.16c16.77,0,30.36-13.28,30.36-29.66v-8h-4c-14.3,0-25.93-11.36-25.93-25.32V142.75a30,30,0,0,0-9.72-22.18,31.55,31.55,0,0,0-23.17-8.46c-16,.72-29.15,13.54-29.88,29.18a30.06,30.06,0,0,0,8.65,22.64,31.5,31.5,0,0,0,22.72,9.49,6.38,6.38,0,1,1,0,12.76,44.64,44.64,0,0,1-32.17-13.44,42.54,42.54,0,0,1-12.25-32c1-22.16,19.63-40.32,42.32-41.34a44.72,44.72,0,0,1,32.8,12,42.54,42.54,0,0,1,13.76,31.41v31.36A12.74,12.74,0,0,0,191.43,186.67ZM134,150.4a7.72,7.72,0,1,1,7.91-7.72A7.82,7.82,0,0,1,134,150.4Z"/><path class="cls-3" d="M468.28,206,463.37,191h2.3l3.62,11.81L472.91,191h2.3L470.29,206Z"/><path class="cls-3" d="M485.93,191v1.82L479.37,204h6.77v2h-9.38v-1.83L483.38,193H477v-2Z"/><path class="cls-3" d="M493.18,202.78,496.27,191h1.45l3.09,11.81L503.47,191h2.2L502,206h-2.16l-2.78-10.53L494.15,206H492L488.31,191h2.2Z"/><path class="cls-3" d="M347.67,112.92a4.87,4.87,0,0,0-4.86,4.86v23.31h-24.2V117.78a4.86,4.86,0,1,0-9.72,0v52.36a4.86,4.86,0,0,0,9.72,0V150.81h24.2v19.33a4.86,4.86,0,1,0,9.72,0V117.78A4.86,4.86,0,0,0,347.67,112.92Z"/><path class="cls-3" d="M382,112.92a21.85,21.85,0,0,0-21.82,21.83v18.43a21.82,21.82,0,1,0,43.64,0V134.75A21.85,21.85,0,0,0,382,112.92Zm12.1,40.26a12.1,12.1,0,1,1-24.2,0V134.75a12.1,12.1,0,1,1,24.2,0Z"/><path class="cls-3" d="M428.38,122.64h21.83a4.86,4.86,0,1,0,0-9.72H428.38a17,17,0,0,0-16.95,17v4a17,17,0,0,0,16.95,17h9.73a7.24,7.24,0,1,1,0,14.47H416.29a4.86,4.86,0,0,0,0,9.72h21.82a17,17,0,1,0,0-33.91h-9.73a7.25,7.25,0,0,1-7.24-7.24v-4A7.25,7.25,0,0,1,428.38,122.64Z"/><path class="cls-3" d="M484.52,112.92a21.85,21.85,0,0,0-21.82,21.83v35.39a4.86,4.86,0,1,0,9.71,0V150.81h24.21v19.33a4.86,4.86,0,1,0,9.72,0V134.75A21.85,21.85,0,0,0,484.52,112.92Zm-12.11,28.17v-6.34a12.11,12.11,0,1,1,24.21,0v6.34Z"/><path class="cls-3" d="M279.44,112.92a21.85,21.85,0,0,0-21.82,21.83v35.39a4.86,4.86,0,0,0,9.72,0V150.81h24.2v19.33a4.86,4.86,0,0,0,9.72,0V134.75A21.85,21.85,0,0,0,279.44,112.92Zm-12.1,28.17v-6.34a12.1,12.1,0,1,1,24.2,0v6.34Z"/></g></g></svg>