<svg id="Layer_1" data-name="Layer 1" xmlns="http://www.w3.org/2000/svg" xmlns:xlink="http://www.w3.org/1999/xlink" viewBox="0 0 719 276"><defs><style>.cls-1{fill:url(#Ahosa_Gradient);}.cls-2{fill:#3f3e3e;}</style><linearGradient id="Ahosa_Gradient" x1="111.59" y1="118.68" x2="21.95" y2="43.47" gradientUnits="userSpaceOnUse"><stop offset="0" stop-color="#c0282e"/><stop offset="1" stop-color="#dfa756"/></linearGradient></defs><title>logo</title><path class="cls-1" d="M178.05,169h4.55V118.72a68.24,68.24,0,0,0-.64-9.31c-4.68-34-34.67-60.26-70.87-60-38.66.29-70.26,31.27-70.42,69-.13,32.3,22.36,59.49,52.89,67.32a24.12,24.12,0,0,1,17.21,15.52c.13.4.25.8.37,1.2,4.2,14.37,17.89,24.1,33.19,24.1h3.61c19.14,0,34.66-15.16,34.66-33.85V183.6h-4.55c-16.33,0-29.61-13-29.61-28.91V118.9a34.36,34.36,0,0,0-11.09-25.33,36,36,0,0,0-26.46-9.64c-18.28.82-33.26,15.45-34.11,33.3a34.34,34.34,0,0,0,9.88,25.84,36,36,0,0,0,25.93,10.84,7.28,7.28,0,1,1,0,14.56,50.9,50.9,0,0,1-36.71-15.34,48.5,48.5,0,0,1-14-36.56c1.19-25.3,22.41-46,48.32-47.19A51.1,51.1,0,0,1,147.65,83a48.61,48.61,0,0,1,15.71,35.86v35.79A14.54,14.54,0,0,0,178.05,169Zm-65.52-41.4a8.82,8.82,0,1,1,9-8.82A8.93,8.93,0,0,1,112.53,127.64Z"/><path class="cls-2" d="M407,85.11a8.3,8.3,0,0,0-8.31,8.28V133.1H357.34V93.39a8.31,8.31,0,0,0-16.61,0v89.22a8.31,8.31,0,0,0,16.61,0v-33h41.39v33a8.31,8.31,0,0,0,16.62,0V93.39A8.3,8.3,0,0,0,407,85.11Z"/><path class="cls-2" d="M465.7,85.11a37.29,37.29,0,0,0-37.31,37.18V153.7a37.31,37.31,0,0,0,74.62,0V122.29A37.29,37.29,0,0,0,465.7,85.11Zm20.69,68.59a20.7,20.7,0,0,1-41.39,0V122.29a20.7,20.7,0,0,1,41.39,0Z"/><path class="cls-2" d="M545,101.67h37.32a8.28,8.28,0,1,0,0-16.56H545a29,29,0,0,0-29,28.89v6.77a29,29,0,0,0,29,28.89h16.64a12.34,12.34,0,1,1,0,24.67H524.36a8.28,8.28,0,1,0,0,16.56h37.32a28.9,28.9,0,1,0,0-57.79H545a12.37,12.37,0,0,1-12.38-12.33V114A12.37,12.37,0,0,1,545,101.67Z"/><path class="cls-2" d="M641,85.11a37.29,37.29,0,0,0-37.31,37.18v60.32a8.31,8.31,0,0,0,16.61,0v-33h41.39v33a8.31,8.31,0,0,0,16.62,0V122.29A37.29,37.29,0,0,0,641,85.11Zm-20.7,48V122.29a20.7,20.7,0,0,1,41.39,0V133.1Z"/><path class="cls-2" d="M290.38,85.11a37.29,37.29,0,0,0-37.31,37.18v60.32a8.31,8.31,0,0,0,16.61,0v-33h41.39v33a8.31,8.31,0,0,0,16.62,0V122.29A37.29,37.29,0,0,0,290.38,85.11Zm-20.7,48V122.29a20.7,20.7,0,0,1,41.39,0V133.1Z"/></svg>