<svg xmlns="http://www.w3.org/2000/svg" xmlns:xlink="http://www.w3.org/1999/xlink" viewBox="0 0 506 506"><defs><style>.cls-1{fill:url(#linear-gradient);}.cls-2{fill:none;}</style><linearGradient id="linear-gradient" x1="252.89" y1="212.17" x2="63.44" y2="53.19" gradientUnits="userSpaceOnUse"><stop offset="0" stop-color="#c2292f"/><stop offset="1" stop-color="#dfa856"/></linearGradient></defs><title>logo1</title><g id="Layer_2" data-name="Layer 2"><g id="Layer_1-2" data-name="Layer 1"><path class="cls-1" d="M393.37,318.61H403V212.26a145.34,145.34,0,0,0-1.35-19.69c-9.9-72-73.29-127.37-149.82-126.8-81.69.61-148.5,66.1-148.83,145.89C102.72,279.93,150.27,337.4,214.8,354c17,4.36,31,16.45,36.36,32.81.28.85.54,1.69.79,2.53,8.87,30.37,37.82,50.94,70.16,50.94h7.62c40.46,0,73.27-32,73.27-71.56V349.39h-9.63c-34.5,0-62.57-27.41-62.57-61.11V212.62a72.55,72.55,0,0,0-23.45-53.52,76.16,76.16,0,0,0-55.93-20.4c-38.64,1.74-70.31,32.67-72.09,70.41a72.5,72.5,0,0,0,20.89,54.61,76,76,0,0,0,54.8,22.9,15.4,15.4,0,1,1,0,30.79A107.64,107.64,0,0,1,177.42,285a102.57,102.57,0,0,1-29.57-77.29C150.36,154.22,195.22,110.41,250,108a108,108,0,0,1,79.14,28.89,102.7,102.7,0,0,1,33.2,75.78v75.66C362.32,305,376.25,318.61,393.37,318.61ZM254.89,231.09A18.64,18.64,0,1,1,274,212.46,18.86,18.86,0,0,1,254.89,231.09Z"/><rect class="cls-2" width="506" height="506"/></g></g></svg>