<svg xmlns="http://www.w3.org/2000/svg" xmlns:xlink="http://www.w3.org/1999/xlink" viewBox="0 0 714.75 318.96"><defs><style>.cls-1{fill:none;}.cls-2{fill:url(#linear-gradient);}.cls-3{fill:#3f3e3e;}</style><linearGradient id="linear-gradient" x1="133.29" y1="142.56" x2="54.78" y2="76.68" gradientUnits="userSpaceOnUse"><stop offset="0" stop-color="#c2292f"/><stop offset="1" stop-color="#dfa856"/></linearGradient></defs><title>logofull</title><g id="Layer_2" data-name="Layer 2"><g id="Layer_1-2" data-name="Layer 1"><polygon class="cls-1" points="0 0 0.07 318.96 714.75 318.96 714.75 0.07 714.75 0 0 0"/><path class="cls-2" d="M191.51,186.67h4V142.6a59.38,59.38,0,0,0-.56-8.16c-4.1-29.82-30.37-52.79-62.09-52.55-33.85.25-61.54,27.39-61.68,60.46-.11,28.29,19.59,52.11,46.33,59a21.14,21.14,0,0,1,15.08,13.6c.11.35.22.7.32,1.05,3.68,12.58,15.68,21.11,29.08,21.11h3.16c16.77,0,30.36-13.28,30.36-29.66v-8h-4c-14.3,0-25.93-11.36-25.93-25.32V142.75a30,30,0,0,0-9.72-22.18,31.55,31.55,0,0,0-23.17-8.46c-16,.72-29.15,13.54-29.88,29.18a30.06,30.06,0,0,0,8.65,22.64,31.5,31.5,0,0,0,22.72,9.49,6.38,6.38,0,1,1,0,12.76A44.64,44.64,0,0,1,102,172.74a42.54,42.54,0,0,1-12.25-32c1-22.16,19.63-40.32,42.32-41.34a44.72,44.72,0,0,1,32.8,12,42.54,42.54,0,0,1,13.76,31.41v31.36A12.74,12.74,0,0,0,191.51,186.67ZM134.12,150.4a7.72,7.72,0,1,1,7.91-7.72A7.82,7.82,0,0,1,134.12,150.4Z"/><path class="cls-3" d="M529.37,175l-4.91-15.07h2.3l3.62,11.82L534,159.93h2.3L531.38,175Z"/><path class="cls-3" d="M547,159.93v1.82L540.46,173h6.77v2h-9.38v-1.82l6.62-11.24H538v-2Z"/><path class="cls-3" d="M554.27,171.75l3.08-11.82h1.46l3.09,11.82,2.66-11.82h2.2L563.08,175h-2.16l-2.78-10.53L555.24,175h-2.16l-3.68-15.07h2.2Z"/><path class="cls-3" d="M347.75,112.92a4.87,4.87,0,0,0-4.86,4.86v23.31h-24.2V117.78a4.86,4.86,0,0,0-9.72,0v52.36a4.86,4.86,0,0,0,9.72,0V150.81h24.2v19.33a4.86,4.86,0,0,0,9.72,0V117.78A4.86,4.86,0,0,0,347.75,112.92Z"/><path class="cls-3" d="M382.06,112.92a21.85,21.85,0,0,0-21.82,21.83v18.43a21.82,21.82,0,0,0,43.64,0V134.75A21.85,21.85,0,0,0,382.06,112.92Zm12.1,40.26a12.1,12.1,0,0,1-24.2,0V134.75a12.1,12.1,0,1,1,24.2,0Z"/><path class="cls-3" d="M428.46,122.64h21.83a4.86,4.86,0,0,0,0-9.72H428.46a17,17,0,0,0-16.95,17v4a17,17,0,0,0,16.95,17h9.73a7.24,7.24,0,1,1,0,14.47H416.37a4.86,4.86,0,0,0,0,9.72h21.82a17,17,0,1,0,0-33.91h-9.73a7.25,7.25,0,0,1-7.24-7.24v-4A7.25,7.25,0,0,1,428.46,122.64Z"/><path class="cls-3" d="M484.6,112.92a21.85,21.85,0,0,0-21.82,21.83v35.39a4.86,4.86,0,1,0,9.71,0V150.81H496.7v19.33a4.86,4.86,0,1,0,9.72,0V134.75A21.85,21.85,0,0,0,484.6,112.92Zm-12.11,28.17v-6.34a12.11,12.11,0,1,1,24.21,0v6.34Z"/><path class="cls-3" d="M279.52,112.92a21.85,21.85,0,0,0-21.82,21.83v35.39a4.86,4.86,0,0,0,9.72,0V150.81h24.2v19.33a4.86,4.86,0,0,0,9.72,0V134.75A21.85,21.85,0,0,0,279.52,112.92Zm-12.1,28.17v-6.34a12.1,12.1,0,1,1,24.2,0v6.34Z"/><path class="cls-3" d="M265.5,202.5h-5l-1.14,3.14H257.7l4.59-12h1.39l4.6,12h-1.63Zm-4.56-1.3H265l-2-5.62Z"/><path class="cls-3" d="M271.1,196.71l0,1.12a3.26,3.26,0,0,1,2.68-1.29q2.84,0,2.85,3.2v5.9h-1.52v-5.91a2.09,2.09,0,0,0-.45-1.43,1.74,1.74,0,0,0-1.35-.46,2.16,2.16,0,0,0-1.3.4,2.71,2.71,0,0,0-.88,1v6.36h-1.52v-8.93Z"/><path class="cls-3" d="M278.62,201.1a5.25,5.25,0,0,1,1-3.31,3.31,3.31,0,0,1,5-.17V193h1.53v12.68h-1.41l-.07-.95a3.13,3.13,0,0,1-2.55,1.12,3,3,0,0,1-2.53-1.27,5.26,5.26,0,0,1-1-3.32Zm1.53.18a3.93,3.93,0,0,0,.62,2.37,2,2,0,0,0,1.74.86,2.22,2.22,0,0,0,2.12-1.3V199.1a2.25,2.25,0,0,0-2.11-1.26,2,2,0,0,0-1.75.87A4.33,4.33,0,0,0,280.15,201.28Z"/><path class="cls-3" d="M292.23,205.81a3.91,3.91,0,0,1-3-1.19,4.44,4.44,0,0,1-1.14-3.2v-.28a5.35,5.35,0,0,1,.51-2.37,4,4,0,0,1,1.42-1.64,3.59,3.59,0,0,1,2-.59,3.34,3.34,0,0,1,2.7,1.15,5,5,0,0,1,1,3.29v.63h-6.05a3.19,3.19,0,0,0,.77,2.14,2.43,2.43,0,0,0,1.88.81,2.67,2.67,0,0,0,1.37-.33,3.51,3.51,0,0,0,1-.87l.93.72A3.75,3.75,0,0,1,292.23,205.81Zm-.18-8a2,2,0,0,0-1.56.67,3.27,3.27,0,0,0-.77,1.89h4.47v-.12a2.86,2.86,0,0,0-.63-1.8A1.89,1.89,0,0,0,292.05,197.8Z"/><path class="cls-3" d="M301.81,198.08a4.59,4.59,0,0,0-.76-.06,2,2,0,0,0-2,1.28v6.34h-1.52v-8.93H299l0,1a2.38,2.38,0,0,1,2.13-1.2,1.53,1.53,0,0,1,.68.12Z"/><path class="cls-3" d="M308.41,203.27a1.12,1.12,0,0,0-.46-1,4.68,4.68,0,0,0-1.63-.59,7.51,7.51,0,0,1-1.84-.59,2.6,2.6,0,0,1-1-.83,2,2,0,0,1-.33-1.14,2.33,2.33,0,0,1,.93-1.86,3.67,3.67,0,0,1,2.38-.76,3.74,3.74,0,0,1,2.46.79,2.49,2.49,0,0,1,.95,2h-1.54a1.41,1.41,0,0,0-.53-1.08,2,2,0,0,0-1.34-.45,2.12,2.12,0,0,0-1.31.36,1.15,1.15,0,0,0-.47,1,.94.94,0,0,0,.44.84,5.63,5.63,0,0,0,1.58.53,8.5,8.5,0,0,1,1.85.61,2.76,2.76,0,0,1,1.06.86,2.09,2.09,0,0,1,.34,1.22,2.31,2.31,0,0,1-1,1.92,4,4,0,0,1-2.48.72,4.54,4.54,0,0,1-1.9-.38,3.18,3.18,0,0,1-1.3-1.06,2.59,2.59,0,0,1-.46-1.48h1.53a1.55,1.55,0,0,0,.61,1.22,2.39,2.39,0,0,0,1.52.45,2.43,2.43,0,0,0,1.39-.35A1.07,1.07,0,0,0,308.41,203.27Z"/><path class="cls-3" d="M325.6,205.64H324v-5.55h-6.06v5.55h-1.58v-12h1.58v5.17H324v-5.17h1.6Z"/><path class="cls-3" d="M337.66,200a7.49,7.49,0,0,1-.59,3.08,4.57,4.57,0,0,1-1.69,2,4.62,4.62,0,0,1-2.54.69,4.48,4.48,0,0,1-4.22-2.69,7,7,0,0,1-.63-3v-.87a7.17,7.17,0,0,1,.61-3.06,4.45,4.45,0,0,1,4.22-2.75,4.69,4.69,0,0,1,2.55.7,4.5,4.5,0,0,1,1.7,2,7.55,7.55,0,0,1,.59,3.08Zm-1.57-.78a5.41,5.41,0,0,0-.86-3.28,2.86,2.86,0,0,0-2.41-1.14,2.79,2.79,0,0,0-2.36,1.14,5.27,5.27,0,0,0-.89,3.18V200a5.42,5.42,0,0,0,.87,3.26,3.06,3.06,0,0,0,4.78.06,5.37,5.37,0,0,0,.87-3.2Z"/><path class="cls-3" d="M344.12,198.08a4.38,4.38,0,0,0-.75-.06,2,2,0,0,0-2,1.28v6.34H339.8v-8.93h1.49l0,1a2.38,2.38,0,0,1,2.13-1.2,1.5,1.5,0,0,1,.68.12Z"/><path class="cls-3" d="M349.08,205.81a3.92,3.92,0,0,1-3-1.19,4.44,4.44,0,0,1-1.14-3.2v-.28a5.35,5.35,0,0,1,.51-2.37,4,4,0,0,1,1.42-1.64,3.61,3.61,0,0,1,2-.59,3.34,3.34,0,0,1,2.7,1.15,5,5,0,0,1,1,3.29v.63h-6.05a3.19,3.19,0,0,0,.77,2.14,2.43,2.43,0,0,0,1.88.81,2.67,2.67,0,0,0,1.37-.33,3.51,3.51,0,0,0,1-.87l.93.72A3.74,3.74,0,0,1,349.08,205.81Zm-.19-8a2,2,0,0,0-1.56.67,3.27,3.27,0,0,0-.77,1.89H351v-.12a2.86,2.86,0,0,0-.63-1.8A1.89,1.89,0,0,0,348.89,197.8Z"/><path class="cls-3" d="M355.77,196.71l.05,1.12a3.26,3.26,0,0,1,2.68-1.29q2.83,0,2.86,3.2v5.9h-1.53v-5.91a2.14,2.14,0,0,0-.44-1.43,1.77,1.77,0,0,0-1.35-.46,2.17,2.17,0,0,0-1.31.4,2.6,2.6,0,0,0-.87,1v6.36h-1.53v-8.93Z"/><path class="cls-3" d="M371.63,200.28a7.45,7.45,0,0,1-3-1.44,2.75,2.75,0,0,1-.93-2.11,2.92,2.92,0,0,1,1.14-2.35,4.49,4.49,0,0,1,2.95-.93,5,5,0,0,1,2.21.48,3.6,3.6,0,0,1,1.5,1.33,3.32,3.32,0,0,1,.53,1.84h-1.59a2.19,2.19,0,0,0-.69-1.72,2.83,2.83,0,0,0-2-.63,2.87,2.87,0,0,0-1.83.52,1.71,1.71,0,0,0-.66,1.43A1.54,1.54,0,0,0,370,198a6,6,0,0,0,2.12.93,9.6,9.6,0,0,1,2.34.93,3.52,3.52,0,0,1,1.26,1.18,3.1,3.1,0,0,1,.41,1.6,2.82,2.82,0,0,1-1.14,2.34,4.85,4.85,0,0,1-3.05.88,5.62,5.62,0,0,1-2.31-.48,3.84,3.84,0,0,1-1.66-1.3,3.14,3.14,0,0,1-.58-1.87h1.59a2.06,2.06,0,0,0,.81,1.72,3.39,3.39,0,0,0,2.15.63,3.15,3.15,0,0,0,1.93-.51,1.68,1.68,0,0,0,.66-1.4,1.61,1.61,0,0,0-.62-1.36A7.28,7.28,0,0,0,371.63,200.28Z"/><path class="cls-3" d="M383.4,205.64a3.22,3.22,0,0,1-.22-.94,3.4,3.4,0,0,1-2.54,1.11,3.15,3.15,0,0,1-2.17-.75,2.43,2.43,0,0,1-.85-1.89,2.53,2.53,0,0,1,1.07-2.17,4.94,4.94,0,0,1,3-.77h1.49v-.71a1.71,1.71,0,0,0-.48-1.27,1.91,1.91,0,0,0-1.41-.48,2.22,2.22,0,0,0-1.38.42,1.23,1.23,0,0,0-.55,1h-1.53a2.1,2.1,0,0,1,.47-1.3,3.31,3.31,0,0,1,1.29-1,4.22,4.22,0,0,1,1.79-.37,3.52,3.52,0,0,1,2.42.78,2.77,2.77,0,0,1,.9,2.12v4.11a5,5,0,0,0,.32,2v.13Zm-2.54-1.16a2.65,2.65,0,0,0,1.36-.37,2.3,2.3,0,0,0,.94-1v-1.83H382c-1.87,0-2.81.55-2.81,1.64a1.4,1.4,0,0,0,.48,1.13A1.89,1.89,0,0,0,380.86,204.48Z"/><path class="cls-3" d="M388.52,196.71l0,1a3.3,3.3,0,0,1,2.65-1.16,2.55,2.55,0,0,1,2.55,1.44,3.33,3.33,0,0,1,1.16-1,3.49,3.49,0,0,1,1.69-.4q2.94,0,3,3.12v6h-1.53v-5.89a2,2,0,0,0-.44-1.44,2,2,0,0,0-1.47-.47,2,2,0,0,0-1.41.51,2.07,2.07,0,0,0-.65,1.36v5.93h-1.54v-5.85a1.7,1.7,0,0,0-1.9-1.95,2,2,0,0,0-2.06,1.28v6.52h-1.53v-8.93Z"/><path class="cls-3" d="M405.61,205.81a3.93,3.93,0,0,1-3-1.19,4.44,4.44,0,0,1-1.13-3.2v-.28a5.35,5.35,0,0,1,.5-2.37,4,4,0,0,1,1.42-1.64,3.61,3.61,0,0,1,2-.59,3.36,3.36,0,0,1,2.71,1.15,5,5,0,0,1,1,3.29v.63H403a3.15,3.15,0,0,0,.78,2.14,2.41,2.41,0,0,0,1.87.81,2.65,2.65,0,0,0,1.37-.33,3.41,3.41,0,0,0,1-.87l.93.72A3.76,3.76,0,0,1,405.61,205.81Zm-.19-8a2,2,0,0,0-1.55.67,3.28,3.28,0,0,0-.78,1.89h4.48v-.12a3,3,0,0,0-.63-1.8A1.9,1.9,0,0,0,405.42,197.8Z"/><path class="cls-3" d="M412.31,196.71l.05,1.12a3.24,3.24,0,0,1,2.67-1.29q2.84,0,2.86,3.2v5.9h-1.53v-5.91a2,2,0,0,0-.44-1.43,1.77,1.77,0,0,0-1.35-.46,2.16,2.16,0,0,0-1.3.4,2.63,2.63,0,0,0-.88,1v6.36h-1.53v-8.93Z"/><path class="cls-3" d="M431.26,202.5h-5l-1.13,3.14h-1.63l4.59-12h1.39l4.6,12h-1.63Zm-4.56-1.3h4.09l-2.05-5.62Z"/><path class="cls-3" d="M440.93,205.64a3,3,0,0,1-.21-.94,3.41,3.41,0,0,1-2.55,1.11,3.16,3.16,0,0,1-2.17-.75,2.43,2.43,0,0,1-.84-1.89,2.52,2.52,0,0,1,1.06-2.17,5,5,0,0,1,3-.77h1.49v-.71a1.71,1.71,0,0,0-.48-1.27,1.91,1.91,0,0,0-1.41-.48,2.19,2.19,0,0,0-1.37.42,1.21,1.21,0,0,0-.55,1h-1.54a2.16,2.16,0,0,1,.47-1.3,3.31,3.31,0,0,1,1.29-1,4.22,4.22,0,0,1,1.79-.37,3.5,3.5,0,0,1,2.42.78,2.77,2.77,0,0,1,.91,2.12v4.11a5,5,0,0,0,.31,2v.13Zm-2.54-1.16a2.69,2.69,0,0,0,1.37-.37,2.22,2.22,0,0,0,.93-1v-1.83h-1.2c-1.87,0-2.8.55-2.8,1.64a1.43,1.43,0,0,0,.47,1.13A1.89,1.89,0,0,0,438.39,204.48Z"/><path class="cls-3" d="M446.06,196.71l.05,1.12a3.24,3.24,0,0,1,2.67-1.29q2.84,0,2.86,3.2v5.9h-1.53v-5.91a2,2,0,0,0-.44-1.43,1.77,1.77,0,0,0-1.35-.46,2.16,2.16,0,0,0-1.3.4,2.63,2.63,0,0,0-.88,1v6.36h-1.53v-8.93Z"/><path class="cls-3" d="M461.49,201.28a5.34,5.34,0,0,1-.93,3.28,3,3,0,0,1-2.53,1.25,3.29,3.29,0,0,1-2.56-1v4.3H454V196.71h1.39l.08,1a3.14,3.14,0,0,1,2.59-1.16,3.07,3.07,0,0,1,2.55,1.22,5.43,5.43,0,0,1,.93,3.38ZM460,201.1a3.91,3.91,0,0,0-.65-2.38,2.07,2.07,0,0,0-1.77-.88,2.26,2.26,0,0,0-2.08,1.23v4.27a2.26,2.26,0,0,0,2.1,1.22,2.07,2.07,0,0,0,1.75-.87A4.32,4.32,0,0,0,460,201.1Z"/><path class="cls-3" d="M469,205.64a3,3,0,0,1-.21-.94,3.41,3.41,0,0,1-2.55,1.11,3.12,3.12,0,0,1-2.16-.75,2.4,2.4,0,0,1-.85-1.89,2.52,2.52,0,0,1,1.06-2.17,5,5,0,0,1,3-.77h1.49v-.71a1.71,1.71,0,0,0-.48-1.27,1.91,1.91,0,0,0-1.41-.48,2.21,2.21,0,0,0-1.37.42,1.21,1.21,0,0,0-.55,1h-1.54a2.16,2.16,0,0,1,.47-1.3,3.31,3.31,0,0,1,1.29-1,4.25,4.25,0,0,1,1.79-.37,3.5,3.5,0,0,1,2.42.78,2.77,2.77,0,0,1,.91,2.12v4.11a5,5,0,0,0,.31,2v.13Zm-2.53-1.16a2.68,2.68,0,0,0,1.36-.37,2.22,2.22,0,0,0,.93-1v-1.83h-1.2c-1.87,0-2.8.55-2.8,1.64a1.43,1.43,0,0,0,.47,1.13A1.9,1.9,0,0,0,466.42,204.48Z"/><path class="cls-3" d="M475.13,201.51l-1,1v3.13h-1.53V193h1.53v7.67l.82-1,2.78-2.94h1.86l-3.48,3.73,3.88,5.2h-1.79Z"/><path class="cls-3" d="M483.7,201.51l-1,1v3.13h-1.53V193h1.53v7.67l.82-1,2.78-2.94h1.86l-3.48,3.73,3.88,5.2h-1.79Z"/><path class="cls-3" d="M493.32,205.81a3.93,3.93,0,0,1-3-1.19,4.44,4.44,0,0,1-1.14-3.2v-.28a5.35,5.35,0,0,1,.51-2.37,4,4,0,0,1,1.42-1.64,3.61,3.61,0,0,1,2-.59,3.38,3.38,0,0,1,2.71,1.15,5,5,0,0,1,1,3.29v.63h-6.06a3.19,3.19,0,0,0,.77,2.14,2.44,2.44,0,0,0,1.88.81,2.65,2.65,0,0,0,1.37-.33,3.41,3.41,0,0,0,1-.87l.93.72A3.76,3.76,0,0,1,493.32,205.81Zm-.19-8a2,2,0,0,0-1.55.67,3.28,3.28,0,0,0-.78,1.89h4.48v-.12a3,3,0,0,0-.63-1.8A1.9,1.9,0,0,0,493.13,197.8Z"/><path class="cls-3" d="M500,196.71l.05,1.12a3.24,3.24,0,0,1,2.67-1.29q2.83,0,2.86,3.2v5.9h-1.53v-5.91a2,2,0,0,0-.44-1.43,1.77,1.77,0,0,0-1.35-.46,2.14,2.14,0,0,0-1.3.4,2.63,2.63,0,0,0-.88,1v6.36h-1.53v-8.93Z"/></g></g></svg>