<svg id="Layer_1" data-name="Layer 1" xmlns="http://www.w3.org/2000/svg" xmlns:xlink="http://www.w3.org/1999/xlink" viewBox="0 0 1080.07 670.77"><defs><style>.cls-1{fill:#fff;}.cls-1,.cls-2,.cls-3,.cls-4{stroke:#d7d7d7;}.cls-1,.cls-2,.cls-3,.cls-4,.cls-7{stroke-miterlimit:10;}.cls-2,.cls-3,.cls-4,.cls-7{fill:none;}.cls-2,.cls-3,.cls-4{stroke-width:0.75px;}.cls-3{stroke-dasharray:6 6;}.cls-4{stroke-dasharray:5.89 5.89;}.cls-5{fill:url(#Ahosa_Gradient);}.cls-6{fill:#3f3e3e;}.cls-7{stroke:#3f3e3e;stroke-width:2px;}.cls-8{fill:#222221;}.cls-9{fill:#bf282f;}</style><linearGradient id="Ahosa_Gradient" x1="381.56" y1="315.82" x2="291.92" y2="240.61" gradientUnits="userSpaceOnUse"><stop offset="0" stop-color="#bf282f"/><stop offset="1" stop-color="#dfa856"/></linearGradient></defs><title>logogrid3</title><rect class="cls-1" x="239.57" y="175.63" width="71" height="71"/><rect class="cls-1" x="239.64" y="175.69" width="70.87" height="70.87"/><rect class="cls-1" x="239.64" y="246.56" width="70.87" height="70.87"/><rect class="cls-1" x="239.64" y="317.43" width="70.87" height="70.87"/><rect class="cls-1" x="239.64" y="388.29" width="70.87" height="70.87"/><rect class="cls-1" x="310.44" y="175.63" width="71" height="71"/><rect class="cls-1" x="310.51" y="175.69" width="70.87" height="70.87"/><rect class="cls-1" x="310.51" y="246.56" width="70.87" height="70.87"/><rect class="cls-1" x="310.51" y="317.43" width="70.87" height="70.87"/><rect class="cls-1" x="310.51" y="388.29" width="70.87" height="70.87"/><rect class="cls-1" x="381.31" y="175.63" width="71" height="71"/><rect class="cls-1" x="381.37" y="175.69" width="70.87" height="70.87"/><rect class="cls-1" x="381.37" y="246.56" width="70.87" height="70.87"/><rect class="cls-1" x="381.37" y="317.43" width="70.87" height="70.87"/><rect class="cls-1" x="381.37" y="388.29" width="70.87" height="70.87"/><rect class="cls-1" x="452.17" y="175.63" width="71" height="71"/><rect class="cls-1" x="452.24" y="175.69" width="70.87" height="70.87"/><rect class="cls-1" x="452.24" y="246.56" width="70.87" height="70.87"/><rect class="cls-1" x="452.24" y="317.43" width="70.87" height="70.87"/><rect class="cls-1" x="452.24" y="388.29" width="70.87" height="70.87"/><rect class="cls-1" x="523.04" y="175.63" width="71" height="71"/><rect class="cls-1" x="523.11" y="175.69" width="70.87" height="70.87"/><rect class="cls-1" x="523.11" y="246.56" width="70.87" height="70.87"/><rect class="cls-1" x="523.11" y="317.43" width="70.87" height="70.87"/><rect class="cls-1" x="523.11" y="388.29" width="70.87" height="70.87"/><rect class="cls-1" x="593.9" y="175.63" width="71" height="71"/><rect class="cls-1" x="593.97" y="175.69" width="70.87" height="70.87"/><rect class="cls-1" x="593.97" y="246.56" width="70.87" height="70.87"/><rect class="cls-1" x="593.97" y="317.43" width="70.87" height="70.87"/><rect class="cls-1" x="593.97" y="388.29" width="70.87" height="70.87"/><rect class="cls-1" x="664.77" y="175.63" width="71" height="71"/><rect class="cls-1" x="664.84" y="175.69" width="70.87" height="70.87"/><rect class="cls-1" x="664.84" y="246.56" width="70.87" height="70.87"/><rect class="cls-1" x="664.84" y="317.43" width="70.87" height="70.87"/><rect class="cls-1" x="664.84" y="388.29" width="70.87" height="70.87"/><rect class="cls-1" x="735.64" y="175.63" width="71" height="71"/><rect class="cls-1" x="735.7" y="175.69" width="70.87" height="70.87"/><rect class="cls-1" x="735.7" y="246.56" width="70.87" height="70.87"/><rect class="cls-1" x="735.7" y="317.43" width="70.87" height="70.87"/><rect class="cls-1" x="735.7" y="388.29" width="70.87" height="70.87"/><rect class="cls-1" x="806.5" y="175.63" width="71" height="71"/><rect class="cls-1" x="806.57" y="175.69" width="70.87" height="70.87"/><rect class="cls-1" x="806.57" y="246.56" width="70.87" height="70.87"/><rect class="cls-1" x="806.57" y="317.43" width="70.87" height="70.87"/><rect class="cls-1" x="806.57" y="388.29" width="70.87" height="70.87"/><rect class="cls-1" x="877.37" y="175.63" width="71" height="71"/><rect class="cls-1" x="948.37" y="175.69" width="70.87" height="70.87"/><rect class="cls-1" x="948.37" y="246.56" width="70.87" height="70.87"/><rect class="cls-1" x="948.37" y="317.43" width="70.87" height="70.87"/><rect class="cls-1" x="948.37" y="388.29" width="70.87" height="70.87"/><rect class="cls-1" x="877.43" y="388.29" width="70.87" height="70.87"/><polyline class="cls-2" points="1019.24 208.13 1019.24 211.13 1016.24 211.13"/><line class="cls-3" x1="1010.24" y1="211.13" x2="245.64" y2="211.13"/><polyline class="cls-2" points="242.64 211.13 239.64 211.13 239.64 208.13"/><line class="cls-4" x1="239.64" y1="202.24" x2="239.64" y2="181.64"/><polyline class="cls-2" points="239.64 178.69 239.64 175.69 242.64 175.69"/><line class="cls-3" x1="248.64" y1="175.69" x2="1013.24" y2="175.69"/><polyline class="cls-2" points="1016.24 175.69 1019.24 175.69 1019.24 178.69"/><line class="cls-4" x1="1019.24" y1="184.58" x2="1019.24" y2="205.18"/><polyline class="cls-2" points="1019.24 278.99 1019.24 281.99 1016.24 281.99"/><line class="cls-3" x1="1010.24" y1="281.99" x2="245.64" y2="281.99"/><polyline class="cls-2" points="242.64 281.99 239.64 281.99 239.64 278.99"/><line class="cls-4" x1="239.64" y1="273.11" x2="239.64" y2="252.5"/><polyline class="cls-2" points="239.64 249.56 239.64 246.56 242.64 246.56"/><line class="cls-3" x1="248.64" y1="246.56" x2="1013.24" y2="246.56"/><polyline class="cls-2" points="1016.24 246.56 1019.24 246.56 1019.24 249.56"/><line class="cls-4" x1="1019.24" y1="255.45" x2="1019.24" y2="276.05"/><polyline class="cls-2" points="1019.24 349.86 1019.24 352.86 1016.24 352.86"/><line class="cls-3" x1="1010.24" y1="352.86" x2="245.64" y2="352.86"/><polyline class="cls-2" points="242.64 352.86 239.64 352.86 239.64 349.86"/><line class="cls-4" x1="239.64" y1="343.97" x2="239.64" y2="323.37"/><polyline class="cls-2" points="239.64 320.43 239.64 317.43 242.64 317.43"/><line class="cls-3" x1="248.64" y1="317.43" x2="1013.24" y2="317.43"/><polyline class="cls-2" points="1016.24 317.43 1019.24 317.43 1019.24 320.43"/><line class="cls-4" x1="1019.24" y1="326.31" x2="1019.24" y2="346.92"/><polyline class="cls-2" points="1019.24 420.73 1019.24 423.73 1016.24 423.73"/><line class="cls-3" x1="1010.24" y1="423.73" x2="245.64" y2="423.73"/><polyline class="cls-2" points="242.64 423.73 239.64 423.73 239.64 420.73"/><line class="cls-4" x1="239.64" y1="414.84" x2="239.64" y2="394.24"/><polyline class="cls-2" points="239.64 391.29 239.64 388.29 242.64 388.29"/><line class="cls-3" x1="248.64" y1="388.29" x2="1013.24" y2="388.29"/><polyline class="cls-2" points="1016.24 388.29 1019.24 388.29 1019.24 391.29"/><line class="cls-4" x1="1019.24" y1="397.18" x2="1019.24" y2="417.78"/><polyline class="cls-2" points="1019.24 491.54 1019.24 494.54 1016.24 494.54"/><line class="cls-3" x1="1010.24" y1="494.54" x2="245.64" y2="494.54"/><polyline class="cls-2" points="242.64 494.54 239.64 494.54 239.64 491.54"/><line class="cls-4" x1="239.64" y1="485.65" x2="239.64" y2="465.05"/><polyline class="cls-2" points="239.64 462.1 239.64 459.1 242.64 459.1"/><line class="cls-3" x1="248.64" y1="459.1" x2="1013.24" y2="459.1"/><polyline class="cls-2" points="1016.24 459.1 1019.24 459.1 1019.24 462.1"/><line class="cls-4" x1="1019.24" y1="467.99" x2="1019.24" y2="488.59"/><line class="cls-1" x1="239.64" y1="388.29" x2="239.64" y2="494.59"/><line class="cls-1" x1="310.51" y1="388.29" x2="310.51" y2="493.81"/><line class="cls-1" x1="381.37" y1="388.29" x2="381.37" y2="493.81"/><line class="cls-1" x1="452.24" y1="388.29" x2="452.24" y2="495.15"/><line class="cls-1" x1="523.1" y1="388.29" x2="523.1" y2="494.48"/><line class="cls-1" x1="593.97" y1="388.29" x2="593.97" y2="494.73"/><line class="cls-1" x1="664.84" y1="423.73" x2="664.84" y2="494.48"/><line class="cls-1" x1="735.7" y1="423.73" x2="735.7" y2="494.73"/><line class="cls-1" x1="806.56" y1="388.29" x2="806.56" y2="494.73"/><line class="cls-1" x1="877.44" y1="423.73" x2="877.44" y2="494.73"/><line class="cls-1" x1="948.31" y1="423.73" x2="948.31" y2="494.59"/><line class="cls-1" x1="1019.24" y1="423.73" x2="1019.24" y2="494.59"/><path class="cls-5" d="M448,366.18h4.55V315.87a68.28,68.28,0,0,0-.64-9.32c-4.68-34-34.67-60.26-70.87-60-38.66.29-70.26,31.27-70.42,69-.13,32.31,22.36,59.49,52.89,67.32a24.15,24.15,0,0,1,17.21,15.53c.13.4.25.8.37,1.19,4.2,14.37,17.89,24.11,33.19,24.11h3.61c19.14,0,34.66-15.16,34.66-33.86v-9.12H448c-16.33,0-29.61-13-29.61-28.91V316a34.32,34.32,0,0,0-11.09-25.32,36,36,0,0,0-26.46-9.65c-18.28.82-33.26,15.45-34.1,33.31a34.3,34.3,0,0,0,9.87,25.84,36,36,0,0,0,25.93,10.83,7.29,7.29,0,1,1,0,14.57,50.9,50.9,0,0,1-36.71-15.34,48.53,48.53,0,0,1-14-36.57c1.19-25.3,22.41-46,48.32-47.19a51.1,51.1,0,0,1,37.44,13.66A48.62,48.62,0,0,1,433.33,316v35.8A14.53,14.53,0,0,0,448,366.18Zm-65.52-41.4a8.82,8.82,0,1,1,9-8.82A8.93,8.93,0,0,1,382.5,324.78Z"/><path class="cls-6" d="M677,282.26a8.28,8.28,0,0,0-8.3,8.27v39.72h-41.4V290.53a8.31,8.31,0,0,0-16.61,0v89.22a8.31,8.31,0,0,0,16.61,0V346.8h41.4v32.95a8.31,8.31,0,0,0,16.61,0V290.53A8.29,8.29,0,0,0,677,282.26Z"/><path class="cls-6" d="M735.67,282.26a37.29,37.29,0,0,0-37.31,37.18v31.41a37.31,37.31,0,0,0,74.62,0V319.44A37.29,37.29,0,0,0,735.67,282.26Zm20.7,68.59a20.7,20.7,0,0,1-41.4,0V319.44a20.7,20.7,0,0,1,41.4,0Z"/><path class="cls-6" d="M815,298.81h37.32a8.28,8.28,0,1,0,0-16.55H815a29,29,0,0,0-29,28.89v6.76a29,29,0,0,0,29,28.89h16.64a12.34,12.34,0,1,1,0,24.67H794.33a8.28,8.28,0,1,0,0,16.56h37.32a28.89,28.89,0,1,0,0-57.78H815a12.38,12.38,0,0,1-12.38-12.34v-6.76A12.38,12.38,0,0,1,815,298.81Z"/><path class="cls-6" d="M911,282.26a37.29,37.29,0,0,0-37.31,37.18v60.31a8.31,8.31,0,0,0,16.61,0V346.8h41.4v32.95a8.31,8.31,0,0,0,16.61,0V319.44A37.29,37.29,0,0,0,911,282.26Zm-20.7,48V319.44a20.7,20.7,0,0,1,41.4,0v10.81Z"/><path class="cls-6" d="M560.35,282.26A37.29,37.29,0,0,0,523,319.44v60.31a8.31,8.31,0,0,0,16.61,0V346.8H581v32.95a8.31,8.31,0,0,0,16.62,0V319.44A37.29,37.29,0,0,0,560.35,282.26Zm-20.7,48V319.44a20.7,20.7,0,0,1,41.39,0v10.81Z"/><polyline class="cls-7" points="310.64 165.39 310.64 140.72 948.37 140.72 948.37 165.39"/><line class="cls-7" x1="629.32" y1="140.72" x2="629.32" y2="126.05"/><polyline class="cls-7" points="229.14 423.73 204.48 423.73 204.48 246.56 229.14 246.56"/><line class="cls-7" x1="204.48" y1="335.2" x2="189.81" y2="335.2"/><polyline class="cls-7" points="452.17 504.39 452.17 529.05 310.44 529.05 310.44 504.39"/><line class="cls-7" x1="381.35" y1="529.05" x2="381.35" y2="543.72"/><polyline class="cls-7" points="948.37 504.38 948.37 529.05 523.1 529.05 523.1 504.38"/><line class="cls-7" x1="735.86" y1="529.05" x2="735.86" y2="543.72"/><path class="cls-8" d="M573.66,101.72l-2.84-8.52h1.65l1.81,5.68,1.81-5.68h1.66l-2.84,8.52Z"/><path class="cls-8" d="M580.49,101.81a2.58,2.58,0,0,1-1.94-.7,2.64,2.64,0,0,1-.69-2v-1a2.63,2.63,0,1,1,5.25,0v1a2.38,2.38,0,0,1-2.62,2.63Zm0-1.55a1,1,0,0,0,.76-.28,1.12,1.12,0,0,0,.27-.8v-1a1.08,1.08,0,0,0-.27-.79,1.16,1.16,0,0,0-1.51,0,1.12,1.12,0,0,0-.26.79v1a1.17,1.17,0,0,0,.26.8A1,1,0,0,0,580.48,100.26Z"/><path class="cls-8" d="M586.18,93.2v6.51a.48.48,0,0,0,.13.34.49.49,0,0,0,.36.12h.27v1.55h-.82a1.51,1.51,0,0,1-1.14-.42,1.65,1.65,0,0,1-.4-1.19V93.2Z"/><path class="cls-8" d="M589.66,93.2v6.51a.44.44,0,0,0,.13.34.49.49,0,0,0,.36.12h.26v1.55h-.82a1.5,1.5,0,0,1-1.13-.42,1.65,1.65,0,0,1-.41-1.19V93.2Z"/><path class="cls-8" d="M594.19,101.81a2.78,2.78,0,0,1-2.05-.72,2.65,2.65,0,0,1-.73-2V98.4a3,3,0,0,1,.7-2.11,2.62,2.62,0,0,1,2-.74,2.16,2.16,0,0,1,1.86.89,4.11,4.11,0,0,1,.66,2.5v.39h-4.16V98.25h2.7l0-.14a1.37,1.37,0,0,0-.33-.81.88.88,0,0,0-.71-.29,1.15,1.15,0,0,0-.9.34,1.41,1.41,0,0,0-.32,1v.78a1.3,1.3,0,0,0,.35,1,1.36,1.36,0,0,0,1,.34,1.91,1.91,0,0,0,1.22-.44l1.05.93a3.63,3.63,0,0,1-1.07.67A3.17,3.17,0,0,1,594.19,101.81Z"/><path class="cls-8" d="M599.89,101.81a1.79,1.79,0,0,1-1.51-.69,3.09,3.09,0,0,1-.54-1.94v-1a3.15,3.15,0,0,1,.54-2,1.79,1.79,0,0,1,1.51-.69,1.53,1.53,0,0,1,.89.29,2.06,2.06,0,0,1,.64.82L601.3,98a1.22,1.22,0,0,0-.1-.53.82.82,0,0,0-.31-.33,1.07,1.07,0,0,0-.49-.11.87.87,0,0,0-.7.3,1.35,1.35,0,0,0-.25.87v1a1.26,1.26,0,0,0,.25.84.87.87,0,0,0,.7.3,1.07,1.07,0,0,0,.49-.11.76.76,0,0,0,.31-.33,1.13,1.13,0,0,0,.1-.51l.08,1.39a1.53,1.53,0,0,1-1.49,1Zm1.41-.09V93.2h1.61v8.52Z"/><path class="cls-8" d="M604.46,94.8V93.2h1.61v1.6Zm0,6.92V95.64h1.61v6.08Z"/><path class="cls-8" d="M609.43,101.81a1.79,1.79,0,0,1-1.51-.69,3.09,3.09,0,0,1-.54-1.94v-1a3.15,3.15,0,0,1,.54-2,1.79,1.79,0,0,1,1.51-.69,1.53,1.53,0,0,1,.89.29,2.06,2.06,0,0,1,.64.82L610.84,98a1.22,1.22,0,0,0-.1-.53.9.9,0,0,0-.31-.33,1.07,1.07,0,0,0-.49-.11.85.85,0,0,0-.7.3,1.35,1.35,0,0,0-.25.87v1a1.26,1.26,0,0,0,.25.84.85.85,0,0,0,.7.3,1.07,1.07,0,0,0,.49-.11.83.83,0,0,0,.31-.33,1.13,1.13,0,0,0,.1-.51l.08,1.39a1.53,1.53,0,0,1-1.49,1Zm.29,2.38a3.14,3.14,0,0,1-1.3-.25,2.06,2.06,0,0,1-.89-.72l1.08-1a1.42,1.42,0,0,0,1.09.46,1.24,1.24,0,0,0,.81-.27.93.93,0,0,0,.33-.77v-6h1.61v5.9a2.61,2.61,0,0,1-.72,2A2.75,2.75,0,0,1,609.72,104.19Z"/><path class="cls-8" d="M616.2,101.72V93.2h1.6v8.52Zm.71,0v-1.55h5v1.55Z"/><path class="cls-8" d="M625.41,101.81a2.56,2.56,0,0,1-1.94-.7,2.64,2.64,0,0,1-.69-2v-1a2.38,2.38,0,0,1,2.63-2.62A2.37,2.37,0,0,1,628,98.17v1a2.66,2.66,0,0,1-.68,1.94A2.63,2.63,0,0,1,625.41,101.81Zm0-1.55a1,1,0,0,0,.76-.28,1.12,1.12,0,0,0,.27-.8v-1a1.08,1.08,0,0,0-.27-.79,1.16,1.16,0,0,0-1.51,0,1.12,1.12,0,0,0-.26.79v1a1.17,1.17,0,0,0,.26.8A1,1,0,0,0,625.4,100.26Z"/><path class="cls-8" d="M631.37,101.81a1.81,1.81,0,0,1-1.52-.69,3.15,3.15,0,0,1-.53-1.94v-1a3.22,3.22,0,0,1,.53-2,1.81,1.81,0,0,1,1.52-.69,1.47,1.47,0,0,1,.88.29,2,2,0,0,1,.65.82L632.78,98a1.22,1.22,0,0,0-.11-.53.8.8,0,0,0-.3-.33,1.07,1.07,0,0,0-.49-.11.85.85,0,0,0-.7.3,1.35,1.35,0,0,0-.25.87v1a1.26,1.26,0,0,0,.25.84.85.85,0,0,0,.7.3,1.07,1.07,0,0,0,.49-.11.74.74,0,0,0,.3-.33,1.13,1.13,0,0,0,.11-.51l.08,1.39a1.57,1.57,0,0,1-.57.77A1.52,1.52,0,0,1,631.37,101.81Zm.28,2.38a3.13,3.13,0,0,1-1.29-.25,2,2,0,0,1-.89-.72l1.08-1a1.41,1.41,0,0,0,1.09.46,1.24,1.24,0,0,0,.81-.27.93.93,0,0,0,.33-.77v-6h1.6v5.9a2.61,2.61,0,0,1-.71,2A2.78,2.78,0,0,1,631.65,104.19Z"/><path class="cls-8" d="M638.41,101.81a2.55,2.55,0,0,1-1.93-.7,2.64,2.64,0,0,1-.69-2v-1a2.63,2.63,0,1,1,5.25,0v1a2.63,2.63,0,0,1-.69,1.94A2.6,2.6,0,0,1,638.41,101.81Zm0-1.55a1,1,0,0,0,.75-.28,1.12,1.12,0,0,0,.27-.8v-1a1.08,1.08,0,0,0-.27-.79,1,1,0,0,0-.75-.28,1,1,0,0,0-.75.28,1.08,1.08,0,0,0-.26.79v1a1.12,1.12,0,0,0,.26.8A1,1,0,0,0,638.41,100.26Z"/><path class="cls-8" d="M644.67,101.72V93.2h1.6v8.52Zm.71,0V100.2h2.42a1.72,1.72,0,0,0,1.12-.28.94.94,0,0,0,.33-.74v0a1.08,1.08,0,0,0-.27-.77,1.19,1.19,0,0,0-.89-.29h-2.71V96.59h2.71c.7,0,1-.32,1-1s-.4-.92-1.21-.92h-2.55V93.2h2.77a2.68,2.68,0,0,1,2,.63,2.21,2.21,0,0,1,.64,1.68,2,2,0,0,1-.39,1.16,1.86,1.86,0,0,1-1.28.68,2,2,0,0,1,1.32.7,2.08,2.08,0,0,1,.47,1.33v0a2.18,2.18,0,0,1-.71,1.68,2.72,2.72,0,0,1-1.91.64Z"/><path class="cls-8" d="M652.21,101.72V95.64h1.73v6.08Zm3.43-4.39a.92.92,0,0,0-.68-.23.94.94,0,0,0-.76.31,1.35,1.35,0,0,0-.26.87l-.13-1.58a2.37,2.37,0,0,1,.65-.85,1.45,1.45,0,0,1,.89-.3,1.64,1.64,0,0,1,1.22.47Z"/><path class="cls-8" d="M659.77,101.81a2.79,2.79,0,0,1-2.06-.72,2.69,2.69,0,0,1-.73-2V98.4a3,3,0,0,1,.7-2.11,2.62,2.62,0,0,1,2-.74,2.16,2.16,0,0,1,1.86.89,4,4,0,0,1,.67,2.5v.39H658V98.25h2.69l0-.14a1.43,1.43,0,0,0-.32-.81.91.91,0,0,0-.72-.29,1.15,1.15,0,0,0-.9.34,1.41,1.41,0,0,0-.32,1v.78a1.3,1.3,0,0,0,.35,1,1.37,1.37,0,0,0,1,.34A1.88,1.88,0,0,0,661,100l1,.93a3.51,3.51,0,0,1-1.07.67A3.12,3.12,0,0,1,659.77,101.81Z"/><path class="cls-8" d="M666.26,101.81a2.81,2.81,0,0,1-2.06-.72,2.69,2.69,0,0,1-.72-2V98.4a3,3,0,0,1,.7-2.11,2.58,2.58,0,0,1,2-.74,2.18,2.18,0,0,1,1.87.89,4.11,4.11,0,0,1,.66,2.5v.39h-4.16V98.25h2.69v-.14a1.51,1.51,0,0,0-.33-.81.91.91,0,0,0-.72-.29,1.18,1.18,0,0,0-.9.34,1.41,1.41,0,0,0-.32,1v.78a1.3,1.3,0,0,0,.35,1,1.39,1.39,0,0,0,1,.34,1.88,1.88,0,0,0,1.21-.44l1,.93a3.51,3.51,0,0,1-1.07.67A3.12,3.12,0,0,1,666.26,101.81Z"/><path class="cls-8" d="M672,101.81a1.8,1.8,0,0,1-1.51-.69,3.15,3.15,0,0,1-.53-1.94v-1a3.22,3.22,0,0,1,.53-2,1.8,1.8,0,0,1,1.51-.69,1.5,1.5,0,0,1,.89.29,2,2,0,0,1,.65.82L673.37,98a1.22,1.22,0,0,0-.11-.53.76.76,0,0,0-.31-.33,1,1,0,0,0-.49-.11.87.87,0,0,0-.7.3,1.41,1.41,0,0,0-.25.87v1a1.31,1.31,0,0,0,.25.84.87.87,0,0,0,.7.3,1,1,0,0,0,.49-.11.71.71,0,0,0,.31-.33,1.13,1.13,0,0,0,.11-.51l.08,1.39a1.58,1.58,0,0,1-.58.77A1.48,1.48,0,0,1,672,101.81Zm1.42-.09V93.2H675v8.52Z"/><path class="cls-8" d="M676.14,97V95.64h3V97Zm2.17,4.71a1.5,1.5,0,0,1-1.18-.42,1.75,1.75,0,0,1-.36-1.19V93.87h1.61v5.84a.66.66,0,0,0,.08.34.31.31,0,0,0,.26.12h.4v1.55Z"/><path class="cls-8" d="M683.19,101.81a2.78,2.78,0,0,1-2.05-.72,2.65,2.65,0,0,1-.73-2V98.4a3,3,0,0,1,.7-2.11,2.62,2.62,0,0,1,2-.74,2.16,2.16,0,0,1,1.86.89,4.11,4.11,0,0,1,.66,2.5v.39h-4.16V98.25h2.7l0-.14a1.37,1.37,0,0,0-.33-.81.88.88,0,0,0-.71-.29,1.15,1.15,0,0,0-.9.34,1.36,1.36,0,0,0-.32,1v.78a1.26,1.26,0,0,0,.35,1,1.35,1.35,0,0,0,1,.34,1.91,1.91,0,0,0,1.22-.44l1,.93a3.46,3.46,0,0,1-1.06.67A3.21,3.21,0,0,1,683.19,101.81Z"/><path class="cls-9" d="M599.38,107.49a2.25,2.25,0,0,1,1.75.7,2.84,2.84,0,0,1,.62,2h0a4.27,4.27,0,0,1-.16,1.13,5.89,5.89,0,0,1-.44,1.19l-1.81,3.67h-1.29l2.14-4.25v.21a1,1,0,0,1-.46.4,1.81,1.81,0,0,1-.69.12,1.85,1.85,0,0,1-1.48-.68,2.81,2.81,0,0,1-.56-1.82h0a2.76,2.76,0,0,1,.62-1.94A2.24,2.24,0,0,1,599.38,107.49Zm0,1.15a1.09,1.09,0,0,0-.88.38,1.65,1.65,0,0,0-.31,1.06h0a1.68,1.68,0,0,0,.31,1.07,1.2,1.2,0,0,0,1.75,0,1.68,1.68,0,0,0,.3-1.07h0a1.64,1.64,0,0,0-.3-1A1.08,1.08,0,0,0,599.38,108.64Z"/><path class="cls-9" d="M607.46,116.12l-2.78-8.52H606l2,6.68,2-6.68h1.3l-2.78,8.52Z"/><path class="cls-9" d="M612.48,108.79V107.6h1.2v1.19Zm0,7.33V110h1.2v6.08Z"/><path class="cls-9" d="M618,116.21a2.63,2.63,0,0,1-2-.71,2.73,2.73,0,0,1-.7-2v-.68a3,3,0,0,1,.67-2.11,2.44,2.44,0,0,1,1.89-.74,2.09,2.09,0,0,1,1.78.85,3.87,3.87,0,0,1,.63,2.36v.4h-4.1v-1h3a2.05,2.05,0,0,0-.38-1.16,1.1,1.1,0,0,0-.89-.41,1.32,1.32,0,0,0-1.05.44,1.91,1.91,0,0,0-.37,1.26v.78a1.61,1.61,0,0,0,.39,1.16,1.53,1.53,0,0,0,1.13.4,1.91,1.91,0,0,0,1.36-.56l.79.79a3.36,3.36,0,0,1-1,.67A2.92,2.92,0,0,1,618,116.21Z"/><path class="cls-9" d="M622,116.12V110h1.19v6.08Zm3.34-4.64a1.15,1.15,0,0,0-1-.39,1.08,1.08,0,0,0-1.2,1.18l-.12-1.17a2.32,2.32,0,0,1,.72-.85,1.75,1.75,0,0,1,1-.3,1.9,1.9,0,0,1,1.34.47Z"/><path class="cls-9" d="M627.11,116.12V107.6h1.19v8.52Zm.44-.89.07-1.42,3.13-3.77h1.41Zm3.61.89L629,112.61l.76-.8,2.66,4.31Z"/><path class="cls-9" d="M635.4,116.21a2.57,2.57,0,0,1-1.68-.47,2.06,2.06,0,0,1-.05-2.77,2.28,2.28,0,0,1,1.54-.45h1.73l.08,1h-1.8a1,1,0,0,0-.7.21.83.83,0,0,0-.23.64.76.76,0,0,0,.31.68,1.58,1.58,0,0,0,.93.22,2.7,2.7,0,0,0,1-.14.48.48,0,0,0,.34-.46l.12.86a1.24,1.24,0,0,1-.39.4,1.65,1.65,0,0,1-.54.24A2.82,2.82,0,0,1,635.4,116.21Zm1.49-.09v-3.86a1.33,1.33,0,0,0-.32-.93,1.21,1.21,0,0,0-.91-.33,2.14,2.14,0,0,0-1.33.43l-.87-.6a2.19,2.19,0,0,1,.91-.65,3.4,3.4,0,0,1,1.26-.23,2.51,2.51,0,0,1,1.77.59,2.19,2.19,0,0,1,.63,1.67v3.91Z"/><path class="cls-9" d="M639.84,116.12V110H641v6.08Zm3.69,0v-3.69a1.41,1.41,0,0,0-.33-1,1.45,1.45,0,0,0-1.84,0,1.11,1.11,0,0,0-.32.87l-.13-1.17a2.21,2.21,0,0,1,.74-.85,1.78,1.78,0,0,1,1-.3,1.88,1.88,0,0,1,1.54.65,2.77,2.77,0,0,1,.54,1.83v3.69Z"/><path class="cls-9" d="M646.08,111.12V110h2.74v1.08Zm2,5a1.31,1.31,0,0,1-1.09-.42,1.85,1.85,0,0,1-.34-1.19v-6.24h1.2v6.25a.57.57,0,0,0,.09.34.28.28,0,0,0,.25.12h.58v1.14Z"/><path class="cls-9" d="M653,116.21a2.64,2.64,0,0,1-2-.71,2.73,2.73,0,0,1-.7-2v-.68a3.09,3.09,0,0,1,.67-2.11,2.44,2.44,0,0,1,1.89-.74,2.07,2.07,0,0,1,1.78.85,3.87,3.87,0,0,1,.63,2.36v.4h-4.1v-1h3a2.05,2.05,0,0,0-.38-1.16,1.1,1.1,0,0,0-.89-.41,1.32,1.32,0,0,0-1,.44,1.91,1.91,0,0,0-.37,1.26v.78a1.57,1.57,0,0,0,.4,1.16,1.5,1.5,0,0,0,1.13.4,2,2,0,0,0,1.36-.56l.78.79a3.36,3.36,0,0,1-1,.67A2.87,2.87,0,0,1,653,116.21Z"/><path class="cls-9" d="M657,116.12V110h1.2v6.08Zm3.69,0v-3.69a1.41,1.41,0,0,0-.33-1,1.45,1.45,0,0,0-1.84,0,1.11,1.11,0,0,0-.32.87L658,111.1a2.21,2.21,0,0,1,.74-.85,1.78,1.78,0,0,1,1-.3,1.89,1.89,0,0,1,1.54.65,2.77,2.77,0,0,1,.54,1.83v3.69Z"/><path class="cls-8" d="M330.78,563v-8.52h1.6V563Zm.71,0v-1.55h5V563Z"/><path class="cls-8" d="M340,563.05a2.56,2.56,0,0,1-1.94-.7,2.64,2.64,0,0,1-.69-2v-1a2.4,2.4,0,0,1,2.63-2.62,2.38,2.38,0,0,1,2.62,2.62v1a2.66,2.66,0,0,1-.68,1.94A2.63,2.63,0,0,1,340,563.05Zm0-1.55a1,1,0,0,0,.76-.28,1.12,1.12,0,0,0,.27-.8v-1a1.1,1.1,0,0,0-.27-.79,1,1,0,0,0-.76-.28,1,1,0,0,0-.75.28,1.09,1.09,0,0,0-.26.79v1a1.12,1.12,0,0,0,.26.8A1,1,0,0,0,340,561.5Z"/><path class="cls-8" d="M346,563.05a1.81,1.81,0,0,1-1.52-.69,3.15,3.15,0,0,1-.53-1.94v-1a3.22,3.22,0,0,1,.53-2,1.81,1.81,0,0,1,1.52-.69,1.47,1.47,0,0,1,.88.29,2,2,0,0,1,.65.82l-.12,1.35a1.22,1.22,0,0,0-.11-.53.76.76,0,0,0-.31-.33,1,1,0,0,0-.49-.11.84.84,0,0,0-.7.31,1.35,1.35,0,0,0-.24.86v1a1.31,1.31,0,0,0,.24.84.87.87,0,0,0,.7.3,1,1,0,0,0,.49-.11.74.74,0,0,0,.31-.32,1.13,1.13,0,0,0,.11-.51l.08,1.38a1.71,1.71,0,0,1-.57.78A1.58,1.58,0,0,1,346,563.05Zm.28,2.38a3.21,3.21,0,0,1-1.3-.25,2,2,0,0,1-.88-.72l1.07-1a1.44,1.44,0,0,0,1.09.46,1.25,1.25,0,0,0,.82-.27.92.92,0,0,0,.33-.76v-6H349v5.9a2.59,2.59,0,0,1-.71,2A2.78,2.78,0,0,1,346.23,565.43Z"/><path class="cls-8" d="M353,563.05a2.59,2.59,0,0,1-1.94-.7,2.67,2.67,0,0,1-.68-2v-1a2.38,2.38,0,0,1,2.62-2.62,2.4,2.4,0,0,1,2.63,2.62v1a2.63,2.63,0,0,1-.69,1.94A2.6,2.6,0,0,1,353,563.05Zm0-1.55a1,1,0,0,0,.75-.28,1.12,1.12,0,0,0,.27-.8v-1a1.1,1.1,0,0,0-.27-.79,1,1,0,0,0-.75-.28,1,1,0,0,0-.75.28,1.1,1.1,0,0,0-.27.79v1a1.12,1.12,0,0,0,.27.8A1,1,0,0,0,353,561.5Z"/><path class="cls-8" d="M356.62,558.25v-1.37h3v1.37Zm2.16,4.71a1.46,1.46,0,0,1-1.17-.42,1.7,1.7,0,0,1-.37-1.19v-6.24h1.61V561a.57.57,0,0,0,.09.34.28.28,0,0,0,.25.12h.4V563Z"/><path class="cls-8" d="M363.66,563.05a2.82,2.82,0,0,1-2.05-.71,2.69,2.69,0,0,1-.73-2v-.68a3,3,0,0,1,.7-2.11,2.62,2.62,0,0,1,2-.74,2.19,2.19,0,0,1,1.86.89,4.11,4.11,0,0,1,.66,2.5v.4h-4.16v-1.09h2.7l0-.14a1.37,1.37,0,0,0-.33-.81.91.91,0,0,0-.71-.29,1.15,1.15,0,0,0-.9.34,1.43,1.43,0,0,0-.32,1v.78a1.3,1.3,0,0,0,.35,1,1.36,1.36,0,0,0,1,.34,1.91,1.91,0,0,0,1.22-.44l1.05.93a3.63,3.63,0,0,1-1.07.67A3.17,3.17,0,0,1,363.66,563.05Z"/><path class="cls-8" d="M367.49,563v-8.52h1.61V563Zm1-.42-.22-1.77,2.84-3.89h1.7Zm2.76.42-1.54-3.14L371,559l2.06,3.94Z"/><path class="cls-8" d="M376.5,563.05a2.82,2.82,0,0,1-2.05-.71,2.69,2.69,0,0,1-.73-2v-.68a3,3,0,0,1,.7-2.11,2.6,2.6,0,0,1,2-.74,2.19,2.19,0,0,1,1.86.89,4.11,4.11,0,0,1,.66,2.5v.4h-4.16v-1.09h2.7l0-.14a1.37,1.37,0,0,0-.33-.81.91.91,0,0,0-.71-.29,1.15,1.15,0,0,0-.9.34,1.38,1.38,0,0,0-.32,1v.78a1.26,1.26,0,0,0,.35,1,1.35,1.35,0,0,0,1,.34,1.86,1.86,0,0,0,1.21-.44l1.05.93a3.46,3.46,0,0,1-1.06.67A3.21,3.21,0,0,1,376.5,563.05Z"/><path class="cls-8" d="M380.33,563v-6.08h1.6V563Zm3.51,0v-3.69a.9.9,0,0,0-.25-.69,1,1,0,0,0-.72-.24.9.9,0,0,0-.69.25.92.92,0,0,0-.25.7l-.12-1.35a2.41,2.41,0,0,1,.64-.85,1.53,1.53,0,0,1,1-.3,1.82,1.82,0,0,1,1.49.65,2.83,2.83,0,0,1,.53,1.83V563Z"/><path class="cls-8" d="M389.2,563v-8.52h1.6V563Zm.7,0v-1.52h2.43a1.72,1.72,0,0,0,1.12-.28.92.92,0,0,0,.33-.74v0a1.08,1.08,0,0,0-.27-.77,1.19,1.19,0,0,0-.89-.29H389.9v-1.51h2.72c.7,0,1-.32,1-1s-.4-.92-1.2-.92H389.9v-1.52h2.77a2.71,2.71,0,0,1,2,.63,2.24,2.24,0,0,1,.64,1.68,1.9,1.9,0,0,1-.4,1.16,1.84,1.84,0,0,1-1.27.68,2,2,0,0,1,1.32.7,2.09,2.09,0,0,1,.46,1.33v0a2.15,2.15,0,0,1-.7,1.68,2.73,2.73,0,0,1-1.92.64Z"/><path class="cls-8" d="M396.74,563v-6.08h1.72V563Zm3.42-4.39a.89.89,0,0,0-.68-.23.93.93,0,0,0-.75.31,1.29,1.29,0,0,0-.27.87l-.12-1.58a2.27,2.27,0,0,1,.65-.85,1.44,1.44,0,0,1,.88-.3,1.67,1.67,0,0,1,1.23.47Z"/><path class="cls-8" d="M404.29,563.05a2.82,2.82,0,0,1-2.05-.71,2.69,2.69,0,0,1-.73-2v-.68a3,3,0,0,1,.7-2.11,2.62,2.62,0,0,1,2-.74,2.19,2.19,0,0,1,1.86.89,4.11,4.11,0,0,1,.66,2.5v.4h-4.16v-1.09h2.7l0-.14a1.37,1.37,0,0,0-.33-.81.91.91,0,0,0-.71-.29,1.15,1.15,0,0,0-.9.34,1.43,1.43,0,0,0-.32,1v.78a1.26,1.26,0,0,0,.35,1,1.35,1.35,0,0,0,1,.34,1.91,1.91,0,0,0,1.22-.44l1,.93a3.46,3.46,0,0,1-1.06.67A3.17,3.17,0,0,1,404.29,563.05Z"/><path class="cls-8" d="M410.79,563.05a2.83,2.83,0,0,1-2.06-.71,2.69,2.69,0,0,1-.73-2v-.68a3,3,0,0,1,.7-2.11,2.62,2.62,0,0,1,2-.74,2.19,2.19,0,0,1,1.86.89,4.11,4.11,0,0,1,.66,2.5v.4H409v-1.09h2.7l0-.14a1.37,1.37,0,0,0-.33-.81.91.91,0,0,0-.71-.29,1.15,1.15,0,0,0-.9.34,1.43,1.43,0,0,0-.32,1v.78a1.3,1.3,0,0,0,.35,1,1.37,1.37,0,0,0,1,.34,1.9,1.9,0,0,0,1.21-.44l1.05.93a3.63,3.63,0,0,1-1.07.67A3.12,3.12,0,0,1,410.79,563.05Z"/><path class="cls-8" d="M416.48,563.05a1.79,1.79,0,0,1-1.51-.69,3.09,3.09,0,0,1-.53-1.94v-1a3.15,3.15,0,0,1,.53-2,1.79,1.79,0,0,1,1.51-.69,1.53,1.53,0,0,1,.89.29,2.08,2.08,0,0,1,.65.82l-.13,1.35a1.22,1.22,0,0,0-.1-.53.82.82,0,0,0-.31-.33,1.07,1.07,0,0,0-.49-.11.84.84,0,0,0-.7.31,1.3,1.3,0,0,0-.25.86v1a1.26,1.26,0,0,0,.25.84.87.87,0,0,0,.7.3,1.07,1.07,0,0,0,.49-.11.8.8,0,0,0,.31-.32,1.13,1.13,0,0,0,.1-.51L418,562a1.58,1.58,0,0,1-.57.78A1.56,1.56,0,0,1,416.48,563.05Zm1.41-.09v-8.52h1.61V563Z"/><path class="cls-8" d="M420.67,558.25v-1.37h3v1.37Zm2.17,4.71a1.47,1.47,0,0,1-1.18-.42,1.75,1.75,0,0,1-.36-1.19v-6.24h1.6V561a.57.57,0,0,0,.09.34.3.3,0,0,0,.26.12h.4V563Z"/><path class="cls-8" d="M427.72,563.05a2.85,2.85,0,0,1-2.06-.71,2.73,2.73,0,0,1-.72-2v-.68a3,3,0,0,1,.7-2.11,2.58,2.58,0,0,1,2-.74,2.21,2.21,0,0,1,1.87.89,4.11,4.11,0,0,1,.66,2.5v.4H426v-1.09h2.69v-.14a1.51,1.51,0,0,0-.33-.81,1,1,0,0,0-.72-.29,1.18,1.18,0,0,0-.9.34,1.43,1.43,0,0,0-.32,1v.78a1.3,1.3,0,0,0,.35,1,1.39,1.39,0,0,0,1,.34,1.88,1.88,0,0,0,1.21-.44l1.05.93a3.51,3.51,0,0,1-1.07.67A3.12,3.12,0,0,1,427.72,563.05Z"/><path class="cls-9" d="M348.83,577.36v-1l3-4a3,3,0,0,0,.39-.7,1.79,1.79,0,0,0,.15-.69h0a1.06,1.06,0,0,0-.3-.8,1.18,1.18,0,0,0-.85-.29,1.21,1.21,0,0,0-.84.31,1.37,1.37,0,0,0-.39.89h-1.24a2.89,2.89,0,0,1,.8-1.73,2.33,2.33,0,0,1,1.66-.6,2.51,2.51,0,0,1,1.78.58,2.17,2.17,0,0,1,.62,1.65h0a2.79,2.79,0,0,1-.18.95,3.83,3.83,0,0,1-.53.94l-2.46,3.35h3.22v1.14Z"/><path class="cls-9" d="M359.28,577.36l-2.78-8.52h1.3l2.05,6.68,2-6.68h1.3l-2.78,8.52Z"/><path class="cls-9" d="M364.31,570v-1.2h1.19V570Zm0,7.32v-6.08h1.19v6.08Z"/><path class="cls-9" d="M369.87,577.45a2.64,2.64,0,0,1-2-.71,2.73,2.73,0,0,1-.7-2V574a3,3,0,0,1,.67-2.11,2.44,2.44,0,0,1,1.89-.74,2.07,2.07,0,0,1,1.78.85,3.87,3.87,0,0,1,.63,2.36v.4h-4.1v-1h3a2.05,2.05,0,0,0-.38-1.16,1.1,1.1,0,0,0-.89-.41,1.32,1.32,0,0,0-1.05.44,1.91,1.91,0,0,0-.37,1.26v.78a1.57,1.57,0,0,0,.4,1.16,1.5,1.5,0,0,0,1.13.4,1.91,1.91,0,0,0,1.36-.56l.78.79a3.36,3.36,0,0,1-1,.67A2.91,2.91,0,0,1,369.87,577.45Z"/><path class="cls-9" d="M373.81,577.36v-6.08H375v6.08Zm3.35-4.64a1.19,1.19,0,0,0-1-.39,1.09,1.09,0,0,0-1.2,1.18l-.12-1.17a2.23,2.23,0,0,1,.73-.84,1.63,1.63,0,0,1,1-.31,1.9,1.9,0,0,1,1.34.47Z"/><path class="cls-9" d="M378.93,577.36v-8.52h1.2v8.52Zm.44-.89.08-1.42,3.13-3.77H384Zm3.61.89-2.12-3.51.77-.8,2.65,4.31Z"/><path class="cls-9" d="M387.22,577.45a2.67,2.67,0,0,1-1.68-.46,1.76,1.76,0,0,1-.56-1.42,1.73,1.73,0,0,1,.51-1.36,2.28,2.28,0,0,1,1.54-.45h1.73l.08,1H387a1,1,0,0,0-.7.21.83.83,0,0,0-.23.64.79.79,0,0,0,.31.69,1.68,1.68,0,0,0,.93.22,2.67,2.67,0,0,0,1-.15.48.48,0,0,0,.34-.46l.12.86a1.24,1.24,0,0,1-.39.4,1.65,1.65,0,0,1-.54.24A2.82,2.82,0,0,1,387.22,577.45Zm1.49-.09V573.5a1.29,1.29,0,0,0-.32-.92,1.19,1.19,0,0,0-.9-.33,2.15,2.15,0,0,0-1.33.42l-.88-.6a2.36,2.36,0,0,1,.91-.65,3.4,3.4,0,0,1,1.26-.23,2.51,2.51,0,0,1,1.77.59,2.19,2.19,0,0,1,.63,1.67v3.91Z"/><path class="cls-9" d="M391.66,577.36v-6.08h1.2v6.08Zm3.69,0v-3.69a1.41,1.41,0,0,0-.33-1,1.24,1.24,0,0,0-.94-.35,1.22,1.22,0,0,0-.9.31,1.13,1.13,0,0,0-.32.87l-.12-1.17a2.11,2.11,0,0,1,.73-.85,1.79,1.79,0,0,1,1-.3,1.89,1.89,0,0,1,1.53.65,2.77,2.77,0,0,1,.54,1.83v3.69Z"/><path class="cls-9" d="M397.9,572.36v-1.08h2.74v1.08Zm2.05,5a1.33,1.33,0,0,1-1.09-.42,1.85,1.85,0,0,1-.34-1.19v-6.24h1.2v6.25a.55.55,0,0,0,.09.34.3.3,0,0,0,.26.12h.57v1.14Z"/><path class="cls-9" d="M404.83,577.45a2.66,2.66,0,0,1-2-.71,2.77,2.77,0,0,1-.7-2V574a3.09,3.09,0,0,1,.67-2.11,2.44,2.44,0,0,1,1.89-.74,2.07,2.07,0,0,1,1.78.85,3.87,3.87,0,0,1,.63,2.36v.4H403v-1h3a2.05,2.05,0,0,0-.38-1.16,1.1,1.1,0,0,0-.89-.41,1.32,1.32,0,0,0-1.05.44,1.91,1.91,0,0,0-.37,1.26v.78a1.57,1.57,0,0,0,.4,1.16,1.5,1.5,0,0,0,1.13.4,1.91,1.91,0,0,0,1.36-.56l.78.79a3.36,3.36,0,0,1-1,.67A2.87,2.87,0,0,1,404.83,577.45Z"/><path class="cls-9" d="M408.77,577.36v-6.08H410v6.08Zm3.69,0v-3.69a1.41,1.41,0,0,0-.33-1,1.25,1.25,0,0,0-.94-.35,1.22,1.22,0,0,0-.9.31,1.13,1.13,0,0,0-.32.87l-.13-1.17a2.21,2.21,0,0,1,.74-.85,1.78,1.78,0,0,1,1-.3,1.91,1.91,0,0,1,1.54.65,2.77,2.77,0,0,1,.54,1.83v3.69Z"/><path class="cls-8" d="M683.47,563v-8.52h1.6V563Zm.71,0v-1.55h5V563Z"/><path class="cls-8" d="M692.68,563.05a2.58,2.58,0,0,1-1.94-.7,2.64,2.64,0,0,1-.69-2v-1a2.4,2.4,0,0,1,2.63-2.62,2.38,2.38,0,0,1,2.62,2.62v1a2.66,2.66,0,0,1-.68,1.94A2.63,2.63,0,0,1,692.68,563.05Zm0-1.55a1,1,0,0,0,.76-.28,1.12,1.12,0,0,0,.27-.8v-1a1.1,1.1,0,0,0-.27-.79,1.16,1.16,0,0,0-1.51,0,1.14,1.14,0,0,0-.26.79v1a1.17,1.17,0,0,0,.26.8A1,1,0,0,0,692.67,561.5Z"/><path class="cls-8" d="M698.64,563.05a1.81,1.81,0,0,1-1.52-.69,3.15,3.15,0,0,1-.53-1.94v-1a3.22,3.22,0,0,1,.53-2,1.81,1.81,0,0,1,1.52-.69,1.47,1.47,0,0,1,.88.29,2,2,0,0,1,.65.82l-.12,1.35a1.22,1.22,0,0,0-.11-.53.8.8,0,0,0-.3-.33,1.07,1.07,0,0,0-.49-.11.83.83,0,0,0-.7.31,1.3,1.3,0,0,0-.25.86v1a1.26,1.26,0,0,0,.25.84.85.85,0,0,0,.7.3,1.07,1.07,0,0,0,.49-.11.77.77,0,0,0,.3-.32,1.13,1.13,0,0,0,.11-.51l.08,1.38a1.64,1.64,0,0,1-.57.78A1.58,1.58,0,0,1,698.64,563.05Zm.28,2.38a3.13,3.13,0,0,1-1.29-.25,2,2,0,0,1-.89-.72l1.08-1a1.42,1.42,0,0,0,1.09.46,1.24,1.24,0,0,0,.81-.27.92.92,0,0,0,.33-.76v-6h1.6v5.9a2.59,2.59,0,0,1-.71,2A2.78,2.78,0,0,1,698.92,565.43Z"/><path class="cls-8" d="M705.69,563.05a2.56,2.56,0,0,1-1.94-.7,2.64,2.64,0,0,1-.69-2v-1a2.63,2.63,0,1,1,5.25,0v1a2.63,2.63,0,0,1-.69,1.94A2.59,2.59,0,0,1,705.69,563.05Zm0-1.55a1,1,0,0,0,.76-.28,1.12,1.12,0,0,0,.26-.8v-1a1.09,1.09,0,0,0-.26-.79,1,1,0,0,0-.76-.28,1,1,0,0,0-.75.28,1.09,1.09,0,0,0-.26.79v1a1.12,1.12,0,0,0,.26.8A1,1,0,0,0,705.68,561.5Z"/><path class="cls-8" d="M712.11,563h-1.17l-1.87-6.08h1.56l1.06,3.81,1.27-3.81h1l1.32,3.81,1.06-3.81h1.5L716,563h-1.17l-1.32-4Z"/><path class="cls-8" d="M721.15,563.05a2.59,2.59,0,0,1-1.94-.7,2.67,2.67,0,0,1-.68-2v-1a2.38,2.38,0,0,1,2.62-2.62,2.4,2.4,0,0,1,2.63,2.62v1a2.63,2.63,0,0,1-.69,1.94A2.6,2.6,0,0,1,721.15,563.05Zm0-1.55a1,1,0,0,0,.75-.28,1.12,1.12,0,0,0,.27-.8v-1a1.1,1.1,0,0,0-.27-.79,1,1,0,0,0-.75-.28,1,1,0,0,0-.75.28,1.1,1.1,0,0,0-.27.79v1a1.12,1.12,0,0,0,.27.8A1,1,0,0,0,721.15,561.5Z"/><path class="cls-8" d="M727.69,563.05a2.59,2.59,0,0,1-1.94-.7,2.67,2.67,0,0,1-.68-2v-1a2.38,2.38,0,0,1,2.62-2.62,2.4,2.4,0,0,1,2.63,2.62v1a2.63,2.63,0,0,1-.69,1.94A2.6,2.6,0,0,1,727.69,563.05Zm0-1.55a1,1,0,0,0,.75-.28,1.12,1.12,0,0,0,.27-.8v-1a1.1,1.1,0,0,0-.27-.79,1,1,0,0,0-.75-.28,1,1,0,0,0-.75.28,1.1,1.1,0,0,0-.27.79v1a1.12,1.12,0,0,0,.27.8A1,1,0,0,0,727.69,561.5Z"/><path class="cls-8" d="M731.78,563v-6.08h1.73V563Zm3.42-4.39a.88.88,0,0,0-.67-.23.94.94,0,0,0-.76.31,1.29,1.29,0,0,0-.26.87l-.13-1.58a2.37,2.37,0,0,1,.65-.85,1.45,1.45,0,0,1,.89-.3,1.64,1.64,0,0,1,1.22.47Z"/><path class="cls-8" d="M738.54,563.05a1.79,1.79,0,0,1-1.51-.69,3.09,3.09,0,0,1-.54-1.94v-1a3.15,3.15,0,0,1,.54-2,1.79,1.79,0,0,1,1.51-.69,1.53,1.53,0,0,1,.89.29,2.06,2.06,0,0,1,.64.82l-.12,1.35a1.22,1.22,0,0,0-.1-.53.82.82,0,0,0-.31-.33,1.07,1.07,0,0,0-.49-.11.83.83,0,0,0-.7.31,1.3,1.3,0,0,0-.25.86v1a1.26,1.26,0,0,0,.25.84.85.85,0,0,0,.7.3,1.07,1.07,0,0,0,.49-.11.8.8,0,0,0,.31-.32,1.13,1.13,0,0,0,.1-.51L740,562a1.5,1.5,0,0,1-1.49,1ZM740,563v-8.52h1.61V563Z"/><path class="cls-8" d="M745.37,563v-8.52H747V563Zm.7,0v-1.52h2.42a1.72,1.72,0,0,0,1.12-.28.92.92,0,0,0,.33-.74v0a1.08,1.08,0,0,0-.27-.77,1.16,1.16,0,0,0-.88-.29h-2.72v-1.51h2.72c.69,0,1-.32,1-1s-.4-.92-1.21-.92h-2.55v-1.52h2.77a2.73,2.73,0,0,1,2,.63,2.28,2.28,0,0,1,.64,1.68,2,2,0,0,1-.4,1.16,1.86,1.86,0,0,1-1.27.68,2,2,0,0,1,1.31.7,2.1,2.1,0,0,1,.47,1.33v0a2.16,2.16,0,0,1-.71,1.68,2.72,2.72,0,0,1-1.91.64Z"/><path class="cls-8" d="M752.91,563v-6.08h1.72V563Zm3.42-4.39a1.09,1.09,0,0,0-1.43.08,1.29,1.29,0,0,0-.27.87l-.12-1.58a2.17,2.17,0,0,1,.65-.85,1.42,1.42,0,0,1,.88-.3,1.67,1.67,0,0,1,1.23.47Z"/><path class="cls-8" d="M760.46,563.05a2.85,2.85,0,0,1-2.06-.71,2.73,2.73,0,0,1-.72-2v-.68a3,3,0,0,1,.7-2.11,2.58,2.58,0,0,1,2-.74,2.21,2.21,0,0,1,1.87.89,4.11,4.11,0,0,1,.66,2.5v.4h-4.16v-1.09h2.69v-.14a1.51,1.51,0,0,0-.33-.81,1,1,0,0,0-.72-.29,1.18,1.18,0,0,0-.9.34,1.43,1.43,0,0,0-.32,1v.78a1.3,1.3,0,0,0,.35,1,1.39,1.39,0,0,0,1,.34,1.88,1.88,0,0,0,1.21-.44l1.05.93a3.51,3.51,0,0,1-1.07.67A3.12,3.12,0,0,1,760.46,563.05Z"/><path class="cls-8" d="M767,563.05a2.85,2.85,0,0,1-2.06-.71,2.73,2.73,0,0,1-.72-2v-.68a3,3,0,0,1,.7-2.11,2.59,2.59,0,0,1,2-.74,2.19,2.19,0,0,1,1.86.89,4.11,4.11,0,0,1,.66,2.5v.4h-4.16v-1.09h2.7l0-.14a1.37,1.37,0,0,0-.33-.81.93.93,0,0,0-.71-.29,1.15,1.15,0,0,0-.9.34,1.38,1.38,0,0,0-.32,1v.78a1.26,1.26,0,0,0,.35,1,1.35,1.35,0,0,0,1,.34,1.88,1.88,0,0,0,1.21-.44l1.05.93a3.46,3.46,0,0,1-1.06.67A3.21,3.21,0,0,1,767,563.05Z"/><path class="cls-8" d="M772.65,563.05a1.81,1.81,0,0,1-1.52-.69,3.15,3.15,0,0,1-.53-1.94v-1a3.22,3.22,0,0,1,.53-2,1.81,1.81,0,0,1,1.52-.69,1.47,1.47,0,0,1,.88.29,2,2,0,0,1,.65.82l-.12,1.35a1.22,1.22,0,0,0-.11-.53.8.8,0,0,0-.3-.33,1.07,1.07,0,0,0-.49-.11.83.83,0,0,0-.7.31,1.3,1.3,0,0,0-.25.86v1a1.26,1.26,0,0,0,.25.84.85.85,0,0,0,.7.3,1.07,1.07,0,0,0,.49-.11.77.77,0,0,0,.3-.32,1.13,1.13,0,0,0,.11-.51l.08,1.38a1.64,1.64,0,0,1-.57.78A1.58,1.58,0,0,1,772.65,563.05Zm1.41-.09v-8.52h1.6V563Z"/><path class="cls-8" d="M776.84,558.25v-1.37h3v1.37ZM779,563a1.46,1.46,0,0,1-1.17-.42,1.7,1.7,0,0,1-.37-1.19v-6.24h1.61V561a.57.57,0,0,0,.09.34.28.28,0,0,0,.25.12h.4V563Z"/><path class="cls-8" d="M783.88,563.05a2.82,2.82,0,0,1-2-.71,2.69,2.69,0,0,1-.73-2v-.68a3,3,0,0,1,.7-2.11,2.62,2.62,0,0,1,2-.74,2.19,2.19,0,0,1,1.86.89,4.11,4.11,0,0,1,.66,2.5v.4h-4.16v-1.09h2.7l0-.14a1.37,1.37,0,0,0-.33-.81.91.91,0,0,0-.71-.29,1.15,1.15,0,0,0-.9.34,1.43,1.43,0,0,0-.32,1v.78a1.3,1.3,0,0,0,.35,1,1.36,1.36,0,0,0,1,.34,1.91,1.91,0,0,0,1.22-.44l1,.93a3.63,3.63,0,0,1-1.07.67A3.13,3.13,0,0,1,783.88,563.05Z"/><path class="cls-9" d="M705.54,577.47a2.2,2.2,0,0,1-1.71-.68,2.79,2.79,0,0,1-.6-1.91h0a4.94,4.94,0,0,1,.15-1.17,6.56,6.56,0,0,1,.44-1.19l1.85-3.67H707l-2.17,4.25v-.21a1.12,1.12,0,0,1,1.09-.58,1.92,1.92,0,0,1,1.55.66,2.87,2.87,0,0,1,.55,1.88h0a2.71,2.71,0,0,1-.64,1.93A2.33,2.33,0,0,1,705.54,577.47Zm0-1.15a1.16,1.16,0,0,0,.92-.36,1.44,1.44,0,0,0,.32-1h0a1.64,1.64,0,0,0-.32-1.1,1.12,1.12,0,0,0-.92-.39,1,1,0,0,0-.82.39,1.79,1.79,0,0,0-.3,1.11h0a1.55,1.55,0,0,0,.3,1A1,1,0,0,0,705.54,576.32Z"/><path class="cls-9" d="M713.69,577.36l-2.78-8.52h1.3l2,6.68,2-6.68h1.3l-2.78,8.52Z"/><path class="cls-9" d="M718.71,570v-1.2h1.2V570Zm0,7.32v-6.08h1.2v6.08Z"/><path class="cls-9" d="M724.27,577.45a2.63,2.63,0,0,1-2-.71,2.73,2.73,0,0,1-.7-2V574a3,3,0,0,1,.67-2.11,2.44,2.44,0,0,1,1.89-.74A2.09,2.09,0,0,1,726,572a3.87,3.87,0,0,1,.63,2.36v.4h-4.1v-1h3a2.05,2.05,0,0,0-.38-1.16,1.1,1.1,0,0,0-.89-.41,1.32,1.32,0,0,0-1,.44,1.91,1.91,0,0,0-.38,1.26v.78a1.62,1.62,0,0,0,.4,1.16,1.53,1.53,0,0,0,1.13.4,1.87,1.87,0,0,0,1.36-.56l.79.79a3.36,3.36,0,0,1-1,.67A2.92,2.92,0,0,1,724.27,577.45Z"/><path class="cls-9" d="M728.22,577.36v-6.08h1.19v6.08Zm3.34-4.64a1.15,1.15,0,0,0-.95-.39,1.08,1.08,0,0,0-1.2,1.18l-.12-1.17a2.12,2.12,0,0,1,.72-.84,1.68,1.68,0,0,1,1-.31,1.9,1.9,0,0,1,1.34.47Z"/><path class="cls-9" d="M733.34,577.36v-8.52h1.19v8.52Zm.44-.89.07-1.42,3.13-3.77h1.41Zm3.61.89-2.12-3.51.76-.8,2.66,4.31Z"/><path class="cls-9" d="M741.63,577.45A2.63,2.63,0,0,1,740,577a1.76,1.76,0,0,1-.56-1.42,1.73,1.73,0,0,1,.51-1.36,2.27,2.27,0,0,1,1.54-.45h1.73l.08,1h-1.8a1,1,0,0,0-.7.21.8.8,0,0,0-.23.64.79.79,0,0,0,.31.69,1.63,1.63,0,0,0,.93.22,2.67,2.67,0,0,0,1-.15.49.49,0,0,0,.34-.46l.12.86a1.35,1.35,0,0,1-.39.4,1.65,1.65,0,0,1-.54.24A2.82,2.82,0,0,1,741.63,577.45Zm1.49-.09V573.5a1.29,1.29,0,0,0-.32-.92,1.21,1.21,0,0,0-.91-.33,2.2,2.2,0,0,0-1.33.42l-.87-.6a2.29,2.29,0,0,1,.91-.65,3.4,3.4,0,0,1,1.26-.23,2.51,2.51,0,0,1,1.77.59,2.18,2.18,0,0,1,.62,1.67v3.91Z"/><path class="cls-9" d="M746.07,577.36v-6.08h1.2v6.08Zm3.69,0v-3.69a1.41,1.41,0,0,0-.33-1,1.25,1.25,0,0,0-.94-.35,1.22,1.22,0,0,0-.9.31,1.13,1.13,0,0,0-.32.87l-.13-1.17a2.21,2.21,0,0,1,.74-.85,1.78,1.78,0,0,1,1-.3,1.92,1.92,0,0,1,1.54.65,2.77,2.77,0,0,1,.54,1.83v3.69Z"/><path class="cls-9" d="M752.31,572.36v-1.08h2.74v1.08Zm2.05,5a1.31,1.31,0,0,1-1.09-.42,1.8,1.8,0,0,1-.34-1.19v-6.24h1.2v6.25a.55.55,0,0,0,.09.34.28.28,0,0,0,.25.12h.58v1.14Z"/><path class="cls-9" d="M759.24,577.45a2.64,2.64,0,0,1-2-.71,2.73,2.73,0,0,1-.7-2V574a3,3,0,0,1,.67-2.11,2.44,2.44,0,0,1,1.89-.74,2.07,2.07,0,0,1,1.78.85,3.87,3.87,0,0,1,.63,2.36v.4h-4.1v-1h3a2.05,2.05,0,0,0-.38-1.16,1.1,1.1,0,0,0-.89-.41,1.32,1.32,0,0,0-1,.44,1.91,1.91,0,0,0-.37,1.26v.78a1.57,1.57,0,0,0,.4,1.16,1.5,1.5,0,0,0,1.13.4,1.91,1.91,0,0,0,1.36-.56l.78.79a3.36,3.36,0,0,1-1,.67A2.87,2.87,0,0,1,759.24,577.45Z"/><path class="cls-9" d="M763.18,577.36v-6.08h1.2v6.08Zm3.69,0v-3.69a1.41,1.41,0,0,0-.33-1,1.25,1.25,0,0,0-.94-.35,1.22,1.22,0,0,0-.9.31,1.13,1.13,0,0,0-.32.87l-.13-1.17a2.21,2.21,0,0,1,.74-.85,1.78,1.78,0,0,1,1-.3,1.92,1.92,0,0,1,1.54.65,2.77,2.77,0,0,1,.54,1.83v3.69Z"/><path class="cls-8" d="M71.63,331.8l-2.83-8.52h1.65L72.26,329l1.81-5.69h1.65l-2.83,8.52Z"/><path class="cls-8" d="M78.46,331.89a2.59,2.59,0,0,1-1.93-.69,2.68,2.68,0,0,1-.69-2v-1a2.63,2.63,0,1,1,5.25,0v1a2.4,2.4,0,0,1-2.63,2.63Zm0-1.55a1,1,0,0,0,.75-.28,1.12,1.12,0,0,0,.27-.8v-1a1.1,1.1,0,0,0-.27-.79,1,1,0,0,0-.75-.28,1,1,0,0,0-.75.28,1.09,1.09,0,0,0-.26.79v1a1.12,1.12,0,0,0,.26.8A1,1,0,0,0,78.46,330.34Z"/><path class="cls-8" d="M84.16,323.28v6.51a.42.42,0,0,0,.13.34.45.45,0,0,0,.36.13h.27v1.54H84.1a1.51,1.51,0,0,1-1.14-.42,1.65,1.65,0,0,1-.41-1.19v-6.91Z"/><path class="cls-8" d="M87.63,323.28v6.51a.46.46,0,0,0,.13.34.45.45,0,0,0,.36.13h.27v1.54h-.82a1.51,1.51,0,0,1-1.14-.42,1.65,1.65,0,0,1-.4-1.19v-6.91Z"/><path class="cls-8" d="M92.17,331.89a2.85,2.85,0,0,1-2.06-.71,2.7,2.7,0,0,1-.72-2v-.69a2.93,2.93,0,0,1,.7-2.1,2.55,2.55,0,0,1,2-.75,2.19,2.19,0,0,1,1.87.89,4.13,4.13,0,0,1,.66,2.5v.4H90.43v-1.09h2.69v-.14a1.58,1.58,0,0,0-.33-.81.93.93,0,0,0-.72-.29,1.19,1.19,0,0,0-.9.35,1.41,1.41,0,0,0-.31,1v.77a1.3,1.3,0,0,0,.34,1,1.34,1.34,0,0,0,1,.34,1.88,1.88,0,0,0,1.21-.44l1.05.93a3.28,3.28,0,0,1-1.06.67A3.21,3.21,0,0,1,92.17,331.89Z"/><path class="cls-8" d="M97.87,331.89a1.81,1.81,0,0,1-1.52-.69,3.13,3.13,0,0,1-.53-1.94v-1a3.18,3.18,0,0,1,.53-2,1.82,1.82,0,0,1,1.52-.7,1.47,1.47,0,0,1,.88.29,2,2,0,0,1,.65.83l-.12,1.34a1.17,1.17,0,0,0-.11-.52.67.67,0,0,0-.31-.33.91.91,0,0,0-.49-.12.84.84,0,0,0-.7.31,1.35,1.35,0,0,0-.24.86v1a1.29,1.29,0,0,0,.24.84.87.87,0,0,0,.7.3.91.91,0,0,0,.49-.11.69.69,0,0,0,.31-.32,1.13,1.13,0,0,0,.11-.51l.08,1.39a1.68,1.68,0,0,1-.57.77A1.58,1.58,0,0,1,97.87,331.89Zm1.41-.09v-8.52h1.6v8.52Z"/><path class="cls-8" d="M102.44,324.89v-1.61H104v1.61Zm0,6.91v-6.08H104v6.08Z"/><path class="cls-8" d="M107.4,331.89a1.8,1.8,0,0,1-1.51-.69,3.13,3.13,0,0,1-.53-1.94v-1a3.18,3.18,0,0,1,.53-2,1.81,1.81,0,0,1,1.51-.7,1.5,1.5,0,0,1,.89.29,2,2,0,0,1,.65.83l-.12,1.34a1.17,1.17,0,0,0-.11-.52.67.67,0,0,0-.31-.33.91.91,0,0,0-.49-.12.84.84,0,0,0-.7.31,1.35,1.35,0,0,0-.25.86v1a1.29,1.29,0,0,0,.25.84.87.87,0,0,0,.7.3.91.91,0,0,0,.49-.11.69.69,0,0,0,.31-.32,1.13,1.13,0,0,0,.11-.51l.08,1.39a1.63,1.63,0,0,1-.58.77A1.54,1.54,0,0,1,107.4,331.89Zm.29,2.39a3.18,3.18,0,0,1-1.3-.26,1.9,1.9,0,0,1-.88-.72l1.07-1a1.44,1.44,0,0,0,1.09.47,1.25,1.25,0,0,0,.82-.27.94.94,0,0,0,.33-.77v-6h1.6v5.9a2.62,2.62,0,0,1-.71,2A2.78,2.78,0,0,1,107.69,334.28Z"/><path class="cls-8" d="M114.17,331.8v-8.52h1.61v8.52Zm.72,0v-1.54h5v1.54Z"/><path class="cls-8" d="M123.38,331.89a2.63,2.63,0,0,1-1.94-.69,2.72,2.72,0,0,1-.68-2v-1a2.38,2.38,0,0,1,2.62-2.62,2.4,2.4,0,0,1,2.63,2.62v1a2.4,2.4,0,0,1-2.63,2.63Zm0-1.55a1,1,0,0,0,.75-.28,1.12,1.12,0,0,0,.27-.8v-1a1.1,1.1,0,0,0-.27-.79,1,1,0,0,0-.75-.28,1,1,0,0,0-.75.28,1.1,1.1,0,0,0-.27.79v1a1.12,1.12,0,0,0,.27.8A1,1,0,0,0,123.38,330.34Z"/><path class="cls-8" d="M129.34,331.89a1.8,1.8,0,0,1-1.51-.69,3.07,3.07,0,0,1-.53-1.94v-1a3.11,3.11,0,0,1,.53-2,1.81,1.81,0,0,1,1.51-.7,1.5,1.5,0,0,1,.89.29,2.12,2.12,0,0,1,.65.83l-.13,1.34a1.18,1.18,0,0,0-.1-.52.67.67,0,0,0-.31-.33.94.94,0,0,0-.49-.12.84.84,0,0,0-.7.31,1.35,1.35,0,0,0-.25.86v1a1.29,1.29,0,0,0,.25.84.87.87,0,0,0,.7.3.94.94,0,0,0,.49-.11.69.69,0,0,0,.31-.32,1.13,1.13,0,0,0,.1-.51l.09,1.39a1.63,1.63,0,0,1-.58.77A1.56,1.56,0,0,1,129.34,331.89Zm.29,2.39a3.14,3.14,0,0,1-1.3-.26,1.93,1.93,0,0,1-.89-.72l1.08-1a1.43,1.43,0,0,0,1.09.47,1.25,1.25,0,0,0,.82-.27,1,1,0,0,0,.32-.77v-6h1.61v5.9a2.62,2.62,0,0,1-.71,2A2.8,2.8,0,0,1,129.63,334.28Z"/><path class="cls-8" d="M136.39,331.89a2.61,2.61,0,0,1-1.94-.69,2.67,2.67,0,0,1-.68-2v-1a2.63,2.63,0,1,1,5.25,0v1a2.4,2.4,0,0,1-2.63,2.63Zm0-1.55a1,1,0,0,0,.76-.28,1.12,1.12,0,0,0,.27-.8v-1a1.1,1.1,0,0,0-.27-.79,1.16,1.16,0,0,0-1.51,0,1.14,1.14,0,0,0-.26.79v1a1.17,1.17,0,0,0,.26.8A1,1,0,0,0,136.38,330.34Z"/><path class="cls-8" d="M142.65,331.8v-8.52h1.66v8.52Zm.74-3.42v-1.6h5v1.6Zm3.86,3.42v-8.52h1.67v8.52Z"/><path class="cls-8" d="M153.12,331.89a2.59,2.59,0,0,1-1.93-.69,2.68,2.68,0,0,1-.69-2v-1a2.63,2.63,0,1,1,5.25,0v1a2.4,2.4,0,0,1-2.63,2.63Zm0-1.55a1,1,0,0,0,.75-.28,1.12,1.12,0,0,0,.27-.8v-1a1.1,1.1,0,0,0-.27-.79,1,1,0,0,0-.75-.28,1,1,0,0,0-.75.28,1.09,1.09,0,0,0-.26.79v1a1.12,1.12,0,0,0,.26.8A1,1,0,0,0,153.12,330.34Z"/><path class="cls-8" d="M159.66,331.89a2.63,2.63,0,0,1-1.94-.69,2.72,2.72,0,0,1-.68-2v-1a2.38,2.38,0,0,1,2.62-2.62,2.4,2.4,0,0,1,2.63,2.62v1a2.4,2.4,0,0,1-2.63,2.63Zm0-1.55a1,1,0,0,0,.75-.28,1.12,1.12,0,0,0,.27-.8v-1a1.1,1.1,0,0,0-.27-.79,1,1,0,0,0-.75-.28,1,1,0,0,0-.75.28,1.1,1.1,0,0,0-.27.79v1a1.12,1.12,0,0,0,.27.8A1,1,0,0,0,159.66,330.34Z"/><path class="cls-8" d="M165.62,331.89a1.8,1.8,0,0,1-1.51-.69,3.13,3.13,0,0,1-.53-1.94v-1a3.18,3.18,0,0,1,.53-2,1.81,1.81,0,0,1,1.51-.7,1.5,1.5,0,0,1,.89.29,2.12,2.12,0,0,1,.65.83l-.12,1.34a1.17,1.17,0,0,0-.11-.52.67.67,0,0,0-.31-.33.94.94,0,0,0-.49-.12.84.84,0,0,0-.7.31,1.35,1.35,0,0,0-.25.86v1a1.29,1.29,0,0,0,.25.84.87.87,0,0,0,.7.3.94.94,0,0,0,.49-.11.69.69,0,0,0,.31-.32,1.13,1.13,0,0,0,.11-.51l.08,1.39a1.63,1.63,0,0,1-.58.77A1.54,1.54,0,0,1,165.62,331.89Zm.29,2.39a3.18,3.18,0,0,1-1.3-.26,2,2,0,0,1-.89-.72l1.08-1a1.43,1.43,0,0,0,1.09.47,1.25,1.25,0,0,0,.82-.27.94.94,0,0,0,.33-.77v-6h1.6v5.9a2.62,2.62,0,0,1-.71,2A2.8,2.8,0,0,1,165.91,334.28Z"/><path class="cls-8" d="M169.75,327.09v-1.37h3v1.37Zm2.17,4.71a1.53,1.53,0,0,1-1.18-.41,1.79,1.79,0,0,1-.36-1.2V324H172v5.84a.63.63,0,0,0,.08.34.29.29,0,0,0,.26.13h.4v1.54Z"/><path class="cls-8" d="M176.8,331.89a2.82,2.82,0,0,1-2.05-.71,2.67,2.67,0,0,1-.73-2v-.69a2.93,2.93,0,0,1,.7-2.1,2.59,2.59,0,0,1,2-.75,2.19,2.19,0,0,1,1.86.89,4.13,4.13,0,0,1,.66,2.5v.4h-4.16v-1.09h2.7l0-.14a1.43,1.43,0,0,0-.33-.81.91.91,0,0,0-.71-.29,1.16,1.16,0,0,0-.9.35,1.36,1.36,0,0,0-.32,1v.77a1.26,1.26,0,0,0,.35,1,1.3,1.3,0,0,0,1,.34,1.91,1.91,0,0,0,1.22-.44l1,.93a3.28,3.28,0,0,1-1.06.67A3.21,3.21,0,0,1,176.8,331.89Z"/><path class="cls-9" d="M104.84,346.2v-1l3-4a2.8,2.8,0,0,0,.4-.71,1.78,1.78,0,0,0,.15-.68h0a1.06,1.06,0,0,0-.3-.81,1.18,1.18,0,0,0-.85-.28,1.16,1.16,0,0,0-.84.31,1.39,1.39,0,0,0-.4.88h-1.23a2.78,2.78,0,0,1,.8-1.72,2.3,2.3,0,0,1,1.66-.61,2.49,2.49,0,0,1,1.77.58,2.18,2.18,0,0,1,.63,1.66h0a2.59,2.59,0,0,1-.19.95,3.7,3.7,0,0,1-.52,1l-2.46,3.35h3.22v1.13Z"/><path class="cls-9" d="M111.05,347.39V345h1.2v1.19Z"/><path class="cls-9" d="M116.27,346.31a2.33,2.33,0,0,1-1.6-.56,2.61,2.61,0,0,1-.78-1.58h1.2a1.07,1.07,0,0,0,.36.73,1.26,1.26,0,0,0,.82.26,1.11,1.11,0,0,0,.89-.38,1.67,1.67,0,0,0,.31-1.08V343a1.63,1.63,0,0,0-.31-1.07,1.08,1.08,0,0,0-.89-.39,1.11,1.11,0,0,0-.6.18,1.66,1.66,0,0,0-.5.49h-1.09v-4.49h4.34v1.14h-3.15v1.92a1.65,1.65,0,0,1,.5-.28,1.54,1.54,0,0,1,.56-.1,2.18,2.18,0,0,1,1.73.68,2.82,2.82,0,0,1,.61,1.92v.74a2.75,2.75,0,0,1-.63,1.93A2.31,2.31,0,0,1,116.27,346.31Z"/><path class="cls-9" d="M124.55,346.2l-2.78-8.52h1.3l2.05,6.68,2-6.68h1.3l-2.77,8.52Z"/><path class="cls-9" d="M129.58,338.88v-1.2h1.19v1.2Zm0,7.32v-6.08h1.19v6.08Z"/><path class="cls-9" d="M135.14,346.29a2.63,2.63,0,0,1-2-.7,2.74,2.74,0,0,1-.7-2v-.69a3,3,0,0,1,.67-2.1A2.41,2.41,0,0,1,135,340a2.1,2.1,0,0,1,1.78.85,3.91,3.91,0,0,1,.63,2.37v.39h-4.1v-1h3a2,2,0,0,0-.38-1.15,1.08,1.08,0,0,0-.89-.42,1.29,1.29,0,0,0-1.05.45,1.88,1.88,0,0,0-.37,1.26v.77a1.57,1.57,0,0,0,.4,1.16,1.5,1.5,0,0,0,1.13.41,2,2,0,0,0,1.36-.56l.78.78a3.18,3.18,0,0,1-1,.67A2.87,2.87,0,0,1,135.14,346.29Z"/><path class="cls-9" d="M139.08,346.2v-6.08h1.2v6.08Zm3.35-4.64a1.19,1.19,0,0,0-1-.39,1.21,1.21,0,0,0-.88.31,1.17,1.17,0,0,0-.31.87l-.13-1.17a2.23,2.23,0,0,1,.73-.84,1.7,1.7,0,0,1,1-.31,1.85,1.85,0,0,1,1.34.48Z"/><path class="cls-9" d="M144.2,346.2v-8.52h1.2v8.52Zm.44-.89.08-1.41,3.13-3.78h1.4Zm3.61.89-2.12-3.51.77-.79,2.65,4.3Z"/><path class="cls-9" d="M152.49,346.29a2.61,2.61,0,0,1-1.68-.46,1.75,1.75,0,0,1-.56-1.42,1.71,1.71,0,0,1,.51-1.35,2.28,2.28,0,0,1,1.54-.45H154l.09,1h-1.81a1,1,0,0,0-.7.21.81.81,0,0,0-.23.63.79.79,0,0,0,.31.69,1.6,1.6,0,0,0,.93.22,2.67,2.67,0,0,0,1-.15.47.47,0,0,0,.34-.45l.12.85a1.27,1.27,0,0,1-.39.41,1.87,1.87,0,0,1-.54.23A2.4,2.4,0,0,1,152.49,346.29Zm1.49-.09v-3.85a1.3,1.3,0,0,0-.32-.93,1.19,1.19,0,0,0-.9-.33,2.15,2.15,0,0,0-1.33.42l-.88-.6a2.34,2.34,0,0,1,.91-.64,3.22,3.22,0,0,1,1.26-.24,2.46,2.46,0,0,1,1.77.6,2.17,2.17,0,0,1,.63,1.67v3.9Z"/><path class="cls-9" d="M156.93,346.2v-6.08h1.2v6.08Zm3.69,0v-3.68a1.38,1.38,0,0,0-.33-1,1.43,1.43,0,0,0-1.84,0,1.18,1.18,0,0,0-.32.87l-.12-1.17a2.18,2.18,0,0,1,.73-.85,1.79,1.79,0,0,1,1-.3,1.89,1.89,0,0,1,1.53.65,2.77,2.77,0,0,1,.54,1.83v3.69Z"/><path class="cls-9" d="M163.17,341.2v-1.08h2.74v1.08Zm2.05,5a1.32,1.32,0,0,1-1.09-.41,1.9,1.9,0,0,1-.34-1.2v-6.24H165v6.25a.55.55,0,0,0,.09.34.28.28,0,0,0,.26.13h.57v1.13Z"/><path class="cls-9" d="M170.1,346.29a2.65,2.65,0,0,1-2-.7,2.78,2.78,0,0,1-.7-2v-.69a3.06,3.06,0,0,1,.67-2.1A2.41,2.41,0,0,1,170,340a2.1,2.1,0,0,1,1.78.85,3.91,3.91,0,0,1,.63,2.37v.39h-4.1v-1h3a2.1,2.1,0,0,0-.39-1.15,1.06,1.06,0,0,0-.89-.42,1.27,1.27,0,0,0-1,.45,1.88,1.88,0,0,0-.38,1.26v.77a1.57,1.57,0,0,0,.4,1.16,1.5,1.5,0,0,0,1.13.41,2,2,0,0,0,1.36-.56l.78.78a3.07,3.07,0,0,1-1,.67A2.83,2.83,0,0,1,170.1,346.29Z"/><path class="cls-9" d="M174,346.2v-6.08h1.2v6.08Zm3.69,0v-3.68a1.38,1.38,0,0,0-.33-1,1.43,1.43,0,0,0-1.84,0,1.14,1.14,0,0,0-.32.87l-.12-1.17a2.18,2.18,0,0,1,.73-.85,1.79,1.79,0,0,1,1-.3,1.89,1.89,0,0,1,1.53.65,2.77,2.77,0,0,1,.54,1.83v3.69Z"/></svg>