<svg xmlns="http://www.w3.org/2000/svg" viewBox="0 0 506 506"><defs><style>.cls-1{fill:none;}.cls-2{fill:#dfa756;opacity:0.2;}.cls-3{fill:#c1282e;}</style></defs><title>logo2</title><g id="Layer_2" data-name="Layer 2"><g id="Layer_1-2" data-name="Layer 1"><rect class="cls-1" width="506" height="506"/><path class="cls-2" d="M393.37,320.18H403V211.28a152.22,152.22,0,0,0-1.35-20.15A150,150,0,0,0,251.83,61.29C170.14,61.91,103.33,129,103,210.67a150.06,150.06,0,0,0,111.8,145.7c17,4.46,31,16.84,36.36,33.6.28.86.54,1.73.79,2.58,8.87,31.1,37.82,52.17,70.16,52.17h7.62A73.28,73.28,0,0,0,403,371.45V351.7h-9.63a62.64,62.64,0,0,1-62.57-62.57V211.66A75.77,75.77,0,0,0,251.42,136c-38.64,1.77-70.31,33.44-72.09,72.09A75.79,75.79,0,0,0,255,287.43,15.76,15.76,0,0,1,255,319,107.29,107.29,0,0,1,147.85,206.61C150.36,151.86,195.22,107,250,104.48A107.29,107.29,0,0,1,362.32,211.66v77.47A31.09,31.09,0,0,0,393.37,320.18ZM254.89,230.57A19.09,19.09,0,1,1,274,211.48,19.09,19.09,0,0,1,254.89,230.57Z"/><path class="cls-3" d="M402.73,351.7H393.1a62.64,62.64,0,0,1-62.57-62.57V211.66A75.77,75.77,0,0,0,251.16,136c-38.65,1.77-70.32,33.44-72.09,72.09a75.77,75.77,0,0,0,75.69,79.37,15.76,15.76,0,1,1,0,31.52A107.29,107.29,0,0,1,147.58,206.61C150.1,151.86,195,107,249.71,104.48A107.29,107.29,0,0,1,362.05,211.66v77.47a31.09,31.09,0,0,0,31.05,31.05h9.63Z"/><circle class="cls-3" cx="254.63" cy="211.48" r="19.08"/></g></g></svg>