<svg id="Layer_1" data-name="Layer 1" xmlns="http://www.w3.org/2000/svg" xmlns:xlink="http://www.w3.org/1999/xlink" viewBox="0 0 1080.94 670.77"><defs><style>.cls-1{fill:#fff;}.cls-1,.cls-2,.cls-3,.cls-4{stroke:#d7d7d7;}.cls-1,.cls-2,.cls-3,.cls-4,.cls-7{stroke-miterlimit:10;}.cls-2,.cls-3,.cls-4,.cls-7{fill:none;}.cls-2,.cls-3,.cls-4{stroke-width:0.75px;}.cls-3{stroke-dasharray:6.01 6.01;}.cls-4{stroke-dasharray:5.89 5.89;}.cls-5{fill:url(#linear-gradient);}.cls-6{fill:#3f3e3e;}.cls-7{stroke:#3f3e3e;stroke-width:2px;}.cls-8{fill:#222221;}.cls-9{fill:#bf282f;}</style><linearGradient id="linear-gradient" x1="381.56" y1="315.82" x2="291.92" y2="240.61" gradientUnits="userSpaceOnUse"><stop offset="0" stop-color="#c2292f"/><stop offset="1" stop-color="#dfa856"/></linearGradient></defs><title>logogrid1</title><rect class="cls-1" x="239.57" y="175.63" width="71" height="71"/><rect class="cls-1" x="239.64" y="175.69" width="70.87" height="70.87"/><rect class="cls-1" x="239.64" y="246.56" width="70.87" height="70.87"/><rect class="cls-1" x="239.64" y="317.43" width="70.87" height="70.87"/><rect class="cls-1" x="239.64" y="388.29" width="70.87" height="70.87"/><rect class="cls-1" x="310.44" y="175.63" width="71" height="71"/><rect class="cls-1" x="310.51" y="175.69" width="70.87" height="70.87"/><rect class="cls-1" x="310.51" y="246.56" width="70.87" height="70.87"/><rect class="cls-1" x="310.51" y="317.43" width="70.87" height="70.87"/><rect class="cls-1" x="310.51" y="388.29" width="70.87" height="70.87"/><rect class="cls-1" x="381.31" y="175.63" width="71" height="71"/><rect class="cls-1" x="381.37" y="175.69" width="70.87" height="70.87"/><rect class="cls-1" x="381.37" y="246.56" width="70.87" height="70.87"/><rect class="cls-1" x="381.37" y="317.43" width="70.87" height="70.87"/><rect class="cls-1" x="381.37" y="388.29" width="70.87" height="70.87"/><rect class="cls-1" x="452.17" y="175.63" width="71" height="71"/><rect class="cls-1" x="452.24" y="175.69" width="70.87" height="70.87"/><rect class="cls-1" x="452.24" y="246.56" width="70.87" height="70.87"/><rect class="cls-1" x="452.24" y="317.43" width="70.87" height="70.87"/><rect class="cls-1" x="452.24" y="388.29" width="70.87" height="70.87"/><rect class="cls-1" x="523.04" y="175.63" width="71" height="71"/><rect class="cls-1" x="523.11" y="175.69" width="70.87" height="70.87"/><rect class="cls-1" x="523.11" y="246.56" width="70.87" height="70.87"/><rect class="cls-1" x="523.11" y="317.43" width="70.87" height="70.87"/><rect class="cls-1" x="523.11" y="388.29" width="70.87" height="70.87"/><rect class="cls-1" x="593.9" y="175.63" width="71" height="71"/><rect class="cls-1" x="593.97" y="175.69" width="70.87" height="70.87"/><rect class="cls-1" x="593.97" y="246.56" width="70.87" height="70.87"/><rect class="cls-1" x="593.97" y="317.43" width="70.87" height="70.87"/><rect class="cls-1" x="593.97" y="388.29" width="70.87" height="70.87"/><rect class="cls-1" x="664.77" y="175.63" width="71" height="71"/><rect class="cls-1" x="664.84" y="175.69" width="70.87" height="70.87"/><rect class="cls-1" x="664.84" y="246.56" width="70.87" height="70.87"/><rect class="cls-1" x="664.84" y="317.43" width="70.87" height="70.87"/><rect class="cls-1" x="664.84" y="388.29" width="70.87" height="70.87"/><rect class="cls-1" x="735.64" y="175.63" width="71" height="71"/><rect class="cls-1" x="735.7" y="175.69" width="70.87" height="70.87"/><rect class="cls-1" x="735.7" y="246.56" width="70.87" height="70.87"/><rect class="cls-1" x="735.7" y="317.43" width="70.87" height="70.87"/><rect class="cls-1" x="735.7" y="388.29" width="70.87" height="70.87"/><rect class="cls-1" x="806.5" y="175.63" width="71" height="71"/><rect class="cls-1" x="806.57" y="175.69" width="70.87" height="70.87"/><rect class="cls-1" x="806.57" y="246.56" width="70.87" height="70.87"/><rect class="cls-1" x="806.57" y="317.43" width="70.87" height="70.87"/><rect class="cls-1" x="806.57" y="388.29" width="70.87" height="70.87"/><rect class="cls-1" x="877.37" y="175.63" width="71" height="71"/><rect class="cls-1" x="877.44" y="175.69" width="70.87" height="70.87"/><rect class="cls-1" x="877.44" y="246.56" width="70.87" height="70.87"/><rect class="cls-1" x="877.44" y="317.43" width="70.87" height="70.87"/><rect class="cls-1" x="877.44" y="388.29" width="70.87" height="70.87"/><polyline class="cls-2" points="948.31 208.13 948.31 211.13 945.31 211.13"/><line class="cls-3" x1="939.31" y1="211.13" x2="245.64" y2="211.13"/><polyline class="cls-2" points="242.64 211.13 239.64 211.13 239.64 208.13"/><line class="cls-4" x1="239.64" y1="202.24" x2="239.64" y2="181.64"/><polyline class="cls-2" points="239.64 178.69 239.64 175.69 242.64 175.69"/><line class="cls-3" x1="248.65" y1="175.69" x2="942.31" y2="175.69"/><polyline class="cls-2" points="945.31 175.69 948.31 175.69 948.31 178.69"/><line class="cls-4" x1="948.31" y1="184.58" x2="948.31" y2="205.18"/><polyline class="cls-2" points="948.31 278.99 948.31 281.99 945.31 281.99"/><line class="cls-3" x1="939.31" y1="281.99" x2="245.64" y2="281.99"/><polyline class="cls-2" points="242.64 281.99 239.64 281.99 239.64 278.99"/><line class="cls-4" x1="239.64" y1="273.11" x2="239.64" y2="252.5"/><polyline class="cls-2" points="239.64 249.56 239.64 246.56 242.64 246.56"/><line class="cls-3" x1="248.65" y1="246.56" x2="942.31" y2="246.56"/><polyline class="cls-2" points="945.31 246.56 948.31 246.56 948.31 249.56"/><line class="cls-4" x1="948.31" y1="255.45" x2="948.31" y2="276.05"/><polyline class="cls-2" points="948.31 349.86 948.31 352.86 945.31 352.86"/><line class="cls-3" x1="939.31" y1="352.86" x2="245.64" y2="352.86"/><polyline class="cls-2" points="242.64 352.86 239.64 352.86 239.64 349.86"/><line class="cls-4" x1="239.64" y1="343.97" x2="239.64" y2="323.37"/><polyline class="cls-2" points="239.64 320.43 239.64 317.43 242.64 317.43"/><line class="cls-3" x1="248.65" y1="317.43" x2="942.31" y2="317.43"/><polyline class="cls-2" points="945.31 317.43 948.31 317.43 948.31 320.43"/><line class="cls-4" x1="948.31" y1="326.31" x2="948.31" y2="346.92"/><polyline class="cls-2" points="948.31 420.73 948.31 423.73 945.31 423.73"/><line class="cls-3" x1="939.31" y1="423.73" x2="245.64" y2="423.73"/><polyline class="cls-2" points="242.64 423.73 239.64 423.73 239.64 420.73"/><line class="cls-4" x1="239.64" y1="414.84" x2="239.64" y2="394.24"/><polyline class="cls-2" points="239.64 391.29 239.64 388.29 242.64 388.29"/><line class="cls-3" x1="248.65" y1="388.29" x2="942.31" y2="388.29"/><polyline class="cls-2" points="945.31 388.29 948.31 388.29 948.31 391.29"/><line class="cls-4" x1="948.31" y1="397.18" x2="948.31" y2="417.78"/><polyline class="cls-2" points="948.31 491.59 948.31 494.59 945.31 494.59"/><line class="cls-3" x1="939.31" y1="494.59" x2="245.64" y2="494.59"/><polyline class="cls-2" points="242.64 494.59 239.64 494.59 239.64 491.59"/><line class="cls-4" x1="239.64" y1="485.71" x2="239.64" y2="465.1"/><polyline class="cls-2" points="239.64 462.16 239.64 459.16 242.64 459.16"/><line class="cls-3" x1="248.65" y1="459.16" x2="942.31" y2="459.16"/><polyline class="cls-2" points="945.31 459.16 948.31 459.16 948.31 462.16"/><line class="cls-4" x1="948.31" y1="468.05" x2="948.31" y2="488.65"/><line class="cls-1" x1="239.64" y1="388.29" x2="239.64" y2="494.59"/><line class="cls-1" x1="310.51" y1="388.29" x2="310.51" y2="493.81"/><line class="cls-1" x1="381.37" y1="388.29" x2="381.37" y2="493.81"/><line class="cls-1" x1="452.24" y1="388.29" x2="452.24" y2="495.15"/><line class="cls-1" x1="523.1" y1="388.29" x2="523.1" y2="494.48"/><line class="cls-1" x1="593.97" y1="388.29" x2="593.97" y2="494.73"/><line class="cls-1" x1="664.84" y1="423.73" x2="664.84" y2="494.48"/><line class="cls-1" x1="735.7" y1="423.73" x2="735.7" y2="494.73"/><line class="cls-1" x1="806.56" y1="388.29" x2="806.56" y2="494.73"/><line class="cls-1" x1="877.44" y1="423.73" x2="877.44" y2="494.73"/><line class="cls-1" x1="948.31" y1="423.73" x2="948.31" y2="494.59"/><path class="cls-5" d="M448,366.18h4.55V315.87a68.28,68.28,0,0,0-.64-9.32c-4.68-34-34.67-60.26-70.87-60-38.66.29-70.26,31.27-70.42,69-.13,32.31,22.36,59.49,52.89,67.32a24.15,24.15,0,0,1,17.21,15.53c.13.4.25.8.37,1.19,4.2,14.37,17.89,24.11,33.19,24.11h3.61c19.14,0,34.66-15.16,34.66-33.86v-9.12H448c-16.33,0-29.61-13-29.61-28.91V316a34.32,34.32,0,0,0-11.09-25.32,36,36,0,0,0-26.46-9.65c-18.28.82-33.26,15.45-34.1,33.31a34.3,34.3,0,0,0,9.87,25.84,36,36,0,0,0,25.93,10.83,7.29,7.29,0,1,1,0,14.57,50.9,50.9,0,0,1-36.71-15.34,48.53,48.53,0,0,1-14-36.57c1.19-25.3,22.41-46,48.32-47.19a51.1,51.1,0,0,1,37.44,13.66A48.62,48.62,0,0,1,433.33,316v35.8A14.53,14.53,0,0,0,448,366.18Zm-65.52-41.4a8.82,8.82,0,1,1,9-8.82A8.93,8.93,0,0,1,382.5,324.78Z"/><path class="cls-6" d="M833.71,352.86l-5.61-17.21h2.63l4.13,13.5,4.13-13.5h2.63L836,352.86Z"/><path class="cls-6" d="M853.85,335.65v2.09l-7.49,12.83h7.73v2.29h-10.7v-2.08L850.94,338H843.6v-2.3Z"/><path class="cls-6" d="M862.13,349.15l3.52-13.5h1.66l3.53,13.5,3-13.5h2.51l-4.21,17.21h-2.46l-3.17-12-3.31,12h-2.46l-4.21-17.21h2.51Z"/><path class="cls-6" d="M626.38,282a5.55,5.55,0,0,0-5.55,5.55v26.61H593.2V287.54a5.55,5.55,0,0,0-11.1,0v59.77a5.55,5.55,0,0,0,11.1,0V325.24h27.63v22.07a5.55,5.55,0,1,0,11.09,0V287.54A5.55,5.55,0,0,0,626.38,282Z"/><path class="cls-6" d="M665.54,282a24.94,24.94,0,0,0-24.91,24.91V328a24.91,24.91,0,0,0,49.82,0V306.9A24.94,24.94,0,0,0,665.54,282Zm13.82,46a13.82,13.82,0,0,1-27.64,0V306.9a13.82,13.82,0,0,1,27.64,0Z"/><path class="cls-6" d="M718.51,293.09h24.92a5.55,5.55,0,1,0,0-11.1H718.51a19.38,19.38,0,0,0-19.35,19.36v4.53a19.37,19.37,0,0,0,19.35,19.36h11.11a8.27,8.27,0,1,1,0,16.53H704.7a5.55,5.55,0,0,0,0,11.09h24.92a19.36,19.36,0,1,0,0-38.71H718.51a8.28,8.28,0,0,1-8.26-8.27v-4.53A8.27,8.27,0,0,1,718.51,293.09Z"/><path class="cls-6" d="M782.6,282a24.94,24.94,0,0,0-24.91,24.91v40.41a5.55,5.55,0,1,0,11.09,0V325.24h27.63v22.07a5.55,5.55,0,1,0,11.1,0V306.9A25,25,0,0,0,782.6,282Zm-13.82,32.16V306.9a13.82,13.82,0,0,1,27.63,0v7.25Z"/><path class="cls-6" d="M548.49,282a25,25,0,0,0-24.92,24.91v40.41a5.55,5.55,0,1,0,11.1,0V325.24H562.3v22.07a5.55,5.55,0,1,0,11.1,0V306.9A25,25,0,0,0,548.49,282Zm-13.82,32.16V306.9a13.82,13.82,0,0,1,27.63,0v7.25Z"/><path class="cls-6" d="M532.48,384.25h-5.75l-1.29,3.59h-1.87l5.25-13.73h1.58l5.25,13.73h-1.86Zm-5.2-1.48H532l-2.34-6.42Z"/><path class="cls-6" d="M538.87,377.64l.06,1.28a3.73,3.73,0,0,1,3.06-1.47q3.22,0,3.26,3.65v6.74H543.5v-6.75a2.3,2.3,0,0,0-.5-1.63,2,2,0,0,0-1.54-.53,2.52,2.52,0,0,0-1.49.45,3.13,3.13,0,0,0-1,1.19v7.27h-1.75v-10.2Z"/><path class="cls-6" d="M547.45,382.66a5.93,5.93,0,0,1,1.12-3.78,3.78,3.78,0,0,1,5.75-.2v-5.32h1.74v14.48h-1.6l-.09-1.09a3.54,3.54,0,0,1-2.91,1.28,3.49,3.49,0,0,1-2.89-1.45,6.08,6.08,0,0,1-1.12-3.79Zm1.75.19a4.58,4.58,0,0,0,.71,2.72,2.33,2.33,0,0,0,2,1,2.56,2.56,0,0,0,2.43-1.49v-4.69a2.57,2.57,0,0,0-2.41-1.44,2.34,2.34,0,0,0-2,1A5,5,0,0,0,549.2,382.85Z"/><path class="cls-6" d="M563,388a4.5,4.5,0,0,1-3.38-1.36,5.11,5.11,0,0,1-1.3-3.65v-.32a6.23,6.23,0,0,1,.58-2.71,4.48,4.48,0,0,1,1.63-1.86,4,4,0,0,1,2.25-.68,3.81,3.81,0,0,1,3.09,1.31,5.67,5.67,0,0,1,1.11,3.75v.73h-6.91a3.63,3.63,0,0,0,.88,2.44,2.76,2.76,0,0,0,2.14.92,3.07,3.07,0,0,0,1.57-.37,3.94,3.94,0,0,0,1.12-1l1.07.83A4.3,4.3,0,0,1,563,388Zm-.22-9.15a2.34,2.34,0,0,0-1.77.77,3.76,3.76,0,0,0-.89,2.16h5.11v-.14a3.39,3.39,0,0,0-.71-2.06A2.23,2.23,0,0,0,562.78,378.88Z"/><path class="cls-6" d="M573.92,379.2a5.67,5.67,0,0,0-.85-.06,2.3,2.3,0,0,0-2.33,1.46v7.24H569v-10.2h1.7l0,1.18a2.71,2.71,0,0,1,2.43-1.37,1.72,1.72,0,0,1,.77.13Z"/><path class="cls-6" d="M581.47,385.13a1.26,1.26,0,0,0-.54-1.09,5.09,5.09,0,0,0-1.85-.68,8.33,8.33,0,0,1-2.1-.68,2.84,2.84,0,0,1-1.15-.94,2.24,2.24,0,0,1-.38-1.3,2.66,2.66,0,0,1,1.06-2.12,4.14,4.14,0,0,1,2.71-.87,4.26,4.26,0,0,1,2.82.9,2.83,2.83,0,0,1,1.08,2.29h-1.76a1.59,1.59,0,0,0-.6-1.24,2.33,2.33,0,0,0-1.54-.52,2.38,2.38,0,0,0-1.49.42,1.33,1.33,0,0,0-.53,1.08,1,1,0,0,0,.5.95,6,6,0,0,0,1.8.62,9.21,9.21,0,0,1,2.12.7,3.07,3.07,0,0,1,1.2,1,2.42,2.42,0,0,1,.39,1.39,2.6,2.6,0,0,1-1.09,2.19,4.6,4.6,0,0,1-2.84.83,5.28,5.28,0,0,1-2.17-.43,3.48,3.48,0,0,1-1.47-1.22,2.9,2.9,0,0,1-.54-1.68h1.75a1.78,1.78,0,0,0,.7,1.39,2.74,2.74,0,0,0,1.73.51,2.8,2.8,0,0,0,1.59-.4A1.22,1.22,0,0,0,581.47,385.13Z"/><path class="cls-6" d="M601.09,387.84h-1.82V381.5h-6.92v6.34h-1.81V374.11h1.81V380h6.92v-5.91h1.82Z"/><path class="cls-6" d="M614.86,381.42a8.53,8.53,0,0,1-.68,3.52,5.15,5.15,0,0,1-1.92,2.3,5.37,5.37,0,0,1-2.91.79,5.14,5.14,0,0,1-4.82-3.07,8.12,8.12,0,0,1-.71-3.42v-1a8.33,8.33,0,0,1,.69-3.49,5.29,5.29,0,0,1,1.94-2.33,5.2,5.2,0,0,1,2.88-.8,5.33,5.33,0,0,1,2.91.79,5.1,5.1,0,0,1,1.94,2.31,8.57,8.57,0,0,1,.68,3.52Zm-1.8-.89a6.17,6.17,0,0,0-1-3.74,3.25,3.25,0,0,0-2.75-1.31,3.21,3.21,0,0,0-2.7,1.31,6.08,6.08,0,0,0-1,3.62v1a6.11,6.11,0,0,0,1,3.72,3.48,3.48,0,0,0,5.45.07,6.13,6.13,0,0,0,1-3.66Z"/><path class="cls-6" d="M622.23,379.2a5.71,5.71,0,0,0-.86-.06A2.31,2.31,0,0,0,619,380.6v7.24H617.3v-10.2H619l0,1.18a2.71,2.71,0,0,1,2.43-1.37,1.75,1.75,0,0,1,.77.13Z"/><path class="cls-6" d="M627.89,388a4.49,4.49,0,0,1-3.38-1.36,5.06,5.06,0,0,1-1.3-3.65v-.32a6.09,6.09,0,0,1,.58-2.71,4.53,4.53,0,0,1,1.62-1.86,4.1,4.1,0,0,1,2.26-.68,3.81,3.81,0,0,1,3.09,1.31,5.67,5.67,0,0,1,1.11,3.75v.73H625a3.58,3.58,0,0,0,.88,2.44,2.74,2.74,0,0,0,2.14.92,3.07,3.07,0,0,0,1.57-.37,4.08,4.08,0,0,0,1.12-1l1.06.83A4.27,4.27,0,0,1,627.89,388Zm-.22-9.15a2.34,2.34,0,0,0-1.77.77,3.76,3.76,0,0,0-.89,2.16h5.11v-.14a3.33,3.33,0,0,0-.72-2.06A2.19,2.19,0,0,0,627.67,378.88Z"/><path class="cls-6" d="M635.53,377.64l.06,1.28a3.72,3.72,0,0,1,3-1.47q3.24,0,3.27,3.65v6.74h-1.75v-6.75a2.3,2.3,0,0,0-.5-1.63,2,2,0,0,0-1.54-.53,2.5,2.5,0,0,0-1.49.45,3.13,3.13,0,0,0-1,1.19v7.27h-1.75v-10.2Z"/><path class="cls-6" d="M653.63,381.72a8.48,8.48,0,0,1-3.39-1.64,3.18,3.18,0,0,1-1.06-2.41,3.32,3.32,0,0,1,1.3-2.68,5.13,5.13,0,0,1,3.37-1.06,5.69,5.69,0,0,1,2.52.54,4.23,4.23,0,0,1,1.72,1.51,3.9,3.9,0,0,1,.61,2.1h-1.82a2.51,2.51,0,0,0-.8-2,3.18,3.18,0,0,0-2.23-.71,3.27,3.27,0,0,0-2.09.59,2,2,0,0,0-.75,1.63,1.79,1.79,0,0,0,.71,1.43,7.21,7.21,0,0,0,2.43,1.06,10.93,10.93,0,0,1,2.67,1.06,4.1,4.1,0,0,1,1.44,1.35,3.47,3.47,0,0,1,.46,1.82,3.19,3.19,0,0,1-1.3,2.67,5.52,5.52,0,0,1-3.48,1,6.49,6.49,0,0,1-2.64-.54,4.52,4.52,0,0,1-1.89-1.49,3.64,3.64,0,0,1-.66-2.14h1.82a2.38,2.38,0,0,0,.92,2,3.86,3.86,0,0,0,2.45.72,3.56,3.56,0,0,0,2.2-.59,1.89,1.89,0,0,0,.76-1.59,1.87,1.87,0,0,0-.7-1.56A8.15,8.15,0,0,0,653.63,381.72Z"/><path class="cls-6" d="M667.07,387.84a3.55,3.55,0,0,1-.25-1.07,3.89,3.89,0,0,1-2.9,1.26,3.66,3.66,0,0,1-2.48-.85,2.77,2.77,0,0,1-1-2.17,2.86,2.86,0,0,1,1.21-2.47,5.69,5.69,0,0,1,3.41-.88h1.69v-.81a2,2,0,0,0-.54-1.45,2.22,2.22,0,0,0-1.62-.54,2.49,2.49,0,0,0-1.56.47,1.38,1.38,0,0,0-.63,1.14h-1.76a2.45,2.45,0,0,1,.55-1.48,3.65,3.65,0,0,1,1.47-1.12,4.9,4.9,0,0,1,2-.42,4.08,4.08,0,0,1,2.76.88,3.2,3.2,0,0,1,1,2.43v4.69a5.72,5.72,0,0,0,.36,2.24v.15Zm-2.9-1.33a3.1,3.1,0,0,0,1.56-.42,2.57,2.57,0,0,0,1.06-1.11v-2.09h-1.36c-2.14,0-3.21.63-3.21,1.88a1.58,1.58,0,0,0,.55,1.28A2.07,2.07,0,0,0,664.17,386.51Z"/><path class="cls-6" d="M672.91,377.64l.05,1.13a3.78,3.78,0,0,1,3-1.32,2.93,2.93,0,0,1,2.91,1.64,3.77,3.77,0,0,1,3.25-1.64c2.24,0,3.37,1.19,3.41,3.56v6.83h-1.74v-6.73a2.38,2.38,0,0,0-.5-1.64,2.2,2.2,0,0,0-1.68-.54,2.29,2.29,0,0,0-1.61.58,2.36,2.36,0,0,0-.75,1.56v6.77h-1.75v-6.68a2,2,0,0,0-2.18-2.23,2.33,2.33,0,0,0-2.34,1.46v7.45h-1.75v-10.2Z"/><path class="cls-6" d="M692.43,388a4.49,4.49,0,0,1-3.38-1.36,5.06,5.06,0,0,1-1.3-3.65v-.32a6.09,6.09,0,0,1,.58-2.71,4.53,4.53,0,0,1,1.62-1.86,4.1,4.1,0,0,1,2.26-.68,3.81,3.81,0,0,1,3.09,1.31,5.67,5.67,0,0,1,1.1,3.75v.73h-6.91a3.64,3.64,0,0,0,.89,2.44,2.74,2.74,0,0,0,2.14.92,3.07,3.07,0,0,0,1.57-.37,4.08,4.08,0,0,0,1.12-1l1.06.83A4.27,4.27,0,0,1,692.43,388Zm-.22-9.15a2.32,2.32,0,0,0-1.77.77,3.7,3.7,0,0,0-.89,2.16h5.11v-.14a3.33,3.33,0,0,0-.72-2.06A2.19,2.19,0,0,0,692.21,378.88Z"/><path class="cls-6" d="M700.07,377.64l.06,1.28a3.72,3.72,0,0,1,3-1.47q3.24,0,3.26,3.65v6.74H704.7v-6.75a2.35,2.35,0,0,0-.5-1.63,2,2,0,0,0-1.55-.53,2.55,2.55,0,0,0-1.49.45,3.11,3.11,0,0,0-1,1.19v7.27h-1.75v-10.2Z"/><path class="cls-6" d="M721.71,384.25H716l-1.3,3.59H712.8L718,374.11h1.58l5.25,13.73H723Zm-5.21-1.48h4.67l-2.34-6.42Z"/><path class="cls-6" d="M732.75,387.84a3.55,3.55,0,0,1-.25-1.07,3.89,3.89,0,0,1-2.9,1.26,3.66,3.66,0,0,1-2.48-.85,2.77,2.77,0,0,1-1-2.17,2.86,2.86,0,0,1,1.21-2.47,5.67,5.67,0,0,1,3.41-.88h1.69v-.81a2,2,0,0,0-.54-1.45,2.23,2.23,0,0,0-1.62-.54,2.49,2.49,0,0,0-1.56.47,1.38,1.38,0,0,0-.63,1.14h-1.76a2.39,2.39,0,0,1,.55-1.48,3.65,3.65,0,0,1,1.47-1.12,4.9,4.9,0,0,1,2-.42,4.08,4.08,0,0,1,2.76.88,3.2,3.2,0,0,1,1,2.43v4.69a5.94,5.94,0,0,0,.35,2.24v.15Zm-2.9-1.33a3.1,3.1,0,0,0,1.56-.42,2.57,2.57,0,0,0,1.06-1.11v-2.09h-1.36c-2.14,0-3.21.63-3.21,1.88a1.58,1.58,0,0,0,.55,1.28A2.07,2.07,0,0,0,729.85,386.51Z"/><path class="cls-6" d="M738.6,377.64l.06,1.28a3.71,3.71,0,0,1,3.05-1.47c2.16,0,3.24,1.22,3.26,3.65v6.74h-1.74v-6.75a2.35,2.35,0,0,0-.51-1.63,2,2,0,0,0-1.54-.53,2.55,2.55,0,0,0-1.49.45,3.22,3.22,0,0,0-1,1.19v7.27H737v-10.2Z"/><path class="cls-6" d="M756.22,382.85a6,6,0,0,1-1.07,3.75,3.41,3.41,0,0,1-2.88,1.43,3.72,3.72,0,0,1-2.92-1.18v4.91H747.6V377.64h1.6l.08,1.13a3.6,3.6,0,0,1,3-1.32,3.46,3.46,0,0,1,2.91,1.39,6.18,6.18,0,0,1,1.07,3.85Zm-1.74-.19a4.53,4.53,0,0,0-.74-2.73,2.36,2.36,0,0,0-2-1,2.56,2.56,0,0,0-2.37,1.41v4.87a2.56,2.56,0,0,0,2.39,1.39,2.38,2.38,0,0,0,2-1A4.93,4.93,0,0,0,754.48,382.66Z"/><path class="cls-6" d="M764.73,387.84a3.62,3.62,0,0,1-.24-1.07,3.9,3.9,0,0,1-2.91,1.26,3.63,3.63,0,0,1-2.47-.85,2.78,2.78,0,0,1-1-2.17,2.89,2.89,0,0,1,1.21-2.47,5.72,5.72,0,0,1,3.41-.88h1.7v-.81a1.94,1.94,0,0,0-.55-1.45,2.19,2.19,0,0,0-1.61-.54,2.49,2.49,0,0,0-1.56.47,1.36,1.36,0,0,0-.64,1.14h-1.75a2.43,2.43,0,0,1,.54-1.48,3.65,3.65,0,0,1,1.47-1.12,4.9,4.9,0,0,1,2-.42,4.09,4.09,0,0,1,2.77.88,3.19,3.19,0,0,1,1,2.43v4.69a5.72,5.72,0,0,0,.36,2.24v.15Zm-2.89-1.33a3.06,3.06,0,0,0,1.55-.42,2.59,2.59,0,0,0,1.07-1.11v-2.09h-1.37c-2.13,0-3.2.63-3.2,1.88a1.6,1.6,0,0,0,.54,1.28A2.12,2.12,0,0,0,761.84,386.51Z"/><path class="cls-6" d="M771.78,383.12l-1.09,1.14v3.58H769V373.36h1.74v8.76l.93-1.12,3.18-3.36h2.12l-4,4.26,4.43,5.94h-2Z"/><path class="cls-6" d="M781.57,383.12l-1.09,1.14v3.58h-1.75V373.36h1.75v8.76l.93-1.12,3.18-3.36h2.12l-4,4.26,4.43,5.94h-2Z"/><path class="cls-6" d="M792.55,388a4.48,4.48,0,0,1-3.37-1.36,5.06,5.06,0,0,1-1.3-3.65v-.32a6.09,6.09,0,0,1,.58-2.71,4.39,4.39,0,0,1,1.62-1.86,4.08,4.08,0,0,1,2.26-.68,3.84,3.84,0,0,1,3.09,1.31,5.72,5.72,0,0,1,1.1,3.75v.73h-6.91a3.68,3.68,0,0,0,.88,2.44,2.76,2.76,0,0,0,2.15.92,3.05,3.05,0,0,0,1.56-.37,3.94,3.94,0,0,0,1.12-1l1.07.83A4.3,4.3,0,0,1,792.55,388Zm-.21-9.15a2.35,2.35,0,0,0-1.78.77,3.76,3.76,0,0,0-.88,2.16h5.11v-.14a3.33,3.33,0,0,0-.72-2.06A2.22,2.22,0,0,0,792.34,378.88Z"/><path class="cls-6" d="M800.2,377.64l0,1.28a3.73,3.73,0,0,1,3.06-1.47q3.23,0,3.26,3.65v6.74h-1.74v-6.75a2.35,2.35,0,0,0-.51-1.63,2,2,0,0,0-1.54-.53,2.55,2.55,0,0,0-1.49.45,3.13,3.13,0,0,0-1,1.19v7.27h-1.74v-10.2Z"/><polyline class="cls-7" points="310.64 165.39 310.64 140.72 877.5 140.72 877.5 165.39"/><line class="cls-7" x1="593.9" y1="140.72" x2="593.9" y2="126.05"/><polyline class="cls-7" points="229.14 423.73 204.48 423.73 204.48 246.56 229.14 246.56"/><line class="cls-7" x1="204.48" y1="335.2" x2="189.81" y2="335.2"/><polyline class="cls-7" points="452.17 504.39 452.17 529.05 310.44 529.05 310.44 504.39"/><line class="cls-7" x1="381.35" y1="529.05" x2="381.35" y2="543.72"/><polyline class="cls-7" points="877.43 504.38 877.43 529.05 523.1 529.05 523.1 504.38"/><line class="cls-7" x1="700.37" y1="529.05" x2="700.37" y2="543.72"/><path class="cls-8" d="M538.22,101.72l-2.83-8.52H537l1.81,5.68,1.81-5.68h1.65l-2.83,8.52Z"/><path class="cls-8" d="M545.06,101.81a2.56,2.56,0,0,1-1.94-.7,2.64,2.64,0,0,1-.69-2v-1a2.63,2.63,0,1,1,5.25,0v1a2.63,2.63,0,0,1-.69,1.94A2.59,2.59,0,0,1,545.06,101.81Zm0-1.55a1,1,0,0,0,.76-.28,1.12,1.12,0,0,0,.27-.8v-1a1.08,1.08,0,0,0-.27-.79,1,1,0,0,0-.76-.28,1,1,0,0,0-.75.28,1.08,1.08,0,0,0-.26.79v1a1.12,1.12,0,0,0,.26.8A1,1,0,0,0,545.05,100.26Z"/><path class="cls-8" d="M550.75,93.2v6.51a.44.44,0,0,0,.13.34.49.49,0,0,0,.36.12h.27v1.55h-.82a1.51,1.51,0,0,1-1.14-.42,1.65,1.65,0,0,1-.4-1.19V93.2Z"/><path class="cls-8" d="M554.23,93.2v6.51a.47.47,0,0,0,.12.34.52.52,0,0,0,.36.12H555v1.55h-.82a1.51,1.51,0,0,1-1.14-.42,1.65,1.65,0,0,1-.4-1.19V93.2Z"/><path class="cls-8" d="M558.76,101.81a2.81,2.81,0,0,1-2.06-.72,2.69,2.69,0,0,1-.72-2V98.4a3,3,0,0,1,.7-2.11,2.59,2.59,0,0,1,2-.74,2.16,2.16,0,0,1,1.86.89,4.11,4.11,0,0,1,.66,2.5v.39H557V98.25h2.7l0-.14a1.37,1.37,0,0,0-.33-.81.89.89,0,0,0-.71-.29,1.15,1.15,0,0,0-.9.34,1.36,1.36,0,0,0-.32,1v.78a1.26,1.26,0,0,0,.35,1,1.35,1.35,0,0,0,1,.34A1.88,1.88,0,0,0,560,100l1,.93a3.46,3.46,0,0,1-1.06.67A3.21,3.21,0,0,1,558.76,101.81Z"/><path class="cls-8" d="M564.46,101.81a1.81,1.81,0,0,1-1.52-.69,3.15,3.15,0,0,1-.53-1.94v-1a3.22,3.22,0,0,1,.53-2,1.81,1.81,0,0,1,1.52-.69,1.47,1.47,0,0,1,.88.29,2,2,0,0,1,.65.82L565.87,98a1.22,1.22,0,0,0-.11-.53.76.76,0,0,0-.31-.33A1,1,0,0,0,565,97a.84.84,0,0,0-.7.3,1.35,1.35,0,0,0-.25.87v1a1.26,1.26,0,0,0,.25.84.84.84,0,0,0,.7.3,1,1,0,0,0,.48-.11.71.71,0,0,0,.31-.33,1.13,1.13,0,0,0,.11-.51l.08,1.39a1.57,1.57,0,0,1-.57.77A1.52,1.52,0,0,1,564.46,101.81Zm1.41-.09V93.2h1.6v8.52Z"/><path class="cls-8" d="M569,94.8V93.2h1.6v1.6Zm0,6.92V95.64h1.6v6.08Z"/><path class="cls-8" d="M574,101.81a1.8,1.8,0,0,1-1.51-.69,3.15,3.15,0,0,1-.53-1.94v-1a3.22,3.22,0,0,1,.53-2,1.8,1.8,0,0,1,1.51-.69,1.48,1.48,0,0,1,.89.29,2,2,0,0,1,.65.82L575.41,98a1.22,1.22,0,0,0-.11-.53.76.76,0,0,0-.31-.33,1,1,0,0,0-.49-.11.87.87,0,0,0-.7.3,1.41,1.41,0,0,0-.24.87v1a1.31,1.31,0,0,0,.24.84.87.87,0,0,0,.7.3,1,1,0,0,0,.49-.11.71.71,0,0,0,.31-.33,1.13,1.13,0,0,0,.11-.51l.08,1.39a1.58,1.58,0,0,1-.58.77A1.48,1.48,0,0,1,574,101.81Zm.29,2.38a3.21,3.21,0,0,1-1.3-.25,2,2,0,0,1-.88-.72l1.07-1a1.44,1.44,0,0,0,1.09.46,1.25,1.25,0,0,0,.82-.27.93.93,0,0,0,.33-.77v-6H577v5.9a2.61,2.61,0,0,1-.71,2A2.78,2.78,0,0,1,574.28,104.19Z"/><path class="cls-8" d="M580.76,101.72V93.2h1.61v8.52Zm.72,0v-1.55h5v1.55Z"/><path class="cls-8" d="M590,101.81a2.59,2.59,0,0,1-1.94-.7,2.67,2.67,0,0,1-.68-2v-1A2.37,2.37,0,0,1,590,95.55a2.38,2.38,0,0,1,2.63,2.62v1a2.63,2.63,0,0,1-.69,1.94A2.6,2.6,0,0,1,590,101.81Zm0-1.55a1,1,0,0,0,.75-.28,1.12,1.12,0,0,0,.27-.8v-1a1.08,1.08,0,0,0-.27-.79,1,1,0,0,0-.75-.28,1,1,0,0,0-.75.28,1.08,1.08,0,0,0-.27.79v1a1.12,1.12,0,0,0,.27.8A1,1,0,0,0,590,100.26Z"/><path class="cls-8" d="M595.93,101.81a1.8,1.8,0,0,1-1.51-.69,3.15,3.15,0,0,1-.53-1.94v-1a3.22,3.22,0,0,1,.53-2,1.8,1.8,0,0,1,1.51-.69,1.5,1.5,0,0,1,.89.29,2.08,2.08,0,0,1,.65.82L597.34,98a1.22,1.22,0,0,0-.1-.53.76.76,0,0,0-.31-.33,1,1,0,0,0-.49-.11.87.87,0,0,0-.7.3,1.41,1.41,0,0,0-.25.87v1a1.31,1.31,0,0,0,.25.84.87.87,0,0,0,.7.3,1,1,0,0,0,.49-.11.71.71,0,0,0,.31-.33,1.13,1.13,0,0,0,.1-.51l.09,1.39a1.58,1.58,0,0,1-.58.77A1.5,1.5,0,0,1,595.93,101.81Zm.29,2.38a3.17,3.17,0,0,1-1.3-.25,2.06,2.06,0,0,1-.89-.72l1.08-1a1.42,1.42,0,0,0,1.09.46,1.25,1.25,0,0,0,.82-.27.92.92,0,0,0,.32-.77v-6H599v5.9a2.65,2.65,0,0,1-.71,2A2.8,2.8,0,0,1,596.22,104.19Z"/><path class="cls-8" d="M603,101.81a2.59,2.59,0,0,1-1.94-.7,2.63,2.63,0,0,1-.68-2v-1a2.62,2.62,0,0,1,.68-1.94,3.11,3.11,0,0,1,3.88,0,2.63,2.63,0,0,1,.69,1.94v1a2.4,2.4,0,0,1-2.63,2.63Zm0-1.55a1,1,0,0,0,.75-.28,1.12,1.12,0,0,0,.27-.8v-1a1.08,1.08,0,0,0-.27-.79,1,1,0,0,0-.75-.28,1,1,0,0,0-.75.28,1.08,1.08,0,0,0-.27.79v1a1.12,1.12,0,0,0,.27.8A1,1,0,0,0,603,100.26Z"/><path class="cls-8" d="M609.24,101.72V93.2h1.6v8.52Zm.7,0V100.2h2.43a1.72,1.72,0,0,0,1.12-.28.94.94,0,0,0,.33-.74v0a1.08,1.08,0,0,0-.27-.77,1.19,1.19,0,0,0-.89-.29h-2.72V96.59h2.72c.7,0,1-.32,1-1s-.4-.92-1.2-.92h-2.56V93.2h2.77a2.71,2.71,0,0,1,2,.63,2.21,2.21,0,0,1,.64,1.68,1.9,1.9,0,0,1-.4,1.16,1.84,1.84,0,0,1-1.27.68,2,2,0,0,1,1.32.7,2.07,2.07,0,0,1,.46,1.33v0a2.17,2.17,0,0,1-.7,1.68,2.73,2.73,0,0,1-1.92.64Z"/><path class="cls-8" d="M616.78,101.72V95.64h1.72v6.08Zm3.42-4.39a.89.89,0,0,0-.68-.23.93.93,0,0,0-.75.31,1.29,1.29,0,0,0-.27.87l-.12-1.58a2.27,2.27,0,0,1,.65-.85,1.44,1.44,0,0,1,.88-.3,1.67,1.67,0,0,1,1.23.47Z"/><path class="cls-8" d="M624.33,101.81a2.78,2.78,0,0,1-2.05-.72,2.65,2.65,0,0,1-.73-2V98.4a3,3,0,0,1,.7-2.11,2.62,2.62,0,0,1,2-.74,2.16,2.16,0,0,1,1.86.89,4.11,4.11,0,0,1,.66,2.5v.39h-4.16V98.25h2.7l0-.14a1.37,1.37,0,0,0-.33-.81.88.88,0,0,0-.71-.29,1.15,1.15,0,0,0-.9.34,1.41,1.41,0,0,0-.32,1v.78a1.26,1.26,0,0,0,.35,1,1.35,1.35,0,0,0,1,.34,1.91,1.91,0,0,0,1.22-.44l1,.93a3.46,3.46,0,0,1-1.06.67A3.17,3.17,0,0,1,624.33,101.81Z"/><path class="cls-8" d="M630.83,101.81a2.79,2.79,0,0,1-2.06-.72,2.65,2.65,0,0,1-.73-2V98.4a3,3,0,0,1,.7-2.11,2.62,2.62,0,0,1,2-.74,2.16,2.16,0,0,1,1.86.89,4.11,4.11,0,0,1,.66,2.5v.39h-4.16V98.25h2.7l0-.14a1.37,1.37,0,0,0-.33-.81.88.88,0,0,0-.71-.29,1.15,1.15,0,0,0-.9.34,1.41,1.41,0,0,0-.32,1v.78a1.3,1.3,0,0,0,.35,1,1.37,1.37,0,0,0,1,.34A1.9,1.9,0,0,0,632,100l1.05.93a3.63,3.63,0,0,1-1.07.67A3.12,3.12,0,0,1,630.83,101.81Z"/><path class="cls-8" d="M636.52,101.81a1.79,1.79,0,0,1-1.51-.69,3.09,3.09,0,0,1-.53-1.94v-1a3.15,3.15,0,0,1,.53-2,1.79,1.79,0,0,1,1.51-.69,1.53,1.53,0,0,1,.89.29,2.08,2.08,0,0,1,.65.82L637.93,98a1.22,1.22,0,0,0-.1-.53.82.82,0,0,0-.31-.33A1.07,1.07,0,0,0,637,97a.87.87,0,0,0-.7.3,1.35,1.35,0,0,0-.25.87v1a1.26,1.26,0,0,0,.25.84.87.87,0,0,0,.7.3,1.07,1.07,0,0,0,.49-.11.76.76,0,0,0,.31-.33,1.13,1.13,0,0,0,.1-.51l.08,1.39a1.53,1.53,0,0,1-1.49,1Zm1.41-.09V93.2h1.61v8.52Z"/><path class="cls-8" d="M640.71,97V95.64h3V97Zm2.17,4.71a1.47,1.47,0,0,1-1.18-.42,1.75,1.75,0,0,1-.36-1.19V93.87h1.6v5.84a.57.57,0,0,0,.09.34.3.3,0,0,0,.26.12h.4v1.55Z"/><path class="cls-8" d="M647.76,101.81a2.81,2.81,0,0,1-2.06-.72,2.69,2.69,0,0,1-.72-2V98.4a3,3,0,0,1,.7-2.11,2.58,2.58,0,0,1,2-.74,2.18,2.18,0,0,1,1.87.89,4.11,4.11,0,0,1,.66,2.5v.39H646V98.25h2.69v-.14a1.51,1.51,0,0,0-.33-.81.91.91,0,0,0-.72-.29,1.18,1.18,0,0,0-.9.34,1.41,1.41,0,0,0-.32,1v.78a1.3,1.3,0,0,0,.35,1,1.39,1.39,0,0,0,1,.34A1.88,1.88,0,0,0,649,100l1,.93a3.51,3.51,0,0,1-1.07.67A3.12,3.12,0,0,1,647.76,101.81Z"/><path class="cls-9" d="M563.94,116.22a2.93,2.93,0,0,1-1.36-.29,2.11,2.11,0,0,1-.9-.82,2.35,2.35,0,0,1-.32-1.25v-.16a2.3,2.3,0,0,1,.32-1.2,2,2,0,0,1,.85-.85,2,2,0,0,1-.73-.71,1.93,1.93,0,0,1-.27-1v-.23a2.11,2.11,0,0,1,.66-1.62,2.78,2.78,0,0,1,3.5,0,2.11,2.11,0,0,1,.66,1.62V110a1.86,1.86,0,0,1-.28,1,1.91,1.91,0,0,1-.74.7,2.15,2.15,0,0,1,.87.85,2.3,2.3,0,0,1,.32,1.2v.16a2.35,2.35,0,0,1-.32,1.25,2.11,2.11,0,0,1-.9.82A2.93,2.93,0,0,1,563.94,116.22Zm0-1.14a1.4,1.4,0,0,0,1-.36,1.23,1.23,0,0,0,.38-1v-.1a1.23,1.23,0,0,0-.38-1,1.4,1.4,0,0,0-1-.36,1.42,1.42,0,0,0-1,.36,1.24,1.24,0,0,0-.38,1v.1a1.19,1.19,0,0,0,.38.94A1.42,1.42,0,0,0,563.94,115.08Zm0-3.87a1.17,1.17,0,0,0,.88-.35,1.26,1.26,0,0,0,.33-.91v-.1a1.21,1.21,0,1,0-2.42,0v.1a1.26,1.26,0,0,0,.33.91A1.21,1.21,0,0,0,563.94,111.21Z"/><path class="cls-9" d="M572.32,116.12l-2.78-8.52h1.3l2,6.68,2-6.68h1.3l-2.77,8.52Z"/><path class="cls-9" d="M577.35,108.79V107.6h1.19v1.19Zm0,7.33V110h1.19v6.08Z"/><path class="cls-9" d="M582.91,116.21a2.64,2.64,0,0,1-2-.71,2.73,2.73,0,0,1-.7-2v-.68a3,3,0,0,1,.67-2.11,2.44,2.44,0,0,1,1.89-.74,2.07,2.07,0,0,1,1.78.85,3.87,3.87,0,0,1,.63,2.36v.4h-4.1v-1h3a2.05,2.05,0,0,0-.38-1.16,1.1,1.1,0,0,0-.89-.41,1.32,1.32,0,0,0-1,.44,1.91,1.91,0,0,0-.37,1.26v.78a1.57,1.57,0,0,0,.4,1.16,1.5,1.5,0,0,0,1.13.4,2,2,0,0,0,1.36-.56l.78.79a3.36,3.36,0,0,1-1,.67A2.87,2.87,0,0,1,582.91,116.21Z"/><path class="cls-9" d="M586.85,116.12V110h1.2v6.08Zm3.35-4.64a1.19,1.19,0,0,0-1-.39,1.08,1.08,0,0,0-1.19,1.18l-.13-1.17a2.34,2.34,0,0,1,.73-.85,1.72,1.72,0,0,1,1-.3,1.93,1.93,0,0,1,1.35.47Z"/><path class="cls-9" d="M592,116.12V107.6h1.2v8.52Zm.44-.89.08-1.42,3.13-3.77H597Zm3.61.89-2.12-3.51.77-.8,2.65,4.31Z"/><path class="cls-9" d="M600.26,116.21a2.61,2.61,0,0,1-1.68-.47,2.06,2.06,0,0,1-.05-2.77,2.29,2.29,0,0,1,1.55-.45h1.72l.09,1h-1.81a1,1,0,0,0-.7.21.83.83,0,0,0-.23.64.76.76,0,0,0,.31.68,1.6,1.6,0,0,0,.93.22,2.7,2.7,0,0,0,1-.14.48.48,0,0,0,.34-.46l.12.86a1.24,1.24,0,0,1-.39.4,1.48,1.48,0,0,1-.54.24A2.82,2.82,0,0,1,600.26,116.21Zm1.49-.09v-3.86a1.33,1.33,0,0,0-.32-.93,1.19,1.19,0,0,0-.9-.33,2.12,2.12,0,0,0-1.33.43l-.88-.6a2.26,2.26,0,0,1,.91-.65,3.4,3.4,0,0,1,1.26-.23,2.51,2.51,0,0,1,1.77.59,2.19,2.19,0,0,1,.63,1.67v3.91Z"/><path class="cls-9" d="M604.7,116.12V110h1.2v6.08Zm3.7,0v-3.69a1.41,1.41,0,0,0-.34-1,1.2,1.2,0,0,0-.94-.35,1.22,1.22,0,0,0-.9.31,1.15,1.15,0,0,0-.32.87l-.12-1.17a2.11,2.11,0,0,1,.73-.85,1.79,1.79,0,0,1,1-.3,1.86,1.86,0,0,1,1.53.65,2.77,2.77,0,0,1,.54,1.83v3.69Z"/><path class="cls-9" d="M610.94,111.12V110h2.74v1.08Zm2,5a1.33,1.33,0,0,1-1.09-.42,1.85,1.85,0,0,1-.33-1.19v-6.24h1.19v6.25a.57.57,0,0,0,.09.34.3.3,0,0,0,.26.12h.57v1.14Z"/><path class="cls-9" d="M617.87,116.21a2.66,2.66,0,0,1-2-.71,2.77,2.77,0,0,1-.7-2v-.68a3.09,3.09,0,0,1,.67-2.11,2.44,2.44,0,0,1,1.89-.74,2.07,2.07,0,0,1,1.78.85,3.87,3.87,0,0,1,.63,2.36v.4h-4.1v-1h3a2.13,2.13,0,0,0-.39-1.16,1.08,1.08,0,0,0-.89-.41,1.31,1.31,0,0,0-1,.44,1.91,1.91,0,0,0-.38,1.26v.78a1.57,1.57,0,0,0,.4,1.16,1.5,1.5,0,0,0,1.13.4,2,2,0,0,0,1.36-.56l.78.79a3.24,3.24,0,0,1-1,.67A2.83,2.83,0,0,1,617.87,116.21Z"/><path class="cls-9" d="M621.81,116.12V110H623v6.08Zm3.69,0v-3.69a1.41,1.41,0,0,0-.33-1,1.2,1.2,0,0,0-.94-.35,1.22,1.22,0,0,0-.9.31,1.15,1.15,0,0,0-.32.87l-.12-1.17a2.11,2.11,0,0,1,.73-.85,1.79,1.79,0,0,1,1-.3,1.86,1.86,0,0,1,1.53.65,2.77,2.77,0,0,1,.54,1.83v3.69Z"/><path class="cls-8" d="M330.78,563v-8.52h1.6V563Zm.71,0v-1.55h5V563Z"/><path class="cls-8" d="M340,563.05a2.56,2.56,0,0,1-1.94-.7,2.64,2.64,0,0,1-.69-2v-1a2.4,2.4,0,0,1,2.63-2.62,2.38,2.38,0,0,1,2.62,2.62v1a2.66,2.66,0,0,1-.68,1.94A2.63,2.63,0,0,1,340,563.05Zm0-1.55a1,1,0,0,0,.76-.28,1.12,1.12,0,0,0,.27-.8v-1a1.1,1.1,0,0,0-.27-.79,1,1,0,0,0-.76-.28,1,1,0,0,0-.75.28,1.09,1.09,0,0,0-.26.79v1a1.12,1.12,0,0,0,.26.8A1,1,0,0,0,340,561.5Z"/><path class="cls-8" d="M346,563.05a1.81,1.81,0,0,1-1.52-.69,3.15,3.15,0,0,1-.53-1.94v-1a3.22,3.22,0,0,1,.53-2,1.81,1.81,0,0,1,1.52-.69,1.47,1.47,0,0,1,.88.29,2,2,0,0,1,.65.82l-.12,1.35a1.22,1.22,0,0,0-.11-.53.76.76,0,0,0-.31-.33,1,1,0,0,0-.49-.11.84.84,0,0,0-.7.31,1.35,1.35,0,0,0-.24.86v1a1.31,1.31,0,0,0,.24.84.87.87,0,0,0,.7.3,1,1,0,0,0,.49-.11.74.74,0,0,0,.31-.32,1.13,1.13,0,0,0,.11-.51l.08,1.38a1.71,1.71,0,0,1-.57.78A1.58,1.58,0,0,1,346,563.05Zm.28,2.38a3.21,3.21,0,0,1-1.3-.25,2,2,0,0,1-.88-.72l1.07-1a1.44,1.44,0,0,0,1.09.46,1.25,1.25,0,0,0,.82-.27.92.92,0,0,0,.33-.76v-6H349v5.9a2.59,2.59,0,0,1-.71,2A2.78,2.78,0,0,1,346.23,565.43Z"/><path class="cls-8" d="M353,563.05a2.59,2.59,0,0,1-1.94-.7,2.67,2.67,0,0,1-.68-2v-1a2.38,2.38,0,0,1,2.62-2.62,2.4,2.4,0,0,1,2.63,2.62v1a2.63,2.63,0,0,1-.69,1.94A2.6,2.6,0,0,1,353,563.05Zm0-1.55a1,1,0,0,0,.75-.28,1.12,1.12,0,0,0,.27-.8v-1a1.1,1.1,0,0,0-.27-.79,1,1,0,0,0-.75-.28,1,1,0,0,0-.75.28,1.1,1.1,0,0,0-.27.79v1a1.12,1.12,0,0,0,.27.8A1,1,0,0,0,353,561.5Z"/><path class="cls-8" d="M356.62,558.25v-1.37h3v1.37Zm2.16,4.71a1.46,1.46,0,0,1-1.17-.42,1.7,1.7,0,0,1-.37-1.19v-6.24h1.61V561a.57.57,0,0,0,.09.34.28.28,0,0,0,.25.12h.4V563Z"/><path class="cls-8" d="M363.66,563.05a2.82,2.82,0,0,1-2.05-.71,2.69,2.69,0,0,1-.73-2v-.68a3,3,0,0,1,.7-2.11,2.62,2.62,0,0,1,2-.74,2.19,2.19,0,0,1,1.86.89,4.11,4.11,0,0,1,.66,2.5v.4h-4.16v-1.09h2.7l0-.14a1.37,1.37,0,0,0-.33-.81.91.91,0,0,0-.71-.29,1.15,1.15,0,0,0-.9.34,1.43,1.43,0,0,0-.32,1v.78a1.3,1.3,0,0,0,.35,1,1.36,1.36,0,0,0,1,.34,1.91,1.91,0,0,0,1.22-.44l1.05.93a3.63,3.63,0,0,1-1.07.67A3.17,3.17,0,0,1,363.66,563.05Z"/><path class="cls-8" d="M367.49,563v-8.52h1.61V563Zm1-.42-.22-1.77,2.84-3.89h1.7Zm2.76.42-1.54-3.14L371,559l2.06,3.94Z"/><path class="cls-8" d="M376.5,563.05a2.82,2.82,0,0,1-2.05-.71,2.69,2.69,0,0,1-.73-2v-.68a3,3,0,0,1,.7-2.11,2.6,2.6,0,0,1,2-.74,2.19,2.19,0,0,1,1.86.89,4.11,4.11,0,0,1,.66,2.5v.4h-4.16v-1.09h2.7l0-.14a1.37,1.37,0,0,0-.33-.81.91.91,0,0,0-.71-.29,1.15,1.15,0,0,0-.9.34,1.38,1.38,0,0,0-.32,1v.78a1.26,1.26,0,0,0,.35,1,1.35,1.35,0,0,0,1,.34,1.86,1.86,0,0,0,1.21-.44l1.05.93a3.46,3.46,0,0,1-1.06.67A3.21,3.21,0,0,1,376.5,563.05Z"/><path class="cls-8" d="M380.33,563v-6.08h1.6V563Zm3.51,0v-3.69a.9.9,0,0,0-.25-.69,1,1,0,0,0-.72-.24.9.9,0,0,0-.69.25.92.92,0,0,0-.25.7l-.12-1.35a2.41,2.41,0,0,1,.64-.85,1.53,1.53,0,0,1,1-.3,1.82,1.82,0,0,1,1.49.65,2.83,2.83,0,0,1,.53,1.83V563Z"/><path class="cls-8" d="M389.2,563v-8.52h1.6V563Zm.7,0v-1.52h2.43a1.72,1.72,0,0,0,1.12-.28.92.92,0,0,0,.33-.74v0a1.08,1.08,0,0,0-.27-.77,1.19,1.19,0,0,0-.89-.29H389.9v-1.51h2.72c.7,0,1-.32,1-1s-.4-.92-1.2-.92H389.9v-1.52h2.77a2.71,2.71,0,0,1,2,.63,2.24,2.24,0,0,1,.64,1.68,1.9,1.9,0,0,1-.4,1.16,1.84,1.84,0,0,1-1.27.68,2,2,0,0,1,1.32.7,2.09,2.09,0,0,1,.46,1.33v0a2.15,2.15,0,0,1-.7,1.68,2.73,2.73,0,0,1-1.92.64Z"/><path class="cls-8" d="M396.74,563v-6.08h1.72V563Zm3.42-4.39a.89.89,0,0,0-.68-.23.93.93,0,0,0-.75.31,1.29,1.29,0,0,0-.27.87l-.12-1.58a2.27,2.27,0,0,1,.65-.85,1.44,1.44,0,0,1,.88-.3,1.67,1.67,0,0,1,1.23.47Z"/><path class="cls-8" d="M404.29,563.05a2.82,2.82,0,0,1-2.05-.71,2.69,2.69,0,0,1-.73-2v-.68a3,3,0,0,1,.7-2.11,2.62,2.62,0,0,1,2-.74,2.19,2.19,0,0,1,1.86.89,4.11,4.11,0,0,1,.66,2.5v.4h-4.16v-1.09h2.7l0-.14a1.37,1.37,0,0,0-.33-.81.91.91,0,0,0-.71-.29,1.15,1.15,0,0,0-.9.34,1.43,1.43,0,0,0-.32,1v.78a1.26,1.26,0,0,0,.35,1,1.35,1.35,0,0,0,1,.34,1.91,1.91,0,0,0,1.22-.44l1,.93a3.46,3.46,0,0,1-1.06.67A3.17,3.17,0,0,1,404.29,563.05Z"/><path class="cls-8" d="M410.79,563.05a2.83,2.83,0,0,1-2.06-.71,2.69,2.69,0,0,1-.73-2v-.68a3,3,0,0,1,.7-2.11,2.62,2.62,0,0,1,2-.74,2.19,2.19,0,0,1,1.86.89,4.11,4.11,0,0,1,.66,2.5v.4H409v-1.09h2.7l0-.14a1.37,1.37,0,0,0-.33-.81.91.91,0,0,0-.71-.29,1.15,1.15,0,0,0-.9.34,1.43,1.43,0,0,0-.32,1v.78a1.3,1.3,0,0,0,.35,1,1.37,1.37,0,0,0,1,.34,1.9,1.9,0,0,0,1.21-.44l1.05.93a3.63,3.63,0,0,1-1.07.67A3.12,3.12,0,0,1,410.79,563.05Z"/><path class="cls-8" d="M416.48,563.05a1.79,1.79,0,0,1-1.51-.69,3.09,3.09,0,0,1-.53-1.94v-1a3.15,3.15,0,0,1,.53-2,1.79,1.79,0,0,1,1.51-.69,1.53,1.53,0,0,1,.89.29,2.08,2.08,0,0,1,.65.82l-.13,1.35a1.22,1.22,0,0,0-.1-.53.82.82,0,0,0-.31-.33,1.07,1.07,0,0,0-.49-.11.84.84,0,0,0-.7.31,1.3,1.3,0,0,0-.25.86v1a1.26,1.26,0,0,0,.25.84.87.87,0,0,0,.7.3,1.07,1.07,0,0,0,.49-.11.8.8,0,0,0,.31-.32,1.13,1.13,0,0,0,.1-.51L418,562a1.58,1.58,0,0,1-.57.78A1.56,1.56,0,0,1,416.48,563.05Zm1.41-.09v-8.52h1.61V563Z"/><path class="cls-8" d="M420.67,558.25v-1.37h3v1.37Zm2.17,4.71a1.47,1.47,0,0,1-1.18-.42,1.75,1.75,0,0,1-.36-1.19v-6.24h1.6V561a.57.57,0,0,0,.09.34.3.3,0,0,0,.26.12h.4V563Z"/><path class="cls-8" d="M427.72,563.05a2.85,2.85,0,0,1-2.06-.71,2.73,2.73,0,0,1-.72-2v-.68a3,3,0,0,1,.7-2.11,2.58,2.58,0,0,1,2-.74,2.21,2.21,0,0,1,1.87.89,4.11,4.11,0,0,1,.66,2.5v.4H426v-1.09h2.69v-.14a1.51,1.51,0,0,0-.33-.81,1,1,0,0,0-.72-.29,1.18,1.18,0,0,0-.9.34,1.43,1.43,0,0,0-.32,1v.78a1.3,1.3,0,0,0,.35,1,1.39,1.39,0,0,0,1,.34,1.88,1.88,0,0,0,1.21-.44l1.05.93a3.51,3.51,0,0,1-1.07.67A3.12,3.12,0,0,1,427.72,563.05Z"/><path class="cls-9" d="M348.83,577.36v-1l3-4a3,3,0,0,0,.39-.7,1.79,1.79,0,0,0,.15-.69h0a1.06,1.06,0,0,0-.3-.8,1.18,1.18,0,0,0-.85-.29,1.21,1.21,0,0,0-.84.31,1.37,1.37,0,0,0-.39.89h-1.24a2.89,2.89,0,0,1,.8-1.73,2.33,2.33,0,0,1,1.66-.6,2.51,2.51,0,0,1,1.78.58,2.17,2.17,0,0,1,.62,1.65h0a2.79,2.79,0,0,1-.18.95,3.83,3.83,0,0,1-.53.94l-2.46,3.35h3.22v1.14Z"/><path class="cls-9" d="M359.28,577.36l-2.78-8.52h1.3l2.05,6.68,2-6.68h1.3l-2.78,8.52Z"/><path class="cls-9" d="M364.31,570v-1.2h1.19V570Zm0,7.32v-6.08h1.19v6.08Z"/><path class="cls-9" d="M369.87,577.45a2.64,2.64,0,0,1-2-.71,2.73,2.73,0,0,1-.7-2V574a3,3,0,0,1,.67-2.11,2.44,2.44,0,0,1,1.89-.74,2.07,2.07,0,0,1,1.78.85,3.87,3.87,0,0,1,.63,2.36v.4h-4.1v-1h3a2.05,2.05,0,0,0-.38-1.16,1.1,1.1,0,0,0-.89-.41,1.32,1.32,0,0,0-1.05.44,1.91,1.91,0,0,0-.37,1.26v.78a1.57,1.57,0,0,0,.4,1.16,1.5,1.5,0,0,0,1.13.4,1.91,1.91,0,0,0,1.36-.56l.78.79a3.36,3.36,0,0,1-1,.67A2.91,2.91,0,0,1,369.87,577.45Z"/><path class="cls-9" d="M373.81,577.36v-6.08H375v6.08Zm3.35-4.64a1.19,1.19,0,0,0-1-.39,1.09,1.09,0,0,0-1.2,1.18l-.12-1.17a2.23,2.23,0,0,1,.73-.84,1.63,1.63,0,0,1,1-.31,1.9,1.9,0,0,1,1.34.47Z"/><path class="cls-9" d="M378.93,577.36v-8.52h1.2v8.52Zm.44-.89.08-1.42,3.13-3.77H384Zm3.61.89-2.12-3.51.77-.8,2.65,4.31Z"/><path class="cls-9" d="M387.22,577.45a2.67,2.67,0,0,1-1.68-.46,1.76,1.76,0,0,1-.56-1.42,1.73,1.73,0,0,1,.51-1.36,2.28,2.28,0,0,1,1.54-.45h1.73l.08,1H387a1,1,0,0,0-.7.21.83.83,0,0,0-.23.64.79.79,0,0,0,.31.69,1.68,1.68,0,0,0,.93.22,2.67,2.67,0,0,0,1-.15.48.48,0,0,0,.34-.46l.12.86a1.24,1.24,0,0,1-.39.4,1.65,1.65,0,0,1-.54.24A2.82,2.82,0,0,1,387.22,577.45Zm1.49-.09V573.5a1.29,1.29,0,0,0-.32-.92,1.19,1.19,0,0,0-.9-.33,2.15,2.15,0,0,0-1.33.42l-.88-.6a2.36,2.36,0,0,1,.91-.65,3.4,3.4,0,0,1,1.26-.23,2.51,2.51,0,0,1,1.77.59,2.19,2.19,0,0,1,.63,1.67v3.91Z"/><path class="cls-9" d="M391.66,577.36v-6.08h1.2v6.08Zm3.69,0v-3.69a1.41,1.41,0,0,0-.33-1,1.24,1.24,0,0,0-.94-.35,1.22,1.22,0,0,0-.9.31,1.13,1.13,0,0,0-.32.87l-.12-1.17a2.11,2.11,0,0,1,.73-.85,1.79,1.79,0,0,1,1-.3,1.89,1.89,0,0,1,1.53.65,2.77,2.77,0,0,1,.54,1.83v3.69Z"/><path class="cls-9" d="M397.9,572.36v-1.08h2.74v1.08Zm2.05,5a1.33,1.33,0,0,1-1.09-.42,1.85,1.85,0,0,1-.34-1.19v-6.24h1.2v6.25a.55.55,0,0,0,.09.34.3.3,0,0,0,.26.12h.57v1.14Z"/><path class="cls-9" d="M404.83,577.45a2.66,2.66,0,0,1-2-.71,2.77,2.77,0,0,1-.7-2V574a3.09,3.09,0,0,1,.67-2.11,2.44,2.44,0,0,1,1.89-.74,2.07,2.07,0,0,1,1.78.85,3.87,3.87,0,0,1,.63,2.36v.4H403v-1h3a2.05,2.05,0,0,0-.38-1.16,1.1,1.1,0,0,0-.89-.41,1.32,1.32,0,0,0-1.05.44,1.91,1.91,0,0,0-.37,1.26v.78a1.57,1.57,0,0,0,.4,1.16,1.5,1.5,0,0,0,1.13.4,1.91,1.91,0,0,0,1.36-.56l.78.79a3.36,3.36,0,0,1-1,.67A2.87,2.87,0,0,1,404.83,577.45Z"/><path class="cls-9" d="M408.77,577.36v-6.08H410v6.08Zm3.69,0v-3.69a1.41,1.41,0,0,0-.33-1,1.25,1.25,0,0,0-.94-.35,1.22,1.22,0,0,0-.9.31,1.13,1.13,0,0,0-.32.87l-.13-1.17a2.21,2.21,0,0,1,.74-.85,1.78,1.78,0,0,1,1-.3,1.91,1.91,0,0,1,1.54.65,2.77,2.77,0,0,1,.54,1.83v3.69Z"/><path class="cls-8" d="M648.1,563v-8.52h1.61V563Zm.72,0v-1.55h5V563Z"/><path class="cls-8" d="M657.32,563.05a2.56,2.56,0,0,1-1.94-.7,2.64,2.64,0,0,1-.69-2v-1a2.63,2.63,0,1,1,5.25,0v1a2.63,2.63,0,0,1-.69,1.94A2.59,2.59,0,0,1,657.32,563.05Zm0-1.55a1,1,0,0,0,.76-.28,1.17,1.17,0,0,0,.26-.8v-1a1.14,1.14,0,0,0-.26-.79,1,1,0,0,0-.76-.28,1,1,0,0,0-.75.28,1.09,1.09,0,0,0-.26.79v1a1.12,1.12,0,0,0,.26.8A1,1,0,0,0,657.31,561.5Z"/><path class="cls-8" d="M663.27,563.05a1.8,1.8,0,0,1-1.51-.69,3.15,3.15,0,0,1-.53-1.94v-1a3.22,3.22,0,0,1,.53-2,1.8,1.8,0,0,1,1.51-.69,1.5,1.5,0,0,1,.89.29,2,2,0,0,1,.65.82l-.12,1.35a1.22,1.22,0,0,0-.11-.53.76.76,0,0,0-.31-.33,1,1,0,0,0-.49-.11.84.84,0,0,0-.7.31,1.35,1.35,0,0,0-.25.86v1a1.31,1.31,0,0,0,.25.84.87.87,0,0,0,.7.3,1,1,0,0,0,.49-.11.74.74,0,0,0,.31-.32,1.13,1.13,0,0,0,.11-.51l.08,1.38a1.66,1.66,0,0,1-.58.78A1.54,1.54,0,0,1,663.27,563.05Zm.29,2.38a3.17,3.17,0,0,1-1.3-.25,2,2,0,0,1-.88-.72l1.07-1a1.44,1.44,0,0,0,1.09.46,1.25,1.25,0,0,0,.82-.27.92.92,0,0,0,.33-.76v-6h1.6v5.9a2.63,2.63,0,0,1-.71,2A2.78,2.78,0,0,1,663.56,565.43Z"/><path class="cls-8" d="M670.32,563.05a2.59,2.59,0,0,1-1.94-.7,2.67,2.67,0,0,1-.68-2v-1a2.38,2.38,0,0,1,2.62-2.62,2.4,2.4,0,0,1,2.63,2.62v1a2.63,2.63,0,0,1-.69,1.94A2.6,2.6,0,0,1,670.32,563.05Zm0-1.55a1,1,0,0,0,.75-.28,1.12,1.12,0,0,0,.27-.8v-1a1.1,1.1,0,0,0-.27-.79,1,1,0,0,0-.75-.28,1,1,0,0,0-.75.28,1.1,1.1,0,0,0-.27.79v1a1.12,1.12,0,0,0,.27.8A1,1,0,0,0,670.32,561.5Z"/><path class="cls-8" d="M676.74,563h-1.17l-1.86-6.08h1.56l1.06,3.81,1.26-3.81h1l1.33,3.81,1.05-3.81h1.5L680.6,563h-1.17l-1.33-4Z"/><path class="cls-8" d="M685.79,563.05a2.59,2.59,0,0,1-1.94-.7,2.67,2.67,0,0,1-.68-2v-1a2.74,2.74,0,0,1,4.56-1.93,2.59,2.59,0,0,1,.69,1.93v1a2.4,2.4,0,0,1-2.63,2.63Zm0-1.55a1,1,0,0,0,.75-.28,1.12,1.12,0,0,0,.27-.8v-1a1.1,1.1,0,0,0-.27-.79,1,1,0,0,0-.75-.28,1,1,0,0,0-.75.28,1.1,1.1,0,0,0-.27.79v1a1.12,1.12,0,0,0,.27.8A1,1,0,0,0,685.79,561.5Z"/><path class="cls-8" d="M692.33,563.05a2.58,2.58,0,0,1-1.94-.7,2.63,2.63,0,0,1-.68-2v-1a2.58,2.58,0,0,1,.68-1.93,2.63,2.63,0,0,1,4.57,1.93v1a2.4,2.4,0,0,1-2.63,2.63Zm0-1.55a1,1,0,0,0,.75-.28,1.12,1.12,0,0,0,.27-.8v-1a1.1,1.1,0,0,0-.27-.79,1,1,0,0,0-.75-.28,1,1,0,0,0-.75.28,1.1,1.1,0,0,0-.27.79v1a1.12,1.12,0,0,0,.27.8A1,1,0,0,0,692.33,561.5Z"/><path class="cls-8" d="M696.42,563v-6.08h1.72V563Zm3.42-4.39a.89.89,0,0,0-.68-.23.93.93,0,0,0-.75.31,1.29,1.29,0,0,0-.27.87l-.12-1.58a2.37,2.37,0,0,1,.65-.85,1.45,1.45,0,0,1,.89-.3,1.66,1.66,0,0,1,1.22.47Z"/><path class="cls-8" d="M703.18,563.05a1.81,1.81,0,0,1-1.52-.69,3.15,3.15,0,0,1-.53-1.94v-1a3.22,3.22,0,0,1,.53-2,1.81,1.81,0,0,1,1.52-.69,1.47,1.47,0,0,1,.88.29,2,2,0,0,1,.65.82l-.12,1.35a1.22,1.22,0,0,0-.11-.53.8.8,0,0,0-.3-.33,1.07,1.07,0,0,0-.49-.11.83.83,0,0,0-.7.31,1.3,1.3,0,0,0-.25.86v1a1.26,1.26,0,0,0,.25.84.85.85,0,0,0,.7.3,1.07,1.07,0,0,0,.49-.11.77.77,0,0,0,.3-.32,1.13,1.13,0,0,0,.11-.51l.08,1.38a1.64,1.64,0,0,1-.57.78A1.58,1.58,0,0,1,703.18,563.05Zm1.41-.09v-8.52h1.6V563Z"/><path class="cls-8" d="M710,563v-8.52h1.6V563Zm.71,0v-1.52h2.42a1.72,1.72,0,0,0,1.12-.28.92.92,0,0,0,.33-.74v0a1.08,1.08,0,0,0-.27-.77,1.19,1.19,0,0,0-.89-.29h-2.71v-1.51h2.71c.7,0,1.05-.32,1.05-1s-.4-.92-1.21-.92h-2.55v-1.52h2.77a2.68,2.68,0,0,1,2,.63,2.24,2.24,0,0,1,.64,1.68,2,2,0,0,1-.39,1.16,1.86,1.86,0,0,1-1.28.68,2,2,0,0,1,1.32.7,2.1,2.1,0,0,1,.47,1.33v0a2.16,2.16,0,0,1-.71,1.68,2.72,2.72,0,0,1-1.91.64Z"/><path class="cls-8" d="M717.54,563v-6.08h1.73V563Zm3.43-4.39a.92.92,0,0,0-.68-.23.94.94,0,0,0-.76.31,1.35,1.35,0,0,0-.26.87l-.13-1.58a2.37,2.37,0,0,1,.65-.85,1.45,1.45,0,0,1,.89-.3,1.64,1.64,0,0,1,1.22.47Z"/><path class="cls-8" d="M725.1,563.05a2.83,2.83,0,0,1-2.06-.71,2.73,2.73,0,0,1-.73-2v-.68a3,3,0,0,1,.7-2.11,2.62,2.62,0,0,1,2-.74,2.19,2.19,0,0,1,1.86.89,4,4,0,0,1,.67,2.5v.4h-4.16v-1.09h2.69l0-.14a1.43,1.43,0,0,0-.32-.81,1,1,0,0,0-.72-.29,1.15,1.15,0,0,0-.9.34,1.43,1.43,0,0,0-.32,1v.78a1.3,1.3,0,0,0,.35,1,1.37,1.37,0,0,0,1,.34,1.88,1.88,0,0,0,1.21-.44l1.05.93a3.51,3.51,0,0,1-1.07.67A3.12,3.12,0,0,1,725.1,563.05Z"/><path class="cls-8" d="M731.59,563.05a2.85,2.85,0,0,1-2.06-.71,2.73,2.73,0,0,1-.72-2v-.68a3,3,0,0,1,.7-2.11,2.58,2.58,0,0,1,2-.74,2.21,2.21,0,0,1,1.87.89,4.11,4.11,0,0,1,.66,2.5v.4h-4.16v-1.09h2.69v-.14a1.51,1.51,0,0,0-.33-.81,1,1,0,0,0-.72-.29,1.18,1.18,0,0,0-.9.34,1.43,1.43,0,0,0-.32,1v.78a1.3,1.3,0,0,0,.35,1,1.39,1.39,0,0,0,1,.34,1.88,1.88,0,0,0,1.21-.44l1.05.93a3.51,3.51,0,0,1-1.07.67A3.12,3.12,0,0,1,731.59,563.05Z"/><path class="cls-8" d="M737.28,563.05a1.8,1.8,0,0,1-1.51-.69,3.15,3.15,0,0,1-.53-1.94v-1a3.22,3.22,0,0,1,.53-2,1.8,1.8,0,0,1,1.51-.69,1.5,1.5,0,0,1,.89.29,2,2,0,0,1,.65.82l-.12,1.35a1.22,1.22,0,0,0-.11-.53.76.76,0,0,0-.31-.33,1,1,0,0,0-.49-.11.84.84,0,0,0-.7.31,1.35,1.35,0,0,0-.25.86v1a1.31,1.31,0,0,0,.25.84.87.87,0,0,0,.7.3,1,1,0,0,0,.49-.11.74.74,0,0,0,.31-.32,1.13,1.13,0,0,0,.11-.51l.08,1.38a1.66,1.66,0,0,1-.58.78A1.54,1.54,0,0,1,737.28,563.05Zm1.42-.09v-8.52h1.6V563Z"/><path class="cls-8" d="M741.47,558.25v-1.37h3v1.37Zm2.17,4.71a1.5,1.5,0,0,1-1.18-.42,1.75,1.75,0,0,1-.36-1.19v-6.24h1.61V561a.66.66,0,0,0,.08.34.31.31,0,0,0,.26.12h.4V563Z"/><path class="cls-8" d="M748.52,563.05a2.82,2.82,0,0,1-2-.71,2.69,2.69,0,0,1-.73-2v-.68a3,3,0,0,1,.7-2.11,2.62,2.62,0,0,1,2-.74,2.19,2.19,0,0,1,1.86.89,4.11,4.11,0,0,1,.66,2.5v.4h-4.16v-1.09h2.7l0-.14a1.37,1.37,0,0,0-.33-.81.91.91,0,0,0-.71-.29,1.15,1.15,0,0,0-.9.34,1.38,1.38,0,0,0-.32,1v.78a1.26,1.26,0,0,0,.35,1,1.35,1.35,0,0,0,1,.34,1.91,1.91,0,0,0,1.22-.44l1,.93a3.46,3.46,0,0,1-1.06.67A3.21,3.21,0,0,1,748.52,563.05Z"/><path class="cls-9" d="M670.23,577.47a2.29,2.29,0,0,1-1.59-.56,2.6,2.6,0,0,1-.79-1.58h1.2a1.1,1.1,0,0,0,.37.73,1.23,1.23,0,0,0,.81.26,1.07,1.07,0,0,0,.89-.39,1.64,1.64,0,0,0,.31-1.08v-.73a1.67,1.67,0,0,0-.31-1.08,1.09,1.09,0,0,0-.89-.38,1.16,1.16,0,0,0-.6.18,1.66,1.66,0,0,0-.5.49H668v-4.49h4.34V570h-3.14v1.91a1.69,1.69,0,0,1,.49-.28,1.9,1.9,0,0,1,.57-.1,2.18,2.18,0,0,1,1.72.69,2.75,2.75,0,0,1,.61,1.92v.73a2.74,2.74,0,0,1-.63,1.93A2.28,2.28,0,0,1,670.23,577.47Z"/><path class="cls-9" d="M678.51,577.36l-2.78-8.52H677l2,6.68,2-6.68h1.31l-2.78,8.52Z"/><path class="cls-9" d="M683.54,570v-1.2h1.19V570Zm0,7.32v-6.08h1.19v6.08Z"/><path class="cls-9" d="M689.1,577.45a2.66,2.66,0,0,1-2-.71,2.77,2.77,0,0,1-.7-2V574a3.09,3.09,0,0,1,.67-2.11,2.44,2.44,0,0,1,1.89-.74,2.07,2.07,0,0,1,1.78.85,3.87,3.87,0,0,1,.63,2.36v.4h-4.1v-1h3a2.13,2.13,0,0,0-.39-1.16,1.08,1.08,0,0,0-.89-.41,1.29,1.29,0,0,0-1,.44,1.91,1.91,0,0,0-.38,1.26v.78a1.57,1.57,0,0,0,.4,1.16,1.5,1.5,0,0,0,1.13.4,1.91,1.91,0,0,0,1.36-.56l.78.79a3.24,3.24,0,0,1-1,.67A2.83,2.83,0,0,1,689.1,577.45Z"/><path class="cls-9" d="M693,577.36v-6.08h1.2v6.08Zm3.35-4.64a1.2,1.2,0,0,0-2.15.79l-.12-1.17a2.12,2.12,0,0,1,.72-.84,1.68,1.68,0,0,1,1-.31,1.92,1.92,0,0,1,1.34.47Z"/><path class="cls-9" d="M698.16,577.36v-8.52h1.2v8.52Zm.44-.89.08-1.42,3.13-3.77h1.4Zm3.61.89-2.12-3.51.77-.8,2.65,4.31Z"/><path class="cls-9" d="M706.45,577.45a2.62,2.62,0,0,1-1.67-.46,2.07,2.07,0,0,1,0-2.78,2.27,2.27,0,0,1,1.54-.45H708l.08,1h-1.81a1,1,0,0,0-.69.21.8.8,0,0,0-.24.64.81.81,0,0,0,.31.69,1.68,1.68,0,0,0,.93.22,2.6,2.6,0,0,0,1-.15.48.48,0,0,0,.34-.46l.13.86a1.39,1.39,0,0,1-.4.4,1.48,1.48,0,0,1-.54.24A2.82,2.82,0,0,1,706.45,577.45Zm1.49-.09V573.5a1.24,1.24,0,0,0-.32-.92,1.19,1.19,0,0,0-.9-.33,2.17,2.17,0,0,0-1.33.42l-.87-.6a2.29,2.29,0,0,1,.91-.65,3.31,3.31,0,0,1,1.25-.23,2.47,2.47,0,0,1,1.77.59,2.19,2.19,0,0,1,.63,1.67v3.91Z"/><path class="cls-9" d="M710.9,577.36v-6.08h1.19v6.08Zm3.69,0v-3.69a1.37,1.37,0,0,0-.34-1,1.45,1.45,0,0,0-1.84,0,1.16,1.16,0,0,0-.32.87l-.12-1.17a2.19,2.19,0,0,1,.73-.85,1.81,1.81,0,0,1,1-.3,1.89,1.89,0,0,1,1.53.65,2.77,2.77,0,0,1,.54,1.83v3.69Z"/><path class="cls-9" d="M717.13,572.36v-1.08h2.74v1.08Zm2,5a1.33,1.33,0,0,1-1.09-.42,1.85,1.85,0,0,1-.33-1.19v-6.24H719v6.25a.55.55,0,0,0,.09.34.31.31,0,0,0,.26.12h.57v1.14Z"/><path class="cls-9" d="M724.06,577.45a2.66,2.66,0,0,1-2-.71,2.76,2.76,0,0,1-.69-2V574a3,3,0,0,1,.67-2.11,2.41,2.41,0,0,1,1.89-.74,2.09,2.09,0,0,1,1.78.85,3.87,3.87,0,0,1,.63,2.36v.4h-4.11v-1h3a2.05,2.05,0,0,0-.39-1.16,1.08,1.08,0,0,0-.88-.41,1.32,1.32,0,0,0-1.05.44,1.91,1.91,0,0,0-.38,1.26v.78a1.62,1.62,0,0,0,.4,1.16,1.51,1.51,0,0,0,1.13.4,1.89,1.89,0,0,0,1.36-.56l.79.79a3.28,3.28,0,0,1-1,.67A2.83,2.83,0,0,1,724.06,577.45Z"/><path class="cls-9" d="M728,577.36v-6.08h1.19v6.08Zm3.69,0v-3.69a1.37,1.37,0,0,0-.34-1,1.45,1.45,0,0,0-1.84,0,1.16,1.16,0,0,0-.32.87l-.12-1.17a2.19,2.19,0,0,1,.73-.85,1.81,1.81,0,0,1,1-.3,1.89,1.89,0,0,1,1.53.65,2.77,2.77,0,0,1,.54,1.83v3.69Z"/><path class="cls-8" d="M71.63,331.8l-2.83-8.52h1.65L72.26,329l1.81-5.69h1.65l-2.83,8.52Z"/><path class="cls-8" d="M78.46,331.89a2.59,2.59,0,0,1-1.93-.69,2.68,2.68,0,0,1-.69-2v-1a2.63,2.63,0,1,1,5.25,0v1a2.4,2.4,0,0,1-2.63,2.63Zm0-1.55a1,1,0,0,0,.75-.28,1.12,1.12,0,0,0,.27-.8v-1a1.1,1.1,0,0,0-.27-.79,1,1,0,0,0-.75-.28,1,1,0,0,0-.75.28,1.09,1.09,0,0,0-.26.79v1a1.12,1.12,0,0,0,.26.8A1,1,0,0,0,78.46,330.34Z"/><path class="cls-8" d="M84.16,323.28v6.51a.42.42,0,0,0,.13.34.45.45,0,0,0,.36.13h.27v1.54H84.1a1.51,1.51,0,0,1-1.14-.42,1.65,1.65,0,0,1-.41-1.19v-6.91Z"/><path class="cls-8" d="M87.63,323.28v6.51a.46.46,0,0,0,.13.34.45.45,0,0,0,.36.13h.27v1.54h-.82a1.51,1.51,0,0,1-1.14-.42,1.65,1.65,0,0,1-.4-1.19v-6.91Z"/><path class="cls-8" d="M92.17,331.89a2.85,2.85,0,0,1-2.06-.71,2.7,2.7,0,0,1-.72-2v-.69a2.93,2.93,0,0,1,.7-2.1,2.55,2.55,0,0,1,2-.75,2.19,2.19,0,0,1,1.87.89,4.13,4.13,0,0,1,.66,2.5v.4H90.43v-1.09h2.69v-.14a1.58,1.58,0,0,0-.33-.81.93.93,0,0,0-.72-.29,1.19,1.19,0,0,0-.9.35,1.41,1.41,0,0,0-.31,1v.77a1.3,1.3,0,0,0,.34,1,1.34,1.34,0,0,0,1,.34,1.88,1.88,0,0,0,1.21-.44l1.05.93a3.28,3.28,0,0,1-1.06.67A3.21,3.21,0,0,1,92.17,331.89Z"/><path class="cls-8" d="M97.87,331.89a1.81,1.81,0,0,1-1.52-.69,3.13,3.13,0,0,1-.53-1.94v-1a3.18,3.18,0,0,1,.53-2,1.82,1.82,0,0,1,1.52-.7,1.47,1.47,0,0,1,.88.29,2,2,0,0,1,.65.83l-.12,1.34a1.17,1.17,0,0,0-.11-.52.67.67,0,0,0-.31-.33.91.91,0,0,0-.49-.12.84.84,0,0,0-.7.31,1.35,1.35,0,0,0-.24.86v1a1.29,1.29,0,0,0,.24.84.87.87,0,0,0,.7.3.91.91,0,0,0,.49-.11.69.69,0,0,0,.31-.32,1.13,1.13,0,0,0,.11-.51l.08,1.39a1.68,1.68,0,0,1-.57.77A1.58,1.58,0,0,1,97.87,331.89Zm1.41-.09v-8.52h1.6v8.52Z"/><path class="cls-8" d="M102.44,324.89v-1.61H104v1.61Zm0,6.91v-6.08H104v6.08Z"/><path class="cls-8" d="M107.4,331.89a1.8,1.8,0,0,1-1.51-.69,3.13,3.13,0,0,1-.53-1.94v-1a3.18,3.18,0,0,1,.53-2,1.81,1.81,0,0,1,1.51-.7,1.5,1.5,0,0,1,.89.29,2,2,0,0,1,.65.83l-.12,1.34a1.17,1.17,0,0,0-.11-.52.67.67,0,0,0-.31-.33.91.91,0,0,0-.49-.12.84.84,0,0,0-.7.31,1.35,1.35,0,0,0-.25.86v1a1.29,1.29,0,0,0,.25.84.87.87,0,0,0,.7.3.91.91,0,0,0,.49-.11.69.69,0,0,0,.31-.32,1.13,1.13,0,0,0,.11-.51l.08,1.39a1.63,1.63,0,0,1-.58.77A1.54,1.54,0,0,1,107.4,331.89Zm.29,2.39a3.18,3.18,0,0,1-1.3-.26,1.9,1.9,0,0,1-.88-.72l1.07-1a1.44,1.44,0,0,0,1.09.47,1.25,1.25,0,0,0,.82-.27.94.94,0,0,0,.33-.77v-6h1.6v5.9a2.62,2.62,0,0,1-.71,2A2.78,2.78,0,0,1,107.69,334.28Z"/><path class="cls-8" d="M114.17,331.8v-8.52h1.61v8.52Zm.72,0v-1.54h5v1.54Z"/><path class="cls-8" d="M123.38,331.89a2.63,2.63,0,0,1-1.94-.69,2.72,2.72,0,0,1-.68-2v-1a2.38,2.38,0,0,1,2.62-2.62,2.4,2.4,0,0,1,2.63,2.62v1a2.4,2.4,0,0,1-2.63,2.63Zm0-1.55a1,1,0,0,0,.75-.28,1.12,1.12,0,0,0,.27-.8v-1a1.1,1.1,0,0,0-.27-.79,1,1,0,0,0-.75-.28,1,1,0,0,0-.75.28,1.1,1.1,0,0,0-.27.79v1a1.12,1.12,0,0,0,.27.8A1,1,0,0,0,123.38,330.34Z"/><path class="cls-8" d="M129.34,331.89a1.8,1.8,0,0,1-1.51-.69,3.07,3.07,0,0,1-.53-1.94v-1a3.11,3.11,0,0,1,.53-2,1.81,1.81,0,0,1,1.51-.7,1.5,1.5,0,0,1,.89.29,2.12,2.12,0,0,1,.65.83l-.13,1.34a1.18,1.18,0,0,0-.1-.52.67.67,0,0,0-.31-.33.94.94,0,0,0-.49-.12.84.84,0,0,0-.7.31,1.35,1.35,0,0,0-.25.86v1a1.29,1.29,0,0,0,.25.84.87.87,0,0,0,.7.3.94.94,0,0,0,.49-.11.69.69,0,0,0,.31-.32,1.13,1.13,0,0,0,.1-.51l.09,1.39a1.63,1.63,0,0,1-.58.77A1.56,1.56,0,0,1,129.34,331.89Zm.29,2.39a3.14,3.14,0,0,1-1.3-.26,1.93,1.93,0,0,1-.89-.72l1.08-1a1.43,1.43,0,0,0,1.09.47,1.25,1.25,0,0,0,.82-.27,1,1,0,0,0,.32-.77v-6h1.61v5.9a2.62,2.62,0,0,1-.71,2A2.8,2.8,0,0,1,129.63,334.28Z"/><path class="cls-8" d="M136.39,331.89a2.61,2.61,0,0,1-1.94-.69,2.67,2.67,0,0,1-.68-2v-1a2.63,2.63,0,1,1,5.25,0v1a2.4,2.4,0,0,1-2.63,2.63Zm0-1.55a1,1,0,0,0,.76-.28,1.12,1.12,0,0,0,.27-.8v-1a1.1,1.1,0,0,0-.27-.79,1.16,1.16,0,0,0-1.51,0,1.14,1.14,0,0,0-.26.79v1a1.17,1.17,0,0,0,.26.8A1,1,0,0,0,136.38,330.34Z"/><path class="cls-8" d="M142.65,331.8v-8.52h1.66v8.52Zm.74-3.42v-1.6h5v1.6Zm3.86,3.42v-8.52h1.67v8.52Z"/><path class="cls-8" d="M153.12,331.89a2.59,2.59,0,0,1-1.93-.69,2.68,2.68,0,0,1-.69-2v-1a2.63,2.63,0,1,1,5.25,0v1a2.4,2.4,0,0,1-2.63,2.63Zm0-1.55a1,1,0,0,0,.75-.28,1.12,1.12,0,0,0,.27-.8v-1a1.1,1.1,0,0,0-.27-.79,1,1,0,0,0-.75-.28,1,1,0,0,0-.75.28,1.09,1.09,0,0,0-.26.79v1a1.12,1.12,0,0,0,.26.8A1,1,0,0,0,153.12,330.34Z"/><path class="cls-8" d="M159.66,331.89a2.63,2.63,0,0,1-1.94-.69,2.72,2.72,0,0,1-.68-2v-1a2.38,2.38,0,0,1,2.62-2.62,2.4,2.4,0,0,1,2.63,2.62v1a2.4,2.4,0,0,1-2.63,2.63Zm0-1.55a1,1,0,0,0,.75-.28,1.12,1.12,0,0,0,.27-.8v-1a1.1,1.1,0,0,0-.27-.79,1,1,0,0,0-.75-.28,1,1,0,0,0-.75.28,1.1,1.1,0,0,0-.27.79v1a1.12,1.12,0,0,0,.27.8A1,1,0,0,0,159.66,330.34Z"/><path class="cls-8" d="M165.62,331.89a1.8,1.8,0,0,1-1.51-.69,3.13,3.13,0,0,1-.53-1.94v-1a3.18,3.18,0,0,1,.53-2,1.81,1.81,0,0,1,1.51-.7,1.5,1.5,0,0,1,.89.29,2.12,2.12,0,0,1,.65.83l-.12,1.34a1.17,1.17,0,0,0-.11-.52.67.67,0,0,0-.31-.33.94.94,0,0,0-.49-.12.84.84,0,0,0-.7.31,1.35,1.35,0,0,0-.25.86v1a1.29,1.29,0,0,0,.25.84.87.87,0,0,0,.7.3.94.94,0,0,0,.49-.11.69.69,0,0,0,.31-.32,1.13,1.13,0,0,0,.11-.51l.08,1.39a1.63,1.63,0,0,1-.58.77A1.54,1.54,0,0,1,165.62,331.89Zm.29,2.39a3.18,3.18,0,0,1-1.3-.26,2,2,0,0,1-.89-.72l1.08-1a1.43,1.43,0,0,0,1.09.47,1.25,1.25,0,0,0,.82-.27.94.94,0,0,0,.33-.77v-6h1.6v5.9a2.62,2.62,0,0,1-.71,2A2.8,2.8,0,0,1,165.91,334.28Z"/><path class="cls-8" d="M169.75,327.09v-1.37h3v1.37Zm2.17,4.71a1.53,1.53,0,0,1-1.18-.41,1.79,1.79,0,0,1-.36-1.2V324H172v5.84a.63.63,0,0,0,.08.34.29.29,0,0,0,.26.13h.4v1.54Z"/><path class="cls-8" d="M176.8,331.89a2.82,2.82,0,0,1-2.05-.71,2.67,2.67,0,0,1-.73-2v-.69a2.93,2.93,0,0,1,.7-2.1,2.59,2.59,0,0,1,2-.75,2.19,2.19,0,0,1,1.86.89,4.13,4.13,0,0,1,.66,2.5v.4h-4.16v-1.09h2.7l0-.14a1.43,1.43,0,0,0-.33-.81.91.91,0,0,0-.71-.29,1.16,1.16,0,0,0-.9.35,1.36,1.36,0,0,0-.32,1v.77a1.26,1.26,0,0,0,.35,1,1.3,1.3,0,0,0,1,.34,1.91,1.91,0,0,0,1.22-.44l1,.93a3.28,3.28,0,0,1-1.06.67A3.21,3.21,0,0,1,176.8,331.89Z"/><path class="cls-9" d="M104.84,346.2v-1l3-4a2.8,2.8,0,0,0,.4-.71,1.78,1.78,0,0,0,.15-.68h0a1.06,1.06,0,0,0-.3-.81,1.18,1.18,0,0,0-.85-.28,1.16,1.16,0,0,0-.84.31,1.39,1.39,0,0,0-.4.88h-1.23a2.78,2.78,0,0,1,.8-1.72,2.3,2.3,0,0,1,1.66-.61,2.49,2.49,0,0,1,1.77.58,2.18,2.18,0,0,1,.63,1.66h0a2.59,2.59,0,0,1-.19.95,3.7,3.7,0,0,1-.52,1l-2.46,3.35h3.22v1.13Z"/><path class="cls-9" d="M111.05,347.39V345h1.2v1.19Z"/><path class="cls-9" d="M116.27,346.31a2.33,2.33,0,0,1-1.6-.56,2.61,2.61,0,0,1-.78-1.58h1.2a1.07,1.07,0,0,0,.36.73,1.26,1.26,0,0,0,.82.26,1.11,1.11,0,0,0,.89-.38,1.67,1.67,0,0,0,.31-1.08V343a1.63,1.63,0,0,0-.31-1.07,1.08,1.08,0,0,0-.89-.39,1.11,1.11,0,0,0-.6.18,1.66,1.66,0,0,0-.5.49h-1.09v-4.49h4.34v1.14h-3.15v1.92a1.65,1.65,0,0,1,.5-.28,1.54,1.54,0,0,1,.56-.1,2.18,2.18,0,0,1,1.73.68,2.82,2.82,0,0,1,.61,1.92v.74a2.75,2.75,0,0,1-.63,1.93A2.31,2.31,0,0,1,116.27,346.31Z"/><path class="cls-9" d="M124.55,346.2l-2.78-8.52h1.3l2.05,6.68,2-6.68h1.3l-2.77,8.52Z"/><path class="cls-9" d="M129.58,338.88v-1.2h1.19v1.2Zm0,7.32v-6.08h1.19v6.08Z"/><path class="cls-9" d="M135.14,346.29a2.63,2.63,0,0,1-2-.7,2.74,2.74,0,0,1-.7-2v-.69a3,3,0,0,1,.67-2.1A2.41,2.41,0,0,1,135,340a2.1,2.1,0,0,1,1.78.85,3.91,3.91,0,0,1,.63,2.37v.39h-4.1v-1h3a2,2,0,0,0-.38-1.15,1.08,1.08,0,0,0-.89-.42,1.29,1.29,0,0,0-1.05.45,1.88,1.88,0,0,0-.37,1.26v.77a1.57,1.57,0,0,0,.4,1.16,1.5,1.5,0,0,0,1.13.41,2,2,0,0,0,1.36-.56l.78.78a3.18,3.18,0,0,1-1,.67A2.87,2.87,0,0,1,135.14,346.29Z"/><path class="cls-9" d="M139.08,346.2v-6.08h1.2v6.08Zm3.35-4.64a1.19,1.19,0,0,0-1-.39,1.21,1.21,0,0,0-.88.31,1.17,1.17,0,0,0-.31.87l-.13-1.17a2.23,2.23,0,0,1,.73-.84,1.7,1.7,0,0,1,1-.31,1.85,1.85,0,0,1,1.34.48Z"/><path class="cls-9" d="M144.2,346.2v-8.52h1.2v8.52Zm.44-.89.08-1.41,3.13-3.78h1.4Zm3.61.89-2.12-3.51.77-.79,2.65,4.3Z"/><path class="cls-9" d="M152.49,346.29a2.61,2.61,0,0,1-1.68-.46,1.75,1.75,0,0,1-.56-1.42,1.71,1.71,0,0,1,.51-1.35,2.28,2.28,0,0,1,1.54-.45H154l.09,1h-1.81a1,1,0,0,0-.7.21.81.81,0,0,0-.23.63.79.79,0,0,0,.31.69,1.6,1.6,0,0,0,.93.22,2.67,2.67,0,0,0,1-.15.47.47,0,0,0,.34-.45l.12.85a1.27,1.27,0,0,1-.39.41,1.87,1.87,0,0,1-.54.23A2.4,2.4,0,0,1,152.49,346.29Zm1.49-.09v-3.85a1.3,1.3,0,0,0-.32-.93,1.19,1.19,0,0,0-.9-.33,2.15,2.15,0,0,0-1.33.42l-.88-.6a2.34,2.34,0,0,1,.91-.64,3.22,3.22,0,0,1,1.26-.24,2.46,2.46,0,0,1,1.77.6,2.17,2.17,0,0,1,.63,1.67v3.9Z"/><path class="cls-9" d="M156.93,346.2v-6.08h1.2v6.08Zm3.69,0v-3.68a1.38,1.38,0,0,0-.33-1,1.43,1.43,0,0,0-1.84,0,1.18,1.18,0,0,0-.32.87l-.12-1.17a2.18,2.18,0,0,1,.73-.85,1.79,1.79,0,0,1,1-.3,1.89,1.89,0,0,1,1.53.65,2.77,2.77,0,0,1,.54,1.83v3.69Z"/><path class="cls-9" d="M163.17,341.2v-1.08h2.74v1.08Zm2.05,5a1.32,1.32,0,0,1-1.09-.41,1.9,1.9,0,0,1-.34-1.2v-6.24H165v6.25a.55.55,0,0,0,.09.34.28.28,0,0,0,.26.13h.57v1.13Z"/><path class="cls-9" d="M170.1,346.29a2.65,2.65,0,0,1-2-.7,2.78,2.78,0,0,1-.7-2v-.69a3.06,3.06,0,0,1,.67-2.1A2.41,2.41,0,0,1,170,340a2.1,2.1,0,0,1,1.78.85,3.91,3.91,0,0,1,.63,2.37v.39h-4.1v-1h3a2.1,2.1,0,0,0-.39-1.15,1.06,1.06,0,0,0-.89-.42,1.27,1.27,0,0,0-1,.45,1.88,1.88,0,0,0-.38,1.26v.77a1.57,1.57,0,0,0,.4,1.16,1.5,1.5,0,0,0,1.13.41,2,2,0,0,0,1.36-.56l.78.78a3.07,3.07,0,0,1-1,.67A2.83,2.83,0,0,1,170.1,346.29Z"/><path class="cls-9" d="M174,346.2v-6.08h1.2v6.08Zm3.69,0v-3.68a1.38,1.38,0,0,0-.33-1,1.43,1.43,0,0,0-1.84,0,1.14,1.14,0,0,0-.32.87l-.12-1.17a2.18,2.18,0,0,1,.73-.85,1.79,1.79,0,0,1,1-.3,1.89,1.89,0,0,1,1.53.65,2.77,2.77,0,0,1,.54,1.83v3.69Z"/></svg>