<svg xmlns="http://www.w3.org/2000/svg" viewBox="0 0 1158 518"><defs><style>.cls-1{fill:none;}.cls-2{fill:#3f3e3e;}</style></defs><title>lora</title><g id="Layer_2" data-name="Layer 2"><g id="Layer_1-2" data-name="Layer 1"><rect class="cls-1" width="1158" height="518"/><path class="cls-2" d="M352,318a148.05,148.05,0,0,1,6.21,19.1q2.59,10.29,2.28,16.81l22.2-1.3V367H307.94V356.2q19.26-.33,19.26-15.67,0-6.19-3.26-15.34L312.51,294.5l-84.87,2q-4.9,13.4-11.43,34.93a235.23,235.23,0,0,1-8.16,22.52l25.47-1.3V367H172.47V356.2q8.16,0,13.06-3.76a28.53,28.53,0,0,0,8-9.79,155,155,0,0,0,7.34-18.12l3.27-9.14,67.24-183.13h7.84ZM269.42,179.92l-13.71,36.89-17.62,49.62-5.55,16h75.4l-23.17-62.35-14.69-40.15Z"/><path class="cls-2" d="M513.6,213.05q13,14.53,12.73,45.87L526,332.37a201.68,201.68,0,0,1-1.31,22.2l23.18-1.31V367H501.19q-1-4.89-2.28-18.61-23.84,23.83-51.26,23.83-23.82,0-36.39-10.77t-12.57-28.07q0-18.93,15.18-32t38.19-19.43a164.22,164.22,0,0,1,46.19-6V255.65q0-21.21-6.2-33.13t-26.44-11.91a45.16,45.16,0,0,0-19.26,4.24A27.24,27.24,0,0,0,433,227.58q4.25,4.57,4.25,12.41a14.54,14.54,0,0,1-3.59,9.3q-3.6,4.41-10.45,4.41t-10.77-4.41q-3.91-4.41-3.92-11.59,0-10.77,8.33-19.75T440,203.75a99.45,99.45,0,0,1,33.14-5.22Q500.54,198.53,513.6,213.05Zm-63,84.88q-20.89,10-20.89,30.52,0,12.07,7.18,18.61t18.28,6.53a52.49,52.49,0,0,0,22.53-4.74,80.35,80.35,0,0,0,20.56-14.52q-.33-4.9-.32-16.65l.32-30.69Q471.49,288,450.59,297.93Z"/><path class="cls-2" d="M600.59,255.06a9.31,9.31,0,0,0-2.84.45,2.85,2.85,0,0,0-1.52,1.63,10.32,10.32,0,0,0-.56,3.95v26.52a55.57,55.57,0,0,1-.27,6.1h9.28a8,8,0,0,0,6.44-2.95c1.52-1.91,2.28-4.72,2.28-8.41H618L617.63,299H580.71V294.4a9.25,9.25,0,0,0,2.84-.45,2.87,2.87,0,0,0,1.53-1.63,10.39,10.39,0,0,0,.55-3.95V261.85a54.45,54.45,0,0,1,.28-6.24l-5.2.21v-5.33h19.88Z"/><path class="cls-2" d="M647.62,265.38a15.61,15.61,0,0,1,6.23,6.2,19,19,0,0,1,2.29,9.45,21.78,21.78,0,0,1-2.19,10,16,16,0,0,1-6.09,6.65,17.06,17.06,0,0,1-9,2.36,18.93,18.93,0,0,1-9.07-2.15,15.5,15.5,0,0,1-6.3-6.16,18.54,18.54,0,0,1-2.29-9.35,20.69,20.69,0,0,1,2.35-10,17.51,17.51,0,0,1,6.34-6.78,16.52,16.52,0,0,1,8.76-2.43A18.41,18.41,0,0,1,647.62,265.38Zm-14.48,6.3a20.45,20.45,0,0,0-1.73,8.87,25.75,25.75,0,0,0,1.87,10.32c1.25,2.86,3.16,4.29,5.75,4.29a5.38,5.38,0,0,0,5.33-3.53,22.41,22.41,0,0,0,1.53-8.87,27.8,27.8,0,0,0-1.74-10.32c-1.15-2.9-3-4.36-5.47-4.36A5.78,5.78,0,0,0,633.14,271.68Z"/><path class="cls-2" d="M689.41,264.69a5.81,5.81,0,0,1,.52,7.62,4.19,4.19,0,0,1-3.53,1.52,5.43,5.43,0,0,1-3.08-.9,4,4,0,0,1-1.56-3.12q-1.93,0-4,2.25a12.19,12.19,0,0,0-2.74,4.47v11.29q0,3.33-.27,6.09c1.47-.13,3-.2,4.5-.2V299H661.12v-4.5c1.76,0,2.88-.49,3.36-1.46a11.09,11.09,0,0,0,.73-4.71V276.67a57.74,57.74,0,0,1,.28-5.89l-4.85.21v-5.26a32.08,32.08,0,0,0,7.06-.63,8.44,8.44,0,0,0,3.6-1.45h3.4c.09.69.16,1.59.2,2.7s.07,2.19.07,3.25h.14q4.71-6.36,10-6.37A6.4,6.4,0,0,1,689.41,264.69Z"/><path class="cls-2" d="M722.21,276.46l-.07,11.36a59.69,59.69,0,0,1-.28,6.09c1.53-.13,3-.2,4.5-.2V299H713.27c-.09-.6-.18-1.66-.27-3.19h-.07a13.84,13.84,0,0,1-10.25,4.3,9.17,9.17,0,0,1-6.89-2.6,9.06,9.06,0,0,1-2.53-6.61q0-6.11,5.68-9.25a30.49,30.49,0,0,1,13.64-3.5v-3.6q0-6.3-4.71-6.3a6.74,6.74,0,0,0-5,1.94,3.93,3.93,0,0,1,.83,2.63,4.39,4.39,0,0,1-1.15,3,4.18,4.18,0,0,1-3.35,1.31,4.09,4.09,0,0,1-3.26-1.35,4.91,4.91,0,0,1-1.18-3.36,6.78,6.78,0,0,1,1.94-4.77,12.58,12.58,0,0,1,5.3-3.22,22.58,22.58,0,0,1,7.38-1.15Q722.21,263.23,722.21,276.46Zm-16.45,8.66a5.09,5.09,0,0,0-2.67,4.5,3.31,3.31,0,0,0,1.15,2.77,4.37,4.37,0,0,0,2.8.9,7.31,7.31,0,0,0,5.47-2.49V283A15.67,15.67,0,0,0,705.76,285.12Z"/><path class="cls-2" d="M781.36,253.33a10,10,0,0,1,4.7,8.93,9.3,9.3,0,0,1-2.52,6.27,14.68,14.68,0,0,1-7.45,4.19v.07q6.64,1,10,4.43a10.9,10.9,0,0,1,3.4,8q0,6.57-4.68,10.18T772.7,299H749.15V294.4A9.31,9.31,0,0,0,752,294a2.85,2.85,0,0,0,1.52-1.63,10.35,10.35,0,0,0,.56-3.95V261.85a57.26,57.26,0,0,1,.27-6.24l-5.19.21v-5.33l19.18-.14Q776.66,250.28,781.36,253.33Zm-17.25,23.34V288a52.76,52.76,0,0,1-.28,6.09q4.57,0,6.72-.07a8.08,8.08,0,0,0,6.1-2.59,9.7,9.7,0,0,0,2-6.41q0-4.43-2.56-6.41a10.16,10.16,0,0,0-6.37-2C767.18,276.6,765.31,276.62,764.11,276.67ZM766,255.54a2.76,2.76,0,0,0-1.39,1.63,10.76,10.76,0,0,0-.52,3.85v10.73l3.6-.07c2.73,0,4.7-.91,5.92-2.59a11.11,11.11,0,0,0,1.84-6.69c0-2.49-.69-4.32-2.08-5.47a7.65,7.65,0,0,0-5.06-1.73A6.33,6.33,0,0,0,766,255.54Z"/><path class="cls-2" d="M820,265.38a15.7,15.7,0,0,1,6.24,6.2,18.94,18.94,0,0,1,2.28,9.45,21.91,21.91,0,0,1-2.18,10,16,16,0,0,1-6.1,6.65,17,17,0,0,1-9,2.36,19,19,0,0,1-9.08-2.15,15.5,15.5,0,0,1-6.3-6.16,18.64,18.64,0,0,1-2.29-9.35,20.7,20.7,0,0,1,2.36-10,17.43,17.43,0,0,1,6.34-6.78,16.47,16.47,0,0,1,8.76-2.43A18.4,18.4,0,0,1,820,265.38Zm-14.47,6.3a20.3,20.3,0,0,0-1.73,8.87,25.75,25.75,0,0,0,1.87,10.32c1.24,2.86,3.16,4.29,5.74,4.29a5.41,5.41,0,0,0,5.34-3.53,22.6,22.6,0,0,0,1.52-8.87,28,28,0,0,0-1.73-10.32c-1.16-2.9-3-4.36-5.47-4.36A5.77,5.77,0,0,0,805.53,271.68Z"/><path class="cls-2" d="M846,287.82q0,3.33-.27,6.09c1.52-.13,3-.2,4.5-.2V299H832.12v-4.5a4.2,4.2,0,0,0,2.74-.73,3.32,3.32,0,0,0,1.11-2,19.39,19.39,0,0,0,.24-3.47V259.84a57.93,57.93,0,0,1,.28-6l-4.85.21v-5.26a32.08,32.08,0,0,0,7.06-.63,8.44,8.44,0,0,0,3.6-1.45H846Z"/><path class="cls-2" d="M887.32,287.82a59.69,59.69,0,0,1-.28,6.09c1.53-.13,3-.2,4.51-.2V299H878.39l-.35-3.19H878a13,13,0,0,1-9.76,4.3,12.68,12.68,0,0,1-7.31-2.15A14.11,14.11,0,0,1,856,291.8a24.62,24.62,0,0,1,.38-19.18,16.59,16.59,0,0,1,6.06-6.89,16.28,16.28,0,0,1,9-2.5,18.57,18.57,0,0,1,6.17,1.25v-4.57q0-3.33.27-6.1c-1.52.14-3.16.21-4.91.21v-5.26a32.14,32.14,0,0,0,7.06-.63,8.44,8.44,0,0,0,3.6-1.45h3.74Zm-21-15.65a20.48,20.48,0,0,0-1.9,9.35,19,19,0,0,0,1.83,8.62,5.94,5.94,0,0,0,5.58,3.64,6.27,6.27,0,0,0,3.25-.9,7.35,7.35,0,0,0,2.5-2.43V269.67a6.68,6.68,0,0,0-2.15-.93,10.62,10.62,0,0,0-2.77-.38A6.68,6.68,0,0,0,866.3,272.17Z"/><path class="cls-2" d="M596.64,320.77a5,5,0,0,0-3.46,1.11,4,4,0,0,0-1.18,2.46c-.09,1-.14,2.6-.14,5V359a51.39,51.39,0,0,1-.2,5.4l13-.21q4.42-.07,6.65-2.8t2.21-8.77h2.36L615.41,367H581.06v-2.29a5,5,0,0,0,3.46-1.1,3.92,3.92,0,0,0,1.18-2.46c.09-.95.14-2.6.14-4.95V326.25c0-1.94.07-3.61.21-5l-5,.28v-3.05h15.58Z"/><path class="cls-2" d="M646.3,333.55a17.07,17.07,0,0,1,6.34,6.34,17.52,17.52,0,0,1,2.32,8.93,20.55,20.55,0,0,1-2.32,9.7,18.18,18.18,0,0,1-6.3,7,16.06,16.06,0,0,1-8.83,2.56,17.54,17.54,0,0,1-8.77-2.25,16.64,16.64,0,0,1-6.3-6.27,17.77,17.77,0,0,1-2.32-9.07,20.85,20.85,0,0,1,2.29-9.8,17.6,17.6,0,0,1,6.27-6.93,16.15,16.15,0,0,1,8.83-2.53A17.34,17.34,0,0,1,646.3,333.55Zm-16.52,4.54a19.51,19.51,0,0,0-2.59,10.39,27.29,27.29,0,0,0,1.21,8.27,14.34,14.34,0,0,0,3.67,6.2,8.33,8.33,0,0,0,6,2.36,8,8,0,0,0,7.45-4.16,20.46,20.46,0,0,0,2.38-10.32,25.68,25.68,0,0,0-2.59-12q-2.59-5-7.79-5A8.49,8.49,0,0,0,629.78,338.09Z"/><path class="cls-2" d="M685.92,332.34a3.94,3.94,0,0,1,1.38,3.26,3.61,3.61,0,0,1-.86,2.21,2.94,2.94,0,0,1-2.46,1.11,3.14,3.14,0,0,1-2.5-1.14,3.39,3.39,0,0,1-.76-2.74,8.34,8.34,0,0,0-5.3,2,17.36,17.36,0,0,0-4.53,5.54l.07,17a30.15,30.15,0,0,1-.28,4.71l4.36-.21V367H660.85v-2.08a3.62,3.62,0,0,0,2.87-1,4.63,4.63,0,0,0,1-2.56c.11-1,.17-2.67.17-4.89V340.65a27.21,27.21,0,0,1,.28-4.5l-4.92.21v-2.84h2.15a11.65,11.65,0,0,0,3.81-.45,6.76,6.76,0,0,0,2.21-1.42h2c.19,1.8.3,4.08.35,6.85a16.81,16.81,0,0,1,4.95-5.05,11.61,11.61,0,0,1,6.68-2.22A5.39,5.39,0,0,1,685.92,332.34Z"/><path class="cls-2" d="M714,334.31q2.76,3.09,2.7,9.74l-.07,15.58a41.46,41.46,0,0,1-.28,4.71l4.92-.28V367h-9.9c-.14-.69-.31-2-.49-4q-5.05,5.06-10.87,5.06-5.06,0-7.73-2.29a7.48,7.48,0,0,1-2.66-6,8.62,8.62,0,0,1,3.22-6.79,20.67,20.67,0,0,1,8.1-4.12,34.64,34.64,0,0,1,9.8-1.28v-4.3a15.56,15.56,0,0,0-1.31-7q-1.32-2.52-5.61-2.52a9.57,9.57,0,0,0-4.09.9,5.79,5.79,0,0,0-2.84,2.7,3.7,3.7,0,0,1,.9,2.63,3.06,3.06,0,0,1-.76,2,2.69,2.69,0,0,1-2.22.94,2.86,2.86,0,0,1-2.28-.94,3.52,3.52,0,0,1-.83-2.46,6,6,0,0,1,1.76-4.19,12,12,0,0,1,4.92-3,21,21,0,0,1,7-1.11Q711.27,331.23,714,334.31Zm-13.37,18q-4.42,2.12-4.43,6.48a5.09,5.09,0,0,0,1.52,3.95,5.57,5.57,0,0,0,3.88,1.38,11.15,11.15,0,0,0,4.78-1,17.08,17.08,0,0,0,4.36-3.09c0-.69-.07-1.87-.07-3.53l.07-6.51A25.43,25.43,0,0,0,700.67,352.32Z"/><path class="cls-2" d="M775.23,321.71a10.41,10.41,0,0,1,4.53,9.11,13.44,13.44,0,0,1-2.84,8.59q-2.91,3.81-10.11,5.26a11.52,11.52,0,0,1,2.15,2.15q1,1.24,2.63,3.87l4.71,7.42a44.33,44.33,0,0,0,2.53,3.7,8,8,0,0,0,2.42,2.08,7.08,7.08,0,0,0,3.5.79V367H776a21.45,21.45,0,0,1-3.15-3.29c-.85-1.13-1.86-2.6-3-4.4l-4.64-7.41-.9-1.45c-.74-1.25-1.39-2.26-1.94-3.05a14.17,14.17,0,0,0-1.8-2.08,18.3,18.3,0,0,1-1.94.07c-1.25,0-2.17,0-2.77-.07v13.44a51.67,51.67,0,0,1-.21,5.47l5-.28V367H745.06v-2.29a5,5,0,0,0,3.47-1.1,4,4,0,0,0,1.17-2.46c.1-.95.14-2.6.14-4.95V326.25c0-1.94.07-3.61.21-5l-5,.28v-3.05c4.81-.09,8.43-.14,10.88-.14,2.21,0,3.88,0,5,.07Q770.69,318.55,775.23,321.71Zm-18.05.31a3.62,3.62,0,0,0-1.17,2.36c-.1.92-.14,2.56-.14,4.91v13.3c1.38.09,2.4.14,3,.14q14.12,0,14.12-11.15,0-5.26-3-7.9c-2-1.75-5.15-2.63-9.35-2.63A5,5,0,0,0,757.18,322Z"/><path class="cls-2" d="M811.76,333a12.65,12.65,0,0,1,5.06,5.16,17.47,17.47,0,0,1,1.87,8.42l-24.38.41c0,5.55.86,9.86,2.73,13s4.77,4.64,8.7,4.64a14.69,14.69,0,0,0,6.54-1.67,14,14,0,0,0,5.16-4.08l1.66,1.38a16.12,16.12,0,0,1-6.82,6,19.49,19.49,0,0,1-8.21,1.94,16.75,16.75,0,0,1-8.62-2.25,15.91,15.91,0,0,1-6.06-6.44,20.38,20.38,0,0,1-2.22-9.67,19.4,19.4,0,0,1,2.22-9.1,17.57,17.57,0,0,1,6.2-6.82,16.33,16.33,0,0,1,9-2.57A14.72,14.72,0,0,1,811.76,333Zm-17.24,11.09h17.66a13.23,13.23,0,0,0-1.87-7.14,6.21,6.21,0,0,0-5.61-3Q796.11,333.93,794.52,344.05Z"/><path class="cls-2" d="M860.24,328a3.35,3.35,0,0,1,1,2.53,3,3,0,0,1-.73,1.9,2.48,2.48,0,0,1-2.11.94,3.07,3.07,0,0,1-2-.69,3,3,0,0,1-1-1.73,3.74,3.74,0,0,0-2.63,1.48,8.09,8.09,0,0,0-1.38,3.09,11.52,11.52,0,0,1,2.7,3.74,10.9,10.9,0,0,1,1,4.5,12.21,12.21,0,0,1-2,6.86,13.93,13.93,0,0,1-5.37,4.77,15.5,15.5,0,0,1-7.24,1.74c-.6,0-1.36-.05-2.28-.14a12,12,0,0,0-2.36-.21,7,7,0,0,0-3.84,1,2.9,2.9,0,0,0-1.56,2.46c0,1.34.84,2.23,2.53,2.67a44.15,44.15,0,0,0,8.62.86q8.52.42,12.78,2.74t4.26,7.65a8.75,8.75,0,0,1-2.46,6.17,15.7,15.7,0,0,1-6.37,4,24.05,24.05,0,0,1-8.14,1.39,30.94,30.94,0,0,1-9.83-1.32A12.38,12.38,0,0,1,826,381a7,7,0,0,1-1.8-4.57,7.38,7.38,0,0,1,1.94-5.09,12,12,0,0,1,4.43-3.22A8.18,8.18,0,0,1,827,366a4.81,4.81,0,0,1-1.21-3.39,6.52,6.52,0,0,1,2-4.57,8.56,8.56,0,0,1,5-2.57,12.39,12.39,0,0,1-5.13-4.26,10.79,10.79,0,0,1-1.87-6.26,12.42,12.42,0,0,1,2.11-7.14,14.69,14.69,0,0,1,5.47-4.85,15.22,15.22,0,0,1,7-1.73,16.25,16.25,0,0,1,8.8,2.57,10.44,10.44,0,0,1,3.36-4.85,7.83,7.83,0,0,1,5-1.87A3.74,3.74,0,0,1,860.24,328Zm-29.5,43.74a7.53,7.53,0,0,0-1,3.81,6.21,6.21,0,0,0,3.22,5.44,15.82,15.82,0,0,0,8.55,2,20.29,20.29,0,0,0,6.69-1,10.36,10.36,0,0,0,4.39-2.7,5.41,5.41,0,0,0,1.53-3.7,4.83,4.83,0,0,0-3.36-4.85,31.1,31.1,0,0,0-9.94-1.52,64,64,0,0,1-7.13-.56A9.09,9.09,0,0,0,830.74,371.75Zm3.74-35.36a11.29,11.29,0,0,0-2.08,7,13.83,13.83,0,0,0,2.18,8.14,6.94,6.94,0,0,0,6,3.08,6.7,6.7,0,0,0,5.72-2.63,11.16,11.16,0,0,0,2-6.86,14.93,14.93,0,0,0-2.11-8.17,6.64,6.64,0,0,0-5.92-3.32A6.81,6.81,0,0,0,834.48,336.39Z"/><path class="cls-2" d="M894.73,357.83a62.89,62.89,0,0,1-.27,6.51l5-.28V367h-9.9c-.23-1.43-.39-2.82-.49-4.16a19.49,19.49,0,0,1-5.33,3.78,13.56,13.56,0,0,1-6,1.49q-5.88,0-8.62-3.4T866.41,353V340.65a28.59,28.59,0,0,1,.27-4.5l-4.78.21v-2.84h2.15a12.91,12.91,0,0,0,4.09-.49,6.53,6.53,0,0,0,2.35-1.38h2v21.12c0,4.07.56,7,1.7,8.94s3,2.84,5.64,2.84a9.39,9.39,0,0,0,5-1.53,12.76,12.76,0,0,0,4-3.81v-17.8a32.33,32.33,0,0,1,.34-5.26l-5,.21v-2.84h2.14a12.91,12.91,0,0,0,4.09-.49,6.53,6.53,0,0,0,2.35-1.38h2Z"/><path class="cls-2" d="M913.92,359.63a28.13,28.13,0,0,1-.35,4.71l4.36-.21V367H903.8v-2.08a3.63,3.63,0,0,0,2.88-1,4.63,4.63,0,0,0,1-2.56c.11-1,.17-2.67.17-4.89V323.68a41.21,41.21,0,0,1,.21-4.5l-4.92.28v-2.91a24.62,24.62,0,0,0,5.92-.49,6.47,6.47,0,0,0,2.74-1.38h2Z"/><path class="cls-2" d="M947,334.31q2.78,3.09,2.7,9.74l-.07,15.58a43.79,43.79,0,0,1-.27,4.71l4.91-.28V367h-9.9c-.14-.69-.3-2-.49-4q-5.05,5.06-10.87,5.06-5.06,0-7.72-2.29a7.46,7.46,0,0,1-2.67-6,8.65,8.65,0,0,1,3.22-6.79,20.65,20.65,0,0,1,8.11-4.12,34.6,34.6,0,0,1,9.8-1.28v-4.3a15.41,15.41,0,0,0-1.32-7q-1.32-2.52-5.61-2.52a9.64,9.64,0,0,0-4.09.9,5.79,5.79,0,0,0-2.84,2.7,3.7,3.7,0,0,1,.9,2.63,3.06,3.06,0,0,1-.76,2,2.67,2.67,0,0,1-2.21.94,2.89,2.89,0,0,1-2.29-.94,3.57,3.57,0,0,1-.83-2.46,6,6,0,0,1,1.77-4.19,11.91,11.91,0,0,1,4.91-3,21.07,21.07,0,0,1,7-1.11Q944.25,331.23,947,334.31Zm-13.37,18q-4.42,2.12-4.43,6.48a5.06,5.06,0,0,0,1.53,3.95,5.53,5.53,0,0,0,3.87,1.38,11.12,11.12,0,0,0,4.78-1,17.12,17.12,0,0,0,4.37-3.09c0-.69-.07-1.87-.07-3.53l.07-6.51A25.48,25.48,0,0,0,933.65,352.32Z"/><path class="cls-2" d="M984.14,332.34a3.92,3.92,0,0,1,1.39,3.26,3.57,3.57,0,0,1-.87,2.21,2.92,2.92,0,0,1-2.46,1.11,3.13,3.13,0,0,1-2.49-1.14A3.36,3.36,0,0,1,979,335a8.32,8.32,0,0,0-5.3,2,17.38,17.38,0,0,0-4.54,5.54l.07,17a30.41,30.41,0,0,1-.27,4.71l4.36-.21V367h-14.2v-2.08a3.63,3.63,0,0,0,2.88-1,4.7,4.7,0,0,0,1-2.56c.11-1,.17-2.67.17-4.89V340.65a27.21,27.21,0,0,1,.28-4.5l-4.92.21v-2.84h2.15a11.54,11.54,0,0,0,3.8-.45,6.7,6.7,0,0,0,2.22-1.42h2q.27,2.7.35,6.85a16.81,16.81,0,0,1,5-5.05,11.61,11.61,0,0,1,6.68-2.22A5.34,5.34,0,0,1,984.14,332.34Z"/></g></g></svg>