<svg xmlns="http://www.w3.org/2000/svg" viewBox="0 0 1158 518"><defs><style>.cls-1{fill:#3f3e3e;}.cls-2{fill:none;}</style></defs><title>lucida</title><g id="Layer_2" data-name="Layer 2"><g id="Layer_1-2" data-name="Layer 1"><path class="cls-1" d="M91.46,298.7,77.83,330.05Q70,348.59,70,354.8q0,6.7,20.57,6.7h2.55v9.88H31.88V361.5l3.35-.16q13.71-.63,16.34-3.43T64.88,330.1L148.1,132.45h11.11L242,331.21q9.72,21.36,13.7,25.43t15.62,4.7l3.67.16v9.88H187.44V361.5h2.87q22.32,0,22.32-6.38,0-9.4-6.69-25L192.73,298.7Zm5.13-12.91H187L142.1,178.35Z"/><path class="cls-1" d="M397.61,347.71q-28.07,27.66-55.51,27.66-22,0-36.69-14t-14.67-35q0-24.58,19.13-39.91,21.84-17.55,74-17.56h6.53V247.37q0-41-31.08-41a39.92,39.92,0,0,0-25.66,8.92q-6.54,5.43-8.29,22.16l-.16,3H303.81V208.8Q337,194.3,365.34,194.29q56.42,0,56.42,51.86v77.22q0,20.75,3.59,29.19T437.86,361a33.09,33.09,0,0,0,8.45-1.46l1,11.82q-11.32,4-20.25,4Q403.82,375.37,397.61,347.71Zm-7.25-3.58V278.61H383q-27.73,0-43.35,11.53t-15.63,31.69q0,15,9.73,25T358,356.72Q371.71,356.72,390.36,344.13Z"/><path class="cls-1" d="M527.27,303.38H488.71v-3.14l.64,0c2.28-.15,3.65-.54,4.1-1.16s.67-2.43.67-5.43V263.1c0-3-.22-4.81-.66-5.41s-1.81-1-4.11-1.18l-.64,0v-3.15H510v3.15l-.6,0c-2.33.18-3.71.57-4.15,1.18s-.66,2.41-.66,5.41v30.47c0,3.75.45,5.74,1.33,6a30.18,30.18,0,0,0,5.42.27h4.22a41.61,41.61,0,0,0,4.88-.27,1.67,1.67,0,0,0,1.49-.85q.32-.7.32-6.59l0-.64h5Z"/><path class="cls-1" d="M556.52,303.38v-7a16.26,16.26,0,0,1-5.45,5.89,13.62,13.62,0,0,1-7.27,2,10.06,10.06,0,0,1-7.81-3.11q-2.84-3.12-2.84-8.59V276.06q0-4.53-.68-5.47c-.45-.61-1.81-1-4.09-1.16l-.64,0v-3.14h15.42v25.13q0,3.89,1,5.36a4.1,4.1,0,0,0,3.62,1.47,8.49,8.49,0,0,0,4.59-1.39,15.41,15.41,0,0,0,4.14-4.13V276.06q0-4.53-.68-5.47c-.45-.61-1.82-1-4.12-1.16l-.61,0v-3.14h15.42v27.32q0,4.55.69,5.47c.46.62,1.82,1,4.08,1.16l.64,0v3.14Z"/><path class="cls-1" d="M607.08,302.5a38.86,38.86,0,0,1-11.1,1.73q-9.71,0-15.27-5.3t-5.56-14.55q0-8.86,5.28-13.92T595,265.4a45.13,45.13,0,0,1,12,1.69v9.57h-4.8l0-.6c-.18-2.82-.51-4.54-1-5.14q-1.89-2.37-5.85-2.37a7.78,7.78,0,0,0-7.1,3.85q-2.37,3.86-2.37,11.57,0,7.88,3.16,11.84t9.45,3.95a24.06,24.06,0,0,0,8.7-1.89Z"/><path class="cls-1" d="M626.93,266.25v27.32q0,4.55.69,5.47c.45.62,1.82,1,4.08,1.16l.64,0v3.14H611.51v-3.14l.64,0c2.28-.15,3.64-.54,4.09-1.16s.68-2.44.68-5.47V276.06q0-4.53-.68-5.47c-.45-.61-1.81-1-4.09-1.16l-.64,0v-3.14Zm-10-6.26V250h10v10Z"/><path class="cls-1" d="M661.9,303.38v-7a14.9,14.9,0,0,1-5.22,5.89,13.68,13.68,0,0,1-7.35,2,12.2,12.2,0,0,1-10.26-5q-3.8-5-3.79-13.49,0-9.27,4.3-14.8a13.87,13.87,0,0,1,11.51-5.53,14.73,14.73,0,0,1,5.81,1.15,16,16,0,0,1,5,3.45V259.79c0-3-.22-4.82-.66-5.45s-1.81-1-4.11-1.15l-.65-.06V250h15.43v43.59q0,4.55.67,5.47c.45.62,1.82,1,4.09,1.16l.65,0v3.14Zm0-29.62a17,17,0,0,0-3.87-2.69,8.29,8.29,0,0,0-3.62-.9,6.91,6.91,0,0,0-6.36,3.62q-2.12,3.61-2.12,10.86,0,6.56,1.88,9.84a6.1,6.1,0,0,0,5.61,3.28,8.67,8.67,0,0,0,4.36-1.22,15.53,15.53,0,0,0,4.12-3.65Z"/><path class="cls-1" d="M702.17,299.09a20.18,20.18,0,0,1-5.46,3.85,13.45,13.45,0,0,1-5.7,1.29,11.45,11.45,0,0,1-8.18-3.06,10.16,10.16,0,0,1-3.25-7.73,10.49,10.49,0,0,1,4.13-8.69,14.11,14.11,0,0,1,5.85-2.72,45.56,45.56,0,0,1,9.53-.77h1.7v-4.49q0-4.77-1.2-6.5t-4.45-1.72q-4,0-5.95,2.13c-.46.45-.75,2-.88,4.53l0,.64h-5.44v-7.5a31.75,31.75,0,0,1,13.42-3q7,0,10.79,2.91a10,10,0,0,1,3.76,8.35V293a17.79,17.79,0,0,0,.64,5.88,2.29,2.29,0,0,0,2.33,1.59,4.47,4.47,0,0,0,1.19-.2l.44,3.14a16.63,16.63,0,0,1-5.11.85,8.69,8.69,0,0,1-4.77-1.29A9.66,9.66,0,0,1,702.17,299.09Zm-1.38-2.47V284.31h-1.32q-5,0-7.53,2a7.26,7.26,0,0,0-2.52,6,6.83,6.83,0,0,0,1.61,4.75,5.54,5.54,0,0,0,4.31,1.77,7.4,7.4,0,0,0,2.88-.57A9.2,9.2,0,0,0,700.79,296.62Z"/><path class="cls-1" d="M765.68,277.41q7,1.38,10.49,4.77a11.62,11.62,0,0,1,3.48,8.72q0,6.23-4.13,9.35t-12.41,3.13H739.68v-3.14l.64,0c2.28-.15,3.64-.54,4.09-1.16s.68-2.43.68-5.43V263.1c0-3-.22-4.81-.66-5.41s-1.81-1-4.11-1.18l-.64,0v-3.15H763q7.28,0,10.91,2.77t3.63,8.36a10.85,10.85,0,0,1-3,7.57A21.67,21.67,0,0,1,765.68,277.41Zm-10.58-1.32h2.06q5,0,7.54-2.52c1.67-1.69,2.5-4.21,2.5-7.58q0-4.67-2.5-7c-1.67-1.56-4.17-2.33-7.51-2.33H755.1Zm0,3.31v14.21c0,2.55.3,4.19.91,4.92s2,1.1,4.06,1.1a8.51,8.51,0,0,0,6.46-2.57,9.5,9.5,0,0,0,2.43-6.8,10.16,10.16,0,0,0-3.26-7.86,12.08,12.08,0,0,0-8.51-3Z"/><path class="cls-1" d="M798.93,276.87v16.7c0,3.07.24,4.9.74,5.48s2.13,1,4.9,1.15l.65,0v3.14H783.51v-3.14l.64,0c2.27-.15,3.64-.54,4.09-1.16s.68-2.44.68-5.47V276.06q0-4.53-.68-5.47c-.45-.61-1.82-1-4.09-1.16l-.64,0v-3.14h15.42v7q4.56-7.85,11.83-7.85a9.14,9.14,0,0,1,2,.27v11.84h-4.6l0-.61a23.6,23.6,0,0,0-.49-4.24c-.15-.33-.7-.49-1.67-.49C803,272.17,800.71,273.73,798.93,276.87Z"/><path class="cls-1" d="M831,266.25v27.32q0,4.55.69,5.47c.46.62,1.82,1,4.08,1.16l.64,0v3.14H815.53v-3.14l.64,0c2.28-.15,3.64-.54,4.1-1.16s.67-2.44.67-5.47V276.06q0-4.53-.67-5.47c-.46-.61-1.82-1-4.1-1.16l-.64,0v-3.14Zm-10-6.26V250h10v10Z"/><path class="cls-1" d="M846.42,302.06q-3.87-2-3.87-4.87a5,5,0,0,1,1.77-3.56,19.17,19.17,0,0,1,5.32-3.4,12.94,12.94,0,0,1-6.25-4.5,12.27,12.27,0,0,1-2.09-7.27,11.94,11.94,0,0,1,4.11-9.51q4.1-3.54,11-3.55a23.85,23.85,0,0,1,4.07.34,18.72,18.72,0,0,1,3.6,1l13.82-1.15-2.1,5.34-7.3-1a12.65,12.65,0,0,1,3.21,8.31,12.28,12.28,0,0,1-4,9.35,14,14,0,0,1-10,3.78c-.81,0-1.91-.06-3.31-.17l-2-.34a7.78,7.78,0,0,0-1.72,1.74,3.16,3.16,0,0,0-.57,1.74q0,2.13,5.5,2.13h5.68q7.89,0,11.24,2t3.31,6.8q0,5.54-5.32,8.92t-14.09,3.38q-7.85,0-12.85-2.23c-3.34-1.49-5-3.39-5-5.71Q838.6,304.57,846.42,302.06Zm3.23.92a12.4,12.4,0,0,0-1.38,4.83,5.69,5.69,0,0,0,2.63,4.68,10.36,10.36,0,0,0,6.33,1.95,10.57,10.57,0,0,0,6.71-2.1,6.37,6.37,0,0,0,2.69-5.2,3.34,3.34,0,0,0-1.91-3.13,12.41,12.41,0,0,0-5.73-1Zm1.05-24.39c0,3.3.49,5.77,1.46,7.43a5,5,0,0,0,8.67,0c1-1.66,1.44-4.13,1.44-7.43s-.48-5.79-1.44-7.44a5,5,0,0,0-8.67,0Q850.71,273.63,850.7,278.59Z"/><path class="cls-1" d="M894.94,273.25a16.36,16.36,0,0,1,5.47-5.88,13.51,13.51,0,0,1,7.24-2,10.17,10.17,0,0,1,7.85,3.08q2.81,3.12,2.8,8.62v16.47q0,4.55.7,5.47c.46.62,1.83,1,4.11,1.16l.64,0v3.14H902.88v-3.14l.61,0c2.3-.15,3.68-.54,4.13-1.16s.67-2.44.67-5.47V278.25c0-2.63-.31-4.42-.93-5.35s-1.81-1.41-3.56-1.41a8.51,8.51,0,0,0-4.49,1.37,17.21,17.21,0,0,0-4.37,4.14v16.57q0,4.55.68,5.47c.46.62,1.82,1,4.09,1.16l.64,0v3.14H879.52v-3.14l.64,0c2.27-.15,3.64-.54,4.09-1.16s.68-2.44.68-5.47V259.79c0-3-.23-4.82-.68-5.45s-1.82-1-4.09-1.15l-.64-.06V250h15.42Z"/><path class="cls-1" d="M948.91,303.08a18,18,0,0,1-6.16,1.15q-6.25,0-9.38-3.1t-3.13-9.28V269.6h-4.6v-3.35h4.6V260l10-1.76v8h8.22v3.35h-8.22v22.49q0,5,1,6.56c.66,1.06,2,1.59,4.06,1.59a9.69,9.69,0,0,0,3.62-.78Z"/><path class="cls-1" d="M999.7,277.41q7,1.38,10.49,4.77a11.62,11.62,0,0,1,3.48,8.72q0,6.23-4.12,9.35c-2.76,2.09-6.89,3.13-12.42,3.13H973.7v-3.14l.64,0c2.28-.15,3.64-.54,4.09-1.16s.68-2.43.68-5.43V263.1c0-3-.22-4.81-.66-5.41s-1.81-1-4.11-1.18l-.64,0v-3.15H997q7.28,0,10.91,2.77t3.63,8.36a10.85,10.85,0,0,1-3,7.57A21.67,21.67,0,0,1,999.7,277.41Zm-10.58-1.32h2.06q5,0,7.54-2.52c1.67-1.69,2.51-4.21,2.51-7.58q0-4.67-2.51-7c-1.67-1.56-4.17-2.33-7.5-2.33h-2.1Zm0,3.31v14.21c0,2.55.3,4.19.91,4.92s2,1.1,4.06,1.1a8.5,8.5,0,0,0,6.46-2.57,9.5,9.5,0,0,0,2.43-6.8,10.13,10.13,0,0,0-3.26-7.86,12.07,12.07,0,0,0-8.5-3Z"/><path class="cls-1" d="M1037.92,304.23q-9,0-14.15-5.19t-5.16-14.23q0-9,5.16-14.22t14.15-5.19q9,0,14.12,5.19t5.15,14.22q0,9-5.15,14.23T1037.92,304.23Zm0-3.55a6.58,6.58,0,0,0,6.17-4q2-4,2.05-11.89t-2.05-11.9a6.8,6.8,0,0,0-12.36,0q-2.07,4-2.06,11.9t2.06,11.89A6.62,6.62,0,0,0,1037.92,300.68Z"/><path class="cls-1" d="M1075.73,250v43.59q0,4.55.69,5.47c.45.62,1.82,1,4.08,1.16l.64,0v3.14h-20.83v-3.14l.64,0c2.28-.15,3.64-.54,4.09-1.16s.68-2.44.68-5.47V259.79c0-3-.23-4.82-.68-5.45s-1.81-1-4.09-1.15l-.64-.06V250Z"/><path class="cls-1" d="M1110.69,303.38v-7a14.8,14.8,0,0,1-5.21,5.89,13.68,13.68,0,0,1-7.35,2,12.2,12.2,0,0,1-10.26-5q-3.8-5-3.79-13.49,0-9.27,4.3-14.8a13.87,13.87,0,0,1,11.51-5.53,14.73,14.73,0,0,1,5.81,1.15,15.89,15.89,0,0,1,5,3.45V259.79c0-3-.21-4.82-.65-5.45s-1.81-1-4.11-1.15l-.65-.06V250h15.43v43.59q0,4.55.67,5.47c.45.62,1.82,1,4.09,1.16l.65,0v3.14Zm0-29.62a16.75,16.75,0,0,0-3.86-2.69,8.29,8.29,0,0,0-3.62-.9,6.91,6.91,0,0,0-6.36,3.62q-2.11,3.61-2.12,10.86,0,6.56,1.88,9.84a6.1,6.1,0,0,0,5.61,3.28,8.67,8.67,0,0,0,4.36-1.22,15.35,15.35,0,0,0,4.11-3.65Z"/><path class="cls-1" d="M524.86,371.38H488.71v-2.1l.64,0q4.09-.27,4.86-1.17t.76-5.46V330.09q0-4.57-.76-5.45c-.51-.58-2.13-1-4.86-1.15l-.64-.06v-2.1h19.62v2.1l-.65.06c-2.75.18-4.37.57-4.87,1.15s-.74,2.4-.74,5.45v32.53c0,3,.23,4.73.69,5.18s2.18.67,5.2.67h5.16q6.14,0,7-.69c.6-.46,1-2.37,1.14-5.73l0-.68h3.55Z"/><path class="cls-1" d="M555.47,371.38v-6.9a18.08,18.08,0,0,1-5.83,5.8,14.24,14.24,0,0,1-7.39,2,9.28,9.28,0,0,1-7.44-3.15q-2.71-3.1-2.71-8.55V343.41q0-4.56-.76-5.44c-.51-.59-2.12-1-4.85-1.18l-.64,0v-2.1h12.91v24.83c0,2.82.51,4.93,1.51,6.34a5.17,5.17,0,0,0,4.51,2.11,11.45,11.45,0,0,0,5.45-1.42,19.73,19.73,0,0,0,5.24-4.26V343.41c-.16-3.35-.42-5.25-.78-5.68s-2-.74-4.87-.94l-.61,0v-2.1h12.92v28c.16,3.36.42,5.26.78,5.68s2,.75,4.84.95l.64,0v2.1Z"/><path class="cls-1" d="M601.36,370.13a27.81,27.81,0,0,1-10.31,2.1A17,17,0,0,1,578,366.84q-5-5.37-5-14T577.81,339q4.82-5.2,12.83-5.2a46.2,46.2,0,0,1,10.72,1.66v8.76H597.2l0-.61q0-7.58-6.66-7.58a8.79,8.79,0,0,0-7.7,4.4Q580,344.85,580,352.36q0,7.68,3.39,12.12a11,11,0,0,0,9.19,4.43,21.6,21.6,0,0,0,8.83-1.69Z"/><path class="cls-1" d="M619.05,334.65v28c0,3.07.24,4.9.74,5.48s2.12,1,4.87,1.15l.64,0v2.1H606.13v-2.1l.64,0q4.1-.27,4.85-1.17t.77-5.46V343.41q0-4.56-.77-5.44t-4.85-1.18l-.64,0v-2.1ZM612.39,328v-6.66h6.66V328Z"/><path class="cls-1" d="M656.42,371.38v-6.87a17.46,17.46,0,0,1-5.68,5.78,13.77,13.77,0,0,1-7.22,1.94,11.76,11.76,0,0,1-9.93-4.93q-3.69-4.92-3.69-13.22,0-9.19,4.24-14.74a13.43,13.43,0,0,1,11.24-5.53,14.35,14.35,0,0,1,6,1.25,15.85,15.85,0,0,1,5.07,3.76V326.74c0-3.09-.25-4.92-.73-5.49s-2.11-1-4.89-1.14l-.64,0V318h12.92v44.64q0,4.61.73,5.48t4.88,1.15l.64,0v2.1Zm0-29.95a21.43,21.43,0,0,0-5.15-2.94,14.17,14.17,0,0,0-5-1,7.7,7.7,0,0,0-7,3.68Q637,344.89,637,352.27q0,7.83,2.25,11.75a7.33,7.33,0,0,0,6.76,3.91,11.54,11.54,0,0,0,5.66-1.44,15.39,15.39,0,0,0,4.78-4.32Z"/><path class="cls-1" d="M696.64,366.36q-6,5.86-11.77,5.87a10.84,10.84,0,0,1-7.79-3,9.83,9.83,0,0,1-3.11-7.43,10.33,10.33,0,0,1,4.06-8.47q4.62-3.72,15.69-3.72h1.38v-4.57q0-8.69-6.59-8.69a8.5,8.5,0,0,0-5.45,1.89c-.92.77-1.51,2.34-1.75,4.7l0,.65h-4.53v-6.73a32.81,32.81,0,0,1,13.06-3.08q12,0,12,11v16.38a17.54,17.54,0,0,0,.76,6.2,2.67,2.67,0,0,0,2.65,1.79,7,7,0,0,0,1.8-.31l.2,2.51a13.21,13.21,0,0,1-4.3.85Q698,372.23,696.64,366.36Zm-1.54-.76V351.7h-1.55q-5.88,0-9.2,2.44a7.91,7.91,0,0,0-3.31,6.73,7.21,7.21,0,0,0,2.06,5.29,6.88,6.88,0,0,0,5.14,2.11Q691.15,368.27,695.1,365.6Z"/><path class="cls-1" d="M753.7,345.46a17.15,17.15,0,0,1,9.69,4.56,12,12,0,0,1,3.51,8.79q0,6.35-4.16,9.46c-2.78,2.08-7,3.11-12.72,3.11H730.71v-2.1l.65,0q4.08-.27,4.85-1.17t.76-5.46V330.09q0-4.57-.76-5.45c-.51-.58-2.13-1-4.85-1.15l-.65-.06v-2.1h20.23q6.78,0,10.34,2.84t3.56,8.26a11.45,11.45,0,0,1-2.79,7.67A20,20,0,0,1,753.7,345.46ZM744,344.29h2c3.87,0,6.78-.93,8.71-2.79s2.91-4.65,2.91-8.35c0-3.5-.9-6-2.68-7.4s-4.87-2.15-9.26-2.15H744Zm0,2.27v16.06q0,5.17.85,5.62a10.2,10.2,0,0,0,4.76.88,9.72,9.72,0,0,0,7.21-2.79,9.85,9.85,0,0,0,2.77-7.26Q759.56,346.56,744,346.56Z"/><path class="cls-1" d="M785.64,344.66v18c0,3.05.26,4.87.79,5.48s2.15,1,4.85,1.15l1.46,0v2.1h-20v-2.1l.64,0c2.73-.18,4.34-.57,4.85-1.17s.76-2.41.76-5.46V343.41q0-4.56-.76-5.44c-.51-.59-2.12-1-4.85-1.18l-.64,0v-2.1h12.92v6.9q4.56-7.74,11.93-7.74a8,8,0,0,1,2.27.37v10.05h-3.76l0-.61a18,18,0,0,0-.66-3.74c-.19-.4-.7-.59-1.54-.59Q788.86,339.29,785.64,344.66Z"/><path class="cls-1" d="M816.11,334.65v28c0,3.07.24,4.9.74,5.48s2.12,1,4.87,1.15l.64,0v2.1H803.19v-2.1l.64,0q4.09-.27,4.85-1.17t.76-5.46V343.41q0-4.56-.76-5.44t-4.85-1.18l-.64,0v-2.1ZM809.44,328v-6.66h6.67V328Z"/><path class="cls-1" d="M832.78,370q-3.82-1.75-3.82-4.79a5,5,0,0,1,1.6-3.4,17.3,17.3,0,0,1,4.82-3.25,12.5,12.5,0,0,1-5.6-4.61,13.06,13.06,0,0,1-1.87-7.15,12.27,12.27,0,0,1,3.77-9.43q3.77-3.52,10.09-3.52a16.54,16.54,0,0,1,7,1.42l12.88-1-1.69,4.06-8.82-1.42a13.2,13.2,0,0,1,4.33,9.82,12.44,12.44,0,0,1-3.81,9.34,13.32,13.32,0,0,1-9.69,3.69,17.8,17.8,0,0,1-4.73-.69,6.72,6.72,0,0,0-1.79,1.94,4.15,4.15,0,0,0-.61,2.17q0,2.4,4.22,2.4h5.86q8.42,0,11.59,1.79c2.12,1.2,3.18,3.37,3.18,6.53a9.79,9.79,0,0,1-4.8,8.51q-4.8,3.19-12.71,3.19-7.54,0-12.14-2.15t-4.6-5.69a6,6,0,0,1,1.84-4.23A16.74,16.74,0,0,1,832.78,370Zm1.76.58a8,8,0,0,0-1.88,2.72,8.52,8.52,0,0,0-.63,3.33,5.88,5.88,0,0,0,2.59,5.22c1.73,1.17,4.31,1.75,7.76,1.75a13,13,0,0,0,7.86-2.17,6.9,6.9,0,0,0,2.93-5.85,4.3,4.3,0,0,0-1.76-3.75,9.13,9.13,0,0,0-5.31-1.25Zm0-24.05q0,5.56,1.79,8.36a5.94,5.94,0,0,0,5.35,2.8,5.86,5.86,0,0,0,5.31-2.78c1.17-1.85,1.75-4.64,1.75-8.35q0-10.65-7-10.65a6.06,6.06,0,0,0-5.38,2.65Q834.58,341.16,834.57,346.49Z"/><path class="cls-1" d="M876.91,341.52a17.77,17.77,0,0,1,5.85-5.78,14.42,14.42,0,0,1,7.41-1.93,9.37,9.37,0,0,1,7.44,3.11q2.67,3.12,2.67,8.57v17.13c.16,3.36.42,5.26.78,5.68s2,.75,4.87.95l.61,0v2.1H887.36v-2.1l.61,0c2.88-.2,4.51-.52,4.87-.95s.62-2.32.78-5.68V346.54c0-3.16-.42-5.36-1.24-6.59s-2.29-1.85-4.41-1.85a11.25,11.25,0,0,0-5,1.41,30.77,30.77,0,0,0-6.05,4.25v18.86q0,4.61.74,5.48t4.88,1.15l.64,0v2.1H864v-2.1l.64,0q4.1-.27,4.86-1.17c.5-.59.76-2.41.76-5.46V326.74c0-3-.26-4.86-.76-5.46s-2.13-1-4.86-1.17l-.64,0V318h12.92Z"/><path class="cls-1" d="M930.92,371.18a12.63,12.63,0,0,1-4.84,1.05c-3.9,0-6.74-1-8.54-3s-2.69-5.08-2.69-9.36V337.39h-5.41v-2.74h5.41V328l6.67-1.65v8.31h10.24v2.74H921.52V360.8c0,3.15.42,5.4,1.25,6.73a4.66,4.66,0,0,0,4.28,2,9.63,9.63,0,0,0,3.87-1Z"/><rect class="cls-2" width="1158" height="518"/></g></g></svg>