<svg xmlns="http://www.w3.org/2000/svg" viewBox="0 0 1158 518"><defs><style>.cls-1{fill:none;}.cls-2{fill:#3f3e3e;}</style></defs><title>roboto</title><g id="Layer_2" data-name="Layer 2"><g id="Layer_1-2" data-name="Layer 1"><rect class="cls-1" width="1158" height="518"/><path class="cls-2" d="M282.33,320H198.49l-15.94,47.82H131.71L218.1,135.76h44.31l86.87,232.08H298.43ZM211.4,281.28h58l-29.17-86.87Z"/><path class="cls-2" d="M467.87,367.84a50.89,50.89,0,0,1-4.62-15.47Q446.51,371,419.73,371q-25.34,0-42-14.66t-16.66-37q0-27.42,20.33-42.08t58.73-14.82h21.2v-9.89q0-12-6.13-19.12t-19.37-7.18q-11.64,0-18.25,5.58T411,247.17H364.9a46.24,46.24,0,0,1,9.25-27.73q9.24-12.75,26.14-20t37.93-7.26q31.88,0,50.61,16t18.73,45V328q.15,24.54,6.85,37.14v2.71Zm-38.1-32a39.68,39.68,0,0,0,18.81-4.55,29.75,29.75,0,0,0,12.75-12.19V289.41H444.12q-34.59,0-36.82,23.91l-.16,2.71a18.44,18.44,0,0,0,6.06,14.19Q419.25,335.8,429.77,335.8Z"/><path class="cls-2" d="M576.55,281.81h-8.09v18H558.32V250.6h18.29q8.73,0,13.46,3.89t4.74,11a15.16,15.16,0,0,1-2.18,8.4,14.92,14.92,0,0,1-6.62,5.36l10.66,20.12v.48H585.78Zm-8.09-8.22h8.19a8.34,8.34,0,0,0,5.91-1.94,7,7,0,0,0,2.1-5.36,7.44,7.44,0,0,0-2-5.48q-2-2-6.07-2h-8.15Z"/><path class="cls-2" d="M600.35,281.2a21.64,21.64,0,0,1,2.1-9.7,15.39,15.39,0,0,1,6-6.6,17.62,17.62,0,0,1,9.14-2.33,16.66,16.66,0,0,1,12.09,4.53q4.69,4.53,5.23,12.31l.07,2.5q0,8.43-4.7,13.51t-12.62,5.09q-7.91,0-12.63-5.07t-4.72-13.8Zm9.78.7q0,5.21,2,8a7.05,7.05,0,0,0,11.16,0q2-2.73,2-8.73c0-3.4-.66-6.05-2-7.92a6.5,6.5,0,0,0-5.62-2.81,6.37,6.37,0,0,0-5.54,2.79C610.78,275.11,610.13,278,610.13,281.9Z"/><path class="cls-2" d="M674,281.88q0,8.79-3.76,13.71a12.42,12.42,0,0,1-10.48,4.92,11.42,11.42,0,0,1-9.5-4.56l-.44,3.89H641V247.89h9.77v18.63a11.14,11.14,0,0,1,8.89-3.95,12.52,12.52,0,0,1,10.5,4.92q3.81,4.92,3.81,13.85Zm-9.78-.71q0-5.55-1.75-8.1a6,6,0,0,0-5.25-2.55q-4.66,0-6.42,3.82v14.44c1.19,2.57,3.36,3.85,6.49,3.85s5.23-1.55,6.23-4.66A24.33,24.33,0,0,0,664.23,281.17Z"/><path class="cls-2" d="M678.51,281.2a21.78,21.78,0,0,1,2.09-9.7,15.39,15.39,0,0,1,6-6.6,17.66,17.66,0,0,1,9.15-2.33,16.67,16.67,0,0,1,12.09,4.53q4.68,4.53,5.22,12.31l.07,2.5q0,8.43-4.7,13.51t-12.61,5.09q-7.92,0-12.64-5.07t-4.71-13.8Zm9.77.7q0,5.21,2,8a7.05,7.05,0,0,0,11.16,0q2-2.73,2-8.73c0-3.4-.67-6.05-2-7.92a6.49,6.49,0,0,0-5.61-2.81,6.39,6.39,0,0,0-5.55,2.79C688.93,275.11,688.28,278,688.28,281.9Z"/><path class="cls-2" d="M730.89,254.25v9h6.26v7.17h-6.26v18.27a4.32,4.32,0,0,0,.78,2.9,3.9,3.9,0,0,0,3,.88,16.27,16.27,0,0,0,2.87-.23v7.4a20,20,0,0,1-5.92.88q-10.27,0-10.48-10.38V270.41h-5.35v-7.17h5.35v-9Z"/><path class="cls-2" d="M740.06,281.2a21.64,21.64,0,0,1,2.09-9.7,15.39,15.39,0,0,1,6-6.6,17.66,17.66,0,0,1,9.15-2.33,16.67,16.67,0,0,1,12.09,4.53q4.68,4.53,5.22,12.31l.07,2.5q0,8.43-4.7,13.51t-12.62,5.09q-7.9,0-12.63-5.07t-4.71-13.8Zm9.77.7q0,5.21,2,8a7.05,7.05,0,0,0,11.16,0q2-2.73,2-8.73c0-3.4-.67-6.05-2-7.92a6.49,6.49,0,0,0-5.61-2.81,6.39,6.39,0,0,0-5.55,2.79C750.48,275.11,749.83,278,749.83,281.9Z"/><path class="cls-2" d="M798.63,299.84V250.6h17.25q9,0,13.59,3.43t4.63,10.06a11.1,11.1,0,0,1-1.86,6.37,10.75,10.75,0,0,1-5.17,4.05,10.41,10.41,0,0,1,6,3.82,11.3,11.3,0,0,1,2.18,7q0,7.11-4.53,10.76t-12.92,3.72Zm10.14-28.61h7.51q7.68-.14,7.68-6.13,0-3.35-2-4.81c-1.29-1-3.34-1.48-6.13-1.48h-7.11Zm0,7.17v13.29h8.7a8.38,8.38,0,0,0,5.59-1.71,5.86,5.86,0,0,0,2-4.72q0-6.76-7-6.86Z"/><path class="cls-2" d="M840.66,281.2a21.64,21.64,0,0,1,2.1-9.7,15.39,15.39,0,0,1,6-6.6,17.63,17.63,0,0,1,9.15-2.33A16.69,16.69,0,0,1,870,267.1q4.68,4.53,5.22,12.31l.07,2.5q0,8.43-4.7,13.51T858,300.51q-7.9,0-12.63-5.07t-4.72-13.8Zm9.78.7q0,5.21,2,8a7.05,7.05,0,0,0,11.16,0q2-2.73,2-8.73c0-3.4-.67-6.05-2-7.92a6.49,6.49,0,0,0-5.61-2.81,6.39,6.39,0,0,0-5.55,2.79C851.09,275.11,850.44,278,850.44,281.9Z"/><path class="cls-2" d="M891.66,299.84h-9.81V247.89h9.81Z"/><path class="cls-2" d="M898.19,281.27q0-8.55,3.84-13.63a12.46,12.46,0,0,1,10.5-5.07,11.19,11.19,0,0,1,8.82,4V247.89h9.81v51.95h-8.83l-.47-3.89a11.5,11.5,0,0,1-9.4,4.56,12.41,12.41,0,0,1-10.37-5.09Q898.19,290.33,898.19,281.27ZM908,282q0,5.14,1.79,7.89a5.85,5.85,0,0,0,5.21,2.74,6.53,6.53,0,0,0,6.39-3.82V274.34a6.43,6.43,0,0,0-6.32-3.82Q908,270.52,908,282Z"/><path class="cls-2" d="M577.7,347.92H566.13v19.92H559.6V318.6h16.3q8.33,0,12.8,3.78t4.48,11a13.2,13.2,0,0,1-2.48,8,14.84,14.84,0,0,1-6.92,5.11l11.57,20.9v.41h-7Zm-11.57-5.31h10a11.27,11.27,0,0,0,7.69-2.51,8.5,8.5,0,0,0,2.86-6.71,8.94,8.94,0,0,0-2.72-7q-2.73-2.44-7.87-2.47h-9.94Z"/><path class="cls-2" d="M599.64,349.2a21.6,21.6,0,0,1,2.12-9.67,15.84,15.84,0,0,1,5.88-6.63,16.05,16.05,0,0,1,8.61-2.33,15.43,15.43,0,0,1,12.09,5.17q4.62,5.17,4.61,13.77V350a21.83,21.83,0,0,1-2,9.58,15.65,15.65,0,0,1-5.85,6.62,16.28,16.28,0,0,1-8.74,2.36,15.4,15.4,0,0,1-12.06-5.17q-4.62-5.18-4.62-13.7Zm6.29.75q0,6.07,2.83,9.77a9.56,9.56,0,0,0,15.13-.05q2.8-3.74,2.81-10.47a15.58,15.58,0,0,0-2.86-9.75,9.5,9.5,0,0,0-15.07-.05Q605.93,343.08,605.93,350Z"/><path class="cls-2" d="M671.78,350q0,8.39-3.86,13.47a12.3,12.3,0,0,1-10.35,5.09q-6.93,0-10.72-4.9l-.3,4.23H640.8V315.89h6.26v19.38a12.68,12.68,0,0,1,10.45-4.7,12.37,12.37,0,0,1,10.46,5q3.81,5,3.81,13.8Zm-6.26-.71q0-6.39-2.47-9.88a8.16,8.16,0,0,0-7.1-3.48,9.16,9.16,0,0,0-8.89,5.75v15.82q2.87,5.76,9,5.75a8.13,8.13,0,0,0,7-3.48Q665.53,356.24,665.52,349.24Z"/><path class="cls-2" d="M678,349.2a21.59,21.59,0,0,1,2.11-9.67A15.79,15.79,0,0,1,686,332.9a16,16,0,0,1,8.6-2.33,15.4,15.4,0,0,1,12.09,5.17q4.62,5.17,4.62,13.77V350a21.83,21.83,0,0,1-2,9.58,15.6,15.6,0,0,1-5.86,6.62,16.25,16.25,0,0,1-8.74,2.36,15.36,15.36,0,0,1-12-5.17q-4.62-5.18-4.62-13.7Zm6.29.75q0,6.07,2.82,9.77a9.57,9.57,0,0,0,15.14-.05q2.81-3.74,2.8-10.47a15.64,15.64,0,0,0-2.85-9.75,9.08,9.08,0,0,0-7.6-3.74,9,9,0,0,0-7.47,3.69Q684.3,343.08,684.29,350Z"/><path class="cls-2" d="M727.65,322.38v8.86h6.83v4.84h-6.83V358.8a5.06,5.06,0,0,0,.91,3.3,3.81,3.81,0,0,0,3.11,1.1,15.21,15.21,0,0,0,3-.4v5a18.22,18.22,0,0,1-4.81.67q-4.19,0-6.32-2.53c-1.42-1.69-2.13-4.1-2.13-7.21V336.08h-6.66v-4.84h6.66v-8.86Z"/><path class="cls-2" d="M739.45,349.2a21.59,21.59,0,0,1,2.11-9.67,15.84,15.84,0,0,1,5.88-6.63,16.1,16.1,0,0,1,8.61-2.33,15.43,15.43,0,0,1,12.09,5.17q4.62,5.17,4.62,13.77V350a21.69,21.69,0,0,1-2,9.58,15.51,15.51,0,0,1-5.85,6.62,16.28,16.28,0,0,1-8.74,2.36,15.4,15.4,0,0,1-12.06-5.17q-4.6-5.18-4.61-13.7Zm6.29.75q0,6.07,2.82,9.77a9.56,9.56,0,0,0,15.13-.05q2.82-3.74,2.81-10.47a15.58,15.58,0,0,0-2.86-9.75,9.49,9.49,0,0,0-15.06-.05Q745.73,343.08,745.74,350Z"/><path class="cls-2" d="M816.79,347.92H805.22v19.92H798.7V318.6H815q8.31,0,12.8,3.78t4.48,11a13.2,13.2,0,0,1-2.49,8,14.81,14.81,0,0,1-6.91,5.11l11.56,20.9v.41h-7Zm-11.57-5.31h10a11.25,11.25,0,0,0,7.69-2.51,8.47,8.47,0,0,0,2.86-6.71,8.94,8.94,0,0,0-2.72-7q-2.73-2.44-7.86-2.47h-9.95Z"/><path class="cls-2" d="M855.58,368.51a16,16,0,0,1-12.11-4.88q-4.66-4.89-4.66-13.08v-1.14a22.07,22.07,0,0,1,2.07-9.73A16.25,16.25,0,0,1,846.7,333a14.56,14.56,0,0,1,8.1-2.42q7.14,0,11.09,4.7t4,13.46v2.6H845.06a13,13,0,0,0,3.16,8.74,9.93,9.93,0,0,0,7.7,3.34,10.79,10.79,0,0,0,5.61-1.36,14.23,14.23,0,0,0,4-3.58l3.82,3Q864.77,368.52,855.58,368.51Zm-.78-32.8a8.39,8.39,0,0,0-6.36,2.75,13.48,13.48,0,0,0-3.18,7.73h18.33v-.47a11.88,11.88,0,0,0-2.57-7.39A7.83,7.83,0,0,0,854.8,335.71Z"/><path class="cls-2" d="M875.6,349.24c0-5.71,1.32-10.24,4-13.62a13.65,13.65,0,0,1,20.93-.32l.3-4.06h5.72V367q0,7.1-4.21,11.19T891,382.24a18.81,18.81,0,0,1-7.75-1.69,13.37,13.37,0,0,1-5.78-4.63l3.25-3.76a12.22,12.22,0,0,0,9.84,5,9.62,9.62,0,0,0,7.12-2.57,9.85,9.85,0,0,0,2.55-7.24v-3.15q-3.75,4.33-10.25,4.33a12.5,12.5,0,0,1-10.4-5.17Q875.59,358.17,875.6,349.24Zm6.29.71q0,6.18,2.54,9.72a8.24,8.24,0,0,0,7.1,3.53,9.17,9.17,0,0,0,8.69-5.37V341.12a9.28,9.28,0,0,0-8.62-5.24,8.3,8.3,0,0,0-7.14,3.55Q881.9,343,881.89,350Z"/><path class="cls-2" d="M938.53,364.22q-3.64,4.29-10.72,4.29-5.85,0-8.91-3.4t-3.09-10.06V331.24h6.25v23.64q0,8.33,6.77,8.32,7.17,0,9.54-5.34V331.24h6.25v36.6h-6Z"/><path class="cls-2" d="M960.92,367.84h-6.25V315.89h6.25Z"/><path class="cls-2" d="M993.52,367.84a13.42,13.42,0,0,1-.88-3.86,14,14,0,0,1-10.41,4.53,12.92,12.92,0,0,1-8.88-3.06,9.91,9.91,0,0,1-3.47-7.76,10.35,10.35,0,0,1,4.35-8.88q4.35-3.15,12.22-3.16h6.09v-2.87a7,7,0,0,0-2-5.23,7.9,7.9,0,0,0-5.78-1.94,9.13,9.13,0,0,0-5.62,1.69,5,5,0,0,0-2.26,4.09h-6.29a8.65,8.65,0,0,1,1.94-5.29,13.32,13.32,0,0,1,5.28-4,17.61,17.61,0,0,1,7.32-1.49q6.33,0,9.91,3.16a11.41,11.41,0,0,1,3.72,8.71v16.84a20.68,20.68,0,0,0,1.28,8v.55Zm-10.38-4.77a11,11,0,0,0,5.58-1.52,9.25,9.25,0,0,0,3.82-4v-7.51h-4.9q-11.5,0-11.5,6.73a5.68,5.68,0,0,0,2,4.6A7.52,7.52,0,0,0,983.14,363.07Z"/><path class="cls-2" d="M1026.29,336.86a18.39,18.39,0,0,0-3.07-.24q-6.16,0-8.36,5.24v26h-6.25v-36.6h6.08l.1,4.23a9.75,9.75,0,0,1,8.73-4.9,6.46,6.46,0,0,1,2.77.47Z"/></g></g></svg>