<?xml version="1.0" encoding="utf-8"?>
<!-- Generator: Adobe Illustrator 22.1.0, SVG Export Plug-In . SVG Version: 6.00 Build 0)  -->
<svg version="1.1" id="Layer_1" xmlns="http://www.w3.org/2000/svg" xmlns:xlink="http://www.w3.org/1999/xlink" x="0px" y="0px"
	 viewBox="0 0 3729 1700" style="enable-background:new 0 0 3729 1700;" xml:space="preserve">
<style type="text/css">
	.st0{fill:#C1282E;}
	.st1{fill:none;}
	.st2{fill:#A22527;}
</style>
<rect y="0" class="st0" width="3729" height="1700"/>
<g>
	<path class="st1" d="M849.4,1496.5c73.1-30.3,107.9-114.4,77.7-187.5c-30.3-73.1-114.4-107.9-187.5-77.7s-107.9,114.4-77.7,187.5
		C692.2,1492,776.3,1526.8,849.4,1496.5z M729,1380.6l78.7,29.3L828,1275l20.8,3.1l-24.1,160.5l-103-38.3L729,1380.6z"/>
	<path class="st1" d="M2989.4,1496.5c73.1-30.3,107.9-114.4,77.7-187.5c-30.3-73.1-114.4-107.9-187.5-77.7
		c-73.1,30.3-107.9,114.4-77.7,187.5C2832.2,1492,2916.3,1526.8,2989.4,1496.5z M2869,1380.6l78.7,29.3L2968,1275l20.8,3.1
		l-24.1,160.5l-103-38.3L2869,1380.6z"/>
	<path class="st1" d="M421.4,1496.5c73.1-30.3,107.9-114.4,77.7-187.5c-30.3-73.1-114.4-107.9-187.5-77.7s-107.9,114.4-77.7,187.5
		C264.2,1492,348.3,1526.8,421.4,1496.5z M301,1380.6l78.7,29.3L400,1275l20.8,3.1l-24.1,160.5l-103-38.3L301,1380.6z"/>
	<path class="st1" d="M1063.4,1167.5c73.1-30.3,107.9-114.4,77.7-187.5c-30.3-73.1-114.4-107.9-187.5-77.7
		c-73.1,30.3-107.9,114.4-77.7,187.5C906.2,1163,990.3,1197.8,1063.4,1167.5z M943,1051.6l78.7,29.3L1042,946l20.8,3.1l-24.1,160.5
		l-103-38.3L943,1051.6z"/>
	<path class="st1" d="M635.4,1167.5c73.1-30.3,107.9-114.4,77.7-187.5c-30.3-73.1-114.4-107.9-187.5-77.7
		c-73.1,30.3-107.9,114.4-77.7,187.5C478.2,1163,562.3,1197.8,635.4,1167.5z M515,1051.6l78.7,29.3L614,946l20.8,3.1l-24.1,160.5
		l-103-38.3L515,1051.6z"/>
	<path class="st1" d="M2665.6,244.4c-73.1,30.3-107.9,114.4-77.7,187.5c30.3,73.1,114.4,107.9,187.5,77.7
		c73.1-30.3,107.9-114.4,77.7-187.5S2738.7,214.1,2665.6,244.4z M2750.7,451.6l-103-38.3l7.3-19.7l78.7,29.3L2754,288l20.8,3.1
		L2750.7,451.6z"/>
	<path class="st1" d="M3521.6,244.4c-73.1,30.3-107.9,114.4-77.7,187.5c30.3,73.1,114.4,107.9,187.5,77.7
		c73.1-30.3,107.9-114.4,77.7-187.5S3594.7,214.1,3521.6,244.4z M3606.7,451.6l-103-38.3l7.3-19.7l78.7,29.3L3610,288l20.8,3.1
		L3606.7,451.6z"/>
	<path class="st1" d="M2879.6,573.4c-73.1,30.3-107.9,114.4-77.7,187.5s114.4,107.9,187.5,77.7c73.1-30.3,107.9-114.4,77.7-187.5
		S2952.7,543.1,2879.6,573.4z M2968,617l20.8,3.1l-24.1,160.5l-103-38.3l7.3-19.7l78.7,29.3L2968,617z"/>
	<path class="st1" d="M3093.6,244.4c-73.1,30.3-107.9,114.4-77.7,187.5c30.3,73.1,114.4,107.9,187.5,77.7
		c73.1-30.3,107.9-114.4,77.7-187.5S3166.7,214.1,3093.6,244.4z M3178.7,451.6l-103-38.3l7.3-19.7l78.7,29.3L3182,288l20.8,3.1
		L3178.7,451.6z"/>
	<path class="st1" d="M3307.6,573.4c-73.1,30.3-107.9,114.4-77.7,187.5s114.4,107.9,187.5,77.7c73.1-30.3,107.9-114.4,77.7-187.5
		S3380.7,543.1,3307.6,573.4z M3396,617l20.8,3.1l-24.1,160.5l-103-38.3l7.3-19.7l78.7,29.3L3396,617z"/>
	<path class="st1" d="M1277.4,1496.5c73.1-30.3,107.9-114.4,77.7-187.5c-30.3-73.1-114.4-107.9-187.5-77.7
		c-73.1,30.3-107.9,114.4-77.7,187.5C1120.2,1492,1204.3,1526.8,1277.4,1496.5z M1157,1380.6l78.7,29.3L1256,1275l20.8,3.1
		l-24.1,160.5l-103-38.3L1157,1380.6z"/>
	<path class="st1" d="M3631.4,1167.5c73.1-30.3,107.9-114.4,77.7-187.5c-30.3-73.1-114.4-107.9-187.5-77.7
		c-73.1,30.3-107.9,114.4-77.7,187.5C3474.2,1163,3558.3,1197.8,3631.4,1167.5z M3511,1051.6l78.7,29.3L3610,946l20.8,3.1
		l-24.1,160.5l-103-38.3L3511,1051.6z"/>
	<path class="st1" d="M2347.4,1167.5c73.1-30.3,107.9-114.4,77.7-187.5c-30.3-73.1-114.4-107.9-187.5-77.7
		c-73.1,30.3-107.9,114.4-77.7,187.5C2190.2,1163,2274.3,1197.8,2347.4,1167.5z M2227,1051.6l78.7,29.3L2326,946l20.8,3.1
		l-24.1,160.5l-103-38.3L2227,1051.6z"/>
	<path class="st1" d="M2561.4,1496.5c73.1-30.3,107.9-114.4,77.7-187.5c-30.3-73.1-114.4-107.9-187.5-77.7
		c-73.1,30.3-107.9,114.4-77.7,187.5C2404.2,1492,2488.3,1526.8,2561.4,1496.5z M2441,1380.6l78.7,29.3L2540,1275l20.8,3.1
		l-24.1,160.5l-103-38.3L2441,1380.6z"/>
	<path class="st1" d="M3417.4,1496.5c73.1-30.3,107.9-114.4,77.7-187.5c-30.3-73.1-114.4-107.9-187.5-77.7
		c-73.1,30.3-107.9,114.4-77.7,187.5C3260.2,1492,3344.3,1526.8,3417.4,1496.5z M3297,1380.6l78.7,29.3L3396,1275l20.8,3.1
		l-24.1,160.5l-103-38.3L3297,1380.6z"/>
	<path class="st1" d="M1919.4,1167.5c73.1-30.3,107.9-114.4,77.7-187.5c-30.3-73.1-114.4-107.9-187.5-77.7
		c-73.1,30.3-107.9,114.4-77.7,187.5C1762.2,1163,1846.3,1197.8,1919.4,1167.5z M1799,1051.6l78.7,29.3L1898,946l20.8,3.1
		l-24.1,160.5l-103-38.3L1799,1051.6z"/>
	<path class="st1" d="M2133.4,1496.5c73.1-30.3,107.9-114.4,77.7-187.5c-30.3-73.1-114.4-107.9-187.5-77.7
		c-73.1,30.3-107.9,114.4-77.7,187.5C1976.2,1492,2060.3,1526.8,2133.4,1496.5z M2013,1380.6l78.7,29.3L2112,1275l20.8,3.1
		l-24.1,160.5l-103-38.3L2013,1380.6z"/>
	<path class="st1" d="M3203.4,1167.5c73.1-30.3,107.9-114.4,77.7-187.5c-30.3-73.1-114.4-107.9-187.5-77.7
		c-73.1,30.3-107.9,114.4-77.7,187.5C3046.2,1163,3130.3,1197.8,3203.4,1167.5z M3083,1051.6l78.7,29.3L3182,946l20.8,3.1
		l-24.1,160.5l-103-38.3L3083,1051.6z"/>
	<path class="st1" d="M2451.6,573.4c-73.1,30.3-107.9,114.4-77.7,187.5s114.4,107.9,187.5,77.7c73.1-30.3,107.9-114.4,77.7-187.5
		S2524.7,543.1,2451.6,573.4z M2540,617l20.8,3.1l-24.1,160.5l-103-38.3l7.3-19.7l78.7,29.3L2540,617z"/>
	<path class="st1" d="M1705.4,1496.5c73.1-30.3,107.9-114.4,77.7-187.5c-30.3-73.1-114.4-107.9-187.5-77.7
		c-73.1,30.3-107.9,114.4-77.7,187.5C1548.2,1492,1632.3,1526.8,1705.4,1496.5z M1585,1380.6l78.7,29.3L1684,1275l20.8,3.1
		l-24.1,160.5l-103-38.3L1585,1380.6z"/>
	<path class="st1" d="M1491.4,1167.5c73.1-30.3,107.9-114.4,77.7-187.5c-30.3-73.1-114.4-107.9-187.5-77.7
		c-73.1,30.3-107.9,114.4-77.7,187.5C1334.2,1163,1418.3,1197.8,1491.4,1167.5z M1371,1051.6l78.7,29.3L1470,946l20.8,3.1
		l-24.1,160.5l-103-38.3L1371,1051.6z"/>
	<path class="st1" d="M2775.4,1167.5c73.1-30.3,107.9-114.4,77.7-187.5c-30.3-73.1-114.4-107.9-187.5-77.7
		c-73.1,30.3-107.9,114.4-77.7,187.5C2618.2,1163,2702.3,1197.8,2775.4,1167.5z M2655,1051.6l78.7,29.3L2754,946l20.8,3.1
		l-24.1,160.5l-103-38.3L2655,1051.6z"/>
	<path class="st1" d="M1381.6,244.4c-73.1,30.3-107.9,114.4-77.7,187.5c30.3,73.1,114.4,107.9,187.5,77.7
		c73.1-30.3,107.9-114.4,77.7-187.5S1454.7,214.1,1381.6,244.4z M1466.7,451.6l-103-38.3l7.3-19.7l78.7,29.3L1470,288l20.8,3.1
		L1466.7,451.6z"/>
	<path class="st1" d="M97.6,244.4C24.5,274.7-10.4,358.8,19.9,431.9c30.3,73.1,114.4,107.9,187.5,77.7s107.9-114.4,77.7-187.5
		C254.8,248.9,170.7,214.1,97.6,244.4z M182.7,451.6l-103-38.3l7.3-19.7l78.7,29.3L186,288l20.8,3.1L182.7,451.6z"/>
	<path class="st1" d="M207.4,1167.5c73.1-30.3,107.9-114.4,77.7-187.5c-30.3-73.1-114.4-107.9-187.5-77.7
		c-73.1,30.3-107.9,114.4-77.7,187.5C50.2,1163,134.3,1197.8,207.4,1167.5z M87,1051.6l78.7,29.3L186,946l20.8,3.1l-24.1,160.5
		l-103-38.3L87,1051.6z"/>
	<path class="st1" d="M953.6,244.4c-73.1,30.3-107.9,114.4-77.7,187.5c30.3,73.1,114.4,107.9,187.5,77.7
		c73.1-30.3,107.9-114.4,77.7-187.5S1026.7,214.1,953.6,244.4z M1038.7,451.6l-103-38.3l7.3-19.7l78.7,29.3L1042,288l20.8,3.1
		L1038.7,451.6z"/>
	<path class="st1" d="M525.6,244.4c-73.1,30.3-107.9,114.4-77.7,187.5c30.3,73.1,114.4,107.9,187.5,77.7s107.9-114.4,77.7-187.5
		C682.8,248.9,598.7,214.1,525.6,244.4z M610.7,451.6l-103-38.3l7.3-19.7l78.7,29.3L614,288l20.8,3.1L610.7,451.6z"/>
	<path class="st1" d="M1809.6,244.4c-73.1,30.3-107.9,114.4-77.7,187.5c30.3,73.1,114.4,107.9,187.5,77.7
		c73.1-30.3,107.9-114.4,77.7-187.5S1882.7,214.1,1809.6,244.4z M1894.7,451.6l-103-38.3l7.3-19.7l78.7,29.3L1898,288l20.8,3.1
		L1894.7,451.6z"/>
	<path class="st1" d="M311.6,573.4c-73.1,30.3-107.9,114.4-77.7,187.5c30.3,73.1,114.4,107.9,187.5,77.7s107.9-114.4,77.7-187.5
		C468.8,577.9,384.7,543.1,311.6,573.4z M400,617l20.8,3.1l-24.1,160.5l-103-38.3l7.3-19.7l78.7,29.3L400,617z"/>
	<path class="st1" d="M2023.6,573.4c-73.1,30.3-107.9,114.4-77.7,187.5s114.4,107.9,187.5,77.7c73.1-30.3,107.9-114.4,77.7-187.5
		S2096.7,543.1,2023.6,573.4z M2112,617l20.8,3.1l-24.1,160.5l-103-38.3l7.3-19.7l78.7,29.3L2112,617z"/>
	<path class="st1" d="M2237.6,244.4c-73.1,30.3-107.9,114.4-77.7,187.5c30.3,73.1,114.4,107.9,187.5,77.7
		c73.1-30.3,107.9-114.4,77.7-187.5S2310.7,214.1,2237.6,244.4z M2322.7,451.6l-103-38.3l7.3-19.7l78.7,29.3L2326,288l20.8,3.1
		L2322.7,451.6z"/>
	<path class="st1" d="M1167.6,573.4c-73.1,30.3-107.9,114.4-77.7,187.5s114.4,107.9,187.5,77.7c73.1-30.3,107.9-114.4,77.7-187.5
		S1240.7,543.1,1167.6,573.4z M1256,617l20.8,3.1l-24.1,160.5l-103-38.3l7.3-19.7l78.7,29.3L1256,617z"/>
	<path class="st1" d="M739.6,573.4c-73.1,30.3-107.9,114.4-77.7,187.5c30.3,73.1,114.4,107.9,187.5,77.7s107.9-114.4,77.7-187.5
		C896.8,577.9,812.7,543.1,739.6,573.4z M828,617l20.8,3.1l-24.1,160.5l-103-38.3l7.3-19.7l78.7,29.3L828,617z"/>
	<path class="st1" d="M1595.6,573.4c-73.1,30.3-107.9,114.4-77.7,187.5s114.4,107.9,187.5,77.7c73.1-30.3,107.9-114.4,77.7-187.5
		S1668.7,543.1,1595.6,573.4z M1684,617l20.8,3.1l-24.1,160.5l-103-38.3l7.3-19.7l78.7,29.3L1684,617z"/>
	<path class="st2" d="M0,177.6v22.9c0.5-0.2,1-0.4,1.5-0.6C80.3,167.3,120.3,80,95.8,0H73.7C98.3,69.2,66.4,146.2,0,177.6z"/>
	<path class="st2" d="M209.2,0c-10.8,35.2-9.9,74.3,5.3,110.9c34.7,83.8,131.1,123.7,214.9,89C508.3,167.3,548.3,80,523.8,0h-22.1
		c25.4,71.4-9.5,151.2-80.3,180.5c-73.1,30.3-157.2-4.6-187.5-77.7C219.8,68.8,219.9,32.3,231.3,0H209.2z"/>
	<polygon class="st2" points="415.1,0 393.8,0 379.8,93.9 301,64.6 293.7,84.3 396.7,122.6 	"/>
	<path class="st2" d="M637.2,0c-10.8,35.2-9.9,74.3,5.3,110.9c34.7,83.8,131.1,123.7,214.9,89C936.3,167.3,976.3,80,951.8,0h-22.1
		c25.4,71.4-9.5,151.2-80.3,180.5c-73.1,30.3-157.2-4.6-187.5-77.7C647.8,68.8,647.9,32.3,659.3,0H637.2z"/>
	<polygon class="st2" points="843.1,0 821.8,0 807.8,93.9 729,64.6 721.7,84.3 824.7,122.6 	"/>
	<path class="st2" d="M1065.2,0c-10.8,35.2-9.9,74.3,5.3,110.9c34.7,83.8,131.1,123.7,214.9,89C1364.3,167.3,1404.3,80,1379.8,0
		h-22.1c25.4,71.4-9.5,151.2-80.3,180.5c-73.1,30.3-157.2-4.6-187.5-77.7c-14.1-34.1-14.1-70.6-2.6-102.9H1065.2z"/>
	<polygon class="st2" points="1271.1,0 1249.8,0 1235.8,93.9 1157,64.6 1149.7,84.3 1252.7,122.6 	"/>
	<path class="st2" d="M1493.2,0c-10.8,35.2-9.9,74.3,5.3,110.9c34.7,83.8,131.1,123.7,214.9,89C1792.3,167.3,1832.3,80,1807.8,0
		h-22.1c25.4,71.4-9.5,151.2-80.3,180.5c-73.1,30.3-157.2-4.6-187.5-77.7c-14.1-34.1-14.1-70.6-2.6-102.9H1493.2z"/>
	<polygon class="st2" points="1699.1,0 1677.8,0 1663.8,93.9 1585,64.6 1577.7,84.3 1680.7,122.6 	"/>
	<path class="st2" d="M1921.2,0c-10.8,35.2-9.9,74.3,5.3,110.9c34.7,83.8,131.1,123.7,214.9,89C2220.3,167.3,2260.3,80,2235.8,0
		h-22.1c25.4,71.4-9.5,151.2-80.3,180.5c-73.1,30.3-157.2-4.6-187.5-77.7c-14.1-34.1-14.1-70.6-2.6-102.9H1921.2z"/>
	<polygon class="st2" points="2127.1,0 2105.8,0 2091.8,93.9 2013,64.6 2005.7,84.3 2108.7,122.6 	"/>
	<path class="st2" d="M2349.2,0c-10.8,35.2-9.9,74.3,5.3,110.9c34.7,83.8,131.1,123.7,214.9,89C2648.3,167.3,2688.3,80,2663.8,0
		h-22.1c25.4,71.4-9.5,151.2-80.3,180.5c-73.1,30.3-157.2-4.6-187.5-77.7c-14.1-34.1-14.1-70.6-2.6-102.9H2349.2z"/>
	<polygon class="st2" points="2555.1,0 2533.8,0 2519.8,93.9 2441,64.6 2433.7,84.3 2536.7,122.6 	"/>
	<path class="st2" d="M2777.2,0c-10.8,35.2-9.9,74.3,5.3,110.9c34.7,83.8,131.1,123.7,214.9,89C3076.3,167.3,3116.3,80,3091.8,0
		h-22.1c25.4,71.4-9.5,151.2-80.3,180.5c-73.1,30.3-157.2-4.6-187.5-77.7c-14.1-34.1-14.1-70.6-2.6-102.9H2777.2z"/>
	<polygon class="st2" points="2983.1,0 2961.8,0 2947.8,93.9 2869,64.6 2861.7,84.3 2964.7,122.6 	"/>
	<path class="st2" d="M3205.2,0c-10.8,35.2-9.9,74.3,5.3,110.9c34.7,83.8,131.1,123.7,214.9,89C3504.3,167.3,3544.3,80,3519.8,0
		h-22.1c25.4,71.4-9.5,151.2-80.3,180.5c-73.1,30.3-157.2-4.6-187.5-77.7c-14.1-34.1-14.1-70.6-2.6-102.9H3205.2z"/>
	<polygon class="st2" points="3411.1,0 3389.8,0 3375.8,93.9 3297,64.6 3289.7,84.3 3392.7,122.6 	"/>
	<path class="st2" d="M3633.2,0c-10.8,35.2-9.9,74.3,5.3,110.9c17.6,42.4,50.9,73.6,90.5,89.5v-22.9c-31-14.7-56.9-40.5-71.1-74.7
		c-14.1-34.1-14.1-70.6-2.6-102.9H3633.2z"/>
	<polygon class="st2" points="3729,66.1 3725,64.6 3717.7,84.3 3729,88.5 	"/>
	<path class="st2" d="M89.5,225C47.1,242.6,15.9,276,0,315.5v123.1c0.2,0.4,0.3,0.9,0.5,1.3c34.7,83.8,131.1,123.7,214.9,89
		c83.8-34.7,123.7-131.1,89-214.9C269.8,230.2,173.3,190.3,89.5,225z M207.4,509.5c-73.1,30.3-157.2-4.6-187.5-77.7
		c-30.3-73.1,4.6-157.2,77.7-187.5c73.1-30.3,157.2,4.6,187.5,77.7C315.4,395.2,280.5,479.3,207.4,509.5z"/>
	<polygon class="st2" points="165.8,422.9 87,393.6 79.7,413.3 182.7,451.6 206.8,291.1 186,288 	"/>
	<path class="st2" d="M517.5,225c-83.8,34.7-123.7,131.1-89,214.9s131.1,123.7,214.9,89c83.8-34.7,123.7-131.1,89-214.9
		C697.8,230.2,601.3,190.3,517.5,225z M635.4,509.5c-73.1,30.3-157.2-4.6-187.5-77.7c-30.3-73.1,4.6-157.2,77.7-187.5
		c73.1-30.3,157.2,4.6,187.5,77.7C743.4,395.2,708.5,479.3,635.4,509.5z"/>
	<polygon class="st2" points="593.8,422.9 515,393.6 507.7,413.3 610.7,451.6 634.8,291.1 614,288 	"/>
	<path class="st2" d="M945.5,225c-83.8,34.7-123.7,131.1-89,214.9s131.1,123.7,214.9,89c83.8-34.7,123.7-131.1,89-214.9
		C1125.8,230.2,1029.3,190.3,945.5,225z M1063.4,509.5c-73.1,30.3-157.2-4.6-187.5-77.7c-30.3-73.1,4.6-157.2,77.7-187.5
		c73.1-30.3,157.2,4.6,187.5,77.7S1136.5,479.3,1063.4,509.5z"/>
	<polygon class="st2" points="1021.8,422.9 943,393.6 935.7,413.3 1038.7,451.6 1062.8,291.1 1042,288 	"/>
	<path class="st2" d="M1373.5,225c-83.8,34.7-123.7,131.1-89,214.9c34.7,83.8,131.1,123.7,214.9,89c83.8-34.7,123.7-131.1,89-214.9
		C1553.8,230.2,1457.3,190.3,1373.5,225z M1491.4,509.5c-73.1,30.3-157.2-4.6-187.5-77.7c-30.3-73.1,4.6-157.2,77.7-187.5
		c73.1-30.3,157.2,4.6,187.5,77.7S1564.5,479.3,1491.4,509.5z"/>
	<polygon class="st2" points="1449.8,422.9 1371,393.6 1363.7,413.3 1466.7,451.6 1490.8,291.1 1470,288 	"/>
	<path class="st2" d="M1801.5,225c-83.8,34.7-123.7,131.1-89,214.9c34.7,83.8,131.1,123.7,214.9,89c83.8-34.7,123.7-131.1,89-214.9
		C1981.8,230.2,1885.3,190.3,1801.5,225z M1919.4,509.5c-73.1,30.3-157.2-4.6-187.5-77.7c-30.3-73.1,4.6-157.2,77.7-187.5
		c73.1-30.3,157.2,4.6,187.5,77.7S1992.5,479.3,1919.4,509.5z"/>
	<polygon class="st2" points="1877.8,422.9 1799,393.6 1791.7,413.3 1894.7,451.6 1918.8,291.1 1898,288 	"/>
	<path class="st2" d="M2229.5,225c-83.8,34.7-123.7,131.1-89,214.9s131.1,123.7,214.9,89c83.8-34.7,123.7-131.1,89-214.9
		C2409.8,230.2,2313.3,190.3,2229.5,225z M2347.4,509.5c-73.1,30.3-157.2-4.6-187.5-77.7c-30.3-73.1,4.6-157.2,77.7-187.5
		c73.1-30.3,157.2,4.6,187.5,77.7S2420.5,479.3,2347.4,509.5z"/>
	<polygon class="st2" points="2305.8,422.9 2227,393.6 2219.7,413.3 2322.7,451.6 2346.8,291.1 2326,288 	"/>
	<path class="st2" d="M2657.5,225c-83.8,34.7-123.7,131.1-89,214.9s131.1,123.7,214.9,89c83.8-34.7,123.7-131.1,89-214.9
		C2837.8,230.2,2741.3,190.3,2657.5,225z M2775.4,509.5c-73.1,30.3-157.2-4.6-187.5-77.7c-30.3-73.1,4.6-157.2,77.7-187.5
		c73.1-30.3,157.2,4.6,187.5,77.7S2848.5,479.3,2775.4,509.5z"/>
	<polygon class="st2" points="2733.8,422.9 2655,393.6 2647.7,413.3 2750.7,451.6 2774.8,291.1 2754,288 	"/>
	<path class="st2" d="M3085.5,225c-83.8,34.7-123.7,131.1-89,214.9s131.1,123.7,214.9,89c83.8-34.7,123.7-131.1,89-214.9
		C3265.8,230.2,3169.3,190.3,3085.5,225z M3203.4,509.5c-73.1,30.3-157.2-4.6-187.5-77.7c-30.3-73.1,4.6-157.2,77.7-187.5
		c73.1-30.3,157.2,4.6,187.5,77.7S3276.5,479.3,3203.4,509.5z"/>
	<polygon class="st2" points="3161.8,422.9 3083,393.6 3075.7,413.3 3178.7,451.6 3202.8,291.1 3182,288 	"/>
	<path class="st2" d="M3513.5,225c-83.8,34.7-123.7,131.1-89,214.9s131.1,123.7,214.9,89c42.4-17.6,73.6-51,89.5-90.5V315.3
		c-0.2-0.4-0.3-0.9-0.5-1.3C3693.8,230.2,3597.3,190.3,3513.5,225z M3631.4,509.5c-73.1,30.3-157.2-4.6-187.5-77.7
		c-30.3-73.1,4.6-157.2,77.7-187.5c73.1-30.3,157.2,4.6,187.5,77.7S3704.5,479.3,3631.4,509.5z"/>
	<polygon class="st2" points="3589.8,422.9 3511,393.6 3503.7,413.3 3606.7,451.6 3630.8,291.1 3610,288 	"/>
	<path class="st2" d="M90.5,643C72.9,600.6,39.5,569.4,0,553.5v22.9c31,14.7,56.9,40.5,71.1,74.7c29.4,70.9-2.5,152.1-71.1,184.6
		v22.9c0.5-0.2,1-0.4,1.5-0.6C85.3,823.2,125.2,726.8,90.5,643z"/>
	<path class="st2" d="M303.5,554c-83.8,34.7-123.7,131.1-89,214.9s131.1,123.7,214.9,89c83.8-34.7,123.7-131.1,89-214.9
		C483.8,559.2,387.3,519.3,303.5,554z M499.1,651.1c30.3,73.1-4.6,157.2-77.7,187.5s-157.2-4.6-187.5-77.7
		c-30.3-73.1,4.6-157.2,77.7-187.5S468.8,577.9,499.1,651.1z"/>
	<polygon class="st2" points="293.7,742.3 396.7,780.6 420.8,620.1 400,617 379.8,751.9 301,722.6 	"/>
	<path class="st2" d="M731.5,554c-83.8,34.7-123.7,131.1-89,214.9s131.1,123.7,214.9,89c83.8-34.7,123.7-131.1,89-214.9
		C911.8,559.2,815.3,519.3,731.5,554z M927.1,651.1c30.3,73.1-4.6,157.2-77.7,187.5s-157.2-4.6-187.5-77.7
		c-30.3-73.1,4.6-157.2,77.7-187.5S896.8,577.9,927.1,651.1z"/>
	<polygon class="st2" points="721.7,742.3 824.7,780.6 848.8,620.1 828,617 807.8,751.9 729,722.6 	"/>
	<path class="st2" d="M1159.5,554c-83.8,34.7-123.7,131.1-89,214.9c34.7,83.8,131.1,123.7,214.9,89c83.8-34.7,123.7-131.1,89-214.9
		C1339.8,559.2,1243.3,519.3,1159.5,554z M1355.1,651.1c30.3,73.1-4.6,157.2-77.7,187.5c-73.1,30.3-157.2-4.6-187.5-77.7
		s4.6-157.2,77.7-187.5C1240.7,543.1,1324.8,577.9,1355.1,651.1z"/>
	<polygon class="st2" points="1149.7,742.3 1252.7,780.6 1276.8,620.1 1256,617 1235.8,751.9 1157,722.6 	"/>
	<path class="st2" d="M1587.5,554c-83.8,34.7-123.7,131.1-89,214.9c34.7,83.8,131.1,123.7,214.9,89c83.8-34.7,123.7-131.1,89-214.9
		C1767.8,559.2,1671.3,519.3,1587.5,554z M1783.1,651.1c30.3,73.1-4.6,157.2-77.7,187.5c-73.1,30.3-157.2-4.6-187.5-77.7
		s4.6-157.2,77.7-187.5C1668.7,543.1,1752.8,577.9,1783.1,651.1z"/>
	<polygon class="st2" points="1577.7,742.3 1680.7,780.6 1704.8,620.1 1684,617 1663.8,751.9 1585,722.6 	"/>
	<path class="st2" d="M2015.5,554c-83.8,34.7-123.7,131.1-89,214.9c34.7,83.8,131.1,123.7,214.9,89c83.8-34.7,123.7-131.1,89-214.9
		C2195.8,559.2,2099.3,519.3,2015.5,554z M2211.1,651.1c30.3,73.1-4.6,157.2-77.7,187.5c-73.1,30.3-157.2-4.6-187.5-77.7
		s4.6-157.2,77.7-187.5C2096.7,543.1,2180.8,577.9,2211.1,651.1z"/>
	<polygon class="st2" points="2005.7,742.3 2108.7,780.6 2132.8,620.1 2112,617 2091.8,751.9 2013,722.6 	"/>
	<path class="st2" d="M2443.5,554c-83.8,34.7-123.7,131.1-89,214.9s131.1,123.7,214.9,89c83.8-34.7,123.7-131.1,89-214.9
		C2623.8,559.2,2527.3,519.3,2443.5,554z M2639.1,651.1c30.3,73.1-4.6,157.2-77.7,187.5c-73.1,30.3-157.2-4.6-187.5-77.7
		s4.6-157.2,77.7-187.5C2524.7,543.1,2608.8,577.9,2639.1,651.1z"/>
	<polygon class="st2" points="2433.7,742.3 2536.7,780.6 2560.8,620.1 2540,617 2519.8,751.9 2441,722.6 	"/>
	<path class="st2" d="M2871.5,554c-83.8,34.7-123.7,131.1-89,214.9s131.1,123.7,214.9,89c83.8-34.7,123.7-131.1,89-214.9
		C3051.8,559.2,2955.3,519.3,2871.5,554z M3067.1,651.1c30.3,73.1-4.6,157.2-77.7,187.5c-73.1,30.3-157.2-4.6-187.5-77.7
		s4.6-157.2,77.7-187.5C2952.7,543.1,3036.8,577.9,3067.1,651.1z"/>
	<polygon class="st2" points="2861.7,742.3 2964.7,780.6 2988.8,620.1 2968,617 2947.8,751.9 2869,722.6 	"/>
	<path class="st2" d="M3299.5,554c-83.8,34.7-123.7,131.1-89,214.9s131.1,123.7,214.9,89c83.8-34.7,123.7-131.1,89-214.9
		C3479.8,559.2,3383.3,519.3,3299.5,554z M3495.1,651.1c30.3,73.1-4.6,157.2-77.7,187.5c-73.1,30.3-157.2-4.6-187.5-77.7
		s4.6-157.2,77.7-187.5C3380.7,543.1,3464.8,577.9,3495.1,651.1z"/>
	<polygon class="st2" points="3289.7,742.3 3392.7,780.6 3416.8,620.1 3396,617 3375.8,751.9 3297,722.6 	"/>
	<path class="st2" d="M3638.5,768.9c17.6,42.4,50.9,73.6,90.5,89.5v-22.9c-31-14.7-56.9-40.5-71.1-74.7
		c-29.4-70.9,2.5-152.1,71.1-184.6v-22.9c-0.5,0.2-1,0.4-1.5,0.6C3643.7,588.7,3603.8,685.1,3638.5,768.9z"/>
	<polygon class="st2" points="3717.7,742.3 3729,746.5 3729,724.1 3725,722.6 	"/>
	<path class="st2" d="M215.5,1186.9c83.8-34.7,123.7-131.1,89-214.9S173.3,848.3,89.5,883C47.1,900.6,15.9,934,0,973.5v123.1
		c0.2,0.4,0.3,0.9,0.5,1.3C35.2,1181.7,131.7,1221.7,215.5,1186.9z M97.6,902.4c73.1-30.3,157.2,4.6,187.5,77.7
		c30.3,73.1-4.6,157.2-77.7,187.5s-157.2-4.6-187.5-77.7C-10.4,1016.8,24.5,932.7,97.6,902.4z"/>
	<polygon class="st2" points="206.8,949.1 186,946 165.8,1080.9 87,1051.6 79.7,1071.3 182.7,1109.6 	"/>
	<path class="st2" d="M643.5,1186.9c83.8-34.7,123.7-131.1,89-214.9s-131.1-123.7-214.9-89c-83.8,34.7-123.7,131.1-89,214.9
		C463.2,1181.7,559.7,1221.7,643.5,1186.9z M447.9,1089.9c-30.3-73.1,4.6-157.2,77.7-187.5c73.1-30.3,157.2,4.6,187.5,77.7
		c30.3,73.1-4.6,157.2-77.7,187.5S478.2,1163,447.9,1089.9z"/>
	<polygon class="st2" points="634.8,949.1 614,946 593.8,1080.9 515,1051.6 507.7,1071.3 610.7,1109.6 	"/>
	<path class="st2" d="M1071.5,1186.9c83.8-34.7,123.7-131.1,89-214.9c-34.7-83.8-131.1-123.7-214.9-89
		c-83.8,34.7-123.7,131.1-89,214.9C891.2,1181.7,987.7,1221.7,1071.5,1186.9z M875.9,1089.9c-30.3-73.1,4.6-157.2,77.7-187.5
		c73.1-30.3,157.2,4.6,187.5,77.7c30.3,73.1-4.6,157.2-77.7,187.5C990.3,1197.8,906.2,1163,875.9,1089.9z"/>
	<polygon class="st2" points="1062.8,949.1 1042,946 1021.8,1080.9 943,1051.6 935.7,1071.3 1038.7,1109.6 	"/>
	<path class="st2" d="M1499.5,1186.9c83.8-34.7,123.7-131.1,89-214.9c-34.7-83.8-131.1-123.7-214.9-89
		c-83.8,34.7-123.7,131.1-89,214.9C1319.2,1181.7,1415.7,1221.7,1499.5,1186.9z M1303.9,1089.9c-30.3-73.1,4.6-157.2,77.7-187.5
		c73.1-30.3,157.2,4.6,187.5,77.7c30.3,73.1-4.6,157.2-77.7,187.5C1418.3,1197.8,1334.2,1163,1303.9,1089.9z"/>
	<polygon class="st2" points="1490.8,949.1 1470,946 1449.8,1080.9 1371,1051.6 1363.7,1071.3 1466.7,1109.6 	"/>
	<path class="st2" d="M1927.5,1186.9c83.8-34.7,123.7-131.1,89-214.9c-34.7-83.8-131.1-123.7-214.9-89
		c-83.8,34.7-123.7,131.1-89,214.9C1747.2,1181.7,1843.7,1221.7,1927.5,1186.9z M1731.9,1089.9c-30.3-73.1,4.6-157.2,77.7-187.5
		c73.1-30.3,157.2,4.6,187.5,77.7c30.3,73.1-4.6,157.2-77.7,187.5C1846.3,1197.8,1762.2,1163,1731.9,1089.9z"/>
	<polygon class="st2" points="1918.8,949.1 1898,946 1877.8,1080.9 1799,1051.6 1791.7,1071.3 1894.7,1109.6 	"/>
	<path class="st2" d="M2355.5,1186.9c83.8-34.7,123.7-131.1,89-214.9s-131.1-123.7-214.9-89c-83.8,34.7-123.7,131.1-89,214.9
		C2175.2,1181.7,2271.7,1221.7,2355.5,1186.9z M2159.9,1089.9c-30.3-73.1,4.6-157.2,77.7-187.5c73.1-30.3,157.2,4.6,187.5,77.7
		c30.3,73.1-4.6,157.2-77.7,187.5C2274.3,1197.8,2190.2,1163,2159.9,1089.9z"/>
	<polygon class="st2" points="2346.8,949.1 2326,946 2305.8,1080.9 2227,1051.6 2219.7,1071.3 2322.7,1109.6 	"/>
	<path class="st2" d="M2783.5,1186.9c83.8-34.7,123.7-131.1,89-214.9s-131.1-123.7-214.9-89c-83.8,34.7-123.7,131.1-89,214.9
		C2603.2,1181.7,2699.7,1221.7,2783.5,1186.9z M2587.9,1089.9c-30.3-73.1,4.6-157.2,77.7-187.5c73.1-30.3,157.2,4.6,187.5,77.7
		c30.3,73.1-4.6,157.2-77.7,187.5C2702.3,1197.8,2618.2,1163,2587.9,1089.9z"/>
	<polygon class="st2" points="2774.8,949.1 2754,946 2733.8,1080.9 2655,1051.6 2647.7,1071.3 2750.7,1109.6 	"/>
	<path class="st2" d="M3211.5,1186.9c83.8-34.7,123.7-131.1,89-214.9s-131.1-123.7-214.9-89c-83.8,34.7-123.7,131.1-89,214.9
		C3031.2,1181.7,3127.7,1221.7,3211.5,1186.9z M3015.9,1089.9c-30.3-73.1,4.6-157.2,77.7-187.5c73.1-30.3,157.2,4.6,187.5,77.7
		c30.3,73.1-4.6,157.2-77.7,187.5C3130.3,1197.8,3046.2,1163,3015.9,1089.9z"/>
	<polygon class="st2" points="3202.8,949.1 3182,946 3161.8,1080.9 3083,1051.6 3075.7,1071.3 3178.7,1109.6 	"/>
	<path class="st2" d="M3639.5,1186.9c42.4-17.6,73.6-51,89.5-90.5V973.3c-0.2-0.4-0.3-0.9-0.5-1.3c-34.7-83.8-131.1-123.7-214.9-89
		c-83.8,34.7-123.7,131.1-89,214.9C3459.2,1181.7,3555.7,1221.7,3639.5,1186.9z M3443.9,1089.9c-30.3-73.1,4.6-157.2,77.7-187.5
		c73.1-30.3,157.2,4.6,187.5,77.7c30.3,73.1-4.6,157.2-77.7,187.5C3558.3,1197.8,3474.2,1163,3443.9,1089.9z"/>
	<polygon class="st2" points="3630.8,949.1 3610,946 3589.8,1080.9 3511,1051.6 3503.7,1071.3 3606.7,1109.6 	"/>
	<path class="st2" d="M90.5,1301c-17.6-42.4-50.9-73.6-90.5-89.5v22.9c31,14.7,56.9,40.5,71.1,74.7c29.4,70.9-2.5,152.1-71.1,184.6
		v22.9c0.5-0.2,1-0.4,1.5-0.6C85.3,1481.2,125.2,1384.8,90.5,1301z"/>
	<path class="st2" d="M429.5,1515.9c83.8-34.7,123.7-131.1,89-214.9c-34.7-83.8-131.1-123.7-214.9-89
		c-83.8,34.7-123.7,131.1-89,214.9C249.2,1510.7,345.7,1550.7,429.5,1515.9z M311.6,1231.4c73.1-30.3,157.2,4.6,187.5,77.7
		c30.3,73.1-4.6,157.2-77.7,187.5s-157.2-4.6-187.5-77.7C203.6,1345.8,238.5,1261.7,311.6,1231.4z"/>
	<polygon class="st2" points="420.8,1278.1 400,1275 379.8,1409.9 301,1380.6 293.7,1400.3 396.7,1438.6 	"/>
	<path class="st2" d="M857.5,1515.9c83.8-34.7,123.7-131.1,89-214.9c-34.7-83.8-131.1-123.7-214.9-89
		c-83.8,34.7-123.7,131.1-89,214.9C677.2,1510.7,773.7,1550.7,857.5,1515.9z M739.6,1231.4c73.1-30.3,157.2,4.6,187.5,77.7
		c30.3,73.1-4.6,157.2-77.7,187.5s-157.2-4.6-187.5-77.7C631.6,1345.8,666.5,1261.7,739.6,1231.4z"/>
	<polygon class="st2" points="848.8,1278.1 828,1275 807.8,1409.9 729,1380.6 721.7,1400.3 824.7,1438.6 	"/>
	<path class="st2" d="M1285.5,1515.9c83.8-34.7,123.7-131.1,89-214.9c-34.7-83.8-131.1-123.7-214.9-89
		c-83.8,34.7-123.7,131.1-89,214.9C1105.2,1510.7,1201.7,1550.7,1285.5,1515.9z M1167.6,1231.4c73.1-30.3,157.2,4.6,187.5,77.7
		c30.3,73.1-4.6,157.2-77.7,187.5c-73.1,30.3-157.2-4.6-187.5-77.7C1059.6,1345.8,1094.5,1261.7,1167.6,1231.4z"/>
	<polygon class="st2" points="1276.8,1278.1 1256,1275 1235.8,1409.9 1157,1380.6 1149.7,1400.3 1252.7,1438.6 	"/>
	<path class="st2" d="M1713.5,1515.9c83.8-34.7,123.7-131.1,89-214.9c-34.7-83.8-131.1-123.7-214.9-89
		c-83.8,34.7-123.7,131.1-89,214.9C1533.2,1510.7,1629.7,1550.7,1713.5,1515.9z M1595.6,1231.4c73.1-30.3,157.2,4.6,187.5,77.7
		c30.3,73.1-4.6,157.2-77.7,187.5c-73.1,30.3-157.2-4.6-187.5-77.7C1487.6,1345.8,1522.5,1261.7,1595.6,1231.4z"/>
	<polygon class="st2" points="1704.8,1278.1 1684,1275 1663.8,1409.9 1585,1380.6 1577.7,1400.3 1680.7,1438.6 	"/>
	<path class="st2" d="M2141.5,1515.9c83.8-34.7,123.7-131.1,89-214.9c-34.7-83.8-131.1-123.7-214.9-89
		c-83.8,34.7-123.7,131.1-89,214.9C1961.2,1510.7,2057.7,1550.7,2141.5,1515.9z M2023.6,1231.4c73.1-30.3,157.2,4.6,187.5,77.7
		c30.3,73.1-4.6,157.2-77.7,187.5c-73.1,30.3-157.2-4.6-187.5-77.7C1915.6,1345.8,1950.5,1261.7,2023.6,1231.4z"/>
	<polygon class="st2" points="2132.8,1278.1 2112,1275 2091.8,1409.9 2013,1380.6 2005.7,1400.3 2108.7,1438.6 	"/>
	<path class="st2" d="M2569.5,1515.9c83.8-34.7,123.7-131.1,89-214.9c-34.7-83.8-131.1-123.7-214.9-89
		c-83.8,34.7-123.7,131.1-89,214.9C2389.2,1510.7,2485.7,1550.7,2569.5,1515.9z M2451.6,1231.4c73.1-30.3,157.2,4.6,187.5,77.7
		c30.3,73.1-4.6,157.2-77.7,187.5c-73.1,30.3-157.2-4.6-187.5-77.7C2343.6,1345.8,2378.5,1261.7,2451.6,1231.4z"/>
	<polygon class="st2" points="2560.8,1278.1 2540,1275 2519.8,1409.9 2441,1380.6 2433.7,1400.3 2536.7,1438.6 	"/>
	<path class="st2" d="M2997.5,1515.9c83.8-34.7,123.7-131.1,89-214.9c-34.7-83.8-131.1-123.7-214.9-89
		c-83.8,34.7-123.7,131.1-89,214.9C2817.2,1510.7,2913.7,1550.7,2997.5,1515.9z M2879.6,1231.4c73.1-30.3,157.2,4.6,187.5,77.7
		c30.3,73.1-4.6,157.2-77.7,187.5c-73.1,30.3-157.2-4.6-187.5-77.7C2771.6,1345.8,2806.5,1261.7,2879.6,1231.4z"/>
	<polygon class="st2" points="2988.8,1278.1 2968,1275 2947.8,1409.9 2869,1380.6 2861.7,1400.3 2964.7,1438.6 	"/>
	<path class="st2" d="M3425.5,1515.9c83.8-34.7,123.7-131.1,89-214.9c-34.7-83.8-131.1-123.7-214.9-89
		c-83.8,34.7-123.7,131.1-89,214.9C3245.2,1510.7,3341.7,1550.7,3425.5,1515.9z M3307.6,1231.4c73.1-30.3,157.2,4.6,187.5,77.7
		c30.3,73.1-4.6,157.2-77.7,187.5c-73.1,30.3-157.2-4.6-187.5-77.7C3199.6,1345.8,3234.5,1261.7,3307.6,1231.4z"/>
	<polygon class="st2" points="3416.8,1278.1 3396,1275 3375.8,1409.9 3297,1380.6 3289.7,1400.3 3392.7,1438.6 	"/>
	<path class="st2" d="M3657.9,1418.9c-29.4-70.9,2.5-152.1,71.1-184.6v-22.9c-0.5,0.2-1,0.4-1.5,0.6
		c-83.8,34.7-123.7,131.1-89,214.9c17.6,42.4,50.9,73.6,90.5,89.5v-22.9C3698,1478.8,3672.1,1453,3657.9,1418.9z"/>
	<polygon class="st2" points="3717.7,1400.3 3729,1404.5 3729,1382.1 3725,1380.6 	"/>
	<path class="st2" d="M316.8,1700c1-23.3-2.9-47.1-12.4-70c-34.7-83.8-131.1-123.7-214.9-89c-42.4,17.6-73.6,51-89.5,90.5v68.5h9.2
		c-2.8-58.8,31-115.8,88.4-139.6c73.1-30.3,157.2,4.6,187.5,77.7c8.4,20.3,11.8,41.4,10.7,62H316.8z"/>
	<polygon class="st2" points="171.6,1700 192.8,1700 206.8,1607.1 186,1604 	"/>
	<path class="st2" d="M744.8,1700c1-23.3-2.9-47.1-12.4-70c-34.7-83.8-131.1-123.7-214.9-89c-65.5,27.1-104.2,92-101.4,159h21
		c-2.8-58.8,31-115.8,88.4-139.6c73.1-30.3,157.2,4.6,187.5,77.7c8.4,20.3,11.8,41.4,10.7,62H744.8z"/>
	<polygon class="st2" points="599.6,1700 620.8,1700 634.8,1607.1 614,1604 	"/>
	<path class="st2" d="M1172.8,1700c1-23.3-2.9-47.1-12.4-70c-34.7-83.8-131.1-123.7-214.9-89c-65.5,27.1-104.2,92-101.4,159h21
		c-2.8-58.8,31-115.8,88.4-139.6c73.1-30.3,157.2,4.6,187.5,77.7c8.4,20.3,11.8,41.4,10.7,62H1172.8z"/>
	<polygon class="st2" points="1027.6,1700 1048.8,1700 1062.8,1607.1 1042,1604 	"/>
	<path class="st2" d="M1600.8,1700c1-23.3-2.9-47.1-12.4-70c-34.7-83.8-131.1-123.7-214.9-89c-65.5,27.1-104.2,92-101.4,159h21
		c-2.8-58.8,31-115.8,88.4-139.6c73.1-30.3,157.2,4.6,187.5,77.7c8.4,20.3,11.8,41.4,10.7,62H1600.8z"/>
	<polygon class="st2" points="1455.6,1700 1476.8,1700 1490.8,1607.1 1470,1604 	"/>
	<path class="st2" d="M2028.8,1700c1-23.3-2.9-47.1-12.4-70c-34.7-83.8-131.1-123.7-214.9-89c-65.5,27.1-104.2,92-101.4,159h21
		c-2.8-58.8,31-115.8,88.4-139.6c73.1-30.3,157.2,4.6,187.5,77.7c8.4,20.3,11.8,41.4,10.7,62H2028.8z"/>
	<polygon class="st2" points="1883.6,1700 1904.8,1700 1918.8,1607.1 1898,1604 	"/>
	<path class="st2" d="M2456.8,1700c1-23.3-2.9-47.1-12.4-70c-34.7-83.8-131.1-123.7-214.9-89c-65.5,27.1-104.2,92-101.4,159h21
		c-2.8-58.8,31-115.8,88.4-139.6c73.1-30.3,157.2,4.6,187.5,77.7c8.4,20.3,11.8,41.4,10.7,62H2456.8z"/>
	<polygon class="st2" points="2311.6,1700 2332.8,1700 2346.8,1607.1 2326,1604 	"/>
	<path class="st2" d="M2884.8,1700c1-23.3-2.9-47.1-12.4-70c-34.7-83.8-131.1-123.7-214.9-89c-65.5,27.1-104.2,92-101.4,159h21
		c-2.8-58.8,31-115.8,88.4-139.6c73.1-30.3,157.2,4.6,187.5,77.7c8.4,20.3,11.8,41.4,10.7,62H2884.8z"/>
	<polygon class="st2" points="2739.6,1700 2760.8,1700 2774.8,1607.1 2754,1604 	"/>
	<path class="st2" d="M3312.8,1700c1-23.3-2.9-47.1-12.4-70c-34.7-83.8-131.1-123.7-214.9-89c-65.5,27.1-104.2,92-101.4,159h21
		c-2.8-58.8,31-115.8,88.4-139.6c73.1-30.3,157.2,4.6,187.5,77.7c8.4,20.3,11.8,41.4,10.7,62H3312.8z"/>
	<polygon class="st2" points="3167.6,1700 3188.8,1700 3202.8,1607.1 3182,1604 	"/>
	<path class="st2" d="M3729,1700v-68.7c-0.2-0.4-0.3-0.9-0.5-1.3c-34.7-83.8-131.1-123.7-214.9-89c-65.5,27.1-104.2,92-101.4,159h21
		c-2.8-58.8,31-115.8,88.4-139.6c73.1-30.3,157.2,4.6,187.5,77.7c8.4,20.3,11.8,41.4,10.7,62H3729z"/>
	<polygon class="st2" points="3595.6,1700 3616.8,1700 3630.8,1607.1 3610,1604 	"/>
</g>
</svg>
