<svg id="Layer_1" data-name="Layer 1" xmlns="http://www.w3.org/2000/svg" viewBox="0 0 600 600"><defs><style>.cls-1{fill:#3f3e3e;}.cls-2{fill:none;}</style></defs><title>typoblock</title><path class="cls-1" d="M250.3,379.3H164.78l-14.93,48.36H83.17l95-258.88h58.67l95.66,258.88h-67Zm-70.58-48.18h55.65l-27.92-89.79Z"/><path class="cls-1" d="M456.91,427.66q-3.2-5.87-5.69-17.25-16.53,20.8-46.23,20.81-27.19,0-46.23-16.45t-19-41.34q0-31.29,23.11-47.29t67.21-16h18.49V299.94q0-26.62-22.93-26.61-21.35,0-21.34,21.07H344.36q0-27.87,23.74-45.28t60.54-17.4q36.81,0,58.14,18t21.87,49.25V384.1q.36,26.49,8.18,40.54v3Zm-37.52-39.11q11.21,0,18.58-4.81t10.58-10.84V342.14H431.13q-31.29,0-31.29,28.09a17.15,17.15,0,0,0,5.51,13.25Q410.85,388.55,419.39,388.55Z"/><rect class="cls-2" width="600" height="600"/></svg>