<svg xmlns="http://www.w3.org/2000/svg" viewBox="0 0 3729 1700"><defs><style>.cls-1{fill:#c1282e;}.cls-2{fill:#a22527;}</style></defs><title>downloadheader</title><g id="Layer_2" data-name="Layer 2"><g id="Layer_1-2" data-name="Layer 1"><rect class="cls-1" width="3729" height="1700"/><path class="cls-1" d="M2430.23,1277.55a12.33,12.33,0,0,0,7.31,7.28,14.37,14.37,0,0,0,10.72-.5q7.44-3.07,11-8.3a21.64,21.64,0,0,0,4.05-10.11l-8.46-20.43-11.57,4.8Q2422.5,1258.89,2430.23,1277.55Z"/><polygon class="cls-1" points="772.26 1559.81 729.03 1507.87 735.31 1575.12 772.26 1559.81"/><polygon class="cls-1" points="659.03 1244.87 665.31 1312.12 702.26 1296.81 659.03 1244.87"/><polygon class="cls-1" points="2465.31 523.12 2502.26 507.81 2459.03 455.87 2465.31 523.12"/><polygon class="cls-1" points="2535.31 786.12 2572.26 770.81 2529.03 718.87 2535.31 786.12"/><path class="cls-1" d="M2360.23,1014.55a12.33,12.33,0,0,0,7.31,7.28,14.37,14.37,0,0,0,10.72-.5q7.44-3.08,11-8.3a21.64,21.64,0,0,0,4.05-10.11l-8.46-20.43-11.57,4.8Q2352.5,995.89,2360.23,1014.55Z"/><path class="cls-1" d="M905.29,1513.29q-20.79,8.6-13.06,27.26a12.33,12.33,0,0,0,7.31,7.28,14.37,14.37,0,0,0,10.72-.5q7.44-3.07,11-8.3a21.64,21.64,0,0,0,4.05-10.11l-8.46-20.43Z"/><polygon class="cls-1" points="370.26 1559.81 327.03 1507.87 333.31 1575.12 370.26 1559.81"/><polygon class="cls-1" points="991.03 981.87 997.31 1049.12 1034.26 1033.81 991.03 981.87"/><path class="cls-1" d="M2954.23,225.55a12.33,12.33,0,0,0,7.31,7.28,14.37,14.37,0,0,0,10.72-.5q7.44-3.08,11-8.3a21.64,21.64,0,0,0,4.05-10.11l-8.46-20.43-11.57,4.8Q2946.5,206.89,2954.23,225.55Z"/><polygon class="cls-1" points="257.03 1244.87 263.31 1312.12 300.26 1296.81 257.03 1244.87"/><polygon class="cls-1" points="589.03 981.87 595.31 1049.12 632.26 1033.81 589.03 981.87"/><path class="cls-1" d="M2692.23,751.55a12.33,12.33,0,0,0,7.31,7.28,14.37,14.37,0,0,0,10.72-.5q7.44-3.08,11-8.3a21.64,21.64,0,0,0,4.05-10.11l-8.46-20.43-11.57,4.8Q2684.5,732.89,2692.23,751.55Z"/><path class="cls-1" d="M503.29,1513.29q-20.79,8.6-13.06,27.26a12.33,12.33,0,0,0,7.31,7.28,14.37,14.37,0,0,0,10.72-.5q7.44-3.07,11-8.3a21.64,21.64,0,0,0,4.05-10.11l-8.46-20.43Z"/><polygon class="cls-1" points="2834.26 244.81 2791.03 192.87 2797.31 260.12 2834.26 244.81"/><polygon class="cls-1" points="2432.26 244.81 2389.03 192.87 2395.31 260.12 2432.26 244.81"/><polygon class="cls-1" points="1576.26 1559.81 1533.03 1507.87 1539.31 1575.12 1576.26 1559.81"/><path class="cls-1" d="M2028.23,1277.55a12.33,12.33,0,0,0,7.31,7.28,14.37,14.37,0,0,0,10.72-.5q7.44-3.07,11-8.3a21.64,21.64,0,0,0,4.05-10.11l-8.46-20.43-11.57,4.8Q2020.5,1258.89,2028.23,1277.55Z"/><polygon class="cls-1" points="1463.03 1244.87 1469.31 1312.12 1506.26 1296.81 1463.03 1244.87"/><path class="cls-1" d="M1709.29,1513.29q-20.79,8.6-13.06,27.26a12.33,12.33,0,0,0,7.31,7.28,14.37,14.37,0,0,0,10.72-.5q7.44-3.07,11-8.3a21.64,21.64,0,0,0,4-10.11l-8.46-20.43Z"/><path class="cls-1" d="M1958.23,1014.55a12.33,12.33,0,0,0,7.31,7.28,14.37,14.37,0,0,0,10.72-.5q7.44-3.08,11-8.3a21.64,21.64,0,0,0,4-10.11l-8.46-20.43-11.57,4.8Q1950.5,995.89,1958.23,1014.55Z"/><path class="cls-1" d="M2622.23,488.55a12.33,12.33,0,0,0,7.31,7.28,14.37,14.37,0,0,0,10.72-.5q7.44-3.07,11-8.3a21.64,21.64,0,0,0,4.05-10.11l-8.46-20.43-11.57,4.8Q2614.5,469.89,2622.23,488.55Z"/><polygon class="cls-1" points="2133.31 786.12 2170.26 770.81 2127.03 718.87 2133.31 786.12"/><polygon class="cls-1" points="2063.31 523.12 2100.26 507.81 2057.03 455.87 2063.31 523.12"/><polygon class="cls-1" points="1393.03 981.87 1399.31 1049.12 1436.26 1033.81 1393.03 981.87"/><polygon class="cls-1" points="1061.03 1244.87 1067.31 1312.12 1104.26 1296.81 1061.03 1244.87"/><polygon class="cls-1" points="1174.26 1559.81 1131.03 1507.87 1137.31 1575.12 1174.26 1559.81"/><path class="cls-1" d="M2552.23,225.55a12.33,12.33,0,0,0,7.31,7.28,14.37,14.37,0,0,0,10.72-.5q7.44-3.08,11-8.3a21.64,21.64,0,0,0,4.05-10.11l-8.46-20.43-11.57,4.8Q2544.5,206.89,2552.23,225.55Z"/><path class="cls-1" d="M2290.23,751.55a12.33,12.33,0,0,0,7.31,7.28,14.37,14.37,0,0,0,10.72-.5q7.44-3.08,11-8.3a21.64,21.64,0,0,0,4.05-10.11l-8.46-20.43-11.57,4.8Q2282.5,732.89,2290.23,751.55Z"/><path class="cls-1" d="M3024.23,488.55a12.33,12.33,0,0,0,7.31,7.28,14.37,14.37,0,0,0,10.72-.5q7.44-3.07,11-8.3a21.64,21.64,0,0,0,4.05-10.11l-8.46-20.43-11.57,4.8Q3016.5,469.89,3024.23,488.55Z"/><path class="cls-1" d="M1307.29,1513.29q-20.79,8.6-13.06,27.26a12.33,12.33,0,0,0,7.31,7.28,14.37,14.37,0,0,0,10.72-.5q7.44-3.07,11-8.3a21.64,21.64,0,0,0,4-10.11l-8.46-20.43Z"/><path class="cls-1" d="M612.23,488.55a12.33,12.33,0,0,0,7.31,7.28,14.37,14.37,0,0,0,10.72-.5q7.44-3.07,11-8.3a21.64,21.64,0,0,0,4.05-10.11l-8.46-20.43-11.57,4.8Q604.5,469.89,612.23,488.55Z"/><path class="cls-1" d="M3706.23,1540.55a12.33,12.33,0,0,0,7.31,7.28,14.37,14.37,0,0,0,10.72-.5,31.41,31.41,0,0,0,4.74-2.44v-35.63l-9.71,4Q3698.5,1521.89,3706.23,1540.55Z"/><path class="cls-1" d="M3164.23,1014.55a12.33,12.33,0,0,0,7.31,7.28,14.37,14.37,0,0,0,10.72-.5q7.44-3.08,11-8.3a21.64,21.64,0,0,0,4.05-10.11l-8.46-20.43-11.57,4.8Q3156.5,995.89,3164.23,1014.55Z"/><path class="cls-1" d="M3234.23,1277.55a12.33,12.33,0,0,0,7.31,7.28,14.37,14.37,0,0,0,10.72-.5q7.44-3.07,11-8.3a21.64,21.64,0,0,0,4.05-10.11l-8.46-20.43-11.57,4.8Q3226.5,1258.89,3234.23,1277.55Z"/><path class="cls-1" d="M542.23,225.55a12.33,12.33,0,0,0,7.31,7.28,14.37,14.37,0,0,0,10.72-.5q7.44-3.08,11-8.3a21.64,21.64,0,0,0,4.05-10.11l-8.46-20.43-11.57,4.8Q534.5,206.89,542.23,225.55Z"/><path class="cls-1" d="M3649.29,1250.29q-20.79,8.6-13.06,27.26a12.33,12.33,0,0,0,7.31,7.28,14.37,14.37,0,0,0,10.72-.5q7.44-3.07,11-8.3a21.64,21.64,0,0,0,4.05-10.11l-8.46-20.43Z"/><path class="cls-1" d="M3426.23,488.55a12.33,12.33,0,0,0,7.31,7.28,14.37,14.37,0,0,0,10.72-.5q7.44-3.07,11-8.3a21.64,21.64,0,0,0,4.05-10.11l-8.46-20.43-11.57,4.8Q3418.5,469.89,3426.23,488.55Z"/><polygon class="cls-1" points="3269.31 523.12 3306.26 507.81 3263.03 455.87 3269.31 523.12"/><path class="cls-1" d="M2220.23,488.55a12.33,12.33,0,0,0,7.31,7.28,14.37,14.37,0,0,0,10.72-.5q7.44-3.07,11-8.3a21.64,21.64,0,0,0,4.05-10.11l-8.46-20.43-11.57,4.8Q2212.5,469.89,2220.23,488.55Z"/><path class="cls-1" d="M3566.23,1014.55a12.33,12.33,0,0,0,7.31,7.28,14.37,14.37,0,0,0,10.72-.5q7.44-3.08,11-8.3a21.64,21.64,0,0,0,4.05-10.11l-8.46-20.43-11.57,4.8Q3558.5,995.89,3566.23,1014.55Z"/><path class="cls-1" d="M25.54,1284.83a14.37,14.37,0,0,0,10.72-.5q7.44-3.07,11-8.3a21.64,21.64,0,0,0,4-10.11l-8.46-20.43-11.57,4.8q-20.79,8.6-13.06,27.26A12.33,12.33,0,0,0,25.54,1284.83Z"/><polygon class="cls-1" points="3339.31 786.12 3376.26 770.81 3333.03 718.87 3339.31 786.12"/><path class="cls-1" d="M34.05,1224.24l-2.8-6.77q-7.32-17.67-22.55-11.36-6.37,2.64-8.7,6.94v12c.11.29.2.58.33.87l-.33.14v14.54a127.74,127.74,0,0,1,21.77-11.32Z"/><polygon class="cls-1" points="3638.26 244.81 3595.03 192.87 3601.31 260.12 3638.26 244.81"/><polygon class="cls-1" points="3708.26 507.81 3665.03 455.87 3671.31 523.12 3708.26 507.81"/><path class="cls-1" d="M3496.23,751.55a12.33,12.33,0,0,0,7.31,7.28,14.37,14.37,0,0,0,10.72-.5q7.44-3.08,11-8.3a21.64,21.64,0,0,0,4.05-10.11l-8.46-20.43-11.57,4.8Q3488.5,732.89,3496.23,751.55Z"/><path class="cls-1" d="M2832.23,1277.55a12.33,12.33,0,0,0,7.31,7.28,14.37,14.37,0,0,0,10.72-.5q7.44-3.07,11-8.3a21.64,21.64,0,0,0,4.05-10.11l-8.46-20.43-11.57,4.8Q2824.5,1258.89,2832.23,1277.55Z"/><polygon class="cls-1" points="187.03 981.87 193.31 1049.12 230.26 1033.81 187.03 981.87"/><polygon class="cls-1" points="53.31 523.12 90.26 507.81 47.03 455.87 53.31 523.12"/><polygon class="cls-1" points="117.03 718.87 123.31 786.12 160.26 770.81 117.03 718.87"/><polygon class="cls-1" points="2867.31 523.12 2904.26 507.81 2861.03 455.87 2867.31 523.12"/><polygon class="cls-1" points="2937.31 786.12 2974.26 770.81 2931.03 718.87 2937.31 786.12"/><path class="cls-1" d="M101.29,1513.29q-20.79,8.6-13.06,27.26a12.33,12.33,0,0,0,7.31,7.28,14.37,14.37,0,0,0,10.72-.5q7.44-3.07,11-8.3a21.64,21.64,0,0,0,4-10.11l-8.46-20.43Z"/><path class="cls-1" d="M2762.23,1014.55a12.33,12.33,0,0,0,7.31,7.28,14.37,14.37,0,0,0,10.72-.5q7.44-3.08,11-8.3a21.64,21.64,0,0,0,4.05-10.11l-8.46-20.43-11.57,4.8Q2754.5,995.89,2762.23,1014.55Z"/><path class="cls-1" d="M147.54,232.83a14.37,14.37,0,0,0,10.72-.5q7.44-3.08,11-8.3a21.64,21.64,0,0,0,4-10.11l-8.46-20.43-11.57,4.8q-20.79,8.6-13.06,27.26A12.33,12.33,0,0,0,147.54,232.83Z"/><polygon class="cls-1" points="3236.26 244.81 3193.03 192.87 3199.31 260.12 3236.26 244.81"/><path class="cls-1" d="M280.23,751.55a12.33,12.33,0,0,0,7.31,7.28,14.37,14.37,0,0,0,10.72-.5q7.44-3.08,11-8.3a21.64,21.64,0,0,0,4.05-10.11l-8.46-20.43-11.57,4.8Q272.5,732.89,280.23,751.55Z"/><path class="cls-1" d="M3356.23,225.55a12.33,12.33,0,0,0,7.31,7.28,14.37,14.37,0,0,0,10.72-.5q7.44-3.08,11-8.3a21.64,21.64,0,0,0,4.05-10.11l-8.46-20.43-11.57,4.8Q3348.5,206.89,3356.23,225.55Z"/><path class="cls-1" d="M3094.23,751.55a12.33,12.33,0,0,0,7.31,7.28,14.37,14.37,0,0,0,10.72-.5q7.44-3.08,11-8.3a21.64,21.64,0,0,0,4.05-10.11l-8.46-20.43-11.57,4.8Q3086.5,732.89,3094.23,751.55Z"/><polygon class="cls-1" points="422.26 244.81 379.03 192.87 385.31 260.12 422.26 244.81"/><path class="cls-1" d="M210.23,488.55a12.33,12.33,0,0,0,7.31,7.28,14.37,14.37,0,0,0,10.72-.5q7.44-3.07,11-8.3a21.64,21.64,0,0,0,4-10.11l-8.46-20.43-11.57,4.8Q202.5,469.89,210.23,488.55Z"/><path class="cls-1" d="M1416.23,488.55a12.33,12.33,0,0,0,7.31,7.28,14.37,14.37,0,0,0,10.72-.5q7.44-3.07,11-8.3a21.64,21.64,0,0,0,4-10.11l-8.46-20.43-11.57,4.8Q1408.5,469.89,1416.23,488.55Z"/><polygon class="cls-1" points="2782.26 1559.81 2739.03 1507.87 2745.31 1575.12 2782.26 1559.81"/><path class="cls-1" d="M822.23,1277.55a12.33,12.33,0,0,0,7.31,7.28,14.37,14.37,0,0,0,10.72-.5q7.44-3.07,11-8.3a21.64,21.64,0,0,0,4.05-10.11l-8.46-20.43-11.57,4.8Q814.5,1258.89,822.23,1277.55Z"/><path class="cls-1" d="M752.23,1014.55a12.33,12.33,0,0,0,7.31,7.28,14.37,14.37,0,0,0,10.72-.5q7.44-3.08,11-8.3a21.64,21.64,0,0,0,4.05-10.11l-8.46-20.43-11.57,4.8Q744.5,995.89,752.23,1014.55Z"/><path class="cls-1" d="M2915.29,1513.29q-20.79,8.6-13.06,27.26a12.33,12.33,0,0,0,7.31,7.28,14.37,14.37,0,0,0,10.72-.5q7.44-3.07,11-8.3a21.64,21.64,0,0,0,4.05-10.11l-8.46-20.43Z"/><polygon class="cls-1" points="3001.03 981.87 3007.31 1049.12 3044.26 1033.81 3001.03 981.87"/><polygon class="cls-1" points="857.31 523.12 894.26 507.81 851.03 455.87 857.31 523.12"/><polygon class="cls-1" points="927.31 786.12 964.26 770.81 921.03 718.87 927.31 786.12"/><polygon class="cls-1" points="2599.03 981.87 2605.31 1049.12 2642.26 1033.81 2599.03 981.87"/><path class="cls-1" d="M1346.23,225.55a12.33,12.33,0,0,0,7.31,7.28,14.37,14.37,0,0,0,10.72-.5q7.44-3.08,11-8.3a21.64,21.64,0,0,0,4-10.11l-8.46-20.43-11.57,4.8Q1338.5,206.89,1346.23,225.55Z"/><path class="cls-1" d="M2513.29,1513.29q-20.79,8.6-13.06,27.26a12.33,12.33,0,0,0,7.31,7.28,14.37,14.37,0,0,0,10.72-.5q7.44-3.07,11-8.3a21.64,21.64,0,0,0,4.05-10.11l-8.46-20.43Z"/><polygon class="cls-1" points="0 220.46 0 253.2 20.26 244.81 0 220.46"/><polygon class="cls-1" points="1795.03 981.87 1801.31 1049.12 1838.26 1033.81 1795.03 981.87"/><path class="cls-1" d="M1084.23,751.55a12.33,12.33,0,0,0,7.31,7.28,14.37,14.37,0,0,0,10.72-.5q7.44-3.08,11-8.3a21.64,21.64,0,0,0,4-10.11l-8.46-20.43-11.57,4.8Q1076.5,732.89,1084.23,751.55Z"/><path class="cls-1" d="M1014.23,488.55a12.33,12.33,0,0,0,7.31,7.28,14.37,14.37,0,0,0,10.72-.5q7.44-3.07,11-8.3a21.64,21.64,0,0,0,4-10.11l-8.46-20.43-11.57,4.8Q1006.5,469.89,1014.23,488.55Z"/><polygon class="cls-1" points="1226.26 244.81 1183.03 192.87 1189.31 260.12 1226.26 244.81"/><path class="cls-1" d="M350.23,1014.55a12.33,12.33,0,0,0,7.31,7.28,14.37,14.37,0,0,0,10.72-.5q7.44-3.08,11-8.3a21.64,21.64,0,0,0,4.05-10.11l-8.46-20.43-11.57,4.8Q342.5,995.89,350.23,1014.55Z"/><path class="cls-1" d="M420.23,1277.55a12.33,12.33,0,0,0,7.31,7.28,14.37,14.37,0,0,0,10.72-.5q7.44-3.07,11-8.3a21.64,21.64,0,0,0,4.05-10.11l-8.46-20.43-11.57,4.8Q412.5,1258.89,420.23,1277.55Z"/><polygon class="cls-1" points="3071.03 1244.87 3077.31 1312.12 3114.26 1296.81 3071.03 1244.87"/><polygon class="cls-1" points="3473.03 1244.87 3479.31 1312.12 3516.26 1296.81 3473.03 1244.87"/><polygon class="cls-1" points="525.31 786.12 562.26 770.81 519.03 718.87 525.31 786.12"/><polygon class="cls-1" points="455.31 523.12 492.26 507.81 449.03 455.87 455.31 523.12"/><path class="cls-1" d="M3729,1578.49c-.84.39-1.69.77-2.57,1.14q-18.06,7.47-35.22,1.79t-24-22.22q-8.61-20.78,2.34-37.76t40.22-29.11l12.28-5.09-2.8-6.77q-7.32-17.67-22.55-11.36-14.17,5.87-8.37,19.86l-39.79,16.48q-7.66-18.51,3.31-36.59t35.41-28.21q23.29-9.64,41.74-4.59V1283.8L3689.93,1300a48.38,48.38,0,0,1-8.52-9.88q-5.26,18.36-25,26.53-18.06,7.47-35.22,1.79t-24-22.22q-8.61-20.78,2.34-37.76t40.22-29.11l12.28-5.09-2.8-6.77q-7.32-17.67-22.55-11.36-14.17,5.87-8.37,19.86l-39.79,16.48q-7.66-18.51,3.31-36.59t35.41-28.21q24.45-10.12,43.55-4.06t28.07,26.68l23.42,56.56q7.53,17.49,16.58,24.67l.12.28V866.32l-25.24,10.46-8.16-198,33.4-13.83V536.71l-54.35,22.51,3.38,36.22-44.27,18.34-8.16-198,39-16.13L3729,469.27V282.33l-44.23,18.32-23.34-27.95-56.78,23.52,3.38,36.22-44.27,18.34-8.16-198,39-16.13L3729,281.91V258.34a38.46,38.46,0,0,1-9.79-14.14q-8.61-20.77,2.34-37.76a52.46,52.46,0,0,1,7.45-9V178.66l-28.46,11.79q-7.66-18.51,3.31-36.59,8.52-14,25.15-23.26V0h-17c-1.15.57-2.32,1.12-3.55,1.63q-18.06,7.47-35.22,1.79A42.89,42.89,0,0,1,3665.46,0h-24l17.78,19.22-44.51,18.43L3591.43,9.7l-56.78,23.52L3538,69.44l-44.27,18.34L3490.14,0H3310c-1.15.57-2.32,1.12-3.55,1.63q-18.06,7.47-35.22,1.79A42.89,42.89,0,0,1,3263.46,0h-24l17.78,19.22-44.51,18.43L3189.43,9.7l-56.78,23.52L3136,69.44l-44.27,18.34L3088.14,0H2908c-1.15.57-2.32,1.12-3.55,1.63q-18.06,7.47-35.22,1.79A42.89,42.89,0,0,1,2861.46,0h-24l17.78,19.22-44.51,18.43L2787.43,9.7l-56.78,23.52L2734,69.44l-44.27,18.34L2686.14,0H2506c-1.15.57-2.32,1.12-3.55,1.63q-18.06,7.47-35.22,1.79A42.89,42.89,0,0,1,2459.46,0h-24l17.78,19.22-44.51,18.43L2385.43,9.7l-56.78,23.52L2332,69.44l-44.27,18.34L2284.14,0H2104c-1.15.57-2.32,1.12-3.55,1.63q-18.06,7.47-35.22,1.79A42.89,42.89,0,0,1,2057.46,0h-24l17.78,19.22-44.51,18.43L1983.43,9.7l-56.78,23.52L1930,69.44l-44.27,18.34L1882.14,0H1702c-1.15.57-2.32,1.12-3.55,1.63q-18.06,7.47-35.22,1.79A42.89,42.89,0,0,1,1655.46,0h-24l17.78,19.22-44.51,18.43L1581.43,9.7l-56.78,23.52L1528,69.44l-44.27,18.34L1480.14,0H1300c-1.15.57-2.32,1.12-3.55,1.63q-18.06,7.47-35.22,1.79A42.89,42.89,0,0,1,1253.46,0h-24l17.78,19.22-44.51,18.43L1179.43,9.7l-56.78,23.52L1126,69.44l-44.27,18.34L1078.14,0H898c-1.15.57-2.32,1.12-3.55,1.63Q876.37,9.1,859.21,3.42A42.89,42.89,0,0,1,851.46,0h-24l17.78,19.22L800.77,37.65,777.43,9.7,720.65,33.22,724,69.44,679.76,87.78,676.14,0H496c-1.15.57-2.32,1.12-3.55,1.63Q474.37,9.1,457.21,3.42A42.89,42.89,0,0,1,449.46,0h-24l17.78,19.22L398.77,37.65,375.43,9.7,318.65,33.22,322,69.44,277.76,87.78,274.14,0H94c-1.15.57-2.32,1.12-3.55,1.63Q72.37,9.1,55.21,3.42A42.89,42.89,0,0,1,47.46,0h-24L41.28,19.22,0,36.32V162L111.28,282.22,66.77,300.65,43.43,272.7,0,290.69V935.36c.3.63.6,1.26.88,1.91L24.3,993.83q7.53,17.49,16.58,24.67l.84,2L1.93,1037A24.43,24.43,0,0,1,0,1035.24v142.12q24-9.72,42.81-3.77,19.11,6,28.07,26.68l23.42,56.56q7.53,17.49,16.58,24.67l.84,2L71.93,1300a48.38,48.38,0,0,1-8.52-9.88q-5.26,18.36-25,26.53-18.06,7.47-35.22,1.79c-1.11-.37-2.17-.78-3.21-1.21v215.94l59.28,64.07-44.51,18.43L0,1598v102H149.74q18.16-5.13,33.07-.41c.41.12.8.27,1.2.41H551.74q18.16-5.13,33.07-.41c.41.12.8.27,1.2.41H953.74q18.16-5.13,33.07-.41c.41.12.8.27,1.2.41h367.73q18.16-5.13,33.07-.41c.41.12.8.27,1.2.41h367.73q18.16-5.13,33.07-.41c.41.12.8.27,1.2.41h367.73q18.16-5.13,33.07-.41c.41.12.8.27,1.2.41h367.73q18.16-5.13,33.07-.41c.41.12.8.27,1.2.41h367.73q18.16-5.13,33.07-.41c.41.12.8.27,1.2.41h367.73q18.16-5.13,33.07-.41c.41.12.8.27,1.2.41h329ZM3618.88,937.27l23.42,56.56q7.53,17.49,16.58,24.67l.84,2L3619.93,1037a48.38,48.38,0,0,1-8.52-9.88q-5.26,18.36-25,26.53-18.06,7.47-35.22,1.79t-24-22.22q-8.61-20.78,2.34-37.76t40.22-29.11l12.28-5.09-2.8-6.77q-7.32-17.67-22.55-11.36-14.17,5.86-8.37,19.86l-39.79,16.48q-7.66-18.51,3.31-36.59t35.41-28.21q24.45-10.12,43.55-4.06T3618.88,937.27Zm-70-263,23.42,56.56q7.53,17.49,16.58,24.67l.84,2L3549.93,774a48.38,48.38,0,0,1-8.52-9.88q-5.26,18.36-25,26.53-18.06,7.47-35.22,1.79t-24-22.22q-8.61-20.78,2.34-37.76t40.22-29.11l12.28-5.09-2.8-6.77q-7.32-17.67-22.55-11.36-14.17,5.86-8.37,19.86l-39.79,16.48q-7.66-18.51,3.31-36.59t35.41-28.21q24.45-10.12,43.55-4.06T3548.88,674.27ZM3346,858.44l-44.27,18.34-8.16-198,39-16.13,134.72,145.59-44.51,18.43-23.34-27.95-56.78,23.52Zm-98.78,359q-7.32-17.67-22.55-11.36-14.17,5.87-8.37,19.86l-39.79,16.48q-7.66-18.51,3.31-36.59t35.41-28.21q24.45-10.12,43.55-4.06t28.07,26.68l23.42,56.56q7.53,17.49,16.58,24.67l.84,2L3287.93,1300a48.38,48.38,0,0,1-8.52-9.88q-5.26,18.36-25,26.53-18.06,7.47-35.22,1.79t-24-22.22q-8.61-20.78,2.34-37.76t40.22-29.11l12.28-5.09Zm-70-263q-7.32-17.67-22.55-11.36-14.17,5.86-8.37,19.86l-39.79,16.48q-7.66-18.51,3.31-36.59t35.41-28.21q24.45-10.12,43.55-4.06t28.07,26.68l23.42,56.56q7.53,17.49,16.58,24.67l.84,2L3217.93,1037a48.38,48.38,0,0,1-8.52-9.88q-5.26,18.36-25,26.53-18.06,7.47-35.22,1.79t-24-22.22q-8.61-20.78,2.34-37.76t40.22-29.11l12.28-5.09Zm98.78-359-44.27,18.34-8.16-198,39-16.13,134.72,145.59-44.51,18.43-23.34-27.95-56.78,23.52Zm202.85-184.17,23.42,56.56q7.53,17.49,16.58,24.67l.84,2L3479.93,511a48.38,48.38,0,0,1-8.52-9.88q-5.26,18.36-25,26.53-18.06,7.47-35.22,1.79t-24-22.22q-8.61-20.77,2.34-37.76t40.22-29.11l12.28-5.09-2.8-6.77q-7.32-17.67-22.55-11.36-14.17,5.86-8.37,19.86l-39.79,16.48q-7.66-18.51,3.31-36.59t35.41-28.21q24.45-10.12,43.55-4.06T3478.88,411.27Zm-177-257.41q11-18.08,35.41-28.21t43.55-4.06q19.11,6,28.07,26.68l23.42,56.56q7.53,17.49,16.58,24.67l.84,2L3409.93,248a48.38,48.38,0,0,1-8.52-9.88q-5.26,18.36-25,26.53-18.06,7.47-35.22,1.79t-24-22.22q-8.61-20.77,2.34-37.76t40.22-29.11l12.28-5.09-2.8-6.77q-7.32-17.67-22.55-11.36-14.17,5.87-8.37,19.86l-39.79,16.48Q3290.88,171.94,3301.85,153.86Zm-109.29-17.23,134.72,145.59-44.51,18.43-23.34-27.95-56.78,23.52,3.38,36.22-44.27,18.34-8.16-198Zm-45.68,537.64,23.42,56.56q7.53,17.49,16.58,24.67l.84,2L3147.93,774a48.38,48.38,0,0,1-8.52-9.88q-5.26,18.36-25,26.53-18.06,7.47-35.22,1.79t-24-22.22q-8.61-20.78,2.34-37.76t40.22-29.11l12.28-5.09-2.8-6.77q-7.32-17.67-22.55-11.36-14.17,5.86-8.37,19.86l-39.79,16.48q-7.66-18.51,3.31-36.59t35.41-28.21q24.45-10.12,43.55-4.06T3146.88,674.27ZM2944,858.44l-44.27,18.34-8.16-198,39-16.13,134.72,145.59-44.51,18.43-23.34-27.95-56.78,23.52Zm-98.78,359q-7.32-17.67-22.55-11.36-14.17,5.87-8.37,19.86l-39.79,16.48q-7.66-18.51,3.31-36.59t35.41-28.21q24.45-10.12,43.55-4.06t28.07,26.68l23.42,56.56q7.53,17.49,16.58,24.67l.84,2L2885.93,1300a48.38,48.38,0,0,1-8.52-9.88q-5.26,18.36-25,26.53-18.06,7.47-35.22,1.79t-24-22.22q-8.61-20.78,2.34-37.76t40.22-29.11l12.28-5.09Zm-70-263q-7.32-17.67-22.55-11.36-14.17,5.86-8.37,19.86l-39.79,16.48q-7.66-18.51,3.31-36.59t35.41-28.21q24.45-10.12,43.55-4.06t28.07,26.68l23.42,56.56q7.53,17.49,16.58,24.67l.84,2L2815.93,1037a48.38,48.38,0,0,1-8.52-9.88q-5.26,18.36-25,26.53-18.06,7.47-35.22,1.79t-24-22.22q-8.61-20.78,2.34-37.76t40.22-29.11l12.28-5.09Zm98.78-359-44.27,18.34-8.16-198,39-16.13,134.72,145.59-44.51,18.43-23.34-27.95-56.78,23.52Zm202.85-184.17,23.42,56.56q7.53,17.49,16.58,24.67l.84,2L3077.93,511a48.38,48.38,0,0,1-8.52-9.88q-5.26,18.36-25,26.53-18.06,7.47-35.22,1.79t-24-22.22q-8.61-20.77,2.34-37.76t40.22-29.11l12.28-5.09-2.8-6.77q-7.32-17.67-22.55-11.36-14.17,5.86-8.37,19.86l-39.79,16.48q-7.66-18.51,3.31-36.59t35.41-28.21q24.45-10.12,43.55-4.06T3076.88,411.27Zm-177-257.41q11-18.08,35.41-28.21t43.55-4.06q19.11,6,28.07,26.68l23.42,56.56q7.53,17.49,16.58,24.67l.84,2L3007.93,248a48.38,48.38,0,0,1-8.52-9.88q-5.26,18.36-25,26.53-18.06,7.47-35.22,1.79t-24-22.22q-8.61-20.77,2.34-37.76t40.22-29.11l12.28-5.09-2.8-6.77q-7.32-17.67-22.55-11.36-14.17,5.87-8.37,19.86l-39.79,16.48Q2888.88,171.94,2899.85,153.86Zm-109.29-17.23,134.72,145.59-44.51,18.43-23.34-27.95-56.78,23.52,3.38,36.22-44.27,18.34-8.16-198Zm-45.68,537.64,23.42,56.56q7.53,17.49,16.58,24.67l.84,2L2745.93,774a48.38,48.38,0,0,1-8.52-9.88q-5.26,18.36-25,26.53-18.06,7.47-35.22,1.79t-24-22.22q-8.61-20.78,2.34-37.76t40.22-29.11l12.28-5.09-2.8-6.77q-7.32-17.67-22.55-11.36-14.17,5.86-8.37,19.86l-39.79,16.48q-7.66-18.51,3.31-36.59t35.41-28.21q24.45-10.12,43.55-4.06T2744.88,674.27ZM2542,858.44l-44.27,18.34-8.16-198,39-16.13,134.72,145.59-44.51,18.43-23.34-27.95-56.78,23.52Zm-98.78,359q-7.32-17.67-22.55-11.36-14.17,5.87-8.37,19.86l-39.79,16.48q-7.66-18.51,3.31-36.59t35.41-28.21q24.45-10.12,43.55-4.06t28.07,26.68l23.42,56.56q7.53,17.49,16.58,24.67l.84,2L2483.93,1300a48.38,48.38,0,0,1-8.52-9.88q-5.26,18.36-25,26.53-18.06,7.47-35.22,1.79t-24-22.22q-8.61-20.78,2.34-37.76t40.22-29.11l12.28-5.09Zm-70-263q-7.32-17.67-22.55-11.36-14.17,5.86-8.37,19.86l-39.79,16.48q-7.66-18.51,3.31-36.59t35.41-28.21q24.45-10.12,43.55-4.06t28.07,26.68l23.42,56.56q7.53,17.49,16.58,24.67l.84,2L2413.93,1037a48.38,48.38,0,0,1-8.52-9.88q-5.26,18.36-25,26.53-18.06,7.47-35.22,1.79t-24-22.22q-8.61-20.78,2.34-37.76t40.22-29.11l12.28-5.09Zm98.78-359-44.27,18.34-8.16-198,39-16.13,134.72,145.59-44.51,18.43-23.34-27.95-56.78,23.52Zm202.85-184.17,23.42,56.56q7.53,17.49,16.58,24.67l.84,2L2675.93,511a48.38,48.38,0,0,1-8.52-9.88q-5.26,18.36-25,26.53-18.06,7.47-35.22,1.79t-24-22.22q-8.61-20.77,2.34-37.76t40.22-29.11l12.28-5.09-2.8-6.77q-7.32-17.67-22.55-11.36-14.17,5.86-8.37,19.86l-39.79,16.48q-7.66-18.51,3.31-36.59t35.41-28.21q24.45-10.12,43.55-4.06T2674.88,411.27Zm-177-257.41q11-18.08,35.41-28.21t43.55-4.06q19.11,6,28.07,26.68l23.42,56.56q7.53,17.49,16.58,24.67l.84,2L2605.93,248a48.38,48.38,0,0,1-8.52-9.88q-5.26,18.36-25,26.53-18.06,7.47-35.22,1.79t-24-22.22q-8.61-20.77,2.34-37.76t40.22-29.11l12.28-5.09-2.8-6.77q-7.32-17.67-22.55-11.36-14.17,5.87-8.37,19.86l-39.79,16.48Q2486.88,171.94,2497.85,153.86Zm-109.29-17.23,134.72,145.59-44.51,18.43-23.34-27.95-56.78,23.52,3.38,36.22-44.27,18.34-8.16-198Zm-45.68,537.64,23.42,56.56q7.53,17.49,16.58,24.67l.84,2L2343.93,774a48.38,48.38,0,0,1-8.52-9.88q-5.26,18.36-25,26.53-18.06,7.47-35.22,1.79t-24-22.22q-8.61-20.78,2.34-37.76t40.22-29.11l12.28-5.09-2.8-6.77q-7.32-17.67-22.55-11.36-14.17,5.86-8.37,19.86l-39.79,16.48q-7.66-18.51,3.31-36.59t35.41-28.21q24.45-10.12,43.55-4.06T2342.88,674.27ZM2140,858.44l-44.27,18.34-8.16-198,39-16.13,134.72,145.59-44.51,18.43-23.34-27.95-56.78,23.52Zm-98.78,359q-7.32-17.67-22.55-11.36-14.17,5.87-8.37,19.86l-39.79,16.48q-7.66-18.51,3.31-36.59t35.41-28.21q24.45-10.12,43.55-4.06t28.07,26.68l23.42,56.56q7.53,17.49,16.58,24.67l.84,2L2081.93,1300a48.38,48.38,0,0,1-8.52-9.88q-5.26,18.36-25,26.53-18.06,7.47-35.22,1.79t-24-22.22q-8.61-20.78,2.34-37.76t40.22-29.11l12.28-5.09Zm-70-263q-7.32-17.67-22.55-11.36-14.17,5.86-8.37,19.86l-39.79,16.48q-7.66-18.51,3.31-36.59t35.41-28.21q24.45-10.12,43.55-4.06t28.07,26.68l23.42,56.56q7.53,17.49,16.58,24.67l.84,2L2011.93,1037a48.38,48.38,0,0,1-8.52-9.88q-5.27,18.36-25,26.53-18.06,7.47-35.22,1.79t-24-22.22q-8.61-20.78,2.34-37.76t40.22-29.11l12.28-5.09Zm98.78-359-44.27,18.34-8.16-198,39-16.13,134.72,145.59-44.51,18.43-23.34-27.95-56.78,23.52Zm202.85-184.17,23.42,56.56q7.53,17.49,16.58,24.67l.84,2L2273.93,511a48.38,48.38,0,0,1-8.52-9.88q-5.26,18.36-25,26.53-18.06,7.47-35.22,1.79t-24-22.22q-8.61-20.77,2.34-37.76t40.22-29.11l12.28-5.09-2.8-6.77q-7.32-17.67-22.55-11.36-14.17,5.86-8.37,19.86l-39.79,16.48q-7.66-18.51,3.31-36.59t35.41-28.21q24.45-10.12,43.55-4.06T2272.88,411.27Zm-177-257.41q11-18.08,35.41-28.21t43.55-4.06q19.11,6,28.07,26.68l23.42,56.56q7.53,17.49,16.58,24.67l.84,2L2203.93,248a48.38,48.38,0,0,1-8.52-9.88q-5.26,18.36-25,26.53-18.06,7.47-35.22,1.79t-24-22.22q-8.61-20.77,2.34-37.76t40.22-29.11l12.28-5.09-2.8-6.77q-7.32-17.67-22.55-11.36-14.17,5.87-8.37,19.86l-39.79,16.48Q2084.88,171.94,2095.85,153.86Zm-109.29-17.23,134.72,145.59-44.51,18.43-23.34-27.95-56.78,23.52,3.38,36.22-44.27,18.34-8.16-198Zm-45.68,537.64,23.42,56.56q7.53,17.49,16.58,24.67l.84,2L1941.93,774a48.38,48.38,0,0,1-8.52-9.88q-5.27,18.36-25,26.53-18.06,7.47-35.22,1.79t-24-22.22q-8.61-20.78,2.34-37.76t40.22-29.11l12.28-5.09-2.8-6.77q-7.32-17.67-22.55-11.36-14.17,5.86-8.37,19.86l-39.79,16.48q-7.66-18.51,3.31-36.59t35.41-28.21q24.45-10.12,43.55-4.06T1940.88,674.27ZM1738,858.44l-44.27,18.34-8.16-198,39-16.13,134.72,145.59-44.51,18.43-23.34-27.95-56.78,23.52Zm-98.78,359q-7.32-17.67-22.55-11.36-14.17,5.87-8.37,19.86l-39.79,16.48q-7.66-18.51,3.31-36.59t35.41-28.21q24.45-10.12,43.55-4.06t28.07,26.68l23.42,56.56q7.53,17.49,16.58,24.67l.84,2L1679.93,1300a48.38,48.38,0,0,1-8.52-9.88q-5.27,18.36-25,26.53-18.06,7.47-35.22,1.79t-24-22.22q-8.61-20.78,2.34-37.76t40.22-29.11l12.28-5.09Zm-70-263q-7.32-17.67-22.55-11.36-14.17,5.86-8.37,19.86l-39.79,16.48q-7.66-18.51,3.31-36.59t35.41-28.21q24.45-10.12,43.55-4.06t28.07,26.68l23.42,56.56q7.53,17.49,16.58,24.67l.84,2L1609.93,1037a48.38,48.38,0,0,1-8.52-9.88q-5.27,18.36-25,26.53-18.06,7.47-35.22,1.79t-24-22.22q-8.61-20.78,2.34-37.76t40.22-29.11l12.28-5.09Zm98.78-359-44.27,18.34-8.16-198,39-16.13,134.72,145.59-44.51,18.43-23.34-27.95-56.78,23.52Zm202.85-184.17,23.42,56.56q7.53,17.49,16.58,24.67l.84,2L1871.93,511a48.38,48.38,0,0,1-8.52-9.88q-5.27,18.36-25,26.53-18.06,7.47-35.22,1.79t-24-22.22q-8.61-20.77,2.34-37.76t40.22-29.11l12.28-5.09-2.8-6.77q-7.32-17.67-22.55-11.36-14.17,5.86-8.37,19.86l-39.79,16.48q-7.66-18.51,3.31-36.59t35.41-28.21q24.45-10.12,43.55-4.06T1870.88,411.27Zm-177-257.41q11-18.08,35.41-28.21t43.55-4.06q19.11,6,28.07,26.68l23.42,56.56q7.53,17.49,16.58,24.67l.84,2L1801.93,248a48.38,48.38,0,0,1-8.52-9.88q-5.27,18.36-25,26.53-18.06,7.47-35.22,1.79t-24-22.22q-8.61-20.77,2.34-37.76t40.22-29.11l12.28-5.09-2.8-6.77q-7.32-17.67-22.55-11.36-14.17,5.87-8.37,19.86l-39.79,16.48Q1682.88,171.94,1693.85,153.86Zm-109.29-17.23,134.72,145.59-44.51,18.43-23.34-27.95-56.78,23.52,3.38,36.22-44.27,18.34-8.16-198Zm-45.68,537.64,23.42,56.56q7.53,17.49,16.58,24.67l.84,2L1539.93,774a48.38,48.38,0,0,1-8.52-9.88q-5.27,18.36-25,26.53-18.06,7.47-35.22,1.79t-24-22.22q-8.61-20.78,2.34-37.76t40.22-29.11l12.28-5.09-2.8-6.77q-7.32-17.67-22.55-11.36-14.17,5.86-8.37,19.86l-39.79,16.48q-7.66-18.51,3.31-36.59t35.41-28.21q24.45-10.12,43.55-4.06T1538.88,674.27ZM1336,858.44l-44.27,18.34-8.16-198,39-16.13,134.72,145.59-44.51,18.43-23.34-27.95-56.78,23.52Zm-98.78,359q-7.32-17.67-22.55-11.36-14.17,5.87-8.37,19.86l-39.79,16.48q-7.66-18.51,3.31-36.59t35.41-28.21q24.45-10.12,43.55-4.06t28.07,26.68l23.42,56.56q7.53,17.49,16.58,24.67l.84,2L1277.93,1300a48.38,48.38,0,0,1-8.52-9.88q-5.27,18.36-25,26.53-18.06,7.47-35.22,1.79t-24-22.22q-8.61-20.78,2.34-37.76t40.22-29.11l12.28-5.09Zm-70-263q-7.32-17.67-22.55-11.36-14.17,5.86-8.37,19.86l-39.79,16.48q-7.66-18.51,3.31-36.59t35.41-28.21q24.45-10.12,43.55-4.06t28.07,26.68l23.42,56.56q7.53,17.49,16.58,24.67l.84,2L1207.93,1037a48.38,48.38,0,0,1-8.52-9.88q-5.27,18.36-25,26.53-18.06,7.47-35.22,1.79t-24-22.22q-8.61-20.78,2.34-37.76t40.22-29.11l12.28-5.09Zm98.78-359-44.27,18.34-8.16-198,39-16.13,134.72,145.59-44.51,18.43-23.34-27.95-56.78,23.52Zm202.85-184.17,23.42,56.56q7.53,17.49,16.58,24.67l.84,2L1469.93,511a48.38,48.38,0,0,1-8.52-9.88q-5.27,18.36-25,26.53-18.06,7.47-35.22,1.79t-24-22.22q-8.61-20.77,2.34-37.76t40.22-29.11l12.28-5.09-2.8-6.77q-7.32-17.67-22.55-11.36-14.17,5.86-8.37,19.86l-39.79,16.48q-7.66-18.51,3.31-36.59t35.41-28.21q24.45-10.12,43.55-4.06T1468.88,411.27Zm-177-257.41q11-18.08,35.41-28.21t43.55-4.06q19.11,6,28.07,26.68l23.42,56.56q7.53,17.49,16.58,24.67l.84,2L1399.93,248a48.38,48.38,0,0,1-8.52-9.88q-5.27,18.36-25,26.53-18.06,7.47-35.22,1.79t-24-22.22q-8.61-20.77,2.34-37.76t40.22-29.11l12.28-5.09-2.8-6.77q-7.32-17.67-22.55-11.36-14.17,5.87-8.37,19.86l-39.79,16.48Q1280.88,171.94,1291.85,153.86Zm-109.29-17.23,134.72,145.59-44.51,18.43-23.34-27.95-56.78,23.52,3.38,36.22-44.27,18.34-8.16-198Zm-45.68,537.64,23.42,56.56q7.53,17.49,16.58,24.67l.84,2L1137.93,774a48.38,48.38,0,0,1-8.52-9.88q-5.27,18.36-25,26.53-18.06,7.47-35.22,1.79t-24-22.22q-8.61-20.78,2.34-37.76t40.22-29.11l12.28-5.09-2.8-6.77q-7.32-17.67-22.55-11.36-14.17,5.86-8.37,19.86l-39.79,16.48q-7.66-18.51,3.31-36.59t35.41-28.21q24.45-10.12,43.55-4.06T1136.88,674.27ZM934,858.44l-44.27,18.34-8.16-198,39-16.13,134.72,145.59-44.51,18.43L987.43,798.7l-56.78,23.52Zm-98.78,359q-7.32-17.67-22.55-11.36-14.18,5.87-8.37,19.86l-39.79,16.48q-7.66-18.51,3.31-36.59t35.41-28.21q24.45-10.12,43.55-4.06t28.07,26.68l23.42,56.56q7.53,17.49,16.58,24.67l.84,2L875.93,1300a48.38,48.38,0,0,1-8.52-9.88q-5.26,18.36-25,26.53-18.06,7.47-35.22,1.79t-24-22.22q-8.61-20.78,2.34-37.76t40.22-29.11l12.28-5.09Zm-70-263q-7.32-17.67-22.55-11.36Q728.53,949,734.33,963l-39.79,16.48q-7.66-18.51,3.31-36.59t35.41-28.21q24.45-10.12,43.55-4.06t28.07,26.68l23.42,56.56q7.53,17.49,16.58,24.67l.84,2L805.93,1037a48.38,48.38,0,0,1-8.52-9.88q-5.26,18.36-25,26.53-18.06,7.47-35.22,1.79t-24-22.22q-8.61-20.78,2.34-37.76t40.22-29.11l12.28-5.09Zm98.78-359-44.27,18.34-8.16-198,39-16.13L985.28,545.22l-44.51,18.43L917.43,535.7l-56.78,23.52Zm202.85-184.17,23.42,56.56q7.53,17.49,16.58,24.67l.84,2L1067.93,511a48.38,48.38,0,0,1-8.52-9.88q-5.27,18.36-25,26.53-18.06,7.47-35.22,1.79t-24-22.22q-8.61-20.77,2.34-37.76t40.22-29.11l12.28-5.09-2.8-6.77q-7.32-17.67-22.55-11.36Q990.53,423,996.33,437l-39.79,16.48q-7.66-18.51,3.31-36.59t35.41-28.21q24.45-10.12,43.55-4.06T1066.88,411.27Zm-177-257.41q11-18.08,35.41-28.21t43.55-4.06q19.11,6,28.07,26.68l23.42,56.56q7.53,17.49,16.58,24.67l.84,2L997.93,248a48.38,48.38,0,0,1-8.52-9.88q-5.26,18.36-25,26.53-18.06,7.47-35.22,1.79t-24-22.22q-8.61-20.77,2.34-37.76t40.22-29.11l12.28-5.09-2.8-6.77q-7.32-17.67-22.55-11.36Q920.53,160,926.33,174l-39.79,16.48Q878.88,171.94,889.85,153.86ZM780.56,136.63,915.28,282.22l-44.51,18.43L847.43,272.7l-56.78,23.52L794,332.44l-44.27,18.34-8.16-198ZM734.88,674.27l23.42,56.56q7.53,17.49,16.58,24.67l.84,2L735.93,774a48.38,48.38,0,0,1-8.52-9.88q-5.26,18.36-25,26.53-18.06,7.47-35.22,1.79t-24-22.22q-8.61-20.78,2.34-37.76t40.22-29.11l12.28-5.09-2.8-6.77q-7.32-17.67-22.55-11.36Q658.53,686,664.33,700l-39.79,16.48q-7.66-18.51,3.31-36.59t35.41-28.21q24.45-10.12,43.55-4.06T734.88,674.27ZM532,858.44l-44.27,18.34-8.16-198,39-16.13L653.28,808.22l-44.51,18.43L585.43,798.7l-56.78,23.52Zm-98.78,359q-7.32-17.67-22.55-11.36-14.18,5.87-8.37,19.86l-39.79,16.48q-7.67-18.51,3.31-36.59t35.41-28.21q24.45-10.12,43.55-4.06t28.07,26.68l23.42,56.56q7.53,17.49,16.58,24.67l.84,2L473.93,1300a48.38,48.38,0,0,1-8.52-9.88q-5.27,18.36-25,26.53-18.06,7.47-35.22,1.79t-24-22.22q-8.61-20.78,2.34-37.76t40.22-29.11l12.28-5.09Zm-70-263q-7.32-17.67-22.55-11.36Q326.52,949,332.33,963l-39.79,16.48q-7.67-18.51,3.31-36.59t35.41-28.21q24.45-10.12,43.55-4.06t28.07,26.68l23.42,56.56q7.53,17.49,16.58,24.67l.84,2L403.93,1037a48.38,48.38,0,0,1-8.52-9.88q-5.27,18.36-25,26.53-18.06,7.47-35.22,1.79t-24-22.22q-8.61-20.78,2.34-37.76t40.22-29.11l12.28-5.09Zm98.78-359-44.27,18.34-8.16-198,39-16.13L583.28,545.22l-44.51,18.43L515.43,535.7l-56.78,23.52ZM664.88,411.27l23.42,56.56q7.53,17.49,16.58,24.67l.84,2L665.93,511a48.38,48.38,0,0,1-8.52-9.88q-5.26,18.36-25,26.53-18.06,7.47-35.22,1.79t-24-22.22q-8.61-20.77,2.34-37.76t40.22-29.11l12.28-5.09-2.8-6.77q-7.32-17.67-22.55-11.36Q588.53,423,594.33,437l-39.79,16.48q-7.66-18.51,3.31-36.59t35.41-28.21q24.45-10.12,43.55-4.06T664.88,411.27Zm-177-257.41q11-18.08,35.41-28.21t43.55-4.06q19.11,6,28.07,26.68l23.42,56.56q7.53,17.49,16.58,24.67l.84,2L595.93,248a48.38,48.38,0,0,1-8.52-9.88q-5.26,18.36-25,26.53-18.06,7.47-35.22,1.79t-24-22.22q-8.61-20.77,2.34-37.76t40.22-29.11l12.28-5.09-2.8-6.77q-7.32-17.67-22.55-11.36Q518.53,160,524.33,174l-39.79,16.48Q476.88,171.94,487.85,153.86ZM378.56,136.63,513.28,282.22l-44.51,18.43L445.43,272.7l-56.78,23.52L392,332.44l-44.27,18.34-8.16-198ZM332.88,674.27l23.42,56.56q7.53,17.49,16.58,24.67l.84,2L333.93,774a48.38,48.38,0,0,1-8.52-9.88q-5.27,18.36-25,26.53-18.06,7.47-35.22,1.79t-24-22.22q-8.61-20.78,2.34-37.76t40.22-29.11l12.28-5.09-2.8-6.77q-7.32-17.67-22.55-11.36Q256.52,686,262.33,700l-39.79,16.48q-7.66-18.51,3.31-36.59t35.41-28.21q24.45-10.12,43.55-4.06T332.88,674.27Zm-70-263,23.42,56.56q7.53,17.49,16.58,24.67l.84,2L263.93,511a48.38,48.38,0,0,1-8.52-9.88q-5.26,18.36-25,26.53-18.06,7.47-35.22,1.79t-24-22.22q-8.61-20.77,2.34-37.76t40.22-29.11l12.28-5.09-2.8-6.77q-7.32-17.67-22.55-11.36Q186.53,423,192.33,437l-39.79,16.48q-7.66-18.51,3.31-36.59t35.41-28.21q24.45-10.12,43.55-4.06T262.88,411.27ZM101.21,244.2q-8.61-20.77,2.34-37.76t40.22-29.11l12.28-5.09-2.8-6.77q-7.32-17.67-22.55-11.36Q116.53,160,122.33,174L82.54,190.45q-7.67-18.51,3.31-36.59t35.41-28.21q24.45-10.12,43.55-4.06t28.07,26.68l23.42,56.56q7.53,17.49,16.58,24.67l.84,2L193.93,248a48.38,48.38,0,0,1-8.52-9.88q-5.26,18.36-25,26.53-18.06,7.47-35.22,1.79T101.21,244.2ZM60,595.44,15.76,613.78l-8.16-198,39-16.13L181.28,545.22l-44.51,18.43L113.43,535.7,56.65,559.22ZM85.76,876.78l-8.16-198,39-16.13L251.28,808.22l-44.51,18.43L183.43,798.7l-56.78,23.52L130,858.44ZM141.93,1563a48.38,48.38,0,0,1-8.52-9.88q-5.26,18.36-25,26.53-18.06,7.47-35.22,1.79t-24-22.22q-8.61-20.78,2.34-37.76t40.22-29.11l12.28-5.09-2.8-6.77q-7.32-17.67-22.55-11.36Q64.53,1475,70.33,1489l-39.79,16.48q-7.66-18.51,3.31-36.59t35.41-28.21q24.45-10.12,43.55-4.06t28.07,26.68l23.42,56.56q7.53,17.49,16.58,24.67l.84,2Zm13.83-423.2-8.16-198,39-16.13,134.72,145.59-44.51,18.43-23.34-28-56.78,23.52,3.38,36.22Zm70,263-8.16-198,39-16.13,134.72,145.59-44.51,18.43-23.34-28-56.78,23.52,3.38,36.22Zm191,212.87-23.34-28-56.78,23.52,3.38,36.22-44.27,18.34-8.16-198,39-16.13,134.72,145.59ZM543.93,1563a48.38,48.38,0,0,1-8.52-9.88q-5.26,18.36-25,26.53-18.06,7.47-35.22,1.79t-24-22.22q-8.61-20.78,2.34-37.76t40.22-29.11l12.28-5.09-2.8-6.77q-7.32-17.67-22.55-11.36-14.18,5.87-8.37,19.86l-39.79,16.48q-7.67-18.51,3.31-36.59t35.41-28.21q24.45-10.12,43.55-4.06t28.07,26.68l23.42,56.56q7.53,17.49,16.58,24.67l.84,2Zm13.83-423.2-8.16-198,39-16.13,134.72,145.59-44.51,18.43-23.34-28-56.78,23.52,3.38,36.22Zm70,263-8.16-198,39-16.13,134.72,145.59-44.51,18.43-23.34-28-56.78,23.52,3.38,36.22Zm191,212.87-23.34-28-56.78,23.52,3.38,36.22-44.27,18.34-8.16-198,39-16.13,134.72,145.59ZM945.93,1563a48.38,48.38,0,0,1-8.52-9.88q-5.26,18.36-25,26.53-18.06,7.47-35.22,1.79t-24-22.22q-8.61-20.78,2.34-37.76t40.22-29.11l12.28-5.09-2.8-6.77q-7.32-17.67-22.55-11.36-14.18,5.87-8.37,19.86l-39.79,16.48q-7.66-18.51,3.31-36.59t35.41-28.21q24.45-10.12,43.55-4.06t28.07,26.68l23.42,56.56q7.53,17.49,16.58,24.67l.84,2Zm13.83-423.2-8.16-198,39-16.13,134.72,145.59-44.51,18.43-23.34-28-56.78,23.52,3.38,36.22Zm70,263-8.16-198,39-16.13,134.72,145.59-44.51,18.43-23.34-28-56.78,23.52,3.38,36.22Zm191,212.87-23.34-28-56.78,23.52,3.38,36.22-44.27,18.34-8.16-198,39-16.13,134.72,145.59ZM1347.93,1563a48.38,48.38,0,0,1-8.52-9.88q-5.27,18.36-25,26.53-18.06,7.47-35.22,1.79t-24-22.22q-8.61-20.78,2.34-37.76t40.22-29.11l12.28-5.09-2.8-6.77q-7.32-17.67-22.55-11.36-14.17,5.87-8.37,19.86l-39.79,16.48q-7.66-18.51,3.31-36.59t35.41-28.21q24.45-10.12,43.55-4.06t28.07,26.68l23.42,56.56q7.53,17.49,16.58,24.67l.84,2Zm13.83-423.2-8.16-198,39-16.13,134.72,145.59-44.51,18.43-23.34-28-56.78,23.52,3.38,36.22Zm70,263-8.16-198,39-16.13,134.72,145.59-44.51,18.43-23.34-28-56.78,23.52,3.38,36.22Zm191,212.87-23.34-28-56.78,23.52,3.38,36.22-44.27,18.34-8.16-198,39-16.13,134.72,145.59ZM1749.93,1563a48.38,48.38,0,0,1-8.52-9.88q-5.27,18.36-25,26.53-18.06,7.47-35.22,1.79t-24-22.22q-8.61-20.78,2.34-37.76t40.22-29.11l12.28-5.09-2.8-6.77q-7.32-17.67-22.55-11.36-14.17,5.87-8.37,19.86l-39.79,16.48q-7.66-18.51,3.31-36.59t35.41-28.21q24.45-10.12,43.55-4.06t28.07,26.68l23.42,56.56q7.53,17.49,16.58,24.67l.84,2Zm13.83-423.2-8.16-198,39-16.13,134.72,145.59-44.51,18.43-23.34-28-56.78,23.52,3.38,36.22Zm70,263-8.16-198,39-16.13,134.72,145.59-44.51,18.43-23.34-28-56.78,23.52,3.38,36.22Zm191,212.87-23.34-28-56.78,23.52,3.38,36.22-44.27,18.34-8.16-198,39-16.13,134.72,145.59ZM2151.93,1563a48.38,48.38,0,0,1-8.52-9.88q-5.26,18.36-25,26.53-18.06,7.47-35.22,1.79t-24-22.22q-8.61-20.78,2.34-37.76t40.22-29.11l12.28-5.09-2.8-6.77q-7.32-17.67-22.55-11.36-14.17,5.87-8.37,19.86l-39.79,16.48q-7.66-18.51,3.31-36.59t35.41-28.21q24.45-10.12,43.55-4.06t28.07,26.68l23.42,56.56q7.53,17.49,16.58,24.67l.84,2Zm13.83-423.2-8.16-198,39-16.13,134.72,145.59-44.51,18.43-23.34-28-56.78,23.52,3.38,36.22Zm70,263-8.16-198,39-16.13,134.72,145.59-44.51,18.43-23.34-28-56.78,23.52,3.38,36.22Zm191,212.87-23.34-28-56.78,23.52,3.38,36.22-44.27,18.34-8.16-198,39-16.13,134.72,145.59ZM2553.93,1563a48.38,48.38,0,0,1-8.52-9.88q-5.26,18.36-25,26.53-18.06,7.47-35.22,1.79t-24-22.22q-8.61-20.78,2.34-37.76t40.22-29.11l12.28-5.09-2.8-6.77q-7.32-17.67-22.55-11.36-14.17,5.87-8.37,19.86l-39.79,16.48q-7.66-18.51,3.31-36.59t35.41-28.21q24.45-10.12,43.55-4.06t28.07,26.68l23.42,56.56q7.53,17.49,16.58,24.67l.84,2Zm13.83-423.2-8.16-198,39-16.13,134.72,145.59-44.51,18.43-23.34-28-56.78,23.52,3.38,36.22Zm70,263-8.16-198,39-16.13,134.72,145.59-44.51,18.43-23.34-28-56.78,23.52,3.38,36.22Zm191,212.87-23.34-28-56.78,23.52,3.38,36.22-44.27,18.34-8.16-198,39-16.13,134.72,145.59ZM2955.93,1563a48.38,48.38,0,0,1-8.52-9.88q-5.26,18.36-25,26.53-18.06,7.47-35.22,1.79t-24-22.22q-8.61-20.78,2.34-37.76t40.22-29.11l12.28-5.09-2.8-6.77q-7.32-17.67-22.55-11.36-14.17,5.87-8.37,19.86l-39.79,16.48q-7.66-18.51,3.31-36.59t35.41-28.21q24.45-10.12,43.55-4.06t28.07,26.68l23.42,56.56q7.53,17.49,16.58,24.67l.84,2Zm13.83-423.2-8.16-198,39-16.13,134.72,145.59-44.51,18.43-23.34-28-56.78,23.52,3.38,36.22Zm70,263-8.16-198,39-16.13,134.72,145.59-44.51,18.43-23.34-28-56.78,23.52,3.38,36.22Zm191,212.87-23.34-28-56.78,23.52,3.38,36.22-44.27,18.34-8.16-198,39-16.13,134.72,145.59ZM3357.93,1563a48.38,48.38,0,0,1-8.52-9.88q-5.26,18.36-25,26.53-18.06,7.47-35.22,1.79t-24-22.22q-8.61-20.78,2.34-37.76t40.22-29.11l12.28-5.09-2.8-6.77q-7.32-17.67-22.55-11.36-14.17,5.87-8.37,19.86l-39.79,16.48q-7.66-18.51,3.31-36.59t35.41-28.21q24.45-10.12,43.55-4.06t28.07,26.68l23.42,56.56q7.53,17.49,16.58,24.67l.84,2Zm13.83-423.2-8.16-198,39-16.13,134.72,145.59-44.51,18.43-23.34-28-56.78,23.52,3.38,36.22Zm70,263-8.16-198,39-16.13,134.72,145.59-44.51,18.43-23.34-28-56.78,23.52,3.38,36.22Zm191,212.87-23.34-28-56.78,23.52,3.38,36.22-44.27,18.34-8.16-198,39-16.13,134.72,145.59Z"/><polygon class="cls-1" points="1259.31 523.12 1296.26 507.81 1253.03 455.87 1259.31 523.12"/><polygon class="cls-1" points="3586.26 1559.81 3543.03 1507.87 3549.31 1575.12 3586.26 1559.81"/><polygon class="cls-1" points="3184.26 1559.81 3141.03 1507.87 3147.31 1575.12 3184.26 1559.81"/><polygon class="cls-1" points="3403.03 981.87 3409.31 1049.12 3446.26 1033.81 3403.03 981.87"/><path class="cls-1" d="M944.23,225.55a12.33,12.33,0,0,0,7.31,7.28,14.37,14.37,0,0,0,10.72-.5q7.44-3.08,11-8.3a21.64,21.64,0,0,0,4.05-10.11l-8.46-20.43-11.57,4.8Q936.5,206.89,944.23,225.55Z"/><polygon class="cls-1" points="824.26 244.81 781.03 192.87 787.31 260.12 824.26 244.81"/><path class="cls-1" d="M3317.29,1513.29q-20.79,8.6-13.06,27.26a12.33,12.33,0,0,0,7.31,7.28,14.37,14.37,0,0,0,10.72-.5q7.44-3.07,11-8.3a21.64,21.64,0,0,0,4.05-10.11l-8.46-20.43Z"/><path class="cls-1" d="M682.23,751.55a12.33,12.33,0,0,0,7.31,7.28,14.37,14.37,0,0,0,10.72-.5q7.44-3.08,11-8.3a21.64,21.64,0,0,0,4.05-10.11l-8.46-20.43-11.57,4.8Q674.5,732.89,682.23,751.55Z"/><polygon class="cls-1" points="2669.03 1244.87 2675.31 1312.12 2712.26 1296.81 2669.03 1244.87"/><polygon class="cls-1" points="1628.26 244.81 1585.03 192.87 1591.31 260.12 1628.26 244.81"/><polygon class="cls-1" points="1865.03 1244.87 1871.31 1312.12 1908.26 1296.81 1865.03 1244.87"/><path class="cls-1" d="M1818.23,488.55a12.33,12.33,0,0,0,7.31,7.28,14.37,14.37,0,0,0,10.72-.5q7.44-3.07,11-8.3a21.64,21.64,0,0,0,4-10.11l-8.46-20.43-11.57,4.8Q1810.5,469.89,1818.23,488.55Z"/><polygon class="cls-1" points="2197.03 981.87 2203.31 1049.12 2240.26 1033.81 2197.03 981.87"/><path class="cls-1" d="M1556.23,1014.55a12.33,12.33,0,0,0,7.31,7.28,14.37,14.37,0,0,0,10.72-.5q7.44-3.08,11-8.3a21.64,21.64,0,0,0,4-10.11l-8.46-20.43-11.57,4.8Q1548.5,995.89,1556.23,1014.55Z"/><path class="cls-1" d="M1748.23,225.55a12.33,12.33,0,0,0,7.31,7.28,14.37,14.37,0,0,0,10.72-.5q7.44-3.08,11-8.3a21.64,21.64,0,0,0,4-10.11l-8.46-20.43-11.57,4.8Q1740.5,206.89,1748.23,225.55Z"/><path class="cls-1" d="M2111.29,1513.29q-20.79,8.6-13.06,27.26a12.33,12.33,0,0,0,7.31,7.28,14.37,14.37,0,0,0,10.72-.5q7.44-3.07,11-8.3a21.64,21.64,0,0,0,4.05-10.11l-8.46-20.43Z"/><path class="cls-1" d="M1888.23,751.55a12.33,12.33,0,0,0,7.31,7.28,14.37,14.37,0,0,0,10.72-.5q7.44-3.08,11-8.3a21.64,21.64,0,0,0,4-10.11l-8.46-20.43-11.57,4.8Q1880.5,732.89,1888.23,751.55Z"/><polygon class="cls-1" points="2030.26 244.81 1987.03 192.87 1993.31 260.12 2030.26 244.81"/><polygon class="cls-1" points="1731.31 786.12 1768.26 770.81 1725.03 718.87 1731.31 786.12"/><polygon class="cls-1" points="1978.26 1559.81 1935.03 1507.87 1941.31 1575.12 1978.26 1559.81"/><path class="cls-1" d="M1626.23,1277.55a12.33,12.33,0,0,0,7.31,7.28,14.37,14.37,0,0,0,10.72-.5q7.44-3.07,11-8.3a21.64,21.64,0,0,0,4-10.11l-8.46-20.43-11.57,4.8Q1618.5,1258.89,1626.23,1277.55Z"/><polygon class="cls-1" points="1661.31 523.12 1698.26 507.81 1655.03 455.87 1661.31 523.12"/><path class="cls-1" d="M1224.23,1277.55a12.33,12.33,0,0,0,7.31,7.28,14.37,14.37,0,0,0,10.72-.5q7.44-3.07,11-8.3a21.64,21.64,0,0,0,4-10.11l-8.46-20.43-11.57,4.8Q1216.5,1258.89,1224.23,1277.55Z"/><path class="cls-1" d="M2150.23,225.55a12.33,12.33,0,0,0,7.31,7.28,14.37,14.37,0,0,0,10.72-.5q7.44-3.08,11-8.3a21.64,21.64,0,0,0,4.05-10.11l-8.46-20.43-11.57,4.8Q2142.5,206.89,2150.23,225.55Z"/><polygon class="cls-1" points="1329.31 786.12 1366.26 770.81 1323.03 718.87 1329.31 786.12"/><polygon class="cls-1" points="2380.26 1559.81 2337.03 1507.87 2343.31 1575.12 2380.26 1559.81"/><path class="cls-1" d="M1154.23,1014.55a12.33,12.33,0,0,0,7.31,7.28,14.37,14.37,0,0,0,10.72-.5q7.44-3.08,11-8.3a21.64,21.64,0,0,0,4-10.11l-8.46-20.43-11.57,4.8Q1146.5,995.89,1154.23,1014.55Z"/><path class="cls-1" d="M1486.23,751.55a12.33,12.33,0,0,0,7.31,7.28,14.37,14.37,0,0,0,10.72-.5q7.44-3.08,11-8.3a21.64,21.64,0,0,0,4-10.11l-8.46-20.43-11.57,4.8Q1478.5,732.89,1486.23,751.55Z"/><polygon class="cls-1" points="2267.03 1244.87 2273.31 1312.12 2310.26 1296.81 2267.03 1244.87"/><polygon class="cls-2" points="23.5 0 0 0 0 36.32 41.28 19.22 23.5 0"/><path class="cls-2" d="M90.43,1.63C91.66,1.12,92.83.57,94,0H47.46a42.89,42.89,0,0,0,7.75,3.42Q72.37,9.11,90.43,1.63Z"/><polygon class="cls-2" points="322.03 69.44 318.64 33.22 375.44 9.7 398.77 37.65 443.28 19.22 425.5 0 274.14 0 277.75 87.78 322.03 69.44"/><path class="cls-2" d="M492.43,1.63C493.66,1.12,494.83.57,496,0H449.46a42.89,42.89,0,0,0,7.75,3.42Q474.37,9.11,492.43,1.63Z"/><polygon class="cls-2" points="724.03 69.44 720.64 33.22 777.43 9.7 800.77 37.65 845.28 19.22 827.5 0 676.14 0 679.75 87.78 724.03 69.44"/><path class="cls-2" d="M894.43,1.63C895.66,1.12,896.83.57,898,0H851.46a42.89,42.89,0,0,0,7.75,3.42Q876.37,9.11,894.43,1.63Z"/><polygon class="cls-2" points="1126.03 69.44 1122.64 33.22 1179.43 9.7 1202.77 37.65 1247.28 19.22 1229.5 0 1078.14 0 1081.76 87.78 1126.03 69.44"/><path class="cls-2" d="M1296.43,1.63c1.23-.51,2.4-1.06,3.55-1.63h-46.52a42.89,42.89,0,0,0,7.75,3.42Q1278.37,9.11,1296.43,1.63Z"/><polygon class="cls-2" points="1528.03 69.44 1524.64 33.22 1581.43 9.7 1604.77 37.65 1649.28 19.22 1631.5 0 1480.14 0 1483.76 87.78 1528.03 69.44"/><path class="cls-2" d="M1698.43,1.63c1.23-.51,2.4-1.06,3.55-1.63h-46.52a42.89,42.89,0,0,0,7.75,3.42Q1680.37,9.11,1698.43,1.63Z"/><polygon class="cls-2" points="1930.03 69.44 1926.64 33.22 1983.43 9.7 2006.77 37.65 2051.28 19.22 2033.5 0 1882.14 0 1885.76 87.78 1930.03 69.44"/><path class="cls-2" d="M2100.43,1.63c1.23-.51,2.4-1.06,3.55-1.63h-46.52a42.89,42.89,0,0,0,7.75,3.42Q2082.37,9.11,2100.43,1.63Z"/><polygon class="cls-2" points="2332.03 69.44 2328.64 33.22 2385.43 9.7 2408.77 37.65 2453.28 19.22 2435.5 0 2284.14 0 2287.76 87.78 2332.03 69.44"/><path class="cls-2" d="M2502.43,1.63c1.23-.51,2.4-1.06,3.55-1.63h-46.52a42.89,42.89,0,0,0,7.75,3.42Q2484.37,9.11,2502.43,1.63Z"/><polygon class="cls-2" points="2734.03 69.44 2730.64 33.22 2787.43 9.7 2810.77 37.65 2855.28 19.22 2837.5 0 2686.14 0 2689.76 87.78 2734.03 69.44"/><path class="cls-2" d="M2904.43,1.63c1.23-.51,2.4-1.06,3.55-1.63h-46.52a42.89,42.89,0,0,0,7.75,3.42Q2886.37,9.11,2904.43,1.63Z"/><polygon class="cls-2" points="3136.03 69.44 3132.64 33.22 3189.43 9.7 3212.77 37.65 3257.28 19.22 3239.5 0 3088.14 0 3091.76 87.78 3136.03 69.44"/><path class="cls-2" d="M3306.43,1.63c1.23-.51,2.4-1.06,3.55-1.63h-46.52a42.89,42.89,0,0,0,7.75,3.42Q3288.37,9.11,3306.43,1.63Z"/><polygon class="cls-2" points="3538.03 69.44 3534.64 33.22 3591.43 9.7 3614.77 37.65 3659.28 19.22 3641.5 0 3490.14 0 3493.76 87.78 3538.03 69.44"/><path class="cls-2" d="M3708.43,1.63c1.23-.51,2.4-1.06,3.55-1.63h-46.52a42.89,42.89,0,0,0,7.75,3.42Q3690.37,9.11,3708.43,1.63Z"/><polygon class="cls-2" points="66.77 300.65 111.28 282.22 0 161.96 0 220.46 20.26 244.81 0 253.2 0 290.69 43.44 272.7 66.77 300.65"/><path class="cls-2" d="M160.43,264.63q19.73-8.17,25-26.53a48.38,48.38,0,0,0,8.52,9.88l39.79-16.48-.84-2q-9-7.19-16.58-24.67l-23.42-56.56q-9-20.62-28.07-26.68t-43.55,4.06q-24.44,10.13-35.41,28.21t-3.31,36.59L122.33,174q-5.81-14,8.37-19.86,15.23-6.3,22.55,11.36l2.8,6.77-12.28,5.09q-29.28,12.12-40.22,29.11t-2.34,37.76q6.84,16.53,24,22.22T160.43,264.63Zm-7.14-66.34,11.57-4.8,8.46,20.43a21.64,21.64,0,0,1-4,10.11q-3.57,5.22-11,8.3a14.37,14.37,0,0,1-10.72.5,12.33,12.33,0,0,1-7.31-7.28Q132.51,206.89,153.29,198.29Z"/><path class="cls-2" d="M392,332.44l-3.38-36.22,56.78-23.52,23.34,27.95,44.51-18.43L378.56,136.63l-39,16.13,8.16,198Zm30.23-87.63-36.95,15.31L379,192.86Z"/><path class="cls-2" d="M524.33,174q-5.8-14,8.37-19.86,15.22-6.3,22.55,11.36l2.8,6.77-12.28,5.09q-29.28,12.12-40.22,29.11t-2.34,37.76q6.84,16.53,24,22.22t35.22-1.79q19.73-8.17,25-26.53a48.38,48.38,0,0,0,8.52,9.88l39.79-16.48-.84-2q-9-7.19-16.58-24.67l-23.42-56.56q-9-20.62-28.07-26.68t-43.55,4.06q-24.43,10.13-35.41,28.21t-3.31,36.59Zm42.53,19.52,8.46,20.43A21.64,21.64,0,0,1,571.27,224q-3.57,5.22-11,8.3a14.37,14.37,0,0,1-10.72.5,12.33,12.33,0,0,1-7.31-7.28q-7.72-18.66,13.06-27.26Z"/><path class="cls-2" d="M794,332.44l-3.38-36.22,56.78-23.52,23.34,27.95,44.51-18.43L780.56,136.63l-39,16.13,8.16,198Zm30.23-87.63-37,15.31L781,192.86Z"/><path class="cls-2" d="M926.33,174q-5.8-14,8.37-19.86,15.22-6.3,22.55,11.36l2.8,6.77-12.28,5.09q-29.28,12.12-40.22,29.11t-2.34,37.76q6.84,16.53,24,22.22t35.22-1.79q19.73-8.17,25-26.53a48.38,48.38,0,0,0,8.52,9.88l39.79-16.48-.84-2q-9-7.19-16.58-24.67l-23.42-56.56q-9-20.62-28.07-26.68t-43.55,4.06q-24.43,10.13-35.41,28.21t-3.31,36.59Zm42.53,19.52,8.46,20.43A21.64,21.64,0,0,1,973.27,224q-3.57,5.22-11,8.3a14.37,14.37,0,0,1-10.72.5,12.33,12.33,0,0,1-7.31-7.28q-7.72-18.66,13.06-27.26Z"/><path class="cls-2" d="M1196,332.44l-3.38-36.22,56.78-23.52,23.34,27.95,44.51-18.43L1182.56,136.63l-39,16.13,8.16,198Zm30.23-87.63-37,15.31L1183,192.86Z"/><path class="cls-2" d="M1328.33,174q-5.8-14,8.37-19.86,15.22-6.3,22.55,11.36l2.8,6.77-12.28,5.09q-29.28,12.12-40.22,29.11t-2.34,37.76q6.84,16.53,24,22.22t35.22-1.79q19.72-8.17,25-26.53a48.38,48.38,0,0,0,8.52,9.88l39.79-16.48-.84-2q-9-7.19-16.58-24.67l-23.42-56.56q-9-20.62-28.07-26.68t-43.55,4.06q-24.43,10.13-35.41,28.21t-3.31,36.59Zm42.53,19.52,8.46,20.43a21.64,21.64,0,0,1-4,10.11q-3.57,5.22-11,8.3a14.37,14.37,0,0,1-10.72.5,12.33,12.33,0,0,1-7.31-7.28q-7.73-18.66,13.06-27.26Z"/><path class="cls-2" d="M1598,332.44l-3.38-36.22,56.78-23.52,23.34,27.95,44.51-18.43L1584.56,136.63l-39,16.13,8.16,198Zm30.23-87.63-37,15.31L1585,192.86Z"/><path class="cls-2" d="M1730.33,174q-5.8-14,8.37-19.86,15.22-6.3,22.55,11.36l2.8,6.77-12.28,5.09q-29.28,12.12-40.22,29.11t-2.34,37.76q6.84,16.53,24,22.22t35.22-1.79q19.72-8.17,25-26.53a48.38,48.38,0,0,0,8.52,9.88l39.79-16.48-.84-2q-9-7.19-16.58-24.67l-23.42-56.56q-9-20.62-28.07-26.68t-43.55,4.06q-24.43,10.13-35.41,28.21t-3.31,36.59Zm42.53,19.52,8.46,20.43a21.64,21.64,0,0,1-4,10.11q-3.57,5.22-11,8.3a14.37,14.37,0,0,1-10.72.5,12.33,12.33,0,0,1-7.31-7.28q-7.73-18.66,13.06-27.26Z"/><path class="cls-2" d="M2000,332.44l-3.38-36.22,56.78-23.52,23.34,27.95,44.51-18.43L1986.56,136.63l-39,16.13,8.16,198Zm30.23-87.63-37,15.31L1987,192.86Z"/><path class="cls-2" d="M2132.33,174q-5.8-14,8.37-19.86,15.23-6.3,22.55,11.36l2.8,6.77-12.28,5.09q-29.28,12.12-40.22,29.11t-2.34,37.76q6.84,16.53,24,22.22t35.22-1.79q19.72-8.17,25-26.53a48.38,48.38,0,0,0,8.52,9.88l39.79-16.48-.84-2q-9-7.19-16.58-24.67l-23.42-56.56q-9-20.62-28.07-26.68t-43.55,4.06q-24.44,10.13-35.41,28.21t-3.31,36.59Zm42.53,19.52,8.46,20.43a21.64,21.64,0,0,1-4.05,10.11q-3.57,5.22-11,8.3a14.37,14.37,0,0,1-10.72.5,12.33,12.33,0,0,1-7.31-7.28q-7.72-18.66,13.06-27.26Z"/><path class="cls-2" d="M2402,332.44l-3.38-36.22,56.78-23.52,23.34,27.95,44.51-18.43L2388.56,136.63l-39,16.13,8.16,198Zm30.23-87.63-37,15.31L2389,192.86Z"/><path class="cls-2" d="M2534.33,174q-5.8-14,8.37-19.86,15.23-6.3,22.55,11.36l2.8,6.77-12.28,5.09q-29.28,12.12-40.22,29.11t-2.34,37.76q6.84,16.53,24,22.22t35.22-1.79q19.72-8.17,25-26.53a48.38,48.38,0,0,0,8.52,9.88l39.79-16.48-.84-2q-9-7.19-16.58-24.67l-23.42-56.56q-9-20.62-28.07-26.68t-43.55,4.06q-24.44,10.13-35.41,28.21t-3.31,36.59Zm42.53,19.52,8.46,20.43a21.64,21.64,0,0,1-4.05,10.11q-3.57,5.22-11,8.3a14.37,14.37,0,0,1-10.72.5,12.33,12.33,0,0,1-7.31-7.28q-7.72-18.66,13.06-27.26Z"/><path class="cls-2" d="M2804,332.44l-3.38-36.22,56.78-23.52,23.34,27.95,44.51-18.43L2790.56,136.63l-39,16.13,8.16,198Zm30.23-87.63-37,15.31L2791,192.86Z"/><path class="cls-2" d="M2936.33,174q-5.8-14,8.37-19.86,15.23-6.3,22.55,11.36l2.8,6.77-12.28,5.09q-29.28,12.12-40.22,29.11t-2.34,37.76q6.84,16.53,24,22.22t35.22-1.79q19.72-8.17,25-26.53a48.38,48.38,0,0,0,8.52,9.88l39.79-16.48-.84-2q-9-7.19-16.58-24.67l-23.42-56.56q-9-20.62-28.07-26.68t-43.55,4.06q-24.44,10.13-35.41,28.21t-3.31,36.59Zm42.53,19.52,8.46,20.43a21.64,21.64,0,0,1-4.05,10.11q-3.57,5.22-11,8.3a14.37,14.37,0,0,1-10.72.5,12.33,12.33,0,0,1-7.31-7.28q-7.72-18.66,13.06-27.26Z"/><path class="cls-2" d="M3206,332.44l-3.38-36.22,56.78-23.52,23.34,27.95,44.51-18.43L3192.56,136.63l-39,16.13,8.16,198Zm30.23-87.63-37,15.31L3193,192.86Z"/><path class="cls-2" d="M3338.33,174q-5.8-14,8.37-19.86,15.23-6.3,22.55,11.36l2.8,6.77-12.28,5.09q-29.28,12.12-40.22,29.11t-2.34,37.76q6.84,16.53,24,22.22t35.22-1.79q19.72-8.17,25-26.53a48.38,48.38,0,0,0,8.52,9.88l39.79-16.48-.84-2q-9-7.19-16.58-24.67l-23.42-56.56q-9-20.62-28.07-26.68t-43.55,4.06q-24.44,10.13-35.41,28.21t-3.31,36.59Zm42.53,19.52,8.46,20.43a21.64,21.64,0,0,1-4.05,10.11q-3.57,5.22-11,8.3a14.37,14.37,0,0,1-10.72.5,12.33,12.33,0,0,1-7.31-7.28q-7.72-18.66,13.06-27.26Z"/><path class="cls-2" d="M3555.6,152.76l8.16,198L3608,332.44l-3.38-36.22,56.78-23.52,23.34,27.95L3729,282.33v-.42L3594.56,136.63Zm82.66,92.05-37,15.31L3595,192.86Z"/><path class="cls-2" d="M3721.55,206.44q-11,17-2.34,37.76a38.46,38.46,0,0,0,9.79,14.14v-60.9A52.46,52.46,0,0,0,3721.55,206.44Z"/><path class="cls-2" d="M3703.85,153.86q-11,18.09-3.31,36.59L3729,178.66V130.6Q3712.38,139.84,3703.85,153.86Z"/><path class="cls-2" d="M136.77,563.65l44.51-18.43L46.56,399.63l-39,16.13,8.16,198L60,595.44l-3.38-36.22,56.78-23.52ZM53.31,523.12,47,455.86l43.23,51.95Z"/><path class="cls-2" d="M191.26,388.65q-24.43,10.13-35.41,28.21t-3.31,36.59L192.33,437q-5.81-14,8.37-19.86,15.23-6.3,22.55,11.36l2.8,6.77-12.28,5.09q-29.28,12.12-40.22,29.11t-2.34,37.76q6.84,16.53,24,22.22t35.22-1.79q19.73-8.18,25-26.53a48.38,48.38,0,0,0,8.52,9.88l39.79-16.48-.84-2q-9-7.19-16.58-24.67l-23.42-56.56q-9-20.62-28.07-26.68T191.26,388.65Zm43.6,67.84,8.46,20.43a21.64,21.64,0,0,1-4,10.11q-3.57,5.22-11,8.3a14.37,14.37,0,0,1-10.72.5,12.33,12.33,0,0,1-7.31-7.28q-7.72-18.66,13.06-27.26Z"/><path class="cls-2" d="M538.77,563.65l44.51-18.43L448.56,399.63l-39,16.13,8.16,198L462,595.44l-3.38-36.22,56.78-23.52Zm-83.46-40.53L449,455.86l43.23,51.95Z"/><path class="cls-2" d="M593.26,388.65q-24.43,10.13-35.41,28.21t-3.31,36.59L594.33,437q-5.8-14,8.37-19.86,15.22-6.3,22.55,11.36l2.8,6.77-12.28,5.09q-29.28,12.12-40.22,29.11t-2.34,37.76q6.84,16.53,24,22.22t35.22-1.79q19.73-8.18,25-26.53a48.38,48.38,0,0,0,8.52,9.88l39.79-16.48-.84-2q-9-7.19-16.58-24.67l-23.42-56.56q-9-20.62-28.07-26.68T593.26,388.65Zm43.6,67.84,8.46,20.43A21.64,21.64,0,0,1,641.27,487q-3.57,5.22-11,8.3a14.37,14.37,0,0,1-10.72.5,12.33,12.33,0,0,1-7.31-7.28q-7.72-18.66,13.06-27.26Z"/><path class="cls-2" d="M940.77,563.65l44.51-18.43L850.56,399.63l-39,16.13,8.16,198L864,595.44l-3.38-36.22,56.78-23.52Zm-83.46-40.53L851,455.86l43.23,51.95Z"/><path class="cls-2" d="M995.26,388.65q-24.43,10.13-35.41,28.21t-3.31,36.59L996.33,437q-5.8-14,8.37-19.86,15.22-6.3,22.55,11.36l2.8,6.77-12.28,5.09q-29.28,12.12-40.22,29.11t-2.34,37.76q6.84,16.53,24,22.22t35.22-1.79q19.72-8.18,25-26.53a48.38,48.38,0,0,0,8.52,9.88l39.79-16.48-.84-2q-9-7.19-16.58-24.67l-23.42-56.56q-9-20.62-28.07-26.68T995.26,388.65Zm43.6,67.84,8.46,20.43a21.64,21.64,0,0,1-4,10.11q-3.57,5.22-11,8.3a14.37,14.37,0,0,1-10.72.5,12.33,12.33,0,0,1-7.31-7.28q-7.72-18.66,13.06-27.26Z"/><path class="cls-2" d="M1342.77,563.65l44.51-18.43L1252.56,399.63l-39,16.13,8.16,198L1266,595.44l-3.38-36.22,56.78-23.52Zm-83.46-40.53L1253,455.86l43.23,51.95Z"/><path class="cls-2" d="M1397.26,388.65q-24.43,10.13-35.41,28.21t-3.31,36.59L1398.33,437q-5.8-14,8.37-19.86,15.22-6.3,22.55,11.36l2.8,6.77-12.28,5.09q-29.28,12.12-40.22,29.11t-2.34,37.76q6.84,16.53,24,22.22t35.22-1.79q19.72-8.18,25-26.53a48.38,48.38,0,0,0,8.52,9.88l39.79-16.48-.84-2q-9-7.19-16.58-24.67l-23.42-56.56q-9-20.62-28.07-26.68T1397.26,388.65Zm43.6,67.84,8.46,20.43a21.64,21.64,0,0,1-4,10.11q-3.57,5.22-11,8.3a14.37,14.37,0,0,1-10.72.5,12.33,12.33,0,0,1-7.31-7.28q-7.73-18.66,13.06-27.26Z"/><path class="cls-2" d="M1744.77,563.65l44.51-18.43L1654.56,399.63l-39,16.13,8.16,198L1668,595.44l-3.38-36.22,56.78-23.52Zm-83.46-40.53L1655,455.86l43.23,51.95Z"/><path class="cls-2" d="M1799.26,388.65q-24.43,10.13-35.41,28.21t-3.31,36.59L1800.33,437q-5.8-14,8.37-19.86,15.22-6.3,22.55,11.36l2.8,6.77-12.28,5.09q-29.28,12.12-40.22,29.11t-2.34,37.76q6.84,16.53,24,22.22t35.22-1.79q19.72-8.18,25-26.53a48.38,48.38,0,0,0,8.52,9.88l39.79-16.48-.84-2q-9-7.19-16.58-24.67l-23.42-56.56q-9-20.62-28.07-26.68T1799.26,388.65Zm43.6,67.84,8.46,20.43a21.64,21.64,0,0,1-4,10.11q-3.57,5.22-11,8.3a14.37,14.37,0,0,1-10.72.5,12.33,12.33,0,0,1-7.31-7.28q-7.73-18.66,13.06-27.26Z"/><path class="cls-2" d="M2146.77,563.65l44.51-18.43L2056.56,399.63l-39,16.13,8.16,198L2070,595.44l-3.38-36.22,56.78-23.52Zm-83.46-40.53L2057,455.86l43.23,51.95Z"/><path class="cls-2" d="M2201.26,388.65q-24.44,10.13-35.41,28.21t-3.31,36.59L2202.33,437q-5.8-14,8.37-19.86,15.23-6.3,22.55,11.36l2.8,6.77-12.28,5.09q-29.28,12.12-40.22,29.11t-2.34,37.76q6.84,16.53,24,22.22t35.22-1.79q19.72-8.18,25-26.53a48.38,48.38,0,0,0,8.52,9.88l39.79-16.48-.84-2q-9-7.19-16.58-24.67l-23.42-56.56q-9-20.62-28.07-26.68T2201.26,388.65Zm43.6,67.84,8.46,20.43a21.64,21.64,0,0,1-4.05,10.11q-3.57,5.22-11,8.3a14.37,14.37,0,0,1-10.72.5,12.33,12.33,0,0,1-7.31-7.28q-7.72-18.66,13.06-27.26Z"/><path class="cls-2" d="M2548.77,563.65l44.51-18.43L2458.56,399.63l-39,16.13,8.16,198L2472,595.44l-3.38-36.22,56.78-23.52Zm-83.46-40.53L2459,455.86l43.23,51.95Z"/><path class="cls-2" d="M2603.26,388.65q-24.44,10.13-35.41,28.21t-3.31,36.59L2604.33,437q-5.8-14,8.37-19.86,15.23-6.3,22.55,11.36l2.8,6.77-12.28,5.09q-29.28,12.12-40.22,29.11t-2.34,37.76q6.84,16.53,24,22.22t35.22-1.79q19.72-8.18,25-26.53a48.38,48.38,0,0,0,8.52,9.88l39.79-16.48-.84-2q-9-7.19-16.58-24.67l-23.42-56.56q-9-20.62-28.07-26.68T2603.26,388.65Zm43.6,67.84,8.46,20.43a21.64,21.64,0,0,1-4.05,10.11q-3.57,5.22-11,8.3a14.37,14.37,0,0,1-10.72.5,12.33,12.33,0,0,1-7.31-7.28q-7.72-18.66,13.06-27.26Z"/><path class="cls-2" d="M2950.77,563.65l44.51-18.43L2860.56,399.63l-39,16.13,8.16,198L2874,595.44l-3.38-36.22,56.78-23.52Zm-83.46-40.53L2861,455.86l43.23,51.95Z"/><path class="cls-2" d="M3005.26,388.65q-24.44,10.13-35.41,28.21t-3.31,36.59L3006.33,437q-5.8-14,8.37-19.86,15.23-6.3,22.55,11.36l2.8,6.77-12.28,5.09q-29.28,12.12-40.22,29.11t-2.34,37.76q6.84,16.53,24,22.22t35.22-1.79q19.72-8.18,25-26.53a48.38,48.38,0,0,0,8.52,9.88l39.79-16.48-.84-2q-9-7.19-16.58-24.67l-23.42-56.56q-9-20.62-28.07-26.68T3005.26,388.65Zm43.6,67.84,8.46,20.43a21.64,21.64,0,0,1-4.05,10.11q-3.57,5.22-11,8.3a14.37,14.37,0,0,1-10.72.5,12.33,12.33,0,0,1-7.31-7.28q-7.72-18.66,13.06-27.26Z"/><path class="cls-2" d="M3352.77,563.65l44.51-18.43L3262.56,399.63l-39,16.13,8.16,198L3276,595.44l-3.38-36.22,56.78-23.52Zm-83.46-40.53L3263,455.86l43.23,51.95Z"/><path class="cls-2" d="M3407.26,388.65q-24.44,10.13-35.41,28.21t-3.31,36.59L3408.33,437q-5.8-14,8.37-19.86,15.23-6.3,22.55,11.36l2.8,6.77-12.28,5.09q-29.28,12.12-40.22,29.11t-2.34,37.76q6.84,16.53,24,22.22t35.22-1.79q19.72-8.18,25-26.53a48.38,48.38,0,0,0,8.52,9.88l39.79-16.48-.84-2q-9-7.19-16.58-24.67l-23.42-56.56q-9-20.62-28.07-26.68T3407.26,388.65Zm43.6,67.84,8.46,20.43a21.64,21.64,0,0,1-4.05,10.11q-3.57,5.22-11,8.3a14.37,14.37,0,0,1-10.72.5,12.33,12.33,0,0,1-7.31-7.28q-7.72-18.66,13.06-27.26Z"/><path class="cls-2" d="M3625.6,415.76l8.16,198L3678,595.44l-3.38-36.22L3729,536.71V469.27l-64.44-69.64Zm82.66,92.05-37,15.31L3665,455.86Z"/><path class="cls-2" d="M126.65,822.22l56.78-23.52,23.34,27.95,44.51-18.43L116.56,662.63l-39,16.13,8.16,198L130,858.44ZM117,718.86l43.23,51.95-36.95,15.31Z"/><path class="cls-2" d="M261.26,651.65q-24.43,10.13-35.41,28.21t-3.31,36.59L262.33,700q-5.81-14,8.37-19.86,15.23-6.3,22.55,11.36l2.8,6.77-12.28,5.09q-29.28,12.12-40.22,29.11t-2.34,37.76q6.84,16.53,24,22.22t35.22-1.79q19.72-8.18,25-26.53a48.38,48.38,0,0,0,8.52,9.88l39.79-16.48-.84-2q-9-7.18-16.58-24.67l-23.42-56.56q-9-20.62-28.07-26.68T261.26,651.65Zm43.6,67.84,8.46,20.43A21.64,21.64,0,0,1,309.27,750q-3.57,5.22-11,8.3a14.37,14.37,0,0,1-10.72.5,12.33,12.33,0,0,1-7.31-7.28q-7.73-18.66,13.06-27.26Z"/><path class="cls-2" d="M608.77,826.65l44.51-18.43L518.56,662.63l-39,16.13,8.16,198L532,858.44l-3.38-36.22,56.78-23.52Zm-83.46-40.53L519,718.86l43.23,51.95Z"/><path class="cls-2" d="M663.26,651.65q-24.43,10.13-35.41,28.21t-3.31,36.59L664.33,700q-5.8-14,8.37-19.86,15.22-6.3,22.55,11.36l2.8,6.77-12.28,5.09q-29.28,12.12-40.22,29.11t-2.34,37.76q6.84,16.53,24,22.22t35.22-1.79q19.73-8.18,25-26.53a48.38,48.38,0,0,0,8.52,9.88l39.79-16.48-.84-2q-9-7.18-16.58-24.67l-23.42-56.56q-9-20.62-28.07-26.68T663.26,651.65Zm43.6,67.84,8.46,20.43A21.64,21.64,0,0,1,711.27,750q-3.57,5.22-11,8.3a14.37,14.37,0,0,1-10.72.5,12.33,12.33,0,0,1-7.31-7.28q-7.72-18.66,13.06-27.26Z"/><path class="cls-2" d="M1010.77,826.65l44.51-18.43L920.56,662.63l-39,16.13,8.16,198L934,858.44l-3.38-36.22,56.78-23.52Zm-83.46-40.53L921,718.86l43.23,51.95Z"/><path class="cls-2" d="M1065.26,651.65q-24.43,10.13-35.41,28.21t-3.31,36.59L1066.33,700q-5.8-14,8.37-19.86,15.22-6.3,22.55,11.36l2.8,6.77-12.28,5.09q-29.28,12.12-40.22,29.11t-2.34,37.76q6.84,16.53,24,22.22t35.22-1.79q19.72-8.18,25-26.53a48.38,48.38,0,0,0,8.52,9.88l39.79-16.48-.84-2q-9-7.18-16.58-24.67l-23.42-56.56q-9-20.62-28.07-26.68T1065.26,651.65Zm43.6,67.84,8.46,20.43a21.64,21.64,0,0,1-4,10.11q-3.57,5.22-11,8.3a14.37,14.37,0,0,1-10.72.5,12.33,12.33,0,0,1-7.31-7.28q-7.73-18.66,13.06-27.26Z"/><path class="cls-2" d="M1412.77,826.65l44.51-18.43L1322.56,662.63l-39,16.13,8.16,198L1336,858.44l-3.38-36.22,56.78-23.52Zm-83.46-40.53L1323,718.86l43.23,51.95Z"/><path class="cls-2" d="M1467.26,651.65q-24.43,10.13-35.41,28.21t-3.31,36.59L1468.33,700q-5.8-14,8.37-19.86,15.22-6.3,22.55,11.36l2.8,6.77-12.28,5.09q-29.28,12.12-40.22,29.11t-2.34,37.76q6.84,16.53,24,22.22t35.22-1.79q19.72-8.18,25-26.53a48.38,48.38,0,0,0,8.52,9.88l39.79-16.48-.84-2q-9-7.18-16.58-24.67l-23.42-56.56q-9-20.62-28.07-26.68T1467.26,651.65Zm43.6,67.84,8.46,20.43a21.64,21.64,0,0,1-4,10.11q-3.57,5.22-11,8.3a14.37,14.37,0,0,1-10.72.5,12.33,12.33,0,0,1-7.31-7.28q-7.73-18.66,13.06-27.26Z"/><path class="cls-2" d="M1814.77,826.65l44.51-18.43L1724.56,662.63l-39,16.13,8.16,198L1738,858.44l-3.38-36.22,56.78-23.52Zm-83.46-40.53L1725,718.86l43.23,51.95Z"/><path class="cls-2" d="M1869.26,651.65q-24.43,10.13-35.41,28.21t-3.31,36.59L1870.33,700q-5.8-14,8.37-19.86,15.22-6.3,22.55,11.36l2.8,6.77-12.28,5.09q-29.28,12.12-40.22,29.11t-2.34,37.76q6.84,16.53,24,22.22t35.22-1.79q19.72-8.18,25-26.53a48.38,48.38,0,0,0,8.52,9.88l39.79-16.48-.84-2q-9-7.18-16.58-24.67l-23.42-56.56q-9-20.62-28.07-26.68T1869.26,651.65Zm43.6,67.84,8.46,20.43a21.64,21.64,0,0,1-4,10.11q-3.57,5.22-11,8.3a14.37,14.37,0,0,1-10.72.5,12.33,12.33,0,0,1-7.31-7.28q-7.73-18.66,13.06-27.26Z"/><path class="cls-2" d="M2216.77,826.65l44.51-18.43L2126.56,662.63l-39,16.13,8.16,198L2140,858.44l-3.38-36.22,56.78-23.52Zm-83.46-40.53L2127,718.86l43.23,51.95Z"/><path class="cls-2" d="M2271.26,651.65q-24.44,10.13-35.41,28.21t-3.31,36.59L2272.33,700q-5.8-14,8.37-19.86,15.23-6.3,22.55,11.36l2.8,6.77-12.28,5.09q-29.28,12.12-40.22,29.11t-2.34,37.76q6.84,16.53,24,22.22t35.22-1.79q19.72-8.18,25-26.53a48.38,48.38,0,0,0,8.52,9.88l39.79-16.48-.84-2q-9-7.18-16.58-24.67l-23.42-56.56q-9-20.62-28.07-26.68T2271.26,651.65Zm43.6,67.84,8.46,20.43a21.64,21.64,0,0,1-4.05,10.11q-3.57,5.22-11,8.3a14.37,14.37,0,0,1-10.72.5,12.33,12.33,0,0,1-7.31-7.28q-7.72-18.66,13.06-27.26Z"/><path class="cls-2" d="M2618.77,826.65l44.51-18.43L2528.56,662.63l-39,16.13,8.16,198L2542,858.44l-3.38-36.22,56.78-23.52Zm-83.46-40.53L2529,718.86l43.23,51.95Z"/><path class="cls-2" d="M2673.26,651.65q-24.44,10.13-35.41,28.21t-3.31,36.59L2674.33,700q-5.8-14,8.37-19.86,15.23-6.3,22.55,11.36l2.8,6.77-12.28,5.09q-29.28,12.12-40.22,29.11t-2.34,37.76q6.84,16.53,24,22.22t35.22-1.79q19.72-8.18,25-26.53a48.38,48.38,0,0,0,8.52,9.88l39.79-16.48-.84-2q-9-7.18-16.58-24.67l-23.42-56.56q-9-20.62-28.07-26.68T2673.26,651.65Zm43.6,67.84,8.46,20.43a21.64,21.64,0,0,1-4.05,10.11q-3.57,5.22-11,8.3a14.37,14.37,0,0,1-10.72.5,12.33,12.33,0,0,1-7.31-7.28q-7.72-18.66,13.06-27.26Z"/><path class="cls-2" d="M3020.77,826.65l44.51-18.43L2930.56,662.63l-39,16.13,8.16,198L2944,858.44l-3.38-36.22,56.78-23.52Zm-83.46-40.53L2931,718.86l43.23,51.95Z"/><path class="cls-2" d="M3075.26,651.65q-24.44,10.13-35.41,28.21t-3.31,36.59L3076.33,700q-5.8-14,8.37-19.86,15.23-6.3,22.55,11.36l2.8,6.77-12.28,5.09q-29.28,12.12-40.22,29.11t-2.34,37.76q6.84,16.53,24,22.22t35.22-1.79q19.72-8.18,25-26.53a48.38,48.38,0,0,0,8.52,9.88l39.79-16.48-.84-2q-9-7.18-16.58-24.67l-23.42-56.56q-9-20.62-28.07-26.68T3075.26,651.65Zm43.6,67.84,8.46,20.43a21.64,21.64,0,0,1-4.05,10.11q-3.57,5.22-11,8.3a14.37,14.37,0,0,1-10.72.5,12.33,12.33,0,0,1-7.31-7.28q-7.72-18.66,13.06-27.26Z"/><path class="cls-2" d="M3422.77,826.65l44.51-18.43L3332.56,662.63l-39,16.13,8.16,198L3346,858.44l-3.38-36.22,56.78-23.52Zm-83.46-40.53L3333,718.86l43.23,51.95Z"/><path class="cls-2" d="M3477.26,651.65q-24.44,10.13-35.41,28.21t-3.31,36.59L3478.33,700q-5.8-14,8.37-19.86,15.23-6.3,22.55,11.36l2.8,6.77-12.28,5.09q-29.28,12.12-40.22,29.11t-2.34,37.76q6.84,16.53,24,22.22t35.22-1.79q19.72-8.18,25-26.53a48.38,48.38,0,0,0,8.52,9.88l39.79-16.48-.84-2q-9-7.18-16.58-24.67l-23.42-56.56q-9-20.62-28.07-26.68T3477.26,651.65Zm43.6,67.84,8.46,20.43a21.64,21.64,0,0,1-4.05,10.11q-3.57,5.22-11,8.3a14.37,14.37,0,0,1-10.72.5,12.33,12.33,0,0,1-7.31-7.28q-7.72-18.66,13.06-27.26Z"/><polygon class="cls-2" points="3703.76 876.78 3729 866.32 3729 664.93 3695.6 678.76 3703.76 876.78"/><path class="cls-2" d="M41.72,1020.5l-.84-2q-9-7.18-16.58-24.67L.88,937.27C.6,936.62.3,936,0,935.36v99.88A24.43,24.43,0,0,0,1.93,1037Z"/><path class="cls-2" d="M253.43,1061.7l23.34,28,44.51-18.43L186.56,925.63l-39,16.13,8.16,198L200,1121.44l-3.38-36.22ZM187,981.86l43.23,51.95-36.95,15.31Z"/><path class="cls-2" d="M313.55,995.44q-10.95,17-2.34,37.76,6.84,16.53,24,22.22t35.22-1.79q19.72-8.18,25-26.53a48.38,48.38,0,0,0,8.52,9.88l39.79-16.48-.84-2q-9-7.18-16.58-24.67l-23.42-56.56q-9-20.62-28.07-26.68t-43.55,4.06q-24.43,10.13-35.41,28.21t-3.31,36.59L332.33,963q-5.81-14,8.37-19.86,15.23-6.3,22.55,11.36l2.8,6.77-12.28,5.09Q324.49,978.45,313.55,995.44Zm61.31-13,8.46,20.43a21.64,21.64,0,0,1-4.05,10.11q-3.57,5.22-11,8.3a14.37,14.37,0,0,1-10.72.5,12.33,12.33,0,0,1-7.31-7.28q-7.73-18.66,13.06-27.26Z"/><path class="cls-2" d="M655.43,1061.7l23.34,28,44.51-18.43L588.56,925.63l-39,16.13,8.16,198L602,1121.44l-3.38-36.22ZM589,981.86l43.23,51.95-37,15.31Z"/><path class="cls-2" d="M715.55,995.44q-10.95,17-2.34,37.76,6.84,16.53,24,22.22t35.22-1.79q19.73-8.18,25-26.53a48.38,48.38,0,0,0,8.52,9.88l39.79-16.48-.84-2q-9-7.18-16.58-24.67l-23.42-56.56q-9-20.62-28.07-26.68t-43.55,4.06q-24.43,10.13-35.41,28.21t-3.31,36.59L734.33,963q-5.8-14,8.37-19.86,15.22-6.3,22.55,11.36l2.8,6.77-12.28,5.09Q726.49,978.45,715.55,995.44Zm61.31-13,8.46,20.43a21.64,21.64,0,0,1-4.05,10.11q-3.57,5.22-11,8.3a14.37,14.37,0,0,1-10.72.5,12.33,12.33,0,0,1-7.31-7.28q-7.72-18.66,13.06-27.26Z"/><path class="cls-2" d="M1057.43,1061.7l23.34,28,44.51-18.43L990.56,925.63l-39,16.13,8.16,198,44.27-18.34-3.38-36.22ZM991,981.86l43.23,51.95-37,15.31Z"/><path class="cls-2" d="M1117.55,995.44q-11,17-2.34,37.76,6.84,16.53,24,22.22t35.22-1.79q19.72-8.18,25-26.53a48.38,48.38,0,0,0,8.52,9.88l39.79-16.48-.84-2q-9-7.18-16.58-24.67l-23.42-56.56q-9-20.62-28.07-26.68t-43.55,4.06q-24.43,10.13-35.41,28.21t-3.31,36.59L1136.33,963q-5.8-14,8.37-19.86,15.22-6.3,22.55,11.36l2.8,6.77-12.28,5.09Q1128.49,978.45,1117.55,995.44Zm61.31-13,8.46,20.43a21.64,21.64,0,0,1-4,10.11q-3.57,5.22-11,8.3a14.37,14.37,0,0,1-10.72.5,12.33,12.33,0,0,1-7.31-7.28q-7.73-18.66,13.06-27.26Z"/><path class="cls-2" d="M1459.43,1061.7l23.34,28,44.51-18.43L1392.56,925.63l-39,16.13,8.16,198,44.27-18.34-3.38-36.22ZM1393,981.86l43.23,51.95-37,15.31Z"/><path class="cls-2" d="M1519.55,995.44q-11,17-2.34,37.76,6.84,16.53,24,22.22t35.22-1.79q19.72-8.18,25-26.53a48.38,48.38,0,0,0,8.52,9.88l39.79-16.48-.84-2q-9-7.18-16.58-24.67l-23.42-56.56q-9-20.62-28.07-26.68t-43.55,4.06q-24.43,10.13-35.41,28.21t-3.31,36.59L1538.33,963q-5.8-14,8.37-19.86,15.22-6.3,22.55,11.36l2.8,6.77-12.28,5.09Q1530.49,978.45,1519.55,995.44Zm61.31-13,8.46,20.43a21.64,21.64,0,0,1-4,10.11q-3.57,5.22-11,8.3a14.37,14.37,0,0,1-10.72.5,12.33,12.33,0,0,1-7.31-7.28q-7.73-18.66,13.06-27.26Z"/><path class="cls-2" d="M1861.43,1061.7l23.34,28,44.51-18.43L1794.56,925.63l-39,16.13,8.16,198,44.27-18.34-3.38-36.22ZM1795,981.86l43.23,51.95-37,15.31Z"/><path class="cls-2" d="M1921.55,995.44q-11,17-2.34,37.76,6.84,16.53,24,22.22t35.22-1.79q19.72-8.18,25-26.53a48.38,48.38,0,0,0,8.52,9.88l39.79-16.48-.84-2q-9-7.18-16.58-24.67l-23.42-56.56q-9-20.62-28.07-26.68t-43.55,4.06q-24.43,10.13-35.41,28.21t-3.31,36.59L1940.33,963q-5.8-14,8.37-19.86,15.22-6.3,22.55,11.36l2.8,6.77-12.28,5.09Q1932.49,978.45,1921.55,995.44Zm61.31-13,8.46,20.43a21.64,21.64,0,0,1-4,10.11q-3.57,5.22-11,8.3a14.37,14.37,0,0,1-10.72.5,12.33,12.33,0,0,1-7.31-7.28q-7.73-18.66,13.06-27.26Z"/><path class="cls-2" d="M2263.43,1061.7l23.34,28,44.51-18.43L2196.56,925.63l-39,16.13,8.16,198,44.27-18.34-3.38-36.22ZM2197,981.86l43.23,51.95-37,15.31Z"/><path class="cls-2" d="M2323.55,995.44q-11,17-2.34,37.76,6.84,16.53,24,22.22t35.22-1.79q19.72-8.18,25-26.53a48.38,48.38,0,0,0,8.52,9.88l39.79-16.48-.84-2q-9-7.18-16.58-24.67l-23.42-56.56q-9-20.62-28.07-26.68t-43.55,4.06q-24.44,10.13-35.41,28.21t-3.31,36.59L2342.33,963q-5.8-14,8.37-19.86,15.23-6.3,22.55,11.36l2.8,6.77-12.28,5.09Q2334.49,978.45,2323.55,995.44Zm61.31-13,8.46,20.43a21.64,21.64,0,0,1-4.05,10.11q-3.57,5.22-11,8.3a14.37,14.37,0,0,1-10.72.5,12.33,12.33,0,0,1-7.31-7.28q-7.72-18.66,13.06-27.26Z"/><path class="cls-2" d="M2665.43,1061.7l23.34,28,44.51-18.43L2598.56,925.63l-39,16.13,8.16,198,44.27-18.34-3.38-36.22ZM2599,981.86l43.23,51.95-37,15.31Z"/><path class="cls-2" d="M2725.55,995.44q-11,17-2.34,37.76,6.84,16.53,24,22.22t35.22-1.79q19.72-8.18,25-26.53a48.38,48.38,0,0,0,8.52,9.88l39.79-16.48-.84-2q-9-7.18-16.58-24.67l-23.42-56.56q-9-20.62-28.07-26.68t-43.55,4.06q-24.44,10.13-35.41,28.21t-3.31,36.59L2744.33,963q-5.8-14,8.37-19.86,15.23-6.3,22.55,11.36l2.8,6.77-12.28,5.09Q2736.49,978.45,2725.55,995.44Zm61.31-13,8.46,20.43a21.64,21.64,0,0,1-4.05,10.11q-3.57,5.22-11,8.3a14.37,14.37,0,0,1-10.72.5,12.33,12.33,0,0,1-7.31-7.28q-7.72-18.66,13.06-27.26Z"/><path class="cls-2" d="M3067.43,1061.7l23.34,28,44.51-18.43L3000.56,925.63l-39,16.13,8.16,198,44.27-18.34-3.38-36.22ZM3001,981.86l43.23,51.95-37,15.31Z"/><path class="cls-2" d="M3127.55,995.44q-11,17-2.34,37.76,6.84,16.53,24,22.22t35.22-1.79q19.72-8.18,25-26.53a48.38,48.38,0,0,0,8.52,9.88l39.79-16.48-.84-2q-9-7.18-16.58-24.67l-23.42-56.56q-9-20.62-28.07-26.68t-43.55,4.06q-24.44,10.13-35.41,28.21t-3.31,36.59L3146.33,963q-5.8-14,8.37-19.86,15.23-6.3,22.55,11.36l2.8,6.77-12.28,5.09Q3138.49,978.45,3127.55,995.44Zm61.31-13,8.46,20.43a21.64,21.64,0,0,1-4.05,10.11q-3.57,5.22-11,8.3a14.37,14.37,0,0,1-10.72.5,12.33,12.33,0,0,1-7.31-7.28q-7.72-18.66,13.06-27.26Z"/><path class="cls-2" d="M3469.43,1061.7l23.34,28,44.51-18.43L3402.56,925.63l-39,16.13,8.16,198,44.27-18.34-3.38-36.22ZM3403,981.86l43.23,51.95-37,15.31Z"/><path class="cls-2" d="M3547.26,914.65q-24.44,10.13-35.41,28.21t-3.31,36.59L3548.33,963q-5.8-14,8.37-19.86,15.23-6.3,22.55,11.36l2.8,6.77-12.28,5.09q-29.28,12.12-40.22,29.11t-2.34,37.76q6.84,16.53,24,22.22t35.22-1.79q19.72-8.18,25-26.53a48.38,48.38,0,0,0,8.52,9.88l39.79-16.48-.84-2q-9-7.18-16.58-24.67l-23.42-56.56q-9-20.62-28.07-26.68T3547.26,914.65Zm43.6,67.84,8.46,20.43a21.64,21.64,0,0,1-4.05,10.11q-3.57,5.22-11,8.3a14.37,14.37,0,0,1-10.72.5,12.33,12.33,0,0,1-7.31-7.28q-7.72-18.66,13.06-27.26Z"/><path class="cls-2" d="M38.43,1316.63q19.73-8.18,25-26.53a48.38,48.38,0,0,0,8.52,9.88l39.79-16.48-.84-2q-9-7.18-16.58-24.67l-23.42-56.56q-9-20.62-28.07-26.68-18.81-6-42.81,3.77v35.69q2.33-4.29,8.7-6.94,15.23-6.3,22.55,11.36l2.8,6.77-12.28,5.09A127.74,127.74,0,0,0,0,1240.65v76.56c1,.43,2.1.84,3.21,1.21Q20.37,1324.11,38.43,1316.63Zm-7.14-66.34,11.57-4.8,8.46,20.43a21.64,21.64,0,0,1-4,10.11q-3.57,5.22-11,8.3a14.37,14.37,0,0,1-10.72.5,12.33,12.33,0,0,1-7.31-7.28Q10.51,1258.89,31.29,1250.29Z"/><path class="cls-2" d="M0,1225.1v1l.33-.14C.2,1225.68.11,1225.39,0,1225.1Z"/><path class="cls-2" d="M323.43,1324.7l23.34,28,44.51-18.43L256.56,1188.63l-39,16.13,8.16,198L270,1384.44l-3.38-36.22ZM257,1244.86l43.23,52-36.95,15.31Z"/><path class="cls-2" d="M383.55,1258.44q-10.95,17-2.34,37.76,6.84,16.53,24,22.22t35.22-1.79q19.72-8.18,25-26.53a48.38,48.38,0,0,0,8.52,9.88l39.79-16.48-.84-2q-9-7.18-16.58-24.67l-23.42-56.56q-9-20.62-28.07-26.68t-43.55,4.06q-24.43,10.13-35.41,28.21t-3.31,36.59L402.33,1226q-5.81-14,8.37-19.86,15.23-6.3,22.55,11.36l2.8,6.77-12.28,5.09Q394.49,1241.45,383.55,1258.44Zm61.31-13,8.46,20.43a21.64,21.64,0,0,1-4.05,10.11q-3.57,5.22-11,8.3a14.37,14.37,0,0,1-10.72.5,12.33,12.33,0,0,1-7.31-7.28q-7.73-18.66,13.06-27.26Z"/><path class="cls-2" d="M725.43,1324.7l23.34,28,44.51-18.43L658.56,1188.63l-39,16.13,8.16,198L672,1384.44l-3.38-36.22ZM659,1244.86l43.23,52-37,15.31Z"/><path class="cls-2" d="M785.55,1258.44q-10.95,17-2.34,37.76,6.84,16.53,24,22.22t35.22-1.79q19.73-8.18,25-26.53a48.38,48.38,0,0,0,8.52,9.88l39.79-16.48-.84-2q-9-7.18-16.58-24.67l-23.42-56.56q-9-20.62-28.07-26.68t-43.55,4.06q-24.43,10.13-35.41,28.21t-3.31,36.59L804.33,1226q-5.8-14,8.37-19.86,15.22-6.3,22.55,11.36l2.8,6.77-12.28,5.09Q796.49,1241.45,785.55,1258.44Zm61.31-13,8.46,20.43a21.64,21.64,0,0,1-4.05,10.11q-3.57,5.22-11,8.3a14.37,14.37,0,0,1-10.72.5,12.33,12.33,0,0,1-7.31-7.28q-7.72-18.66,13.06-27.26Z"/><path class="cls-2" d="M1127.43,1324.7l23.34,28,44.51-18.43-134.72-145.59-39,16.13,8.16,198,44.27-18.34-3.38-36.22Zm-66.4-79.84,43.23,52-37,15.31Z"/><path class="cls-2" d="M1187.55,1258.44q-11,17-2.34,37.76,6.84,16.53,24,22.22t35.22-1.79q19.72-8.18,25-26.53a48.38,48.38,0,0,0,8.52,9.88l39.79-16.48-.84-2q-9-7.18-16.58-24.67l-23.42-56.56q-9-20.62-28.07-26.68t-43.55,4.06q-24.43,10.13-35.41,28.21t-3.31,36.59l39.79-16.48q-5.8-14,8.37-19.86,15.22-6.3,22.55,11.36l2.8,6.77-12.28,5.09Q1198.49,1241.45,1187.55,1258.44Zm61.31-13,8.46,20.43a21.64,21.64,0,0,1-4,10.11q-3.57,5.22-11,8.3a14.37,14.37,0,0,1-10.72.5,12.33,12.33,0,0,1-7.31-7.28q-7.73-18.66,13.06-27.26Z"/><path class="cls-2" d="M1529.43,1324.7l23.34,28,44.51-18.43-134.72-145.59-39,16.13,8.16,198,44.27-18.34-3.38-36.22Zm-66.4-79.84,43.23,52-37,15.31Z"/><path class="cls-2" d="M1589.55,1258.44q-11,17-2.34,37.76,6.84,16.53,24,22.22t35.22-1.79q19.72-8.18,25-26.53a48.38,48.38,0,0,0,8.52,9.88l39.79-16.48-.84-2q-9-7.18-16.58-24.67l-23.42-56.56q-9-20.62-28.07-26.68t-43.55,4.06q-24.43,10.13-35.41,28.21t-3.31,36.59l39.79-16.48q-5.8-14,8.37-19.86,15.22-6.3,22.55,11.36l2.8,6.77-12.28,5.09Q1600.49,1241.45,1589.55,1258.44Zm61.31-13,8.46,20.43a21.64,21.64,0,0,1-4,10.11q-3.57,5.22-11,8.3a14.37,14.37,0,0,1-10.72.5,12.33,12.33,0,0,1-7.31-7.28q-7.73-18.66,13.06-27.26Z"/><path class="cls-2" d="M1931.43,1324.7l23.34,28,44.51-18.43-134.72-145.59-39,16.13,8.16,198,44.27-18.34-3.38-36.22Zm-66.4-79.84,43.23,52-37,15.31Z"/><path class="cls-2" d="M1991.55,1258.44q-11,17-2.34,37.76,6.84,16.53,24,22.22t35.22-1.79q19.72-8.18,25-26.53a48.38,48.38,0,0,0,8.52,9.88l39.79-16.48-.84-2q-9-7.18-16.58-24.67l-23.42-56.56q-9-20.62-28.07-26.68t-43.55,4.06q-24.43,10.13-35.41,28.21t-3.31,36.59l39.79-16.48q-5.8-14,8.37-19.86,15.22-6.3,22.55,11.36l2.8,6.77-12.28,5.09Q2002.49,1241.45,1991.55,1258.44Zm61.31-13,8.46,20.43a21.64,21.64,0,0,1-4.05,10.11q-3.57,5.22-11,8.3a14.37,14.37,0,0,1-10.72.5,12.33,12.33,0,0,1-7.31-7.28q-7.73-18.66,13.06-27.26Z"/><path class="cls-2" d="M2333.43,1324.7l23.34,28,44.51-18.43-134.72-145.59-39,16.13,8.16,198,44.27-18.34-3.38-36.22Zm-66.4-79.84,43.23,52-37,15.31Z"/><path class="cls-2" d="M2393.55,1258.44q-11,17-2.34,37.76,6.84,16.53,24,22.22t35.22-1.79q19.72-8.18,25-26.53a48.38,48.38,0,0,0,8.52,9.88l39.79-16.48-.84-2q-9-7.18-16.58-24.67l-23.42-56.56q-9-20.62-28.07-26.68t-43.55,4.06q-24.44,10.13-35.41,28.21t-3.31,36.59l39.79-16.48q-5.8-14,8.37-19.86,15.23-6.3,22.55,11.36l2.8,6.77-12.28,5.09Q2404.49,1241.45,2393.55,1258.44Zm61.31-13,8.46,20.43a21.64,21.64,0,0,1-4.05,10.11q-3.57,5.22-11,8.3a14.37,14.37,0,0,1-10.72.5,12.33,12.33,0,0,1-7.31-7.28q-7.72-18.66,13.06-27.26Z"/><path class="cls-2" d="M2735.43,1324.7l23.34,28,44.51-18.43-134.72-145.59-39,16.13,8.16,198,44.27-18.34-3.38-36.22Zm-66.4-79.84,43.23,52-37,15.31Z"/><path class="cls-2" d="M2795.55,1258.44q-11,17-2.34,37.76,6.84,16.53,24,22.22t35.22-1.79q19.72-8.18,25-26.53a48.38,48.38,0,0,0,8.52,9.88l39.79-16.48-.84-2q-9-7.18-16.58-24.67l-23.42-56.56q-9-20.62-28.07-26.68t-43.55,4.06q-24.44,10.13-35.41,28.21t-3.31,36.59l39.79-16.48q-5.8-14,8.37-19.86,15.23-6.3,22.55,11.36l2.8,6.77-12.28,5.09Q2806.49,1241.45,2795.55,1258.44Zm61.31-13,8.46,20.43a21.64,21.64,0,0,1-4.05,10.11q-3.57,5.22-11,8.3a14.37,14.37,0,0,1-10.72.5,12.33,12.33,0,0,1-7.31-7.28q-7.72-18.66,13.06-27.26Z"/><path class="cls-2" d="M3137.43,1324.7l23.34,28,44.51-18.43-134.72-145.59-39,16.13,8.16,198,44.27-18.34-3.38-36.22Zm-66.4-79.84,43.23,52-37,15.31Z"/><path class="cls-2" d="M3197.55,1258.44q-11,17-2.34,37.76,6.84,16.53,24,22.22t35.22-1.79q19.72-8.18,25-26.53a48.38,48.38,0,0,0,8.52,9.88l39.79-16.48-.84-2q-9-7.18-16.58-24.67l-23.42-56.56q-9-20.62-28.07-26.68t-43.55,4.06q-24.44,10.13-35.41,28.21t-3.31,36.59l39.79-16.48q-5.8-14,8.37-19.86,15.23-6.3,22.55,11.36l2.8,6.77-12.28,5.09Q3208.49,1241.45,3197.55,1258.44Zm61.31-13,8.46,20.43a21.64,21.64,0,0,1-4.05,10.11q-3.57,5.22-11,8.3a14.37,14.37,0,0,1-10.72.5,12.33,12.33,0,0,1-7.31-7.28q-7.72-18.66,13.06-27.26Z"/><path class="cls-2" d="M3539.43,1324.7l23.34,28,44.51-18.43-134.72-145.59-39,16.13,8.16,198,44.27-18.34-3.38-36.22Zm-66.4-79.84,43.23,52-37,15.31Z"/><path class="cls-2" d="M3712.3,1256.83l-23.42-56.56q-9-20.62-28.07-26.68t-43.55,4.06q-24.44,10.13-35.41,28.21t-3.31,36.59l39.79-16.48q-5.8-14,8.37-19.86,15.23-6.3,22.55,11.36l2.8,6.77-12.28,5.09q-29.28,12.12-40.22,29.11t-2.34,37.76q6.84,16.53,24,22.22t35.22-1.79q19.72-8.18,25-26.53a48.38,48.38,0,0,0,8.52,9.88L3729,1283.8v-2l-.12-.28Q3719.84,1274.32,3712.3,1256.83Zm-47,19.2q-3.57,5.22-11,8.3a14.37,14.37,0,0,1-10.72.5,12.33,12.33,0,0,1-7.31-7.28q-7.72-18.66,13.06-27.26l11.57-4.8,8.46,20.43A21.64,21.64,0,0,1,3665.27,1276Z"/><polygon class="cls-2" points="59.28 1597.22 0 1533.15 0 1597.96 14.77 1615.65 59.28 1597.22"/><path class="cls-2" d="M164.3,1519.83l-23.42-56.56q-9-20.62-28.07-26.68t-43.55,4.06q-24.44,10.13-35.41,28.21t-3.31,36.59L70.33,1489q-5.81-14,8.37-19.86,15.22-6.3,22.55,11.36l2.8,6.77-12.28,5.09q-29.28,12.12-40.22,29.11t-2.34,37.76q6.84,16.53,24,22.22t35.22-1.79q19.72-8.18,25-26.53a48.38,48.38,0,0,0,8.52,9.88l39.79-16.48-.84-2Q171.83,1537.32,164.3,1519.83Zm-47,19.2q-3.57,5.22-11,8.3a14.37,14.37,0,0,1-10.72.5,12.33,12.33,0,0,1-7.31-7.28q-7.73-18.66,13.06-27.26l11.57-4.8,8.46,20.43A21.64,21.64,0,0,1,117.27,1539Z"/><path class="cls-2" d="M287.6,1467.76l8.16,198L340,1647.44l-3.38-36.22,56.78-23.52,23.34,28,44.51-18.43L326.56,1451.63Zm82.66,92-36.95,15.31L327,1507.86Z"/><path class="cls-2" d="M566.3,1519.83l-23.42-56.56q-9-20.62-28.07-26.68t-43.55,4.06q-24.43,10.13-35.41,28.21t-3.31,36.59L472.33,1489q-5.81-14,8.37-19.86,15.23-6.3,22.55,11.36l2.8,6.77-12.28,5.09q-29.28,12.12-40.22,29.11t-2.34,37.76q6.84,16.53,24,22.22t35.22-1.79q19.73-8.18,25-26.53a48.38,48.38,0,0,0,8.52,9.88l39.79-16.48-.84-2Q573.84,1537.32,566.3,1519.83Zm-47,19.2q-3.57,5.22-11,8.3a14.37,14.37,0,0,1-10.72.5,12.33,12.33,0,0,1-7.31-7.28q-7.73-18.66,13.06-27.26l11.57-4.8,8.46,20.43A21.64,21.64,0,0,1,519.27,1539Z"/><path class="cls-2" d="M689.6,1467.76l8.16,198L742,1647.44l-3.38-36.22,56.78-23.52,23.34,28,44.51-18.43L728.56,1451.63Zm82.66,92-37,15.31L729,1507.86Z"/><path class="cls-2" d="M968.3,1519.83l-23.42-56.56q-9-20.62-28.07-26.68t-43.55,4.06q-24.43,10.13-35.41,28.21t-3.31,36.59L874.33,1489q-5.8-14,8.37-19.86,15.22-6.3,22.55,11.36l2.8,6.77-12.28,5.09q-29.28,12.12-40.22,29.11t-2.34,37.76q6.84,16.53,24,22.22t35.22-1.79q19.73-8.18,25-26.53a48.38,48.38,0,0,0,8.52,9.88l39.79-16.48-.84-2Q975.84,1537.32,968.3,1519.83Zm-47,19.2q-3.57,5.22-11,8.3a14.37,14.37,0,0,1-10.72.5,12.33,12.33,0,0,1-7.31-7.28q-7.72-18.66,13.06-27.26l11.57-4.8,8.46,20.43A21.64,21.64,0,0,1,921.27,1539Z"/><path class="cls-2" d="M1091.6,1467.76l8.16,198,44.27-18.34-3.38-36.22,56.78-23.52,23.34,28,44.51-18.43-134.72-145.59Zm82.66,92-37,15.31-6.28-67.26Z"/><path class="cls-2" d="M1370.3,1519.83l-23.42-56.56q-9-20.62-28.07-26.68t-43.55,4.06q-24.43,10.13-35.41,28.21t-3.31,36.59l39.79-16.48q-5.8-14,8.37-19.86,15.22-6.3,22.55,11.36l2.8,6.77-12.28,5.09q-29.28,12.12-40.22,29.11t-2.34,37.76q6.84,16.53,24,22.22t35.22-1.79q19.72-8.18,25-26.53a48.38,48.38,0,0,0,8.52,9.88l39.79-16.48-.84-2Q1377.83,1537.32,1370.3,1519.83Zm-47,19.2q-3.57,5.22-11,8.3a14.37,14.37,0,0,1-10.72.5,12.33,12.33,0,0,1-7.31-7.28q-7.73-18.66,13.06-27.26l11.57-4.8,8.46,20.43A21.64,21.64,0,0,1,1323.27,1539Z"/><path class="cls-2" d="M1493.6,1467.76l8.16,198,44.27-18.34-3.38-36.22,56.78-23.52,23.34,28,44.51-18.43-134.72-145.59Zm82.66,92-37,15.31-6.28-67.26Z"/><path class="cls-2" d="M1772.3,1519.83l-23.42-56.56q-9-20.62-28.07-26.68t-43.55,4.06q-24.43,10.13-35.41,28.21t-3.31,36.59l39.79-16.48q-5.8-14,8.37-19.86,15.22-6.3,22.55,11.36l2.8,6.77-12.28,5.09q-29.28,12.12-40.22,29.11t-2.34,37.76q6.84,16.53,24,22.22t35.22-1.79q19.72-8.18,25-26.53a48.38,48.38,0,0,0,8.52,9.88l39.79-16.48-.84-2Q1779.83,1537.32,1772.3,1519.83Zm-47,19.2q-3.57,5.22-11,8.3a14.37,14.37,0,0,1-10.72.5,12.33,12.33,0,0,1-7.31-7.28q-7.73-18.66,13.06-27.26l11.57-4.8,8.46,20.43A21.64,21.64,0,0,1,1725.27,1539Z"/><path class="cls-2" d="M1895.6,1467.76l8.16,198,44.27-18.34-3.38-36.22,56.78-23.52,23.34,28,44.51-18.43-134.72-145.59Zm82.66,92-37,15.31-6.28-67.26Z"/><path class="cls-2" d="M2174.3,1519.83l-23.42-56.56q-9-20.62-28.07-26.68t-43.55,4.06q-24.44,10.13-35.41,28.21t-3.31,36.59l39.79-16.48q-5.8-14,8.37-19.86,15.23-6.3,22.55,11.36l2.8,6.77-12.28,5.09q-29.28,12.12-40.22,29.11t-2.34,37.76q6.84,16.53,24,22.22t35.22-1.79q19.72-8.18,25-26.53a48.38,48.38,0,0,0,8.52,9.88l39.79-16.48-.84-2Q2181.84,1537.32,2174.3,1519.83Zm-47,19.2q-3.57,5.22-11,8.3a14.37,14.37,0,0,1-10.72.5,12.33,12.33,0,0,1-7.31-7.28q-7.72-18.66,13.06-27.26l11.57-4.8,8.46,20.43A21.64,21.64,0,0,1,2127.27,1539Z"/><path class="cls-2" d="M2297.6,1467.76l8.16,198,44.27-18.34-3.38-36.22,56.78-23.52,23.34,28,44.51-18.43-134.72-145.59Zm82.66,92-37,15.31-6.28-67.26Z"/><path class="cls-2" d="M2576.3,1519.83l-23.42-56.56q-9-20.62-28.07-26.68t-43.55,4.06q-24.44,10.13-35.41,28.21t-3.31,36.59l39.79-16.48q-5.8-14,8.37-19.86,15.23-6.3,22.55,11.36l2.8,6.77-12.28,5.09q-29.28,12.12-40.22,29.11t-2.34,37.76q6.84,16.53,24,22.22t35.22-1.79q19.72-8.18,25-26.53a48.38,48.38,0,0,0,8.52,9.88l39.79-16.48-.84-2Q2583.84,1537.32,2576.3,1519.83Zm-47,19.2q-3.57,5.22-11,8.3a14.37,14.37,0,0,1-10.72.5,12.33,12.33,0,0,1-7.31-7.28q-7.72-18.66,13.06-27.26l11.57-4.8,8.46,20.43A21.64,21.64,0,0,1,2529.27,1539Z"/><path class="cls-2" d="M2699.6,1467.76l8.16,198,44.27-18.34-3.38-36.22,56.78-23.52,23.34,28,44.51-18.43-134.72-145.59Zm82.66,92-37,15.31-6.28-67.26Z"/><path class="cls-2" d="M2978.3,1519.83l-23.42-56.56q-9-20.62-28.07-26.68t-43.55,4.06q-24.44,10.13-35.41,28.21t-3.31,36.59l39.79-16.48q-5.8-14,8.37-19.86,15.23-6.3,22.55,11.36l2.8,6.77-12.28,5.09q-29.28,12.12-40.22,29.11t-2.34,37.76q6.84,16.53,24,22.22t35.22-1.79q19.72-8.18,25-26.53a48.38,48.38,0,0,0,8.52,9.88l39.79-16.48-.84-2Q2985.84,1537.32,2978.3,1519.83Zm-47,19.2q-3.57,5.22-11,8.3a14.37,14.37,0,0,1-10.72.5,12.33,12.33,0,0,1-7.31-7.28q-7.72-18.66,13.06-27.26l11.57-4.8,8.46,20.43A21.64,21.64,0,0,1,2931.27,1539Z"/><path class="cls-2" d="M3101.6,1467.76l8.16,198,44.27-18.34-3.38-36.22,56.78-23.52,23.34,28,44.51-18.43-134.72-145.59Zm82.66,92-37,15.31-6.28-67.26Z"/><path class="cls-2" d="M3380.3,1519.83l-23.42-56.56q-9-20.62-28.07-26.68t-43.55,4.06q-24.44,10.13-35.41,28.21t-3.31,36.59l39.79-16.48q-5.8-14,8.37-19.86,15.23-6.3,22.55,11.36l2.8,6.77-12.28,5.09q-29.28,12.12-40.22,29.11t-2.34,37.76q6.84,16.53,24,22.22t35.22-1.79q19.72-8.18,25-26.53a48.38,48.38,0,0,0,8.52,9.88l39.79-16.48-.84-2Q3387.84,1537.32,3380.3,1519.83Zm-47,19.2q-3.57,5.22-11,8.3a14.37,14.37,0,0,1-10.72.5,12.33,12.33,0,0,1-7.31-7.28q-7.72-18.66,13.06-27.26l11.57-4.8,8.46,20.43A21.64,21.64,0,0,1,3333.27,1539Z"/><path class="cls-2" d="M3503.6,1467.76l8.16,198,44.27-18.34-3.38-36.22,56.78-23.52,23.34,28,44.51-18.43-134.72-145.59Zm82.66,92-37,15.31-6.28-67.26Z"/><path class="cls-2" d="M3687.26,1440.65q-24.44,10.13-35.41,28.21t-3.31,36.59l39.79-16.48q-5.8-14,8.37-19.86,15.23-6.3,22.55,11.36l2.8,6.77-12.28,5.09q-29.28,12.12-40.22,29.11t-2.34,37.76q6.84,16.53,24,22.22t35.22-1.79c.88-.37,1.73-.75,2.57-1.14v-33.6a31.41,31.41,0,0,1-4.74,2.44,14.37,14.37,0,0,1-10.72.5,12.33,12.33,0,0,1-7.31-7.28q-7.72-18.66,13.06-27.26l9.71-4v-73.2Q3710.55,1431,3687.26,1440.65Z"/><path class="cls-2" d="M149.74,1700H184c-.4-.14-.79-.29-1.2-.41Q167.9,1694.87,149.74,1700Z"/><path class="cls-2" d="M551.74,1700H586c-.4-.14-.79-.29-1.2-.41Q569.9,1694.87,551.74,1700Z"/><path class="cls-2" d="M953.74,1700H988c-.4-.14-.79-.29-1.2-.41Q971.9,1694.87,953.74,1700Z"/><path class="cls-2" d="M1355.74,1700H1390c-.4-.14-.79-.29-1.2-.41Q1373.9,1694.87,1355.74,1700Z"/><path class="cls-2" d="M1757.74,1700H1792c-.4-.14-.79-.29-1.2-.41Q1775.9,1694.87,1757.74,1700Z"/><path class="cls-2" d="M2159.74,1700H2194c-.4-.14-.79-.29-1.2-.41Q2177.9,1694.87,2159.74,1700Z"/><path class="cls-2" d="M2561.74,1700H2596c-.4-.14-.79-.29-1.2-.41Q2579.9,1694.87,2561.74,1700Z"/><path class="cls-2" d="M2963.74,1700H2998c-.4-.14-.79-.29-1.2-.41Q2981.9,1694.87,2963.74,1700Z"/><path class="cls-2" d="M3365.74,1700H3400c-.4-.14-.79-.29-1.2-.41Q3383.9,1694.87,3365.74,1700Z"/></g></g></svg>